<?xml version="1.0" standalone="no"?>
<!DOCTYPE svg PUBLIC "-//W3C//DTD SVG 20010904//EN"
 "http://www.w3.org/TR/2001/REC-SVG-20010904/DTD/svg10.dtd">
<svg version="1.0" xmlns="http://www.w3.org/2000/svg"
 width="32.000000pt" height="32.000000pt" viewBox="0 0 32.000000 32.000000"
 preserveAspectRatio="xMidYMid meet">
<g transform="translate(0.000000,32.000000) scale(0.100000,-0.100000)"
fill="#d8333b" stroke="none">
<path d="M98 297 c-36 -31 -48 -58 -48 -112 0 -48 13 -85 31 -85 5 0 32 16 60
35 28 19 57 35 65 35 32 0 20 21 -33 54 -43 27 -60 33 -70 25 -10 -9 -13 -8
-13 4 0 27 27 26 90 -4 72 -34 85 -35 99 -11 9 16 10 16 16 0 7 -19 -10 -58
-27 -58 -7 0 -7 -4 0 -13 6 -6 12 -28 14 -47 l3 -35 19 47 c24 62 15 111 -29
155 -30 30 -39 33 -91 33 -47 0 -65 -5 -86 -23z"/>
</g>
</svg>
