<svg width="25" height="13" viewBox="0 0 25 13" fill="none" xmlns="http://www.w3.org/2000/svg">
<path d="M4.16667 7.58333C5.3125 7.58333 6.25 6.60833 6.25 5.41667C6.25 4.225 5.3125 3.25 4.16667 3.25C3.02083 3.25 2.08333 4.225 2.08333 5.41667C2.08333 6.60833 3.02083 7.58333 4.16667 7.58333ZM5.34375 8.775C4.95833 8.71 4.57292 8.66667 4.16667 8.66667C3.13542 8.66667 2.15625 8.89417 1.27083 9.295C0.5 9.64167 0 10.4217 0 11.2992V13H4.6875V11.2558C4.6875 10.3567 4.92708 9.51167 5.34375 8.775ZM20.8333 7.58333C21.9792 7.58333 22.9167 6.60833 22.9167 5.41667C22.9167 4.225 21.9792 3.25 20.8333 3.25C19.6875 3.25 18.75 4.225 18.75 5.41667C18.75 6.60833 19.6875 7.58333 20.8333 7.58333ZM25 11.2992C25 10.4217 24.5 9.64167 23.7292 9.295C22.8438 8.89417 21.8646 8.66667 20.8333 8.66667C20.4271 8.66667 20.0417 8.71 19.6562 8.775C20.0729 9.51167 20.3125 10.3567 20.3125 11.2558V13H25V11.2992ZM16.9167 8.2875C15.6979 7.72417 14.1979 7.3125 12.5 7.3125C10.8021 7.3125 9.30208 7.735 8.08333 8.2875C6.95833 8.8075 6.25 9.9775 6.25 11.2558V13H18.75V11.2558C18.75 9.9775 18.0417 8.8075 16.9167 8.2875ZM8.40625 10.8333C8.5 10.5842 8.54167 10.4108 9.35417 10.0858C10.3646 9.67417 11.4271 9.47917 12.5 9.47917C13.5729 9.47917 14.6354 9.67417 15.6458 10.0858C16.4479 10.4108 16.4896 10.5842 16.5938 10.8333H8.40625ZM12.5 2.16667C13.0729 2.16667 13.5417 2.65417 13.5417 3.25C13.5417 3.84583 13.0729 4.33333 12.5 4.33333C11.9271 4.33333 11.4583 3.84583 11.4583 3.25C11.4583 2.65417 11.9271 2.16667 12.5 2.16667ZM12.5 0C10.7708 0 9.375 1.45167 9.375 3.25C9.375 5.04833 10.7708 6.5 12.5 6.5C14.2292 6.5 15.625 5.04833 15.625 3.25C15.625 1.45167 14.2292 0 12.5 0Z" fill="#424C52" fill-opacity="0.87"/>
</svg>
