<svg width="23" height="23" viewBox="0 0 23 23" fill="none" xmlns="http://www.w3.org/2000/svg">
<path d="M22.997 9.44861C22.8797 3.09355 19.1935 0.568224 19.0424 0.467653L18.4713 0.078445L17.8972 0.466648C16.9425 1.11432 15.953 1.44319 14.9574 1.44319C13.3053 1.44319 12.1859 0.554144 12.1379 0.515927L11.495 0L10.8567 0.516933C10.8102 0.554647 9.68932 1.44369 8.03824 1.44369C7.04213 1.44369 6.05311 1.11533 5.09743 0.465642L4.52534 0.0794508L3.94921 0.468659C3.55754 0.737686 0.125501 3.27257 0.00117714 9.41743C-0.0483501 9.95197 1.42787 20.0659 11.4991 23C22.4512 19.7998 23.0526 10.1164 22.997 9.44861ZM2.02927 9.5703L2.03078 9.71361C2.051 8.55353 2.21373 7.15862 2.52909 6.65576H20.4645C20.7814 7.15862 20.9456 8.55705 20.9638 9.72518L20.9709 9.72015C21.0108 10.044 20.6101 19.1486 11.4991 20.9765C3.34225 19.1854 1.99339 9.869 2.02927 9.5703Z" fill="white"/>
</svg>
