<svg width="23" height="28" viewBox="0 0 23 28" fill="none" xmlns="http://www.w3.org/2000/svg">
<path d="M20.9038 9.36862C20.9038 4.19433 16.6937 0 11.4998 0C6.30601 0 2.09584 4.19433 2.09584 9.36862C2.09584 11.6833 2.94032 13.8006 4.33681 15.4354L0 24.7007L4.21362 24.9352L7.10253 28L11.439 18.7357C11.4591 18.7357 11.4795 18.7372 11.4998 18.7372C11.5202 18.7372 11.5406 18.7357 11.561 18.7357L15.8975 28L18.7864 24.9352L23 24.7007L18.6629 15.4354C20.0594 13.8006 20.9038 11.6833 20.9038 9.36862ZM6.66023 25.25L4.92707 23.4109L2.39896 23.2701L5.52109 16.5999C6.72637 17.5902 8.18431 18.2844 9.78299 18.5783L6.66023 25.25ZM11.4998 16.3951C7.61066 16.3951 4.44684 13.2432 4.44684 9.36862C4.44684 5.49407 7.61066 2.34216 11.4998 2.34216C15.389 2.34216 18.5528 5.49407 18.5528 9.36862C18.5528 13.2432 15.389 16.3951 11.4998 16.3951ZM20.6007 23.2704L18.0726 23.4112L16.3395 25.2503L13.2167 18.5789C14.8154 18.285 16.2733 17.5905 17.4786 16.6006L20.6007 23.2704Z" fill="white"/>
<path d="M10.6358 10.7731L8.22231 8.57447L7 9.68794L10.6358 13L16 8.11347L14.7777 7L10.6358 10.7731Z" fill="white"/>
</svg>
