<svg width="28" height="28" viewBox="0 0 28 28" fill="none" xmlns="http://www.w3.org/2000/svg">
<path d="M24.5 12.25H23.625V10.5C23.625 7.94729 22.6109 5.49913 20.8059 3.6941C19.0009 1.88906 16.5527 0.875 14 0.875C11.4473 0.875 8.99913 1.88906 7.1941 3.6941C5.38906 5.49913 4.375 7.94729 4.375 10.5V12.25H3.5C2.80381 12.25 2.13613 12.5266 1.64384 13.0188C1.15156 13.5111 0.875 14.1788 0.875 14.875V18.375C0.875 19.0712 1.15156 19.7389 1.64384 20.2312C2.13613 20.7234 2.80381 21 3.5 21H4.375C4.375 21.6962 4.65156 22.3639 5.14384 22.8562C5.63613 23.3484 6.30381 23.625 7 23.625C7.69619 23.625 8.36387 23.3484 8.85616 22.8562C9.34844 22.3639 9.625 21.6962 9.625 21V12.25C9.62522 11.8299 9.52463 11.416 9.33167 11.0428C9.13871 10.6697 8.85902 10.3483 8.51611 10.1057C8.17319 9.8631 7.77705 9.70633 7.36098 9.64856C6.9449 9.5908 6.52104 9.63373 6.125 9.77375C6.3096 7.82227 7.21536 6.00979 8.66523 4.69061C10.1151 3.37143 12.0048 2.64039 13.965 2.64039C15.9252 2.64039 17.8149 3.37143 19.2648 4.69061C20.7146 6.00979 21.6204 7.82227 21.805 9.77375C21.413 9.64744 20.9968 9.61513 20.59 9.67944C20.1832 9.74374 19.7973 9.90286 19.4634 10.1439C19.1295 10.385 18.857 10.7012 18.6679 11.0671C18.4788 11.433 18.3785 11.8382 18.375 12.25V21C18.3762 21.4193 18.4778 21.8323 18.6713 22.2043C18.8649 22.5762 19.1447 22.8964 19.4875 23.1381C19.8302 23.3797 20.2258 23.5357 20.6412 23.593C21.0566 23.6503 21.4797 23.6073 21.875 23.4675V25.375H19.1625C19.0374 26.0109 18.7679 26.6096 18.375 27.125H22.75C22.9821 27.125 23.2046 27.0328 23.3687 26.8687C23.5328 26.7046 23.625 26.4821 23.625 26.25V21H24.5C25.1962 21 25.8639 20.7234 26.3562 20.2312C26.8484 19.7389 27.125 19.0712 27.125 18.375V14.875C27.125 14.1788 26.8484 13.5111 26.3562 13.0188C25.8639 12.5266 25.1962 12.25 24.5 12.25V12.25Z" fill="#0D44AE"/>
<path d="M14.875 21.875H13.125C12.4288 21.875 11.7611 22.1516 11.2688 22.6438C10.7766 23.1361 10.5 23.8038 10.5 24.5C10.5 25.1962 10.7766 25.8639 11.2688 26.3562C11.7611 26.8484 12.4288 27.125 13.125 27.125H14.875C15.5712 27.125 16.2389 26.8484 16.7312 26.3562C17.2234 25.8639 17.5 25.1962 17.5 24.5C17.5 23.8038 17.2234 23.1361 16.7312 22.6438C16.2389 22.1516 15.5712 21.875 14.875 21.875Z" fill="#0D44AE"/>
</svg>
