<svg width="18" height="23" viewBox="0 0 18 23" fill="none" xmlns="http://www.w3.org/2000/svg">
<path d="M17.0544 22.8748L9.3546 17.1561C9.15197 16.9828 8.84803 16.9828 8.61163 17.1561L0.91182 22.8748C0.540338 23.1521 0 22.9095 0 22.4936V5.23348C0 4.95621 0.236398 4.74825 0.574109 4.74825H17.4259C17.7298 4.74825 18 4.95621 18 5.23348V22.4936C17.9662 22.9441 17.4259 23.1521 17.0544 22.8748ZM17.4934 0H0.472795C0.202627 0 0 0.207953 0 0.485224V2.56475C0 2.84202 0.202627 3.04997 0.472795 3.04997H17.5272C17.7974 3.04997 18 2.84202 18 2.56475V0.485224C17.9662 0.207953 17.7636 0 17.4934 0Z" fill="#0D44AE"/>
</svg>
