<svg width="32" height="32" viewBox="0 0 32 32" fill="none" xmlns="http://www.w3.org/2000/svg">
<path d="M28.8062 3H9.70521C9.54867 2.99987 9.39364 3.03057 9.24897 3.09035C9.1043 3.15014 8.97282 3.23783 8.86204 3.34842C8.75126 3.45902 8.66335 3.59035 8.60332 3.73492C8.5433 3.87949 8.51234 4.03447 8.51221 4.191V9.5L19.5812 12.75L30.0002 9.5V4.191C30.0001 4.03438 29.9691 3.87932 29.909 3.73469C29.8489 3.59005 29.7609 3.45868 29.65 3.34807C29.5391 3.23746 29.4075 3.14979 29.2627 3.09007C29.118 3.03034 28.9628 2.99974 28.8062 3Z" fill="#41A5EE"/>
<path d="M30.0002 9.5H8.51221V16L19.5812 17.95L30.0002 16V9.5Z" fill="#2B7CD3"/>
<path d="M8.51221 16V22.5L18.9302 23.8L30.0002 22.5V16H8.51221Z" fill="#185ABD"/>
<path d="M9.70521 29H28.8052C28.9619 29.0004 29.1172 28.9699 29.2621 28.9102C29.407 28.8506 29.5387 28.7629 29.6497 28.6523C29.7607 28.5417 29.8487 28.4102 29.9089 28.2655C29.969 28.1208 30.0001 27.9657 30.0002 27.809V22.5H8.51221V27.809C8.51234 27.9655 8.5433 28.1205 8.60332 28.2651C8.66335 28.4097 8.75126 28.541 8.86204 28.6516C8.97282 28.7622 9.1043 28.8499 9.24897 28.9096C9.39364 28.9694 9.54867 29.0001 9.70521 29Z" fill="#103F91"/>
<path opacity="0.1" d="M16.4342 8.19995H8.51221V24.45H16.4342C16.7499 24.4484 17.0522 24.3225 17.2757 24.0996C17.4992 23.8766 17.6258 23.5746 17.6282 23.259V9.39095C17.6258 9.07529 17.4992 8.77327 17.2757 8.55034C17.0522 8.32741 16.7499 8.20152 16.4342 8.19995Z" fill="black"/>
<path opacity="0.2" d="M15.7832 8.8501H8.51221V25.1001H15.7832C16.0989 25.0985 16.4012 24.9726 16.6247 24.7497C16.8482 24.5268 16.9748 24.2248 16.9772 23.9091V10.0411C16.9748 9.72544 16.8482 9.42342 16.6247 9.20049C16.4012 8.97756 16.0989 8.85167 15.7832 8.8501Z" fill="black"/>
<path opacity="0.2" d="M15.7832 8.8501H8.51221V23.8001H15.7832C16.0989 23.7985 16.4012 23.6726 16.6247 23.4497C16.8482 23.2268 16.9748 22.9248 16.9772 22.6091V10.0411C16.9748 9.72544 16.8482 9.42342 16.6247 9.20049C16.4012 8.97756 16.0989 8.85167 15.7832 8.8501Z" fill="black"/>
<path opacity="0.2" d="M15.1322 8.8501H8.51221V23.8001H15.1322C15.4479 23.7985 15.7502 23.6726 15.9737 23.4497C16.1972 23.2268 16.3238 22.9248 16.3262 22.6091V10.0411C16.3238 9.72544 16.1972 9.42342 15.9737 9.20049C15.7502 8.97756 15.4479 8.85167 15.1322 8.8501Z" fill="black"/>
<path d="M3.194 8.8501H15.132C15.4482 8.84983 15.7516 8.97513 15.9755 9.19846C16.1994 9.42179 16.3255 9.72487 16.326 10.0411V21.9591C16.3255 22.2753 16.1994 22.5784 15.9755 22.8017C15.7516 23.0251 15.4482 23.1504 15.132 23.1501H3.194C3.03738 23.1504 2.88224 23.1198 2.73746 23.06C2.59267 23.0003 2.46108 22.9126 2.35019 22.802C2.2393 22.6914 2.1513 22.56 2.09121 22.4154C2.03113 22.2708 2.00013 22.1157 2 21.9591V10.0411C2.00013 9.88448 2.03113 9.72942 2.09121 9.58479C2.1513 9.44015 2.2393 9.30877 2.35019 9.19817C2.46108 9.08756 2.59267 8.99989 2.73746 8.94016C2.88224 8.88044 3.03738 8.84984 3.194 8.8501Z" fill="url(#paint0_linear)"/>
<path d="M6.89994 17.9881C6.92294 18.1721 6.93894 18.3321 6.94594 18.4691H6.97394C6.98394 18.3391 7.00594 18.1821 7.03894 17.9991C7.07194 17.8161 7.10094 17.6611 7.12794 17.5341L8.38294 12.1271H10.0069L11.3069 17.4531C11.3827 17.7826 11.4368 18.1166 11.4689 18.4531H11.4909C11.5148 18.1255 11.5599 17.7999 11.6259 17.4781L12.6649 12.1201H14.1419L12.3179 19.8681H10.5909L9.35394 14.7421C9.31794 14.5941 9.27728 14.4015 9.23194 14.1641C9.18661 13.9268 9.15861 13.7535 9.14794 13.6441H9.12694C9.11294 13.7701 9.08494 13.9571 9.04294 14.2051C9.00094 14.4541 8.96794 14.6371 8.94294 14.7571L7.77994 19.8711H6.02394L4.18994 12.1271H5.68994L6.82094 17.5451C6.8547 17.6914 6.88106 17.8392 6.89994 17.9881Z" fill="white"/>
<defs>
<linearGradient id="paint0_linear" x1="4.494" y1="7.9141" x2="13.832" y2="24.0861" gradientUnits="userSpaceOnUse">
<stop stop-color="#2368C4"/>
<stop offset="0.5" stop-color="#1A5DBE"/>
<stop offset="1" stop-color="#1146AC"/>
</linearGradient>
</defs>
</svg>
