<svg width="66" height="96" viewBox="0 0 66 96" fill="none" xmlns="http://www.w3.org/2000/svg">
<path d="M33.0009 52.3435C43.6846 52.3435 52.3455 43.6826 52.3455 32.9989C52.3455 22.3152 43.6846 13.6543 33.0009 13.6543C22.3171 13.6543 13.6562 22.3152 13.6562 32.9989C13.6562 43.6826 22.3171 52.3435 33.0009 52.3435Z" fill="#F2A644"/>
<path d="M0.155029 33.372L5.29052 38.5092L2.51061 45.2211C2.39843 45.492 2.52754 45.8032 2.79738 45.9143L9.50855 48.6924V55.9599C9.50855 56.2531 9.74665 56.4902 10.0387 56.4902H17.3023L20.0811 63.2021C20.1362 63.3323 20.2388 63.436 20.3679 63.4889C20.4981 63.5418 20.6441 63.5418 20.7743 63.4889L27.4875 60.7066L32.6241 65.8447C32.7236 65.9453 32.8569 65.9993 32.9987 65.9993C33.1405 65.9993 33.2738 65.9442 33.3733 65.8447L38.5099 60.7066L45.221 63.4889C45.3522 63.5418 45.4983 63.5418 45.6295 63.4889C45.7575 63.4349 45.8612 63.3323 45.9163 63.2021L48.6941 56.4902H55.9587C56.2508 56.4902 56.4888 56.2531 56.4888 55.9599V48.6924L63.2011 45.9164C63.3312 45.8624 63.4339 45.7598 63.4879 45.6296C63.5418 45.5005 63.5418 45.3544 63.4879 45.2232L60.7079 38.5092L65.8445 33.3731C66.0508 33.1667 66.0508 32.8291 65.8445 32.6238L60.7079 27.4845L63.4879 20.7737C63.5418 20.6456 63.5418 20.4985 63.4879 20.3683C63.4339 20.2382 63.3323 20.1355 63.2011 20.0815L56.4888 17.3002L56.491 10.0359C56.491 9.89511 56.4349 9.7607 56.3354 9.66122C56.2359 9.56068 56.1026 9.50565 55.9608 9.50565H48.6909L45.9131 2.79161C45.8581 2.66249 45.7554 2.55878 45.6263 2.5048C45.4951 2.45083 45.3491 2.45083 45.2179 2.5048L38.5077 5.29032L33.3712 0.153193C33.1659 -0.0510644 32.8283 -0.0510644 32.623 0.153193L27.4875 5.29032L20.7774 2.50798C20.6462 2.454 20.5002 2.454 20.37 2.50798C20.2409 2.56301 20.1372 2.66567 20.0832 2.79478L17.3023 9.50671H10.0387C9.74665 9.50671 9.50855 9.74483 9.50855 10.0369V17.3013L2.79632 20.0815C2.66616 20.1344 2.56351 20.2371 2.50955 20.3673C2.45558 20.4975 2.45558 20.6435 2.50955 20.7737L5.28841 27.4856L0.152912 32.6227C-0.0513226 32.8291 -0.0513217 33.1657 0.155029 33.372ZM32.9976 11.3037C44.9607 11.3037 54.6909 21.0361 54.6909 33.0006C54.6909 44.965 44.9607 54.6963 32.9976 54.6963C21.0346 54.6963 11.3043 44.965 11.3043 33.0006C11.3043 21.0361 21.0346 11.3037 32.9976 11.3037Z" fill="#F2A644"/>
<path d="M49.8171 61.4473L48.6951 64.1798C48.3664 64.964 47.7714 65.5599 47.0121 65.8745C46.238 66.1901 45.4086 66.1847 44.6652 65.8798L39.5049 63.7218L35.5705 67.6922C35.1749 68.0955 34.6776 68.3673 34.1367 68.5032L39.5908 95.1412C39.6428 95.3285 39.7637 95.4836 39.9037 95.5521C39.9832 95.5895 40.067 95.5938 40.1338 95.5703C40.1889 95.5478 40.2313 95.5157 40.2685 95.4622L47.7757 84.5536L60.4846 88.0393C60.5429 88.0575 60.6023 88.0532 60.651 88.035C60.6574 88.0329 60.6638 88.0318 60.6691 88.0275C60.8589 87.9591 60.9331 87.6788 60.8335 87.3995C60.808 87.3321 60.7751 87.2722 60.7391 87.2198L49.8171 61.4473Z" fill="#FF4757"/>
<path d="M21.9219 65.8693C21.1488 66.1882 20.3174 66.185 19.5697 65.8779C18.7966 65.558 18.2017 64.9631 17.8803 64.197L16.752 61.4473L5.82992 87.219C5.79387 87.2714 5.76205 87.3314 5.73554 87.3988C5.63585 87.678 5.71115 87.9573 5.89992 88.0268C5.90522 88.0311 5.91158 88.0322 5.91795 88.0343C5.96673 88.0525 6.02718 88.0568 6.08444 88.0386L18.7934 84.5527L26.3007 95.4619C26.3378 95.5154 26.3802 95.5475 26.4354 95.5699C26.5022 95.5935 26.586 95.5903 26.6655 95.5517C26.8055 95.4843 26.9264 95.3281 26.9783 95.1409L32.4325 68.5014C31.8906 68.3645 31.3932 68.0916 30.9913 67.6808L27.0653 63.7198L21.9219 65.8693Z" fill="#FF4757"/>
</svg>
