<svg width="18" height="18" viewBox="0 0 18 18" fill="none" xmlns="http://www.w3.org/2000/svg">
<path d="M15.0958 2.90408C11.7289 -0.462818 6.27098 -0.462818 2.90408 2.90408C-0.462818 6.27098 -0.462818 11.7289 2.90408 15.0958C6.27098 18.4627 11.7289 18.4627 15.0958 15.0958C18.4627 11.7289 18.462 6.27098 15.0958 2.90408ZM13.6917 6.86822L8.45304 12.1075C8.32372 12.2368 8.14833 12.3094 7.96546 12.3094C7.78259 12.3094 7.6072 12.2368 7.47787 12.1075L4.30822 8.93718C4.24419 8.87315 4.19339 8.79714 4.15874 8.71348C4.12409 8.62982 4.10625 8.54015 4.10625 8.4496C4.10625 8.26672 4.1789 8.09133 4.30822 7.96201C4.43753 7.8327 4.61292 7.76005 4.7958 7.76005C4.97868 7.76005 5.15407 7.8327 5.28339 7.96201L7.96546 10.6441L12.7165 5.89236C12.7806 5.82832 12.8566 5.77754 12.9403 5.74291C13.024 5.70827 13.1137 5.69046 13.2043 5.69049C13.2949 5.69052 13.3846 5.7084 13.4683 5.74309C13.552 5.77779 13.628 5.82862 13.692 5.8927C13.756 5.95678 13.8068 6.03284 13.8415 6.11654C13.8761 6.20024 13.8939 6.28995 13.8939 6.38053C13.8938 6.47112 13.876 6.56081 13.8413 6.64449C13.8066 6.72816 13.7557 6.80419 13.6917 6.86822Z" fill="#8D79F6"/>
</svg>
