<svg width="554" height="413" viewBox="0 0 554 413" fill="none" xmlns="http://www.w3.org/2000/svg">
<path d="M553.526 363.005H0V363.282H553.526V363.005Z" fill="#EBEBEB"/>
<path d="M498.062 380.818H461.396V381.095H498.062V380.818Z" fill="#EBEBEB"/>
<path d="M366.678 383.829H357.058V384.106H366.678V383.829Z" fill="#EBEBEB"/>
<path d="M460.293 370.545H439.049V370.821H460.293V370.545Z" fill="#EBEBEB"/>
<path d="M105.891 372.404H58.0776V372.681H105.891V372.404Z" fill="#EBEBEB"/>
<path d="M122.762 372.404H115.754V372.681H122.762V372.404Z" fill="#EBEBEB"/>
<path d="M249.254 377.076H145.546V377.353H249.254V377.076Z" fill="#EBEBEB"/>
<path d="M262.371 313.631H48.6105C46.9359 313.628 45.3309 312.961 44.1478 311.776C42.9648 310.59 42.3003 308.984 42.3003 307.31V6.82256C42.3149 5.15758 42.9858 3.56558 44.1673 2.39237C45.3488 1.21917 46.9455 0.559493 48.6105 0.556641H262.371C264.048 0.556641 265.656 1.22263 266.841 2.4081C268.027 3.59357 268.693 5.2014 268.693 6.87791V307.31C268.693 308.986 268.027 310.594 266.841 311.78C265.656 312.965 264.048 313.631 262.371 313.631ZM48.6105 0.778052C47.0093 0.780984 45.4747 1.41911 44.3435 2.55235C43.2124 3.6856 42.5771 5.22137 42.5771 6.82256V307.31C42.5771 308.911 43.2124 310.447 44.3435 311.58C45.4747 312.713 47.0093 313.351 48.6105 313.354H262.371C263.973 313.351 265.509 312.714 266.642 311.581C267.775 310.448 268.413 308.912 268.416 307.31V6.82256C268.413 5.22035 267.775 3.68461 266.642 2.55168C265.509 1.41875 263.973 0.780978 262.371 0.778052H48.6105Z" fill="#EBEBEB"/>
<path d="M501.84 313.631H288.068C286.392 313.628 284.786 312.961 283.602 311.776C282.417 310.591 281.75 308.985 281.747 307.31V6.82256C281.764 5.15657 282.438 3.56459 283.621 2.39168C284.804 1.21878 286.402 0.559462 288.068 0.556641H501.84C503.503 0.562402 505.097 1.22336 506.276 2.39626C507.455 3.56916 508.124 5.15949 508.139 6.82256V307.31C508.139 308.982 507.476 310.587 506.295 311.772C505.115 312.957 503.513 313.625 501.84 313.631ZM288.068 0.778052C286.466 0.780978 284.93 1.41875 283.797 2.55168C282.664 3.68461 282.027 5.22035 282.024 6.82256V307.31C282.027 308.912 282.664 310.448 283.797 311.581C284.93 312.714 286.466 313.351 288.068 313.354H501.84C503.442 313.351 504.978 312.714 506.111 311.581C507.244 310.448 507.881 308.912 507.884 307.31V6.82256C507.881 5.22035 507.244 3.68461 506.111 2.55168C504.978 1.41875 503.442 0.780978 501.84 0.778052H288.068Z" fill="#EBEBEB"/>
<path d="M481.223 19.3433H139.431V176.821H481.223V19.3433Z" fill="#E6E6E6"/>
<path d="M490.754 19.3433H141.645V176.821H490.754V19.3433Z" fill="#F0F0F0"/>
<path d="M481.223 176.822H139.431V181.084H485.673L481.223 176.822Z" fill="#E6E6E6"/>
<path d="M495.194 176.822H149.517L151.565 181.084H497.254L495.194 176.822Z" fill="#F0F0F0"/>
<path d="M483.991 169.692V26.4949L148.41 26.4949V169.692L483.991 169.692Z" fill="#FAFAFA"/>
<path d="M199.305 169.681L246.964 26.4839H292.486L244.816 169.681H199.305Z" fill="white"/>
<path d="M254.598 169.681L302.256 26.4839H320.002L272.333 169.681H254.598Z" fill="white"/>
<path d="M483.991 169.692V26.4949H482.187V169.692H483.991Z" fill="#E6E6E6"/>
<path d="M75.2816 363.005H93.7251L93.7251 248.78H75.2816L75.2816 363.005Z" fill="#F0F0F0"/>
<path d="M317.117 248.769H93.7251V362.994H317.117V248.769Z" fill="#F5F5F5"/>
<path d="M318.589 302.361H114.903V350.54H318.589V302.361Z" fill="#FAFAFA"/>
<path d="M318.589 269.294H114.903V294.302H318.589V269.294Z" fill="#FAFAFA"/>
<g style="mix-blend-mode:multiply" opacity="0.7">
<path d="M113.641 350.529H114.903V302.35H113.641V350.529Z" fill="#E6E6E6"/>
</g>
<g style="mix-blend-mode:multiply" opacity="0.7">
<path d="M113.641 294.302H114.903V269.294H113.641V294.302Z" fill="#E6E6E6"/>
</g>
<g style="mix-blend-mode:multiply" opacity="0.7">
<path d="M75.2699 257.968L317.526 257.968V254.758L75.2699 254.758V257.968Z" fill="#E6E6E6"/>
</g>
<path d="M73.1119 256.12H93.7141V246.831H73.1119V256.12Z" fill="#F0F0F0"/>
<path d="M319.276 246.832H93.7251V256.12H319.276V246.832Z" fill="#F5F5F5"/>
<path d="M429.868 334.3C428.304 330.735 427.088 327.027 426.236 323.229C425.33 319.408 424.647 315.538 424.188 311.638C423.272 303.85 423.046 295.997 423.513 288.169C424.47 272.494 427.588 257.026 432.779 242.204L434.772 236.669L436.931 231.222C437.661 229.418 438.469 227.635 439.277 225.864C440.086 224.093 440.849 222.288 441.724 220.55C443.529 217.085 445.167 213.554 447.16 210.21L450.049 205.14L453.16 200.214C461.418 187.085 471.375 175.106 482.774 164.589C481.224 168.164 479.574 171.629 477.88 175.05C476.187 178.471 474.559 181.925 472.943 185.346C469.71 192.199 466.433 198.952 463.4 205.782L461.097 210.897L458.883 216.022C457.378 219.421 456.005 222.875 454.577 226.285L452.529 231.444C451.843 233.171 451.156 234.875 450.558 236.625L448.599 241.806L446.794 247.031C441.94 260.957 438.023 275.192 435.071 289.641C433.598 296.881 432.347 304.199 431.473 311.627C430.493 319.147 429.957 326.717 429.868 334.3Z" fill="#E6E6E6"/>
<path d="M357.179 307.531C358.288 294.765 357.983 281.915 356.271 269.216C356.105 267.677 355.817 266.138 355.562 264.611C355.308 263.083 355.053 261.555 354.754 260.05C354.455 258.544 354.112 257.027 353.78 255.522L353.282 253.308L352.695 251.094C351.19 245.152 349.304 239.313 347.049 233.613C342.493 222.09 336.746 211.074 329.901 200.745L327.31 196.782C326.403 195.497 325.462 194.213 324.576 192.896L323.181 190.97C322.727 190.316 322.218 189.708 321.753 189.054L318.886 185.18C317.978 183.829 316.915 182.622 315.941 181.327C314.967 180.032 313.948 178.759 312.974 177.43C310.926 174.873 308.845 172.316 306.885 169.559C319.019 175.476 329.929 183.626 339.045 193.582C348.442 203.635 355.857 215.373 360.898 228.178C365.957 241.065 368.341 254.847 367.906 268.685C367.672 275.512 366.699 282.293 365.006 288.91C364.14 292.183 363.075 295.399 361.817 298.542C360.577 301.687 359.023 304.698 357.179 307.531Z" fill="#E6E6E6"/>
<path d="M360.511 307.531C360.721 299.671 360.743 291.977 360.566 284.283C360.389 276.589 360.09 269.05 359.459 261.522C358.375 246.59 356.267 231.75 353.149 217.107C352.319 213.487 351.555 209.834 350.536 206.258C349.695 202.638 348.543 199.106 347.536 195.509C345.322 188.423 342.897 181.36 340.097 174.408C334.561 160.437 327.576 147.02 320.004 133.204C326.196 138.117 331.861 143.66 336.908 149.743C342.033 155.842 346.604 162.385 350.569 169.294L353.481 174.53C354.422 176.29 355.23 178.117 356.116 179.921L357.411 182.622C357.843 183.53 358.186 184.471 358.573 185.39L360.843 190.925C362.193 194.689 363.544 198.475 364.651 202.317C365.758 206.158 366.699 210.066 367.64 213.941C370.97 229.556 372.128 245.557 371.083 261.489C370.556 269.39 369.446 277.242 367.762 284.98C366.921 288.833 365.913 292.663 364.729 296.427C363.58 300.221 362.171 303.932 360.511 307.531Z" fill="#E6E6E6"/>
<path d="M425.891 316.974C423.921 312.469 422.116 307.885 420.467 303.28C419.625 300.966 418.839 298.653 418.031 296.339L415.817 289.353C412.861 280.01 410.282 270.533 407.957 261.079C403.362 242.048 399.839 222.773 397.407 203.346C394.983 183.884 393.818 164.285 393.92 144.673C394.038 139.772 394.208 134.864 394.429 129.949C394.54 125.056 395.16 120.151 395.591 115.258C396.023 110.365 396.554 105.494 397.484 100.645C398.414 95.7963 399.234 90.9696 400.274 86.176C402.156 105.782 403.595 124.923 405.566 144.152C407.536 163.382 409.739 182.434 412.12 201.542L419.382 258.976C421.784 278.172 424.153 297.391 425.891 316.974Z" fill="#E6E6E6"/>
<path d="M422.66 313.852C420.335 309.546 418.165 305.151 416.139 300.712C415.11 298.498 414.136 296.284 413.139 294.069L410.294 287.283C406.575 278.272 403.209 269.139 400.054 259.917C393.829 241.454 388.604 222.67 384.4 203.645C380.177 184.57 377.134 165.252 375.289 145.802C374.905 140.931 374.57 136.056 374.282 131.178C373.917 126.318 374.005 121.402 373.917 116.52C373.828 111.638 373.85 106.756 374.227 101.852C374.603 96.9477 374.891 92.0877 375.4 87.2278C379.474 106.413 382.906 125.277 386.825 144.108C390.744 162.939 394.707 181.67 398.847 200.424L411.235 256.773C415.298 275.626 419.35 294.512 422.66 313.852Z" fill="#E6E6E6"/>
<path d="M435.316 338.119C432.504 334.606 429.84 331.001 427.323 327.303C426.05 325.465 424.81 323.595 423.581 321.768L419.994 316.067C417.614 312.269 415.389 308.406 413.153 304.542C412.046 302.616 410.994 300.645 409.92 298.686C408.846 296.726 407.784 294.767 406.754 292.785C398.541 276.927 391.338 260.565 385.189 243.798C378.996 227.012 374.024 209.8 370.31 192.298C369.446 187.87 368.623 183.468 367.841 179.091C367.066 174.663 366.612 170.235 366.048 165.806L365.328 159.164C365.118 156.95 365.04 154.68 364.941 152.444C364.719 147.964 364.62 143.485 364.642 139.005C370.653 155.954 375.712 172.714 381.557 189.287C387.403 205.86 393.004 222.299 399.115 238.717L417.36 288.069C423.482 304.586 429.659 321.093 435.316 338.119Z" fill="#E6E6E6"/>
<path d="M416.251 310.288C413.436 307.256 410.78 304.082 408.291 300.778C405.745 297.523 403.42 294.136 401.051 290.748C398.682 287.361 396.523 283.862 394.409 280.331C393.302 278.571 392.316 276.799 391.276 275.017C390.235 273.235 389.184 271.463 388.243 269.637C386.316 265.994 384.324 262.385 382.53 258.677C380.737 254.968 378.999 251.237 377.249 247.507C375.5 243.776 374.061 239.912 372.456 236.115L371.349 233.248L370.242 230.347L368.116 224.546C365.249 216.797 362.98 208.882 360.677 200.966C359.703 196.959 358.673 192.962 357.754 188.944C357.323 186.929 356.769 184.947 356.415 182.91L355.308 176.821C354.931 174.795 354.61 172.758 354.267 170.722C353.924 168.685 353.525 166.681 353.348 164.611C352.883 160.507 352.47 156.404 352.108 152.3C351.964 150.241 351.71 148.204 351.654 146.134C351.599 144.064 351.533 142.005 351.522 139.945C351.455 135.82 351.503 131.694 351.666 127.569C357.201 143.211 361.419 158.732 366.622 173.998C368.947 181.748 371.703 189.242 374.117 196.881L378.069 208.24C378.722 210.133 379.309 212.048 379.984 213.93L382.054 219.576C384.645 227.159 387.534 234.632 390.235 242.193C391.663 245.946 393.114 249.676 394.475 253.463L398.771 264.743L407.472 287.383C410.45 294.944 413.384 302.538 416.251 310.288Z" fill="#E6E6E6"/>
<path d="M431.486 328.089C429.262 325.058 427.358 321.805 425.807 318.38C424.21 314.961 422.831 311.445 421.678 307.852C419.405 300.641 417.836 293.225 416.995 285.711C416.147 278.189 415.906 270.611 416.275 263.05C416.397 259.264 416.829 255.511 417.194 251.747C417.559 247.983 418.224 244.263 418.943 240.566C421.778 225.803 426.453 211.454 432.859 197.855C439.06 184.286 447.078 171.623 456.694 160.216C455.697 163.825 454.612 167.364 453.439 170.832C452.387 174.364 451.225 177.818 450.118 181.272L446.863 191.634C445.878 195.11 444.649 198.498 443.752 201.952C439.659 215.544 436.248 229.333 433.534 243.267C432.176 250.189 431.091 257.138 430.279 264.113C429.468 271.087 428.914 278.098 428.619 285.147C428.353 292.198 428.397 299.295 428.829 306.435C429.197 313.707 430.084 320.944 431.486 328.089Z" fill="#E6E6E6"/>
<path d="M425.719 307.675C423.822 304.308 422.14 300.825 420.682 297.247C419.176 293.671 417.881 290.029 416.663 286.353C414.285 278.963 412.403 271.422 411.028 263.781C409.652 256.095 408.768 248.33 408.382 240.532C408.305 238.584 408.272 236.625 408.227 234.665C408.183 232.706 408.227 230.746 408.227 228.787C408.227 226.827 408.371 224.868 408.471 222.908C408.571 220.949 408.681 218.989 408.892 217.03C409.102 215.07 409.279 213.111 409.545 211.162L410.397 205.317C410.718 203.369 411.161 201.442 411.504 199.505C411.704 198.542 411.881 197.568 412.091 196.616C412.301 195.664 412.578 194.689 412.833 193.737C414.715 186.062 417.309 178.579 420.582 171.386C427.058 156.994 436.457 143.887 448.369 133.99C447.55 135.772 446.653 137.466 445.823 139.193L444.517 141.717L443.332 144.319L440.941 149.422L438.782 154.592C435.981 161.407 433.579 168.378 431.586 175.471L430.8 178.095L430.147 180.752C429.704 182.523 429.195 184.272 428.796 186.054C428.398 187.837 428.055 189.619 427.634 191.39C427.213 193.162 426.959 194.966 426.616 196.76C426.45 197.645 426.295 198.542 426.106 199.439C425.918 200.335 425.83 201.232 425.686 202.129C425.42 203.933 425.099 205.727 424.889 207.542L424.191 212.956C423.97 214.771 423.848 216.598 423.66 218.414C423.472 220.229 423.317 222.045 423.195 223.871C423.073 225.698 422.918 227.525 422.852 229.351C422.785 231.178 422.619 233.016 422.575 234.886C422.531 236.757 422.497 238.562 422.409 240.422C422.254 247.784 422.342 255.168 422.575 262.563C423.051 277.375 424.224 292.309 425.719 307.675Z" fill="#E6E6E6"/>
<path d="M410.519 292.553L361.875 196.594L363.824 290.693L410.519 292.553Z" fill="#E6E6E6"/>
<path d="M447.96 266.969H350.174L362.972 363.006H435.152L447.96 266.969Z" fill="#F5F5F5"/>
<path d="M386.873 266.969H350.174L362.972 363.006H382.246L386.873 266.969Z" fill="#EBEBEB"/>
<path d="M139.61 232.672H107.871V246.832H139.61V232.672Z" fill="#E0E0E0"/>
<path d="M211.888 246.832H139.608V232.672H211.888C212.39 232.672 212.871 232.872 213.226 233.227C213.581 233.582 213.781 234.063 213.781 234.565V244.95C213.778 245.45 213.577 245.928 213.222 246.281C212.868 246.634 212.388 246.832 211.888 246.832Z" fill="#F0F0F0"/>
<path d="M137.485 234.51H107.871V244.983H137.485V234.51Z" fill="#F0F0F0"/>
<path d="M145.999 222.332H114.26V232.661H145.999V222.332Z" fill="#E6E6E6"/>
<path d="M202.181 232.672H145.998V222.343H202.181C202.683 222.343 203.164 222.543 203.519 222.898C203.874 223.253 204.074 223.734 204.074 224.236V230.823C204.062 231.318 203.858 231.788 203.504 232.134C203.15 232.479 202.675 232.672 202.181 232.672Z" fill="#FAFAFA"/>
<path d="M185.819 222.332H161.74V232.661H185.819V222.332Z" fill="#F5F5F5"/>
<path d="M143.874 224.181H114.26V230.823H143.874V224.181Z" fill="#F5F5F5"/>
<path d="M276.76 413C395.306 413 491.406 407.389 491.406 400.468C491.406 393.547 395.306 387.936 276.76 387.936C158.214 387.936 62.1135 393.547 62.1135 400.468C62.1135 407.389 158.214 413 276.76 413Z" fill="#F5F5F5"/>
<path d="M409.965 106.723C412.699 97.8664 384.724 95.8516 377.982 111.76C368.539 134.045 382.31 146.577 382.31 146.577C390.336 142.27 406.034 141.628 414.614 144.473L409.965 106.723Z" fill="#263238"/>
<path d="M412.122 391.324L403.487 391.656L403.443 382.323L412.067 381.991L412.122 391.324Z" fill="#B55B52"/>
<path d="M403.141 389.874H412.928C413.101 389.875 413.27 389.933 413.408 390.038C413.546 390.144 413.646 390.293 413.691 390.46L415.817 398.21C415.871 398.392 415.881 398.584 415.847 398.771C415.813 398.959 415.734 399.135 415.619 399.286C415.503 399.437 415.354 399.559 415.182 399.641C415.011 399.723 414.823 399.764 414.632 399.76C411.212 399.693 409.551 399.494 405.256 399.494C402.61 399.494 395.79 399.771 392.137 399.771C388.484 399.771 387.82 396.162 389.303 395.841C395.945 394.368 399.732 392.353 401.78 390.427C402.145 390.074 402.633 389.876 403.141 389.874Z" fill="#7572FE"/>
<path opacity="0.2" d="M403.443 382.335L403.465 387.139L412.1 387.183L412.078 381.991L403.443 382.335Z" fill="black"/>
<path d="M383.713 209.59C382.307 220.218 387.101 270.633 391.141 292.619C396.511 321.834 401.592 385.18 401.592 385.18L413.227 384.482C413.227 384.482 414.633 315.037 411.068 291.49C410.836 260.592 411.389 206.479 411.389 206.479L383.713 209.59Z" fill="#263238"/>
<path opacity="0.2" d="M411.126 240.156C411.126 232.318 405.325 226.129 403.875 241.097C402.956 250.629 406.665 266.614 411.015 277.685C411.004 265.629 411.06 252.123 411.126 240.156Z" fill="black"/>
<path d="M463.487 392.287L455.572 392.497L451.841 381.704L459.767 381.493L463.487 392.287Z" fill="#B55B52"/>
<path d="M463.3 389.874H453.536C453.459 389.868 453.381 389.88 453.309 389.908C453.237 389.936 453.173 389.979 453.12 390.035C453.067 390.092 453.027 390.159 453.003 390.232C452.979 390.306 452.972 390.384 452.982 390.46L453.702 398.21C453.776 398.629 453.991 399.011 454.311 399.292C454.631 399.574 455.037 399.739 455.462 399.76C458.85 399.693 460.444 399.494 464.739 399.494C467.385 399.494 470.861 399.771 474.514 399.771C478.168 399.771 477.503 396.162 475.909 395.841C468.747 394.368 467.629 392.353 464.839 390.427C464.393 390.092 463.857 389.899 463.3 389.874Z" fill="#7572FE"/>
<path opacity="0.2" d="M451.852 381.715L453.767 387.272L461.848 387.504L459.778 381.493L451.852 381.715Z" fill="black"/>
<path d="M396.999 208.096C396.999 208.096 414.944 273.799 423.956 293.184C429.812 323.129 450.768 385.888 450.768 385.888L462.946 385.047C462.946 385.047 449.661 321.546 441.491 292.054C437.063 264.655 434.174 218.989 421.564 205.328L396.999 208.096Z" fill="#263238"/>
<path d="M379.605 160.725C379.372 166.26 378.896 171.629 378.243 177.065C377.59 182.501 376.793 187.881 375.741 193.272L375.332 195.298L375.11 196.405C374.972 197.058 374.761 197.693 374.479 198.298C374.052 199.25 373.394 200.08 372.564 200.712C371.532 201.468 370.278 201.857 368.999 201.819C368.17 201.786 367.352 201.606 366.586 201.287C366.057 201.067 365.55 200.801 365.069 200.49C363.679 199.543 362.411 198.427 361.294 197.169C360.287 196.062 359.368 194.955 358.493 193.848C355.158 189.426 352.195 184.734 349.637 179.821C349.368 179.303 349.299 178.704 349.444 178.139C349.588 177.573 349.934 177.08 350.418 176.754C350.902 176.427 351.489 176.289 352.067 176.367C352.646 176.445 353.176 176.733 353.556 177.176C356.966 181.205 360.408 185.335 364.017 188.966C364.903 189.874 365.811 190.748 366.719 191.523C367.472 192.219 368.304 192.825 369.198 193.328C369.342 193.383 369.475 193.449 369.486 193.427C369.497 193.405 369.42 193.35 369.032 193.316C368.432 193.306 367.845 193.493 367.361 193.848C367.053 194.06 366.8 194.34 366.619 194.667C366.553 194.811 366.619 194.667 366.619 194.667L366.752 193.748L367.029 191.789C367.726 186.574 368.28 181.305 368.789 176.035C369.298 170.766 369.686 165.43 370.04 160.227V160.16C370.11 158.893 370.681 157.706 371.627 156.86C372.573 156.014 373.816 155.579 375.082 155.649C376.349 155.719 377.536 156.29 378.382 157.236C379.228 158.182 379.664 159.425 379.594 160.692L379.605 160.725Z" fill="#B55B52"/>
<path d="M375.545 153.33C367.331 157.348 368.615 167.998 368.615 167.998L381.756 177.253C381.756 177.253 386.56 165.684 385.564 160.138C384.535 154.437 381.634 150.396 375.545 153.33Z" fill="#7572FE"/>
<path opacity="0.2" d="M374.185 162.253C376.112 159.219 379.422 159.95 383.274 162.363C384.17 163.139 384.919 164.069 385.488 165.109C384.662 169.275 383.439 173.353 381.835 177.286L372.569 170.766C372.2 167.829 372.766 164.85 374.185 162.253Z" fill="black"/>
<path d="M354.181 178.681L352.222 171.187L345.579 177.165C345.579 177.165 347.982 181.172 351.845 181.715L354.181 178.681Z" fill="#B55B52"/>
<path d="M347.127 168.131L345.776 169.471C344.75 170.475 344.154 171.839 344.115 173.275C344.075 174.711 344.596 176.105 345.566 177.165L352.208 171.186L350.348 168.452C350.174 168.197 349.946 167.984 349.681 167.827C349.416 167.669 349.119 167.572 348.812 167.541C348.505 167.511 348.195 167.548 347.904 167.649C347.613 167.751 347.347 167.916 347.127 168.131Z" fill="#B55B52"/>
<path d="M350.493 168.64C348.815 166.39 347.295 164.026 345.943 161.566C345.522 160.725 344.16 161.898 344.836 163.127C345.511 164.356 346.762 168.363 348.09 169.825C349.419 171.286 350.493 168.64 350.493 168.64Z" fill="#B55B52"/>
<path d="M372.499 159.407C374.835 180.796 381.81 195.708 383.714 209.59L421.508 205.361C419.372 191.468 418.287 182.379 420.944 156.651C421.061 155.532 420.943 154.401 420.599 153.33C420.255 152.259 419.692 151.271 418.945 150.43C418.199 149.588 417.285 148.912 416.263 148.443C415.24 147.974 414.131 147.723 413.006 147.706C410.704 147.706 408.157 147.706 405.589 147.872C399.83 148.099 394.096 148.743 388.43 149.798C384.444 150.617 380.204 151.769 377.171 152.654C375.728 153.061 374.473 153.958 373.62 155.19C372.767 156.423 372.371 157.914 372.499 159.407Z" fill="#7572FE"/>
<path d="M388.431 149.776C388.431 149.776 382.365 156.341 391.409 165.275C394.776 158.471 399.622 152.506 405.591 147.817L388.431 149.776Z" fill="white"/>
<path d="M401.726 128.709C401.261 134.355 401.317 144.595 405.59 147.85C405.59 147.85 396.147 152.987 391.054 162.02C384.412 155.378 388.43 149.776 388.43 149.776C394.42 147.562 393.755 143.056 392.194 138.894L401.726 128.709Z" fill="#B55B52"/>
<path opacity="0.2" d="M400.683 129.827C400.97 133.121 400.551 136.439 399.454 139.558C398.691 141.706 396.056 142.934 393.266 143.455C393.132 141.887 392.759 140.348 392.159 138.894L400.683 129.827Z" fill="black"/>
<path d="M409.744 120.816C408.106 129.96 407.596 133.868 402.393 138.052C394.555 144.341 383.684 140.322 382.566 130.868C381.558 122.354 384.426 108.826 393.869 106.214C395.95 105.629 398.145 105.586 400.247 106.089C402.349 106.592 404.288 107.624 405.879 109.088C407.469 110.551 408.659 112.396 409.336 114.449C410.013 116.502 410.153 118.693 409.744 120.816Z" fill="#B55B52"/>
<path d="M402.689 113.476C400.475 118.369 402.413 126.672 409.431 126.163C403.752 132.639 405.103 146.842 405.103 146.842C408.654 147.096 412.203 146.327 415.332 144.628C415.332 144.628 413.118 131.2 415.454 121.779C417.358 114.118 417.081 99.2501 400.475 102.483C398.538 102.859 385.917 106.169 384.644 112.8C384.545 113.398 398.117 117.328 402.689 113.476Z" fill="#263238"/>
<path d="M411.821 126.008C411.625 126.876 411.258 127.696 410.743 128.422C410.229 129.147 409.575 129.764 408.821 130.237C406.795 131.488 405.124 129.838 405.135 127.58C405.135 125.543 406.242 122.443 408.511 122.111C409.015 122.045 409.528 122.106 410.002 122.289C410.477 122.472 410.898 122.771 411.227 123.159C411.556 123.546 411.783 124.01 411.887 124.508C411.99 125.005 411.968 125.521 411.821 126.008Z" fill="#B55B52"/>
<path opacity="0.2" d="M415 162.784C414.854 164.673 415.207 166.567 416.023 168.276C416.839 169.986 418.09 171.452 419.65 172.526C419.849 168.696 420.181 164.4 420.668 159.463C418.742 157.393 415.454 159.197 415 162.784Z" fill="black"/>
<path d="M421.787 203.07L423.868 206.258C424.034 206.513 423.757 206.811 423.315 206.856L383.682 211.284C383.339 211.284 383.04 211.184 382.996 210.974L382.265 207.653C382.265 207.42 382.498 207.188 382.863 207.144L421.145 202.848C421.262 202.826 421.383 202.835 421.495 202.874C421.608 202.913 421.708 202.98 421.787 203.07Z" fill="#263238"/>
<path d="M417.17 207.93L418.199 207.808C418.399 207.808 418.543 207.664 418.52 207.542L417.546 203.191C417.546 203.07 417.325 202.981 417.115 203.003L416.096 203.125C415.886 203.125 415.742 203.269 415.775 203.391L416.749 207.73C416.771 207.863 416.971 207.952 417.17 207.93Z" fill="#7572FE"/>
<path d="M386.651 211.35L387.669 211.24C387.88 211.24 388.024 211.085 387.99 210.963L387.016 206.623C387.016 206.49 386.795 206.413 386.596 206.435L385.566 206.546C385.367 206.546 385.223 206.69 385.245 206.823L386.219 211.162C386.252 211.284 386.441 211.372 386.651 211.35Z" fill="#7572FE"/>
<path d="M401.857 209.634L402.886 209.524C403.086 209.524 403.23 209.38 403.207 209.247L402.233 204.907C402.233 204.786 402.012 204.697 401.813 204.719L400.783 204.83C400.584 204.83 400.44 204.974 400.462 205.107L401.436 209.446C401.514 209.579 401.702 209.657 401.857 209.634Z" fill="#7572FE"/>
<path d="M394.109 121.746C394.021 122.498 393.556 123.063 393.069 123.008C392.582 122.952 392.249 122.288 392.338 121.546C392.427 120.805 392.892 120.229 393.39 120.284C393.888 120.34 394.231 121.004 394.109 121.746Z" fill="#263238"/>
<path d="M385.66 120.749C385.572 121.502 385.107 122.067 384.62 122.011C384.133 121.956 383.801 121.292 383.889 120.55C383.978 119.808 384.443 119.233 384.996 119.288C385.55 119.343 385.749 120.007 385.66 120.749Z" fill="#263238"/>
<path d="M385.152 119.354L383.402 118.624C383.402 118.624 384.144 120.118 385.152 119.354Z" fill="#263238"/>
<path d="M387.756 122.332C386.884 123.949 385.797 125.438 384.523 126.76C384.872 127.079 385.288 127.316 385.739 127.456C386.191 127.595 386.668 127.634 387.136 127.569L387.756 122.332Z" fill="#A02724"/>
<path d="M389.239 130.215C389.204 130.19 389.176 130.157 389.158 130.118C389.14 130.079 389.134 130.036 389.139 129.993C389.143 129.964 389.153 129.936 389.168 129.91C389.183 129.885 389.203 129.863 389.227 129.846C389.251 129.828 389.278 129.815 389.306 129.808C389.335 129.801 389.365 129.8 389.394 129.805C390.319 129.967 391.27 129.908 392.169 129.633C393.067 129.358 393.888 128.874 394.564 128.222C394.583 128.2 394.607 128.182 394.634 128.17C394.66 128.157 394.689 128.15 394.718 128.148C394.747 128.147 394.777 128.151 394.804 128.161C394.832 128.171 394.858 128.186 394.879 128.205C394.901 128.225 394.919 128.249 394.932 128.275C394.944 128.302 394.951 128.33 394.953 128.36C394.955 128.389 394.95 128.418 394.941 128.446C394.931 128.474 394.916 128.499 394.896 128.521C394.178 129.229 393.3 129.755 392.338 130.055C391.375 130.355 390.354 130.422 389.361 130.248L389.239 130.215Z" fill="#263238"/>
<path d="M398.171 117.804C398.105 117.77 398.05 117.716 398.016 117.649C397.746 117.161 397.365 116.743 396.904 116.43C396.442 116.116 395.913 115.916 395.36 115.845C395.242 115.845 395.129 115.798 395.046 115.715C394.963 115.632 394.917 115.52 394.917 115.402C394.917 115.285 394.963 115.172 395.046 115.089C395.129 115.006 395.242 114.959 395.36 114.959C396.058 115.034 396.728 115.274 397.315 115.659C397.902 116.044 398.389 116.563 398.736 117.173C398.766 117.223 398.786 117.279 398.794 117.337C398.803 117.395 398.8 117.453 398.785 117.51C398.771 117.567 398.745 117.62 398.71 117.667C398.675 117.713 398.631 117.753 398.581 117.782C398.519 117.816 398.45 117.836 398.379 117.84C398.308 117.843 398.237 117.831 398.171 117.804Z" fill="#263238"/>
<path d="M383.424 116.343L383.358 116.288C383.316 116.247 383.283 116.199 383.261 116.146C383.238 116.093 383.227 116.036 383.227 115.978C383.227 115.92 383.238 115.863 383.261 115.809C383.283 115.756 383.316 115.708 383.358 115.668C383.802 115.121 384.37 114.688 385.015 114.405C385.66 114.122 386.363 113.997 387.066 114.04C387.184 114.055 387.291 114.116 387.363 114.209C387.436 114.303 387.469 114.421 387.454 114.539C387.439 114.656 387.378 114.763 387.285 114.835C387.192 114.908 387.073 114.941 386.956 114.926C386.399 114.895 385.842 114.998 385.333 115.228C384.825 115.457 384.379 115.805 384.033 116.243C383.963 116.334 383.861 116.394 383.748 116.413C383.635 116.431 383.52 116.406 383.424 116.343Z" fill="#263238"/>
<path d="M420.513 153.54C423.768 156.861 426.857 160.182 429.868 163.692C431.373 165.441 432.89 167.201 434.296 169.061C435.827 170.975 437.243 172.979 438.536 175.061C438.947 175.709 439.316 176.382 439.643 177.076C439.878 177.611 440.063 178.167 440.197 178.737C440.247 178.967 440.284 179.2 440.307 179.434V179.866C440.318 180.057 440.318 180.25 440.307 180.441V180.74V180.873V180.984L440.252 181.205C439.964 182.401 439.754 183.608 439.377 184.781C438.715 187.173 437.844 189.503 436.776 191.744C435.68 194.019 434.324 196.159 432.735 198.121C431.92 199.116 431.024 200.041 430.056 200.889C429.569 201.32 429.071 201.73 428.528 202.129C428.263 202.317 427.975 202.505 427.687 202.682C427.399 202.859 427.133 203.014 426.669 203.258L424.266 199.173C424.266 199.117 424.51 198.918 424.632 198.763L425.096 198.243C425.406 197.877 425.705 197.49 425.993 197.136C426.563 196.318 427.084 195.468 427.554 194.59C428.498 192.817 429.283 190.965 429.901 189.054C430.178 188.058 430.488 187.095 430.698 186.065C430.909 185.036 431.141 184.05 431.307 183.032C431.473 182.013 431.595 180.962 431.75 179.932V179.733V179.644V179.844C431.75 179.965 431.75 180.131 431.75 180.209C431.744 180.279 431.744 180.349 431.75 180.419V180.696C431.75 180.917 431.75 180.851 431.75 180.762C431.75 180.674 431.396 180.187 431.141 179.821C430.034 178.305 428.639 176.589 427.222 174.961C425.805 173.334 424.322 171.64 422.794 170.013L413.661 160.204L420.513 153.54Z" fill="#B55B52"/>
<path d="M429.059 201.774L422.417 207.941L418.11 200.933C418.11 200.933 422.251 197.955 425.97 199.073L429.059 201.774Z" fill="#B55B52"/>
<path d="M417.358 209.236L415.144 206.922C414.723 206.478 414.495 205.887 414.507 205.276C414.52 204.664 414.772 204.083 415.21 203.656L418.045 200.878L422.34 207.941L420.491 209.457C420.035 209.816 419.461 209.993 418.882 209.952C418.303 209.911 417.759 209.656 417.358 209.236Z" fill="#B55B52"/>
<path d="M405.537 153.23C405.028 157.182 415.556 168.729 415.556 168.729L425.409 156.396C425.409 156.396 420.815 149.953 417.305 148.492C411.67 146.112 406.113 148.724 405.537 153.23Z" fill="#7572FE"/>
<path d="M393.633 120.351L391.884 119.62C391.884 119.62 392.648 121.137 393.633 120.351Z" fill="#263238"/>
<path d="M142.384 112.601C138.299 117.129 133.218 130.702 148.96 127.978C164.702 125.255 142.384 112.601 142.384 112.601Z" fill="#263238"/>
<path d="M147.4 100.125C148.363 94.1025 137.348 80.2754 133.008 88.8108C127.683 99.0842 147.4 100.125 147.4 100.125Z" fill="#263238"/>
<path d="M147.433 103.778C152.426 100.28 154.662 82.7442 145.485 85.5561C134.425 88.9326 147.433 103.778 147.433 103.778Z" fill="#263238"/>
<path d="M172.695 157.492C172.595 158.422 172.506 159.585 172.429 160.648C172.351 161.71 172.307 162.862 172.274 163.969C172.274 166.183 172.141 168.397 172.207 170.556C172.3 174.929 172.696 179.29 173.392 183.608C173.547 184.715 173.791 185.733 173.99 186.796L174.056 187.161C174.054 187.202 174.054 187.243 174.056 187.283C174.056 187.283 174.056 187.283 174.056 187.383C174.056 187.482 174.588 187.748 175.34 187.826C176.219 187.929 177.107 187.929 177.986 187.826C182.241 187.138 186.402 185.961 190.385 184.316L192.533 188.136C191.503 188.877 190.518 189.497 189.477 190.117C188.437 190.737 187.407 191.335 186.311 191.866C184.079 193.024 181.73 193.94 179.304 194.601C177.93 194.968 176.518 195.172 175.097 195.21C173.24 195.263 171.406 194.791 169.805 193.848C168.842 193.251 168.022 192.45 167.403 191.501C167.108 191.055 166.86 190.58 166.661 190.084C166.56 189.853 166.471 189.616 166.395 189.376L166.285 189.021L166.229 188.8C165.93 187.626 165.576 186.442 165.322 185.257C164.261 180.527 163.627 175.71 163.429 170.866C163.307 168.463 163.262 166.072 163.351 163.67C163.351 162.463 163.451 161.267 163.539 160.061C163.628 158.854 163.739 157.703 163.916 156.352L172.695 157.492Z" fill="#FFB573"/>
<path d="M171.59 147.053C174.911 148.559 174.911 163.448 174.911 163.448L159.877 170.268C159.877 170.268 157.309 152.168 160.686 148.769C164.062 145.37 166.73 144.861 171.59 147.053Z" fill="#263238"/>
<path opacity="0.2" d="M170.76 150.23L173.018 164.345L164.859 168.031L170.76 150.23Z" fill="black"/>
<path d="M188.459 186.176L194.736 179.301L196.707 186.874C196.707 186.874 192.688 190.715 189.267 189.608L188.459 186.176Z" fill="#FFB573"/>
<path d="M198.779 179.08L199.709 182.833C199.779 183.128 199.771 183.436 199.685 183.728C199.6 184.019 199.44 184.283 199.222 184.493L196.709 186.874L194.738 179.301L195.956 178.194C196.178 177.994 196.448 177.854 196.74 177.79C197.032 177.727 197.336 177.74 197.621 177.829C197.906 177.919 198.163 178.081 198.366 178.301C198.569 178.52 198.712 178.789 198.779 179.08Z" fill="#FFB573"/>
<path d="M173.483 150.485C173.062 155.544 170.527 167.876 160.198 197.767L125.547 191.778C128.415 178.493 129.92 170.013 128.592 143.532C128.56 142.935 128.651 142.337 128.86 141.776C129.069 141.215 129.391 140.703 129.807 140.272C130.222 139.841 130.722 139.501 131.275 139.271C131.827 139.041 132.422 138.928 133.02 138.938C136.494 138.97 139.964 139.188 143.415 139.591C148.715 140.109 153.972 141.001 159.146 142.259C163.375 143.366 167.903 144.983 170.638 145.979C171.544 146.308 172.316 146.93 172.831 147.745C173.346 148.561 173.575 149.524 173.483 150.485Z" fill="#263238"/>
<path opacity="0.2" d="M129.247 150.939C132.247 152.267 134.561 156.186 133.122 162.43C132.434 165.263 130.956 167.843 128.86 169.869C129.148 164.921 129.192 159.131 128.959 151.669L129.247 150.939Z" fill="black"/>
<path d="M148.023 122.144C148.145 127.381 147.536 136.824 143.407 139.591C143.407 139.591 146.407 143.344 154.787 149.81C162.78 145.381 159.149 142.304 159.149 142.304C153.736 139.99 154.599 135.827 156.26 132.063L148.023 122.144Z" fill="#FFB573"/>
<path opacity="0.2" d="M151.389 126.196L156.26 132.052C155.859 132.926 155.537 133.834 155.297 134.765C153.193 134.078 150.116 131.654 150.06 129.229C150.027 128.089 151.112 126.683 151.389 126.196Z" fill="black"/>
<path d="M143.914 112.502C144.39 121.081 144.401 124.679 148.707 129.108C155.184 135.75 165.612 133.314 167.715 124.768C169.608 117.019 168.512 104.332 160.143 100.867C158.297 100.092 156.283 99.8035 154.293 100.028C152.304 100.253 150.405 100.983 148.778 102.15C147.15 103.316 145.849 104.88 144.998 106.692C144.146 108.504 143.773 110.504 143.914 112.502Z" fill="#FFB573"/>
<path d="M143.834 118.247C147.531 118.436 151.771 111.306 150.055 108.085C151.993 107.653 160.251 108.583 160.218 105.539C163.949 108.14 172.141 108.273 173.503 104.741C174.864 101.21 171.765 97.922 167.735 99.2062C164.823 91.7004 150.819 90.1505 145.594 97.2799C138.974 97.1138 124.593 107.941 143.834 118.247Z" fill="#263238"/>
<path d="M158.75 114.871C158.75 115.568 159.105 116.133 159.569 116.133C160.034 116.133 160.389 115.579 160.4 114.882C160.411 114.185 160.034 113.609 159.581 113.609C159.127 113.609 158.75 114.173 158.75 114.871Z" fill="#263238"/>
<path d="M166.628 114.915C166.628 115.613 166.993 116.177 167.447 116.188C167.901 116.199 168.277 115.624 168.289 114.926C168.3 114.229 167.923 113.664 167.469 113.653C167.015 113.642 166.639 114.218 166.628 114.915Z" fill="#263238"/>
<path d="M167.271 113.697L168.942 113.221C168.942 113.221 168.079 114.583 167.271 113.697Z" fill="#263238"/>
<path d="M164.195 116.155C164.806 117.737 165.633 119.227 166.652 120.583C166.295 120.835 165.887 121.006 165.457 121.085C165.027 121.163 164.585 121.147 164.161 121.037L164.195 116.155Z" fill="#ED893E"/>
<path d="M160.099 123.794C160.439 123.849 160.784 123.875 161.128 123.871C161.156 123.873 161.183 123.869 161.208 123.859C161.234 123.85 161.257 123.835 161.277 123.817C161.296 123.798 161.312 123.776 161.323 123.751C161.333 123.726 161.339 123.699 161.339 123.672C161.336 123.617 161.313 123.565 161.274 123.526C161.235 123.487 161.183 123.464 161.128 123.462C160.258 123.472 159.397 123.277 158.616 122.892C157.835 122.507 157.156 121.944 156.634 121.247C156.62 121.223 156.602 121.202 156.58 121.185C156.557 121.168 156.532 121.157 156.505 121.15C156.478 121.144 156.449 121.144 156.422 121.149C156.395 121.154 156.369 121.165 156.346 121.181C156.309 121.22 156.289 121.271 156.289 121.325C156.289 121.378 156.309 121.43 156.346 121.469C156.788 122.084 157.347 122.606 157.991 123.004C158.635 123.403 159.351 123.672 160.099 123.794Z" fill="#263238"/>
<path d="M158.937 124.967C159.23 125.143 159.538 125.294 159.856 125.421C159.88 125.432 159.907 125.438 159.934 125.438C159.961 125.438 159.987 125.433 160.012 125.423C160.037 125.412 160.059 125.397 160.078 125.378C160.097 125.358 160.112 125.336 160.121 125.31C160.132 125.286 160.138 125.259 160.138 125.232C160.138 125.205 160.133 125.179 160.123 125.154C160.112 125.129 160.097 125.107 160.078 125.088C160.058 125.069 160.036 125.054 160.011 125.045C159.206 124.729 158.486 124.229 157.909 123.585C157.333 122.941 156.915 122.171 156.689 121.336C156.684 121.31 156.674 121.284 156.658 121.262C156.643 121.24 156.624 121.221 156.601 121.206C156.578 121.192 156.553 121.182 156.526 121.178C156.499 121.174 156.472 121.175 156.446 121.181C156.394 121.192 156.348 121.222 156.317 121.265C156.286 121.308 156.273 121.361 156.28 121.414C156.466 122.152 156.797 122.846 157.253 123.456C157.709 124.066 158.281 124.58 158.937 124.967Z" fill="#263238"/>
<path d="M141.288 119.188C141.765 120.778 142.846 122.117 144.299 122.919C146.236 123.96 147.686 122.332 147.553 120.251C147.432 118.38 146.269 115.579 144.122 115.402C143.653 115.372 143.184 115.459 142.758 115.655C142.331 115.852 141.96 116.152 141.679 116.528C141.398 116.903 141.214 117.344 141.146 117.808C141.078 118.273 141.126 118.747 141.288 119.188Z" fill="#FFB573"/>
<path d="M155.161 110.974C155.24 111.012 155.328 111.024 155.414 111.008C155.499 110.992 155.578 110.949 155.637 110.886C156.977 109.546 159.39 109.933 159.412 109.933C159.519 109.95 159.628 109.924 159.717 109.863C159.805 109.801 159.867 109.707 159.888 109.601C159.898 109.547 159.896 109.492 159.884 109.439C159.872 109.386 159.849 109.335 159.817 109.291C159.785 109.247 159.745 109.209 159.698 109.181C159.651 109.152 159.599 109.133 159.545 109.125C159.434 109.125 156.689 108.671 155.061 110.31C155.022 110.348 154.991 110.394 154.97 110.444C154.949 110.494 154.938 110.549 154.938 110.603C154.938 110.658 154.949 110.712 154.97 110.762C154.991 110.813 155.022 110.858 155.061 110.897L155.161 110.974Z" fill="#263238"/>
<path d="M169.299 111.129C169.368 111.138 169.439 111.13 169.505 111.105C169.571 111.08 169.629 111.039 169.675 110.985C169.744 110.901 169.777 110.794 169.766 110.686C169.756 110.578 169.703 110.478 169.62 110.409C169.13 109.982 168.544 109.677 167.913 109.521C167.281 109.365 166.622 109.362 165.989 109.513C165.886 109.546 165.801 109.618 165.752 109.713C165.702 109.808 165.692 109.919 165.723 110.022C165.737 110.074 165.761 110.123 165.795 110.166C165.828 110.209 165.87 110.244 165.918 110.27C165.966 110.296 166.018 110.312 166.072 110.317C166.126 110.322 166.181 110.316 166.232 110.299C166.735 110.184 167.257 110.191 167.756 110.32C168.255 110.45 168.716 110.696 169.099 111.04C169.157 111.087 169.225 111.118 169.299 111.129Z" fill="#263238"/>
<path d="M156.887 389.531H165.544L164.99 369.482H156.333L156.887 389.531Z" fill="#FFB573"/>
<path d="M166.053 388.523H156.323C156.157 388.517 155.996 388.576 155.873 388.688C155.751 388.8 155.678 388.955 155.669 389.121L154.95 396.815C154.942 397.013 154.975 397.211 155.045 397.397C155.116 397.583 155.223 397.752 155.36 397.896C155.498 398.039 155.662 398.154 155.845 398.233C156.027 398.311 156.224 398.352 156.422 398.354C159.81 398.298 161.426 398.099 165.71 398.099C168.334 398.099 173.792 398.365 177.423 398.365C181.054 398.365 181.076 394.778 179.537 394.446C172.685 392.985 169.906 390.981 167.526 389.054C167.109 388.716 166.59 388.529 166.053 388.523Z" fill="#263238"/>
<g opacity="0.2">
<path opacity="0.2" d="M164.99 369.482L165.278 379.822H156.621L156.333 369.482H164.99Z" fill="black"/>
</g>
<path d="M160.219 197.767C160.219 197.767 165.621 251.824 167.304 278.194C169.053 305.616 166.762 377.829 166.762 377.829H155.06C155.06 377.829 147.831 296.483 147.831 280.253C143.226 250.839 130.528 220.373 134.845 193.394L160.219 197.767Z" fill="#7572FE"/>
<path opacity="0.6" d="M160.219 197.767C160.219 197.767 165.621 251.824 167.304 278.194C169.053 305.616 166.762 377.829 166.762 377.829H155.06C155.06 377.829 147.831 296.483 147.831 280.253C143.226 250.839 130.528 220.373 134.845 193.394L160.219 197.767Z" fill="white"/>
<path opacity="0.2" d="M141.834 219.166C139.372 219.828 137.178 221.24 135.557 223.207C137.339 234.421 140.35 245.924 143.118 257.437C145.099 244.927 143.915 223.849 141.834 219.166Z" fill="#7572FE"/>
<path d="M154.041 378.239H167.78L168.787 373.855L153.399 373.323L154.041 378.239Z" fill="#263238"/>
<path d="M169.374 390.04C170.115 390.103 170.855 389.916 171.477 389.508C171.617 389.386 171.723 389.231 171.787 389.057C171.851 388.883 171.87 388.695 171.842 388.512C171.837 388.398 171.802 388.288 171.742 388.191C171.682 388.094 171.599 388.014 171.499 387.959C170.392 387.383 166.983 389.143 166.595 389.342C166.557 389.361 166.527 389.392 166.509 389.43C166.491 389.468 166.486 389.512 166.495 389.553C166.501 389.594 166.518 389.633 166.546 389.665C166.573 389.696 166.61 389.719 166.65 389.73C167.547 389.916 168.458 390.02 169.374 390.04ZM170.924 388.246C171.054 388.238 171.184 388.265 171.3 388.324C171.343 388.343 171.379 388.374 171.405 388.413C171.43 388.453 171.444 388.498 171.444 388.545C171.461 388.666 171.448 388.789 171.405 388.903C171.363 389.017 171.292 389.118 171.2 389.198C170.68 389.674 169.252 389.752 167.337 389.442C168.445 388.844 169.647 388.44 170.89 388.246H170.924Z" fill="#7572FE"/>
<path d="M166.662 389.73H166.74C167.78 389.265 169.817 387.394 169.662 386.409C169.662 386.176 169.452 385.888 168.887 385.833C168.689 385.816 168.488 385.838 168.298 385.899C168.108 385.96 167.932 386.058 167.78 386.187C166.673 387.095 166.496 389.42 166.485 389.508C166.484 389.545 166.492 389.58 166.507 389.613C166.523 389.646 166.545 389.674 166.574 389.697C166.601 389.714 166.631 389.725 166.662 389.73ZM168.721 386.221H168.843C169.22 386.221 169.242 386.409 169.253 386.453C169.352 387.051 167.969 388.512 166.917 389.154C167 388.168 167.387 387.232 168.024 386.475C168.22 386.313 168.467 386.223 168.721 386.221Z" fill="#7572FE"/>
<path d="M85.1423 375.936L93.1463 379.235L101.327 360.924L93.3345 357.625L85.1423 375.936Z" fill="#FFB573"/>
<path d="M93.7749 379.169L85.3171 374.364C85.1736 374.279 85.0038 374.25 84.8403 374.283C84.6768 374.315 84.5311 374.407 84.4314 374.541L79.7043 380.641C79.5907 380.8 79.5119 380.982 79.4732 381.174C79.4344 381.366 79.4365 381.564 79.4793 381.755C79.5221 381.946 79.6047 382.126 79.7217 382.283C79.8386 382.44 79.9874 382.571 80.1582 382.667C83.1362 384.283 84.6528 384.881 88.3725 387.029C90.6531 388.335 95.2584 391.258 98.4135 393.051C101.569 394.844 103.517 391.822 102.366 390.837C97.1847 386.209 95.8562 383.143 94.8156 380.353C94.6258 379.844 94.2554 379.422 93.7749 379.169Z" fill="#263238"/>
<g opacity="0.2">
<path opacity="0.2" d="M101.327 360.935L97.1087 370.367L89.1047 367.068L93.3226 357.625L101.327 360.935Z" fill="black"/>
</g>
<path d="M150.492 196.084C150.492 196.084 136.343 258.212 133.952 284.516C127.941 308.948 99.6336 369.205 99.6336 369.205L88.8066 364.777C88.8066 364.777 105.778 300.402 115.099 282.667C115.985 253.263 115.83 217.838 125.173 191.722L150.492 196.084Z" fill="#7572FE"/>
<path opacity="0.6" d="M150.492 196.084C150.492 196.084 136.343 258.212 133.952 284.516C127.941 308.948 99.6336 369.205 99.6336 369.205L88.8066 364.777C88.8066 364.777 105.778 300.402 115.099 282.667C115.985 253.263 115.83 217.838 125.173 191.722L150.492 196.084Z" fill="white"/>
<path d="M87.6528 364.755L100.351 369.991L102.952 366.327L88.937 359.961L87.6528 364.755Z" fill="#263238"/>
<path d="M95.8542 382.047C96.4675 382.468 97.2043 382.67 97.9466 382.623C98.1279 382.585 98.297 382.502 98.4381 382.382C98.5793 382.262 98.6882 382.109 98.7547 381.936C98.809 381.838 98.8374 381.727 98.8374 381.615C98.8374 381.503 98.809 381.392 98.7547 381.294C98.1237 380.253 94.249 380.087 93.8173 380.076C93.7752 380.071 93.7326 380.08 93.6964 380.103C93.6603 380.125 93.6326 380.158 93.618 380.198C93.5937 380.232 93.5806 380.273 93.5806 380.314C93.5806 380.356 93.5937 380.397 93.618 380.431C94.3125 381.036 95.0611 381.577 95.8542 382.047ZM98.0683 381.25C98.186 381.311 98.2882 381.398 98.3672 381.504C98.3917 381.544 98.4046 381.59 98.4046 381.637C98.4046 381.684 98.3917 381.73 98.3672 381.77C98.323 381.882 98.2527 381.981 98.1622 382.06C98.0717 382.139 97.9636 382.195 97.8469 382.224C97.1495 382.368 95.8764 381.737 94.3597 380.519C95.632 380.55 96.8898 380.798 98.0794 381.25H98.0683Z" fill="#7572FE"/>
<path d="M93.6751 380.453C93.6751 380.453 93.6751 380.453 93.7526 380.453C94.8597 380.552 97.583 379.932 97.9262 379.002C98.0037 378.781 98.0037 378.449 97.5387 378.117C97.3794 378.005 97.1996 377.926 97.0096 377.884C96.8196 377.842 96.6231 377.839 96.4317 377.873C95.0368 378.117 93.7194 380.087 93.664 380.087C93.6454 380.117 93.6355 380.152 93.6355 380.187C93.6355 380.222 93.6454 380.257 93.664 380.287C93.6521 380.313 93.6469 380.342 93.6489 380.371C93.6508 380.4 93.6598 380.428 93.6751 380.453ZM97.1955 378.427C97.2368 378.441 97.2746 378.463 97.3062 378.493C97.6051 378.704 97.5609 378.847 97.5387 378.892C97.3284 379.456 95.4021 379.999 94.2176 380.087C94.7732 379.27 95.5706 378.647 96.4981 378.305C96.7376 378.268 96.9827 378.311 97.1955 378.427Z" fill="#7572FE"/>
<path d="M159.409 113.642L161.081 113.177C161.081 113.177 160.184 114.472 159.409 113.642Z" fill="#263238"/>
<path d="M125.402 189.663L123.985 192.608C123.819 192.829 124.062 193.117 124.461 193.195L160.119 199.35C160.429 199.405 160.717 199.35 160.772 199.095L161.625 196.051C161.68 195.841 161.437 195.608 161.093 195.553L126.011 189.497C125.904 189.47 125.791 189.471 125.685 189.5C125.578 189.529 125.481 189.586 125.402 189.663Z" fill="#263238"/>
<path d="M129.523 194.413L128.582 194.258C128.394 194.258 128.272 194.103 128.305 193.981L129.412 190.029C129.412 189.918 129.622 189.851 129.811 189.885L130.752 190.04C130.94 190.04 131.062 190.195 131.028 190.316L129.921 194.269C129.921 194.379 129.744 194.446 129.523 194.413Z" fill="#7572FE"/>
<g opacity="0.6">
<path opacity="0.6" d="M129.521 194.413L128.58 194.258C128.392 194.258 128.27 194.103 128.304 193.981L129.411 190.029C129.411 189.918 129.621 189.851 129.809 189.885L130.75 190.04C130.938 190.04 131.06 190.195 131.027 190.316L129.92 194.269C129.92 194.379 129.743 194.446 129.521 194.413Z" fill="white"/>
</g>
<path d="M157.419 199.228L156.489 199.062C156.301 199.062 156.168 198.907 156.201 198.796L157.308 194.844C157.308 194.723 157.518 194.656 157.706 194.689L158.647 194.855C158.836 194.855 158.957 195.01 158.924 195.121L157.817 199.073C157.795 199.195 157.607 199.261 157.419 199.228Z" fill="#7572FE"/>
<g opacity="0.6">
<path opacity="0.6" d="M157.419 199.228L156.489 199.062C156.301 199.062 156.168 198.907 156.201 198.796L157.308 194.844C157.308 194.723 157.518 194.656 157.706 194.689L158.647 194.855C158.836 194.855 158.957 195.01 158.924 195.121L157.817 199.073C157.795 199.195 157.607 199.261 157.419 199.228Z" fill="white"/>
</g>
<path d="M143.548 196.837L142.607 196.671C142.418 196.671 142.297 196.516 142.33 196.405L143.437 192.442C143.437 192.331 143.647 192.265 143.835 192.298L144.776 192.453C144.954 192.453 145.086 192.608 145.053 192.73L143.946 196.682C143.913 196.793 143.736 196.859 143.548 196.837Z" fill="#7572FE"/>
<g opacity="0.6">
<path opacity="0.6" d="M143.548 196.837L142.607 196.671C142.418 196.671 142.297 196.516 142.33 196.405L143.437 192.442C143.437 192.331 143.647 192.265 143.835 192.298L144.776 192.453C144.954 192.453 145.086 192.608 145.053 192.73L143.946 196.682C143.913 196.793 143.736 196.859 143.548 196.837Z" fill="white"/>
</g>
<path d="M121.617 196.416L128.104 203.147L119.325 203.734C119.325 203.734 116.325 199.051 118.075 195.907L121.617 196.416Z" fill="#FFB573"/>
<path d="M130.917 150.651C128.415 154.636 125.825 158.6 123.234 162.53C120.644 166.46 117.998 170.445 115.629 174.253L115.253 174.851C115.253 174.851 115.253 174.917 115.164 174.995C115.073 175.248 115.017 175.513 114.998 175.781C114.928 176.657 114.969 177.539 115.12 178.405C115.491 180.521 116.039 182.602 116.758 184.626C117.467 186.752 118.297 188.888 119.216 191.003C120.135 193.117 121.087 195.265 122.05 197.335L118.33 199.66C115.359 195.759 112.765 191.585 110.581 187.195C109.418 184.861 108.491 182.417 107.813 179.899C107.431 178.454 107.23 176.966 107.215 175.471C107.219 174.556 107.334 173.645 107.559 172.759C107.702 172.243 107.887 171.739 108.112 171.253L108.378 170.722L108.599 170.29C109.773 168.076 110.946 166.017 112.164 163.936C113.382 161.854 114.599 159.839 115.839 157.814C118.319 153.751 120.843 149.754 123.489 145.802L130.917 150.651Z" fill="#FFB573"/>
<path d="M133.263 139.138C124.76 137.676 118.373 150.795 118.373 150.795L128.336 163.061C128.336 163.061 134.724 155.92 136.141 151.348C137.647 146.588 137.403 139.857 133.263 139.138Z" fill="#263238"/>
<path d="M128.855 210.387L121.471 210.476L119.323 203.734L128.102 203.147L128.855 210.387Z" fill="#FFB573"/>
<path d="M420.811 52.2228C423.618 52.2257 426.396 52.7816 428.988 53.8587C431.58 54.9358 433.934 56.5131 435.916 58.5003C437.898 60.4876 439.47 62.8459 440.54 65.4406C441.61 68.0352 442.159 70.8153 442.155 73.6221V236.182C442.149 241.841 439.898 247.266 435.897 251.268C431.895 255.269 426.47 257.52 420.811 257.526H366.676C362.272 257.526 358.048 259.275 354.934 262.389C351.82 265.504 350.07 269.727 350.07 274.131V289.874L316.958 261.511C313.947 258.936 310.115 257.523 306.153 257.526H132.711C127.052 257.52 121.627 255.269 117.625 251.268C113.624 247.266 111.373 241.841 111.368 236.182V73.6221C111.373 67.9631 113.624 62.5376 117.625 58.5361C121.627 54.5346 127.052 52.284 132.711 52.2781H420.811V52.2228ZM420.811 35.6724H132.711C122.656 35.7016 113.02 39.7092 105.909 46.8198C98.7986 53.9305 94.7909 63.5662 94.7617 73.6221V236.182C94.7909 246.238 98.7986 255.873 105.909 262.984C113.02 270.095 122.656 274.102 132.711 274.131H306.153L366.676 325.964V274.131H420.811C430.867 274.102 440.502 270.095 447.613 262.984C454.724 255.873 458.731 246.238 458.76 236.182V73.6221C458.731 63.5662 454.724 53.9305 447.613 46.8198C440.502 39.7092 430.867 35.7016 420.811 35.6724Z" fill="#7572FE"/>
<path d="M264.434 392.83C265.453 392.83 266.416 392.697 266.726 392.243C266.811 392.123 266.856 391.98 266.856 391.833C266.856 391.687 266.811 391.543 266.726 391.424C266.658 391.315 266.57 391.221 266.465 391.146C266.361 391.072 266.242 391.02 266.117 390.992C264.8 390.638 262.11 392.199 261.988 392.265C261.955 392.285 261.93 392.316 261.916 392.352C261.902 392.388 261.9 392.427 261.91 392.464C261.917 392.502 261.936 392.536 261.964 392.562C261.992 392.588 262.027 392.604 262.065 392.608C262.846 392.756 263.64 392.83 264.434 392.83ZM265.63 391.313C265.752 391.301 265.874 391.301 265.995 391.313C266.147 391.351 266.277 391.447 266.361 391.579C266.505 391.811 266.46 391.922 266.416 391.988C266.073 392.498 264.08 392.509 262.608 392.309C263.542 391.794 264.569 391.466 265.63 391.346V391.313Z" fill="#7572FE"/>
<path d="M262.054 392.619H262.131C263.061 392.199 264.877 390.494 264.699 389.608C264.699 389.398 264.5 389.132 263.991 389.088C263.807 389.065 263.621 389.082 263.444 389.135C263.266 389.188 263.102 389.278 262.961 389.398C261.998 390.228 261.854 392.342 261.854 392.431C261.855 392.465 261.863 392.499 261.879 392.529C261.894 392.56 261.916 392.587 261.943 392.608C261.978 392.623 262.016 392.627 262.054 392.619ZM263.847 389.431H263.969C264.301 389.431 264.323 389.597 264.334 389.641C264.445 390.173 263.227 391.512 262.264 392.099C262.313 391.21 262.647 390.36 263.216 389.674C263.388 389.516 263.613 389.429 263.847 389.431Z" fill="#7572FE"/>
<path d="M253.383 392.431H261.254L261.354 374.209H253.483L253.383 392.431Z" fill="#CE7A63"/>
<path d="M261.178 391.523H252.576C252.423 391.521 252.275 391.573 252.157 391.671C252.039 391.768 251.96 391.904 251.934 392.055L250.639 399.095C250.608 399.268 250.615 399.446 250.661 399.615C250.706 399.785 250.788 399.942 250.901 400.076C251.014 400.21 251.155 400.318 251.315 400.392C251.474 400.465 251.648 400.503 251.823 400.501C254.923 400.446 259.395 400.258 263.292 400.258C267.842 400.258 268.407 400.513 273.754 400.513C276.986 400.513 277.75 397.247 276.389 396.948C270.189 395.597 268.54 395.453 263.104 392.176C262.533 391.788 261.867 391.562 261.178 391.523Z" fill="#263238"/>
<path opacity="0.2" d="M261.353 374.209L261.309 383.608H253.427L253.482 374.209H261.353Z" fill="black"/>
<path d="M201.286 390.117C201.346 389.283 201.089 388.457 200.566 387.804C200.447 387.717 200.304 387.671 200.157 387.671C200.009 387.671 199.866 387.717 199.747 387.804C199.642 387.866 199.552 387.952 199.483 388.053C199.414 388.154 199.368 388.269 199.348 388.39C199.061 389.697 200.777 392.453 200.854 392.575C200.875 392.608 200.905 392.633 200.94 392.649C200.976 392.665 201.015 392.67 201.053 392.664C201.09 392.659 201.124 392.642 201.15 392.616C201.176 392.59 201.193 392.556 201.197 392.52C201.291 391.723 201.32 390.919 201.286 390.117ZM199.692 388.855C199.675 388.738 199.675 388.619 199.692 388.501C199.701 388.427 199.727 388.356 199.767 388.292C199.807 388.229 199.861 388.176 199.924 388.136C200.157 388.003 200.267 388.058 200.334 388.136C200.865 388.501 200.987 390.494 200.865 391.955C200.279 391.007 199.88 389.954 199.692 388.855Z" fill="#7572FE"/>
<path d="M201.195 392.453C201.202 392.428 201.202 392.401 201.195 392.376C200.719 391.424 198.915 389.531 198.029 389.663C197.819 389.663 197.564 389.84 197.542 390.361C197.53 390.74 197.665 391.108 197.919 391.39C198.804 392.105 199.884 392.538 201.018 392.63C201.051 392.635 201.084 392.63 201.113 392.616C201.143 392.603 201.167 392.581 201.184 392.553C201.199 392.522 201.203 392.487 201.195 392.453ZM197.874 390.505V390.394C197.874 390.062 198.018 390.04 198.063 390.04C198.594 389.951 200 391.235 200.642 392.254C199.725 392.161 198.857 391.795 198.151 391.202C197.998 391.018 197.908 390.789 197.896 390.549L197.874 390.505Z" fill="#7572FE"/>
<path d="M201.074 392.542L208.79 393.084L211.967 374.718L204.262 374.176L201.074 392.542Z" fill="#CE7A63"/>
<path d="M200.998 390.781L209.511 390.029C209.67 390.015 209.829 390.054 209.963 390.14C210.097 390.226 210.199 390.354 210.253 390.505L212.843 397.335C212.903 397.493 212.927 397.662 212.911 397.83C212.896 397.998 212.843 398.16 212.755 398.305C212.667 398.449 212.548 398.571 212.406 398.662C212.264 398.753 212.103 398.81 211.935 398.83C208.858 399.051 204.385 399.262 200.522 399.605C196.016 400.003 198.95 399.992 193.658 400.468C190.458 400.756 189.086 397.579 190.337 397.147C196.226 395.265 197.234 393.97 199.193 391.545C199.427 391.304 199.708 391.112 200.018 390.98C200.328 390.849 200.661 390.781 200.998 390.781Z" fill="#263238"/>
<path opacity="0.2" d="M211.966 374.729L210.328 384.195L202.612 383.652L204.25 374.176L211.966 374.729Z" fill="black"/>
<path d="M264.19 192.243C264.19 192.243 249.798 252.699 244.351 275.139C238.34 299.704 214.771 381.228 214.771 381.228L200.711 378.183C200.711 378.183 215.988 308.14 222 273.866C226.616 247.551 237.045 192.243 237.045 192.243H264.19Z" fill="#263238"/>
<path d="M216.982 376.955L215.941 382.368L199.147 380.575L198.915 375.615L216.982 376.955Z" fill="#7572FE"/>
<path opacity="0.3" d="M255.896 220.262C245.933 221.58 244.128 256.496 243.896 276.977L244.35 275.128C247.339 262.884 252.974 239.27 257.49 220.373C256.974 220.218 256.429 220.18 255.896 220.262Z" fill="black"/>
<path d="M279.122 192.243C279.122 192.243 275.28 251.116 273.587 275.084C271.804 300.014 264.73 381.781 264.73 381.781H251.302C251.302 381.781 249.896 301.509 249.508 276.988C249.076 250.263 251.434 192.243 251.434 192.243H279.122Z" fill="#263238"/>
<path d="M266.534 376.479C266.589 376.479 265.991 382.014 265.991 382.014H249.773L249.142 377.065L266.534 376.479Z" fill="#7572FE"/>
<path d="M241.893 135.617C239.746 139.968 237.565 144.54 235.55 149.034C233.535 153.529 231.554 158.079 230.015 162.618L229.417 164.312L228.886 165.994L228.642 166.758C228.661 166.578 228.661 166.396 228.642 166.216C228.567 165.47 228.211 164.782 227.646 164.29C227.214 164.002 227.203 164.124 227.369 164.212C227.677 164.355 228 164.462 228.332 164.533C229.325 164.742 230.331 164.879 231.343 164.943C236.189 165.092 241.039 164.948 245.868 164.511H246.001C246.715 164.457 247.425 164.663 248.001 165.09C248.576 165.517 248.978 166.138 249.133 166.838C249.287 167.537 249.185 168.269 248.843 168.899C248.502 169.529 247.944 170.015 247.274 170.268C242.247 172.295 236.977 173.657 231.598 174.32C230.053 174.478 228.496 174.493 226.948 174.364C226.012 174.288 225.086 174.125 224.181 173.877C222.85 173.531 221.616 172.887 220.572 171.995C219.816 171.347 219.195 170.557 218.745 169.67C218.292 168.749 218.021 167.749 217.948 166.725C217.902 165.909 217.965 165.089 218.136 164.29L218.38 163.183L218.845 161.179L219.376 159.219C220.83 154.127 222.586 149.125 224.634 144.241C226.671 139.392 228.83 134.731 231.343 130.015C232.081 128.635 233.332 127.601 234.825 127.134C236.319 126.667 237.936 126.806 239.329 127.52C240.721 128.235 241.777 129.467 242.269 130.953C242.761 132.438 242.65 134.058 241.96 135.462L241.893 135.617Z" fill="#CF7A64"/>
<path d="M246.089 164.81L250.982 162.884L250.739 171.984C248.763 171.845 246.857 171.201 245.203 170.113C244.798 169.819 244.492 169.408 244.328 168.934C244.163 168.461 244.148 167.949 244.284 167.467L244.561 166.471C244.666 166.092 244.859 165.744 245.124 165.456C245.39 165.167 245.721 164.945 246.089 164.81Z" fill="#CE7A63"/>
<path d="M259.038 161.854L257.278 169.736L250.735 171.973L250.979 162.884L259.038 161.854Z" fill="#CE7A63"/>
<path d="M268.15 94.8996C268.283 95.5196 268.715 95.9513 269.113 95.8738C269.512 95.7964 269.755 95.2207 269.622 94.6007C269.49 93.9808 269.069 93.4937 268.659 93.6155C268.25 93.7372 268.028 94.2686 268.15 94.8996Z" fill="#263238"/>
<path d="M268.65 95.9624C269.778 97.7154 271.146 99.3027 272.713 100.678C272.348 101.069 271.902 101.375 271.407 101.576C270.912 101.777 270.379 101.867 269.845 101.841L268.65 95.9624Z" fill="#BA4D3C"/>
<path d="M265.173 91.8995C265.079 91.8984 264.989 91.863 264.919 91.7999C264.884 91.7659 264.857 91.7254 264.838 91.6808C264.819 91.6361 264.81 91.5882 264.81 91.5398C264.81 91.4913 264.819 91.4434 264.838 91.3988C264.857 91.3541 264.884 91.3136 264.919 91.2796C265.311 90.8345 265.804 90.4897 266.357 90.274C266.91 90.0584 267.506 89.978 268.096 90.0397C268.192 90.0585 268.277 90.1142 268.333 90.1948C268.389 90.2755 268.411 90.3747 268.395 90.4715C268.388 90.5197 268.372 90.566 268.347 90.6079C268.322 90.6497 268.289 90.6861 268.25 90.715C268.211 90.7439 268.166 90.7646 268.119 90.776C268.071 90.7874 268.022 90.7893 267.974 90.7814C267.507 90.736 267.036 90.8039 266.6 90.9793C266.165 91.1546 265.778 91.4323 265.472 91.7888C265.433 91.8274 265.386 91.8573 265.335 91.8763C265.283 91.8954 265.228 91.9033 265.173 91.8995Z" fill="#263238"/>
<path d="M250.884 106.214C251.991 111.971 252.688 119.952 248.67 123.794C248.67 123.794 250.253 129.628 260.947 129.628C272.704 129.628 266.604 124.502 266.604 124.502C261.711 122.986 261.755 117.417 262.873 112.945L250.884 106.214Z" fill="#CE7A63"/>
<path d="M234.572 123.816C227.188 125.51 222.328 145.415 222.328 145.415L234.694 154.67C239.271 151.384 242.516 146.563 243.838 141.086C246.318 131.189 242.111 122.089 234.572 123.816Z" fill="#7572FE"/>
<path opacity="0.2" d="M240.894 137.665C236.679 142.152 234.226 148.009 233.986 154.16L234.639 154.669C239.212 151.38 242.456 146.561 243.783 141.086C243.927 140.499 244.06 139.901 244.17 139.326L240.894 137.665Z" fill="black"/>
<path d="M281.191 131.709C282.785 140.134 285.187 160.127 280.693 194.114C280.651 194.392 280.521 194.65 280.321 194.85C280.122 195.049 279.864 195.179 279.586 195.221C275.728 195.676 271.828 195.624 267.984 195.066C260.234 193.959 253.802 194.435 246.285 195.066C242.971 195.323 239.643 195.371 236.322 195.21C236.144 195.201 235.969 195.155 235.809 195.075C235.649 194.995 235.508 194.883 235.394 194.745C235.279 194.608 235.194 194.449 235.145 194.277C235.095 194.106 235.081 193.926 235.104 193.748C236.267 185.003 240.484 152.489 234.628 123.849C239.279 122.958 243.983 122.366 248.71 122.078C254.672 121.729 260.649 121.729 266.611 122.078C268.581 122.255 270.519 122.543 272.246 122.842C274.456 123.247 276.493 124.311 278.089 125.893C279.685 127.475 280.766 129.502 281.191 131.709Z" fill="#7572FE"/>
<path d="M247.14 97.789C249.154 105.339 249.963 109.856 254.612 112.989C261.62 117.716 270.332 112.291 270.609 104.298C270.853 97.1026 267.509 85.9768 259.417 84.449C257.633 84.1034 255.79 84.22 254.064 84.7878C252.338 85.3555 250.786 86.3555 249.555 87.6925C248.325 89.0296 247.457 90.6593 247.034 92.4265C246.611 94.1938 246.647 96.0398 247.14 97.789Z" fill="#CE7A63"/>
<path d="M264.795 100.103C267.153 105.306 266.411 110.066 263.477 112.28C260.156 114.804 250.846 115.192 247.314 111.616C248.654 110.277 249.396 108.605 247.68 106.225C245.964 103.845 239.665 100.147 239.543 95.0657C239.421 89.9844 242.786 89.4087 242.587 89.4087C239.609 88.0802 239.797 83.2978 243.074 80.663C246.55 77.8622 252.196 77.0872 258.916 78.4489C263.156 79.2903 267.319 79.2128 266.588 76.5337C271.581 79.401 269.101 90.0176 264.274 91.4125C265.038 93.3277 268.381 96.3721 268.381 96.3721C268.381 96.3721 267.562 99.5382 264.795 100.103Z" fill="#263238"/>
<path d="M243.077 88.3791C243.077 88.3791 241.262 89.4862 236.49 88.0913C237.775 90.4715 242.546 90.56 243.697 90.0176C244.849 89.4751 243.077 88.3791 243.077 88.3791Z" fill="#263238"/>
<path d="M261.763 98.1987C262.197 99.9779 263.209 101.563 264.641 102.704C266.534 104.199 267.962 102.826 267.962 100.634C267.885 98.6637 266.855 95.5197 264.708 94.8776C262.56 94.2355 261.265 96.0511 261.763 98.1987Z" fill="#CE7A63"/>
<path d="M281.491 130.558C282.476 132.85 283.406 135.163 284.358 137.466C285.31 139.769 286.24 142.082 287.159 144.396L292.628 158.223C293.546 160.504 294.465 162.773 295.395 164.954L296.104 166.526L296.281 166.914V167.002C296.281 167.002 296.281 167.002 296.214 166.891C296.057 166.614 295.875 166.351 295.672 166.105C295.26 165.651 294.768 165.276 294.222 164.998C293.821 164.774 293.388 164.613 292.938 164.522C292.661 164.46 292.379 164.423 292.096 164.412C291.923 164.4 291.749 164.4 291.576 164.412C291.403 164.423 291.233 164.452 291.067 164.5C290.973 164.518 290.883 164.552 290.801 164.6C291.133 164.537 291.454 164.425 291.753 164.268C292.196 164.068 292.694 163.825 293.181 163.559C295.196 162.452 297.321 161.245 299.436 160.017C301.55 158.788 303.742 157.548 305.934 156.374H306.001C306.615 156.043 307.326 155.936 308.011 156.073C308.696 156.209 309.311 156.58 309.752 157.122C310.193 157.663 310.431 158.342 310.425 159.04C310.419 159.738 310.17 160.412 309.72 160.947C306.409 164.964 302.7 168.636 298.65 171.906C298.107 172.327 297.543 172.748 296.912 173.179C296.161 173.706 295.36 174.159 294.521 174.53C294.162 174.683 293.792 174.809 293.414 174.906C293.098 174.989 292.776 175.045 292.45 175.073C292.196 175.089 291.941 175.089 291.687 175.073C291.314 175.066 290.943 175.022 290.58 174.94C290.059 174.824 289.556 174.638 289.085 174.386C288.464 174.055 287.911 173.607 287.458 173.069C287.228 172.794 287.02 172.502 286.838 172.194L286.738 172.006L286.672 171.895L286.428 171.441C286.085 170.832 285.797 170.257 285.476 169.659C284.269 167.334 283.173 165.043 282.155 162.74C280.018 158.146 278.014 153.562 276.055 148.957C275.081 146.654 274.121 144.344 273.177 142.027C272.236 139.713 271.295 137.4 270.398 135.075C269.8 133.607 269.811 131.961 270.426 130.501C271.042 129.04 272.212 127.884 273.68 127.287C275.148 126.689 276.794 126.699 278.254 127.315C279.715 127.93 280.871 129.101 281.468 130.569L281.491 130.558Z" fill="#CF7A64"/>
<path d="M310.384 151.791C308.97 152.601 307.73 153.682 306.734 154.972C305.739 156.261 305.008 157.735 304.583 159.308L307.317 162.817L313.295 160.968C313.769 160.819 314.178 160.515 314.458 160.105L317.524 155.577C317.763 155.136 317.871 154.637 317.836 154.137C317.8 153.637 317.623 153.157 317.325 152.754L314.081 148.392L310.384 151.791Z" fill="#CE7A63"/>
<path d="M265.238 136.082C265.924 144.861 275.589 156.33 275.589 156.33L289.217 146.112C289.217 146.112 287.147 133.768 280.084 127.071C271.349 118.801 264.585 127.868 265.238 136.082Z" fill="#7572FE"/>
<path d="M268.55 122.045C267.288 118.347 252.775 117.705 244.029 118.591C235.284 119.476 239.69 126.285 241.162 127.237C237.199 128.709 239.313 135.706 246.697 139.137C254.081 142.569 270.123 126.506 268.55 122.045Z" fill="#263238"/>
</svg>
