<svg width="120" height="62" viewBox="0 0 120 62" fill="none" xmlns="http://www.w3.org/2000/svg">
    <path
        d="M113.922 25.4102H18.0792C16.9757 25.4102 16.082 25.8299 16.082 26.3482V35.727C16.082 36.2453 16.9757 36.665 18.0792 36.665H113.922C115.025 36.665 115.919 36.2453 115.919 35.727V26.3476C115.919 25.8299 115.025 25.4102 113.922 25.4102Z"
        fill="#AAAAD5" fill-opacity="0.5" />
    <path
        d="M74.265 11.0661V11.0332H18.0792C16.9757 11.0332 16.082 11.4529 16.082 11.9713V21.35C16.082 21.8683 16.9757 22.2881 18.0792 22.2881H74.265V22.2552C74.6929 22.2038 75.0723 22.087 75.3435 21.9233C75.6147 21.7595 75.7623 21.5581 75.7632 21.3506V11.9706C75.7632 11.5342 75.1256 11.1708 74.265 11.0661Z"
        fill="#AAAAD5" fill-opacity="0.5" />
    <path
        d="M86.966 39.7129H18.0792C16.9757 39.7129 16.082 40.1326 16.082 40.651V50.0297C16.082 50.548 16.9757 50.9678 18.0792 50.9678H86.966C88.0696 50.9678 88.9632 50.548 88.9632 50.0297V40.651C88.9632 40.1326 88.0696 39.7129 86.966 39.7129Z"
        fill="#AAAAD5" fill-opacity="0.5" />
</svg>