<svg width="538" height="539" viewBox="0 0 538 539" fill="none" xmlns="http://www.w3.org/2000/svg">
<path d="M154.549 10.4694H15.261V241.028H154.549V10.4694Z" fill="#E0E0E0"/>
<path d="M149.917 10.4694H10.6282V241.028H149.917V10.4694Z" fill="#EBEBEB"/>
<path d="M143.983 15.1387H16.5623V236.346H143.983V15.1387Z" fill="white"/>
<path d="M119.177 43.884H40.8206V207.601H119.177V43.884Z" fill="#EBEBEB"/>
<path d="M40.8206 149.636C40.6382 134.339 54.3908 119.407 69.5295 117.267C76.7523 116.258 84.425 117.693 91.1736 114.92C103.212 109.984 107.054 93.9816 119.141 89.2272L119.7 207.565H40.8206V149.636Z" fill="#E0E0E0"/>
<path d="M518.803 0V126.873H336.579L330.013 0.887651L518.803 0Z" fill="#E0E0E0"/>
<path d="M330.025 0.887627V126.606L512.249 126.606V0.887627L330.025 0.887627Z" fill="white"/>
<path d="M513.1 127.469H329.149V0.0729675H513.1V127.469ZM330.888 125.743H511.373V1.71452H330.888V125.743Z" fill="#E0E0E0"/>
<path d="M492.502 16.5128H349.748V110.993H492.502V16.5128Z" fill="white"/>
<path d="M492.502 16.5128H491.796H489.766H481.935L452.509 16.6222L349.748 16.8289L350.161 16.4155C350.161 45.2824 350.161 77.2136 350.161 110.884L349.711 110.434L492.465 110.519L492.112 110.884C492.185 82.126 492.246 58.5972 492.295 42.1331C492.295 33.9375 492.368 27.5415 492.392 23.1276C492.392 20.9632 492.392 19.2973 492.392 18.13C492.392 16.9991 492.392 16.4033 492.392 16.4033C492.392 16.4033 492.392 16.9505 492.392 18.057C492.392 19.1636 492.392 20.8416 492.392 22.9209C492.392 27.2983 492.392 33.6821 492.477 41.8534C492.477 58.3175 492.587 81.9801 492.672 110.823V111.175H492.307L349.553 111.273H349.103V110.823C349.103 77.2014 349.103 45.2216 349.103 16.3547V15.9413H349.505L452.545 16.148L481.862 16.2574H489.62H491.602C491.908 16.3204 492.208 16.4057 492.502 16.5128Z" fill="#E0E0E0"/>
<path d="M330.013 0.535034C331.14 1.07663 332.194 1.75895 333.15 2.56569C335.01 3.91541 337.552 5.82447 340.3 8.0132C343.048 10.2019 345.443 12.2812 347.146 13.8377C348.125 14.613 349 15.5122 349.748 16.5128C349.59 16.7073 345.2 13.0838 339.728 8.71846C334.256 4.35316 329.855 0.741748 330.013 0.535034Z" fill="#E0E0E0"/>
<path d="M512.237 0.887652C512.395 1.08221 508.102 4.74225 502.655 9.05891C497.207 13.3756 492.66 16.7073 492.502 16.5128C492.343 16.3182 496.636 12.6582 502.095 8.34149C507.555 4.02483 512.079 0.693098 512.237 0.887652Z" fill="#E0E0E0"/>
<path d="M512.091 126.63L491.772 110.154L512.091 126.63Z" fill="white"/>
<path d="M491.772 110.154C491.93 109.972 496.636 113.498 502.217 118.046C507.798 122.593 512.249 126.436 512.091 126.63C511.933 126.825 507.227 123.286 501.658 118.739C496.089 114.191 491.626 110.348 491.772 110.154Z" fill="#E0E0E0"/>
<path d="M330.013 126.606C329.867 126.411 334.11 122.8 339.509 118.532C344.908 114.264 349.395 110.969 349.553 111.163C349.711 111.358 345.455 114.969 340.069 119.237C334.682 123.505 330.171 126.8 330.013 126.606Z" fill="#E0E0E0"/>
<path d="M378.736 45.939V77.5783H468.559V45.939L378.736 45.939Z" fill="#E0E0E0"/>
<path d="M242.427 421.501C242.427 415.993 246.646 412.004 252.325 412.004C253.693 411.954 255.055 412.205 256.316 412.739C257.576 413.272 258.704 414.076 259.621 415.093L257.42 417.148C256.8 416.454 256.039 415.901 255.187 415.528C254.335 415.154 253.413 414.969 252.483 414.983C251.606 414.945 250.73 415.085 249.908 415.395C249.087 415.704 248.336 416.177 247.702 416.784C247.068 417.391 246.564 418.121 246.219 418.928C245.874 419.736 245.696 420.605 245.696 421.483C245.696 422.361 245.874 423.229 246.219 424.037C246.564 424.844 247.068 425.574 247.702 426.181C248.336 426.788 249.087 427.261 249.908 427.57C250.73 427.88 251.606 428.02 252.483 427.982C253.417 427.998 254.342 427.809 255.195 427.429C256.048 427.048 256.807 426.486 257.42 425.781L259.645 427.897C258.728 428.912 257.599 429.715 256.339 430.248C255.079 430.782 253.717 431.033 252.349 430.985C246.61 431.01 242.427 427.021 242.427 421.501Z" fill="#EBEBEB"/>
<path d="M223.665 435.983H200.756V413.074H223.665V435.983ZM201.972 434.767H222.449V414.29H201.972V434.767Z" fill="#EBEBEB"/>
<path d="M196.391 440.75C195.71 440.239 201.182 432.019 209.608 423.3C218.035 414.582 226.036 408.794 226.632 409.451C227.228 410.107 220.224 416.892 211.943 425.501C203.662 434.11 197.096 441.309 196.391 440.75Z" fill="#E0E0E0"/>
<path d="M226.948 440.251C226.206 440.786 219.956 433.186 211.7 424.371C203.443 415.555 196.293 408.794 196.865 408.089C197.436 407.384 205.608 413.196 214.01 422.206C222.412 431.216 227.641 439.813 226.948 440.251Z" fill="#E0E0E0"/>
<path d="M70.2954 346.78L59.0478 345.977L56.4578 351.036L52.1411 350.732L63.8751 328.93L67.9851 329.222L76.4968 352.459L72.1194 352.155L70.2954 346.78ZM69.1524 343.4L65.614 333.246L60.7501 342.792L69.1524 343.4Z" fill="#EBEBEB"/>
<path d="M33.5614 351.96L5.9104 350.002L7.88026 322.303L35.5191 324.273L33.5614 351.96ZM7.21148 348.871L32.4305 350.671L34.218 325.44L8.99894 323.652L7.21148 348.871Z" fill="#EBEBEB"/>
<path d="M0.0372472 355.547C-0.595053 355 6.88311 345.576 17.8876 335.703C28.892 325.829 39.0331 319.348 39.5195 320.029C40.0059 320.71 30.8497 328.273 20.0641 338.049C9.27855 347.826 0.706026 356.155 0.0372472 355.547Z" fill="#E0E0E0"/>
<path d="M37.3065 357.639C36.5283 358.125 29.6946 348.215 20.3682 336.748C11.0417 325.282 2.80969 316.515 3.41767 315.846C4.02565 315.177 13.3642 323.069 22.8731 334.754C32.3819 346.44 38.0239 357.213 37.3065 357.639Z" fill="#E0E0E0"/>
<path d="M536.799 226.497C537.857 230.218 535.583 233.221 529.965 234.802L519.168 237.854L513.088 216.137L523.265 213.255C528.47 211.784 531.887 213.255 532.859 216.636C533.171 217.605 533.201 218.642 532.947 219.628C532.693 220.613 532.165 221.507 531.425 222.205C532.673 222.211 533.882 222.638 534.858 223.417C535.833 224.196 536.517 225.281 536.799 226.497ZM517.952 218.156L519.654 224.15L525.357 222.533C528.154 221.743 529.455 220.296 528.895 218.314C528.336 216.332 526.463 215.748 523.667 216.538L517.952 218.156ZM532.628 227.239C532.008 225.074 530.087 224.576 527.047 225.439L520.542 227.288L522.305 233.55L528.822 231.701C531.862 230.838 533.236 229.415 532.628 227.239Z" fill="#EBEBEB"/>
<path d="M472.365 253.759L464.814 227.093L491.48 219.542L499.031 246.208L472.365 253.759ZM466.286 227.932L473.168 252.251L497.487 245.357L490.593 221.037L466.286 227.932Z" fill="#EBEBEB"/>
<path d="M468.73 260.982C467.939 260.666 471.769 249.272 478.761 236.237C485.753 223.202 493.097 213.669 493.778 214.155C494.459 214.642 488.428 224.843 481.619 237.733C474.809 250.622 469.556 261.322 468.73 260.982Z" fill="#E0E0E0"/>
<path d="M504.491 250.269C503.92 250.987 494.131 243.995 481.461 236.383C468.79 228.771 458.066 223.311 458.43 222.472C458.795 221.633 470.25 225.889 483.09 233.671C495.931 241.453 505.026 249.625 504.491 250.269Z" fill="#E0E0E0"/>
<path d="M533.881 490.105C533.881 490.276 414.534 490.422 267.366 490.422C120.199 490.422 0.81543 490.215 0.81543 490.105C0.81543 489.996 120.138 489.789 267.366 489.789C414.595 489.789 533.881 489.862 533.881 490.105Z" fill="black"/>
<path d="M377.204 59.9347H64.9331V376.717H377.204V59.9347Z" fill="white"/>
<path d="M377.204 376.717C377.204 376.717 377.204 376.571 377.204 376.328C377.204 376.085 377.204 375.696 377.204 375.209C377.204 374.224 377.204 372.777 377.204 370.832C377.204 366.965 377.204 361.262 377.143 353.808C377.143 338.925 377.058 317.111 376.998 289.362C376.937 233.951 376.84 154.816 376.718 59.9347L377.265 60.4819L65.0305 60.567L65.6628 59.9347C65.6628 176.023 65.6628 284.766 65.5777 376.705L65.0305 376.17L291.272 376.437L354.758 376.583L371.514 376.644H375.83H376.925H377.302H375.891H371.635L354.977 376.705L291.625 376.851L65.0305 377.118H64.4833V376.571C64.4833 284.632 64.4833 175.937 64.3982 59.801V59.1687H65.067L377.302 59.2538H377.861V59.801C377.739 154.828 377.642 234.073 377.581 289.618C377.508 317.317 377.46 339.083 377.435 353.942C377.435 361.335 377.435 367.014 377.362 370.856C377.362 372.753 377.362 374.2 377.362 375.173V376.255C377.328 376.415 377.275 376.57 377.204 376.717Z" fill="#263238"/>
<path d="M89.4469 111.601V120.003H87.8783V112.914H86.103V111.601H89.4469Z" fill="black"/>
<path d="M91.0642 119.091C91.0642 118.962 91.0897 118.834 91.1392 118.714C91.1887 118.595 91.2612 118.486 91.3527 118.395C91.4441 118.303 91.5527 118.231 91.6722 118.181C91.7917 118.132 91.9198 118.106 92.0491 118.106C92.1785 118.106 92.3066 118.132 92.4261 118.181C92.5455 118.231 92.6541 118.303 92.7456 118.395C92.837 118.486 92.9096 118.595 92.9591 118.714C93.0086 118.834 93.0341 118.962 93.0341 119.091C93.0341 119.221 93.0086 119.349 92.9591 119.468C92.9096 119.588 92.837 119.696 92.7456 119.788C92.6541 119.879 92.5455 119.952 92.4261 120.001C92.3066 120.051 92.1785 120.076 92.0491 120.076C91.9198 120.076 91.7917 120.051 91.6722 120.001C91.5527 119.952 91.4441 119.879 91.3527 119.788C91.2612 119.696 91.1887 119.588 91.1392 119.468C91.0897 119.349 91.0642 119.221 91.0642 119.091Z" fill="black"/>
<path d="M194.153 77.6391C194.112 76.7368 194.342 75.8428 194.813 75.0723C195.284 74.3017 195.976 73.6899 196.798 73.3156C197.62 72.9414 198.535 72.8218 199.426 72.9723C200.316 73.1227 201.141 73.5364 201.795 74.16C202.448 74.7836 202.9 75.5885 203.092 76.4711C203.284 77.3537 203.207 78.2736 202.872 79.1123C202.537 79.9509 201.958 80.6699 201.21 81.1767C200.462 81.6835 199.58 81.9548 198.677 81.9558C198.092 81.9855 197.508 81.8958 196.959 81.6921C196.411 81.4884 195.909 81.1749 195.486 80.7709C195.063 80.3669 194.726 79.8808 194.497 79.3423C194.268 78.8039 194.151 78.2243 194.153 77.6391ZM201.632 77.6391C201.632 77.0547 201.458 76.4834 201.134 75.9975C200.809 75.5116 200.347 75.1329 199.808 74.9093C199.268 74.6856 198.674 74.6271 198.1 74.7411C197.527 74.8551 197.001 75.1365 196.587 75.5498C196.174 75.963 195.893 76.4895 195.779 77.0627C195.665 77.6358 195.723 78.2299 195.947 78.7699C196.171 79.3098 196.549 79.7713 197.035 80.0959C197.521 80.4206 198.092 80.5939 198.677 80.5939C199.067 80.604 199.455 80.5344 199.818 80.3893C200.18 80.2442 200.509 80.0268 200.784 79.7502C201.06 79.4736 201.276 79.1437 201.42 78.7807C201.563 78.4177 201.631 78.0293 201.619 77.6391H201.632Z" fill="black"/>
<path d="M212.32 73.4441V81.8464H211.043L206.41 76.1557V81.8464H204.854V73.4441H206.143L210.776 79.1104V73.4441H212.32Z" fill="black"/>
<path d="M214.582 73.4441H216.138V80.521H220.54V81.8464H214.582V73.4441Z" fill="black"/>
<path d="M221.768 73.4441H223.324V81.8464H221.768V73.4441Z" fill="black"/>
<path d="M233.064 73.4441V81.8464H231.775L227.155 76.1557V81.8464H225.61V73.4441H226.899L231.52 79.1104V73.4441H233.064Z" fill="black"/>
<path d="M241.625 80.5331V81.8464H235.314V73.4441H241.394V74.7451H236.882V76.9339H240.944V78.2106H236.882V80.5331H241.625Z" fill="black"/>
<path d="M248.373 74.7573H245.589V73.4441H252.69V74.7573H249.905V81.8464H248.337L248.373 74.7573Z" fill="black"/>
<path d="M260.204 80.5331V81.8464H253.906V73.4441H259.986V74.7451H255.414V76.9339H259.463V78.2106H255.414V80.5331H260.204Z" fill="black"/>
<path d="M261.202 80.9587L261.749 79.7427C262.551 80.3387 263.522 80.6625 264.521 80.6669C265.834 80.6669 266.382 80.1926 266.382 79.5725C266.382 77.7607 261.384 78.9524 261.384 75.8273C261.384 74.4655 262.466 73.3225 264.777 73.3225C265.76 73.3043 266.728 73.5612 267.573 74.0642L267.075 75.2802C266.377 74.8567 265.58 74.6259 264.764 74.6114C263.463 74.6114 262.94 75.1221 262.94 75.7544C262.94 77.5418 267.914 76.3745 267.914 79.4631C267.914 80.8128 266.819 81.895 264.521 81.895C263.343 81.9489 262.178 81.6205 261.202 80.9587Z" fill="black"/>
<path d="M271.075 74.7573H268.291V73.4441H275.416V74.7573H272.632V81.8464H271.075V74.7573Z" fill="black"/>
<path d="M128.358 148.518H124.15L123.324 150.463H121.719L125.5 142.061H127.032L130.826 150.463H129.197L128.358 148.518ZM127.835 147.302L126.254 143.654L124.685 147.302H127.835Z" fill="black"/>
<path d="M86.0057 81.8342C87.8928 81.8342 89.4226 80.3044 89.4226 78.4173C89.4226 76.5303 87.8928 75.0005 86.0057 75.0005C84.1186 75.0005 82.5889 76.5303 82.5889 78.4173C82.5889 80.3044 84.1186 81.8342 86.0057 81.8342Z" fill="black"/>
<path d="M96.3536 81.8342C98.2407 81.8342 99.7705 80.3044 99.7705 78.4173C99.7705 76.5303 98.2407 75.0005 96.3536 75.0005C94.4665 75.0005 92.9368 76.5303 92.9368 78.4173C92.9368 80.3044 94.4665 81.8342 96.3536 81.8342Z" fill="black"/>
<path d="M106.702 81.8342C108.589 81.8342 110.118 80.3044 110.118 78.4173C110.118 76.5303 108.589 75.0005 106.702 75.0005C104.814 75.0005 103.285 76.5303 103.285 78.4173C103.285 80.3044 104.814 81.8342 106.702 81.8342Z" fill="black"/>
<path d="M377.204 95.3192C377.204 95.4894 307.651 95.6353 221.865 95.6353C136.079 95.6353 66.5139 95.4894 66.5139 95.3192C66.5139 95.149 136.055 95.0031 221.865 95.0031C307.676 95.0031 377.204 95.149 377.204 95.3192Z" fill="black"/>
<path d="M343.06 118.812C343.06 118.982 288.913 119.128 222.133 119.128C155.352 119.128 101.181 118.982 101.181 118.812C101.181 118.641 155.328 118.495 222.133 118.495C288.938 118.495 343.06 118.629 343.06 118.812Z" fill="black"/>
<path d="M194.518 127.031C194.518 127.202 173.847 127.348 148.312 127.348C122.777 127.348 102.032 127.202 102.032 127.031C102.032 126.861 122.704 126.715 148.312 126.715C173.92 126.715 194.518 126.849 194.518 127.031Z" fill="black"/>
<path d="M115.286 151.788H104.209V140.711H115.286V151.788ZM105.425 150.573H114.07V141.927H105.425V150.573Z" fill="black"/>
<path d="M130.315 169.213C130.315 170.648 129.185 171.487 127.02 171.487H122.849V163.085H126.777C128.795 163.085 129.878 163.936 129.878 165.273C129.89 165.652 129.795 166.027 129.604 166.354C129.412 166.681 129.132 166.947 128.795 167.122C129.248 167.248 129.644 167.523 129.92 167.902C130.196 168.282 130.335 168.744 130.315 169.213ZM124.406 164.349V166.66H126.619C127.689 166.66 128.309 166.283 128.309 165.517C128.309 164.751 127.689 164.301 126.619 164.301L124.406 164.349ZM128.735 169.092C128.735 168.253 128.102 167.876 126.923 167.876H124.406V170.308H126.923C128.102 170.308 128.735 169.894 128.735 169.092Z" fill="black"/>
<path d="M115.286 172.825H104.209V161.796H115.286V172.825ZM105.425 171.609H114.07V163.012H105.425V171.609Z" fill="black"/>
<path d="M122.241 188.316C122.285 187.428 122.588 186.572 123.113 185.854C123.638 185.136 124.362 184.588 125.196 184.277C126.029 183.967 126.935 183.907 127.802 184.107C128.669 184.306 129.458 184.755 130.072 185.398L129.063 186.346C128.78 186.031 128.433 185.78 128.045 185.61C127.657 185.44 127.237 185.355 126.813 185.361C126.03 185.361 125.278 185.672 124.724 186.227C124.17 186.781 123.859 187.532 123.859 188.316C123.859 189.1 124.17 189.851 124.724 190.405C125.278 190.959 126.03 191.271 126.813 191.271C127.238 191.277 127.659 191.191 128.047 191.019C128.436 190.846 128.782 190.592 129.063 190.274L130.072 191.234C129.458 191.877 128.669 192.326 127.802 192.525C126.935 192.724 126.029 192.665 125.196 192.354C124.362 192.044 123.638 191.496 123.113 190.778C122.588 190.06 122.285 189.204 122.241 188.316Z" fill="black"/>
<path d="M115.286 193.849H104.209V182.771H115.286V193.849ZM105.425 192.633H114.07V183.987H105.425V192.633Z" fill="black"/>
<path d="M122.849 205.145H126.497C129.221 205.145 131.081 206.823 131.081 209.34C131.081 211.857 129.221 213.547 126.497 213.547H122.849V205.145ZM126.497 212.222C126.891 212.247 127.285 212.192 127.656 212.059C128.027 211.926 128.367 211.718 128.655 211.449C128.943 211.179 129.172 210.854 129.329 210.492C129.485 210.13 129.566 209.74 129.566 209.346C129.566 208.952 129.485 208.562 129.329 208.2C129.172 207.838 128.943 207.513 128.655 207.243C128.367 206.974 128.027 206.766 127.656 206.633C127.285 206.5 126.891 206.445 126.497 206.47H124.406V212.222H126.497Z" fill="black"/>
<path d="M115.286 214.885H104.209V203.807H115.286V214.885ZM105.425 213.669H114.07V205.023H105.425V213.669Z" fill="black"/>
<path d="M222.121 146.256C222.121 146.426 203.881 146.572 181.313 146.572C158.745 146.572 140.493 146.426 140.493 146.256C140.493 146.086 158.733 145.94 181.313 145.94C203.893 145.94 222.121 146.073 222.121 146.256Z" fill="black"/>
<path d="M334.476 167.28C334.476 167.462 291.041 167.596 237.49 167.596C183.939 167.596 140.493 167.462 140.493 167.28C140.493 167.097 183.915 166.964 237.49 166.964C291.066 166.964 334.476 167.11 334.476 167.28Z" fill="black"/>
<path d="M167.183 209.34C167.183 209.51 161.213 209.656 153.808 209.656C146.402 209.656 140.432 209.51 140.432 209.34C140.432 209.17 146.402 209.024 153.808 209.024C161.213 209.024 167.183 209.218 167.183 209.34Z" fill="black"/>
<path d="M237.478 188.316C237.478 188.486 215.773 188.632 188.986 188.632C162.198 188.632 140.493 188.486 140.493 188.316C140.493 188.146 162.198 188 188.986 188C215.773 188 237.478 188.134 237.478 188.316Z" fill="black"/>
<path d="M89.751 239.277V240.59H83.5496V239.544L86.8934 236.383C87.7081 235.605 87.8541 235.106 87.8541 234.644C87.8541 233.866 87.319 233.428 86.2855 233.428C85.9132 233.409 85.5417 233.478 85.2014 233.631C84.8611 233.783 84.5617 234.013 84.3278 234.304L83.2334 233.465C83.6189 233 84.1076 232.631 84.6607 232.388C85.2138 232.145 85.816 232.035 86.4192 232.066C88.2432 232.066 89.4226 232.99 89.4226 234.498C89.4096 235.017 89.2778 235.525 89.0375 235.985C88.7972 236.444 88.4547 236.842 88.0364 237.149L85.7869 239.289L89.751 239.277Z" fill="black"/>
<path d="M90.6628 239.678C90.6628 239.417 90.7666 239.166 90.9513 238.982C91.136 238.797 91.3865 238.693 91.6478 238.693C91.909 238.693 92.1595 238.797 92.3442 238.982C92.5289 239.166 92.6327 239.417 92.6327 239.678C92.6327 239.939 92.5289 240.19 92.3442 240.375C92.1595 240.559 91.909 240.663 91.6478 240.663C91.3865 240.663 91.136 240.559 90.9513 240.375C90.7666 240.19 90.6628 239.939 90.6628 239.678Z" fill="black"/>
<path d="M125.415 269.104H121.22L120.393 271.05H118.776L122.558 262.648H124.102L127.896 271.05H126.23L125.415 269.104ZM124.904 267.888L123.324 264.241L121.743 267.888H124.904Z" fill="black"/>
<path d="M340.117 239.398C340.117 239.569 285.971 239.715 219.19 239.715C152.409 239.715 98.2627 239.617 98.2627 239.398C98.2627 239.18 152.397 239.082 219.202 239.082C286.007 239.082 340.117 239.228 340.117 239.398Z" fill="black"/>
<path d="M191.588 247.618C191.588 247.789 170.916 247.935 145.308 247.935C119.7 247.935 99.0288 247.789 99.0288 247.618C99.0288 247.448 119.7 247.302 145.308 247.302C170.916 247.302 191.588 247.436 191.588 247.618Z" fill="black"/>
<path d="M112.295 272.448H101.218V261.371H112.295V272.448ZM102.433 271.232H111.079V262.587H102.433V271.232Z" fill="black"/>
<path d="M127.373 289.8C127.373 291.235 126.242 292.074 124.09 292.074H119.907V283.672H123.798C125.816 283.672 126.899 284.523 126.899 285.86C126.908 286.239 126.812 286.612 126.621 286.939C126.43 287.265 126.151 287.532 125.816 287.709C126.276 287.825 126.682 288.097 126.966 288.478C127.249 288.859 127.393 289.326 127.373 289.8ZM121.475 284.936V287.259H123.676C124.758 287.259 125.366 286.87 125.366 286.104C125.366 285.337 124.758 284.888 123.676 284.888L121.475 284.936ZM125.804 289.678C125.804 288.839 125.172 288.463 123.992 288.463H121.475V290.894H123.992C125.172 290.858 125.804 290.481 125.804 289.642V289.678Z" fill="black"/>
<path d="M112.295 293.411H101.218V282.334H112.295V293.411ZM102.433 292.196H111.079V283.55H102.433V292.196Z" fill="black"/>
<path d="M119.311 308.927C119.305 308.343 119.419 307.764 119.646 307.226C119.872 306.687 120.206 306.201 120.628 305.797C121.049 305.392 121.549 305.078 122.096 304.874C122.643 304.67 123.227 304.581 123.81 304.61C124.432 304.585 125.052 304.697 125.626 304.939C126.2 305.18 126.713 305.546 127.13 306.009L126.133 306.957C125.849 306.643 125.501 306.393 125.114 306.223C124.726 306.054 124.306 305.968 123.883 305.972C123.099 305.972 122.348 306.284 121.794 306.838C121.24 307.392 120.928 308.143 120.928 308.927C120.928 309.711 121.24 310.462 121.794 311.016C122.348 311.571 123.099 311.882 123.883 311.882C124.308 311.887 124.728 311.801 125.117 311.629C125.505 311.457 125.851 311.203 126.133 310.885L127.13 311.845C126.517 312.49 125.728 312.94 124.862 313.14C123.995 313.34 123.089 313.281 122.256 312.97C121.423 312.659 120.699 312.11 120.176 311.391C119.652 310.672 119.351 309.816 119.311 308.927Z" fill="black"/>
<path d="M112.295 314.435H101.218V303.358H112.295V314.435ZM102.433 313.219H111.079V304.574H102.433V313.219Z" fill="black"/>
<path d="M119.907 325.732H123.555C126.278 325.732 128.139 327.41 128.139 329.939C128.139 332.468 126.278 334.134 123.555 334.134H119.907V325.732ZM123.555 332.821C123.955 332.858 124.359 332.811 124.741 332.682C125.122 332.554 125.473 332.348 125.77 332.077C126.067 331.806 126.305 331.476 126.467 331.107C126.63 330.739 126.714 330.341 126.714 329.939C126.714 329.537 126.63 329.139 126.467 328.771C126.305 328.402 126.067 328.072 125.77 327.801C125.473 327.53 125.122 327.324 124.741 327.195C124.359 327.067 123.955 327.02 123.555 327.057H121.524V332.821H123.555Z" fill="black"/>
<path d="M112.295 335.472H101.218V324.394H112.295V335.472ZM102.433 334.256H111.079V325.61H102.433V334.256Z" fill="black"/>
<path d="M219.19 266.843C219.19 267.013 200.951 267.159 178.37 267.159C155.79 267.159 137.551 267.013 137.551 266.843C137.551 266.673 155.79 266.527 178.37 266.527C200.951 266.527 219.19 266.673 219.19 266.843Z" fill="black"/>
<path d="M331.533 287.867C331.533 288.049 288.111 288.183 234.548 288.183C180.985 288.183 137.551 288.049 137.551 287.867C137.551 287.684 180.973 287.551 234.548 287.551C288.123 287.551 331.533 287.696 331.533 287.867Z" fill="black"/>
<path d="M164.253 329.927C164.253 330.109 158.27 330.243 150.877 330.243C143.484 330.243 137.502 330.109 137.502 329.927C137.502 329.744 143.484 329.611 150.877 329.611C158.27 329.611 164.253 329.757 164.253 329.927Z" fill="black"/>
<path d="M234.548 308.927C234.548 309.097 212.831 309.243 186.055 309.243C159.28 309.243 137.551 309.097 137.551 308.927C137.551 308.757 159.268 308.611 186.055 308.611C212.843 308.611 234.548 308.72 234.548 308.927Z" fill="black"/>
<path d="M313.074 358.782H263.013C260.996 358.782 258.998 358.384 257.133 357.611C255.269 356.839 253.576 355.706 252.15 354.279C250.723 352.852 249.592 351.157 248.821 349.293C248.05 347.428 247.654 345.43 247.656 343.412C247.656 339.339 249.274 335.432 252.154 332.552C255.034 329.672 258.94 328.054 263.013 328.054H313.074C317.148 328.054 321.054 329.672 323.934 332.552C326.814 335.432 328.432 339.339 328.432 343.412C328.434 345.43 328.038 347.428 327.267 349.293C326.495 351.157 325.365 352.852 323.938 354.279C322.512 355.706 320.818 356.839 318.954 357.611C317.09 358.384 315.092 358.782 313.074 358.782Z" fill="#7572FE"/>
<path d="M275.513 339.764V348.118H273.921L269.713 343.047V348.118H267.804V339.764H269.397L273.544 344.834V339.764H275.513Z" fill="white"/>
<path d="M283.952 346.622V348.178H277.483V339.825H283.794V341.381H279.441V343.193H283.32V344.689H279.441V346.622H283.952Z" fill="white"/>
<path d="M290.664 348.118L288.646 345.224L286.664 348.118H284.451L287.539 343.874L284.609 339.764H286.797L288.719 342.476L290.603 339.764H292.695L289.777 343.801L292.902 348.118H290.664Z" fill="white"/>
<path d="M295.248 341.345H292.573V339.764H299.869V341.345H297.194V348.118H295.248V341.345Z" fill="white"/>
<path d="M310.436 347.485C310.334 347.484 310.235 347.458 310.146 347.409C310.057 347.36 309.981 347.29 309.925 347.206C309.837 347.072 309.806 346.908 309.838 346.751C309.869 346.594 309.962 346.456 310.095 346.367L313.974 343.777C314.036 343.738 314.086 343.684 314.12 343.62C314.155 343.556 314.171 343.484 314.169 343.412C314.169 343.338 314.15 343.266 314.114 343.202C314.077 343.138 314.025 343.085 313.962 343.047L310.12 340.773C309.984 340.69 309.887 340.556 309.849 340.401C309.81 340.246 309.835 340.083 309.916 339.946C309.997 339.808 310.129 339.709 310.283 339.668C310.437 339.627 310.601 339.649 310.74 339.727L314.582 341.989C314.822 342.133 315.022 342.336 315.163 342.578C315.304 342.82 315.382 343.094 315.389 343.374C315.396 343.654 315.333 343.931 315.205 344.18C315.076 344.429 314.887 344.641 314.655 344.798L310.776 347.376C310.676 347.445 310.558 347.483 310.436 347.485Z" fill="white"/>
<path d="M102.835 172.63C102.47 172.265 104.817 169.31 108.088 166.027C111.359 162.744 114.313 160.41 114.69 160.774C115.067 161.139 112.708 164.106 109.437 167.377C106.166 170.648 103.212 173.007 102.835 172.63Z" fill="#7572FE"/>
<path d="M116.709 173.785C116.344 174.162 113.195 171.609 109.681 168.094C106.167 164.58 103.601 161.443 103.99 161.066C104.379 160.689 107.516 163.243 111.018 166.757C114.52 170.271 117.086 173.42 116.709 173.785Z" fill="#7572FE"/>
<path d="M100.172 272.983C99.7949 272.606 102.154 269.652 105.425 266.381C108.696 263.11 111.651 260.763 112.028 261.128C112.404 261.492 110.045 264.447 106.762 267.73C103.479 271.013 100.537 273.348 100.172 272.983Z" fill="#7572FE"/>
<path d="M114.07 274.138C113.693 274.503 110.556 271.962 107.042 268.448C103.528 264.934 100.962 261.784 101.351 261.419C101.74 261.055 104.865 263.596 108.38 267.11C111.894 270.624 114.411 273.761 114.07 274.138Z" fill="#7572FE"/>
<path d="M336.007 519.945L250.635 492.537C250.407 492.466 250.168 492.438 249.929 492.452L184.267 497.316C172.728 469.349 158.27 434.39 151.692 418.424C150.596 415.807 148.83 413.524 146.571 411.806C144.313 410.088 141.642 408.994 138.827 408.636L67.7175 399.346C66.872 399.243 66.0144 399.365 65.2304 399.697C64.4465 400.03 63.7636 400.563 63.2503 401.243C62.7369 401.922 62.4109 402.725 62.3051 403.57C62.1992 404.415 62.3171 405.273 62.6469 406.058L102.689 499.432C103.219 500.671 104 501.786 104.984 502.707C105.968 503.628 107.132 504.335 108.404 504.782L189.739 537.236C191.598 537.977 193.612 538.245 195.6 538.014L200.804 537.443C218.825 535.558 307.809 526.499 335.642 523.581C336.084 523.558 336.502 523.378 336.822 523.073C337.141 522.768 337.342 522.359 337.386 521.92C337.43 521.48 337.315 521.039 337.062 520.677C336.809 520.315 336.435 520.055 336.007 519.945Z" fill="#E0E0E0"/>
<path d="M336.007 519.945C336.292 520.037 336.551 520.195 336.762 520.406C336.973 520.618 337.132 520.876 337.223 521.161C337.334 521.521 337.336 521.905 337.23 522.266C337.124 522.627 336.915 522.949 336.627 523.192C336.244 523.488 335.774 523.65 335.29 523.654L333.685 523.824L313.707 525.94L240.214 533.588L215.895 536.117L202.945 537.455L196.293 538.172C193.99 538.531 191.632 538.258 189.472 537.382L135.07 515.714L120.539 509.913L113.134 506.971L109.401 505.487C108.781 505.22 108.185 505.001 107.516 504.721C106.88 504.44 106.276 504.089 105.716 503.676C104.59 502.842 103.647 501.787 102.944 500.575C102.263 499.359 101.825 498.082 101.266 496.83L98.0193 489.279C95.8387 484.22 93.6459 479.109 91.441 473.945C82.6009 453.274 73.4326 431.97 64.0575 410.107L62.7686 407.104C62.2237 406.105 61.9433 404.983 61.9539 403.845C62.0239 402.686 62.4797 401.583 63.2487 400.713C64.0177 399.842 65.0557 399.254 66.1976 399.042C66.4773 398.981 66.7691 399.042 67.0609 398.957L67.9 399.018L69.505 399.237L72.703 399.65L79.0746 400.477L104.221 403.772L128.783 406.982L134.863 407.773C136.869 408.077 138.876 408.21 140.943 408.685C144.937 409.714 148.405 412.193 150.67 415.64C151.684 417.357 152.535 419.164 153.212 421.039C153.958 422.855 154.703 424.662 155.449 426.462L159.863 437.175L168.472 458.041C174.09 471.684 179.501 484.792 184.644 497.267L184.377 497.097L248.361 492.367L250.136 492.233C250.456 492.23 250.774 492.288 251.072 492.404L251.911 492.683L255.122 493.753L261.59 495.833L273.787 499.833L295.309 506.776L325.404 516.504L333.308 519.094C335.095 519.678 336.007 519.994 336.007 519.994C336.007 519.994 335.083 519.726 333.284 519.167L325.355 516.662L295.248 507.007L273.714 500.125L261.432 496.185L254.963 494.118L251.644 493.06C251.122 492.847 250.574 492.703 250.015 492.635L248.239 492.768L184.267 497.632H184.085L184 497.45C178.844 484.986 173.433 471.915 167.791 458.247L159.17 437.381C157.711 433.847 156.235 430.276 154.744 426.669C154.002 424.869 153.248 423.021 152.507 421.246C151.839 419.41 151.005 417.639 150.014 415.956C147.842 412.647 144.518 410.263 140.687 409.268C138.791 408.806 136.748 408.66 134.754 408.368L128.674 407.578L104.099 404.38L78.953 401.097L72.5693 400.27L69.3713 399.845C68.3474 399.638 67.3 399.572 66.2584 399.65C65.2575 399.84 64.3484 400.358 63.6746 401.122C63.0009 401.886 62.6008 402.853 62.5376 403.869C62.53 404.912 62.794 405.939 63.3036 406.849L64.629 409.852L92.0003 473.702C94.2134 478.858 96.4021 483.969 98.5665 489.035C99.6609 491.565 100.731 494.082 101.813 496.586C102.36 497.802 102.835 499.14 103.467 500.234C104.122 501.374 105.009 502.364 106.069 503.141C106.595 503.529 107.162 503.859 107.759 504.125C108.343 504.381 108.975 504.612 109.607 504.867L113.34 506.363L120.733 509.318L135.325 515.118L189.703 536.847C191.78 537.698 194.051 537.963 196.269 537.613L202.932 536.896L215.882 535.582L240.202 533.15L313.719 525.697L333.709 523.69L335.314 523.544C335.778 523.544 336.23 523.394 336.603 523.119C336.88 522.889 337.083 522.584 337.189 522.241C337.295 521.897 337.298 521.531 337.199 521.185C337.083 520.756 336.803 520.39 336.421 520.164C336.153 520.006 336.007 519.957 336.007 519.945Z" fill="#263238"/>
<path d="M226.133 503.043L258.149 516.443L298.045 512.285L264.497 498.435L226.133 503.043Z" fill="#F5F5F5"/>
<path d="M201.996 528.372L264.497 522.73L204.817 499.067L185.629 500.514L195.771 524.979L201.996 528.372Z" fill="#F5F5F5"/>
<path d="M329.818 519.909L329.393 519.982L328.116 520.14L323.252 520.638L305.183 522.401L245.601 527.958L198.762 532.19H198.567L198.494 532.007L188.122 506.703L185.277 499.626C184.961 498.816 184.717 498.196 184.547 497.766C184.458 497.552 184.381 497.332 184.316 497.109C184.316 497.109 184.426 497.316 184.62 497.729L185.423 499.566L188.402 506.582C190.955 512.661 194.603 521.356 198.981 531.813L198.713 531.643L245.54 527.302L305.183 521.927L323.215 520.395L328.079 520.006L329.356 519.921L329.818 519.909Z" fill="black"/>
<path d="M64.7141 402.726H65.2491L66.8299 402.909L72.9097 403.699L95.2104 406.739C104.622 408.052 115.882 409.633 128.272 411.469L137.806 412.941L140.237 413.354C140.639 413.415 141.064 413.512 141.453 413.609C141.66 413.609 141.879 413.694 142.086 413.755C143.111 414.167 144.042 414.783 144.822 415.567C145.138 415.903 145.389 416.295 145.563 416.722L146.038 417.938C148.579 424.285 151.205 430.864 153.905 437.588C164.654 464.522 174.37 488.914 181.422 506.594C184.912 515.41 187.733 522.559 189.703 527.521C190.651 529.952 191.393 531.898 191.916 533.236C192.159 533.868 192.341 534.354 192.475 534.719C192.544 534.885 192.601 535.056 192.645 535.23C192.56 535.072 192.483 534.91 192.414 534.743L191.794 533.272L189.472 527.618C187.465 522.657 184.608 515.543 180.96 506.752L153.382 437.819C150.683 431.095 148.056 424.516 145.515 418.169L145.041 416.953C144.894 416.594 144.684 416.265 144.42 415.98C143.877 415.389 143.219 414.913 142.487 414.582C142.305 414.495 142.118 414.418 141.928 414.351L141.344 414.205C140.955 414.12 140.566 414.035 140.128 413.974L137.696 413.548L128.163 412.053L95.1375 407.189L72.861 403.942L66.7812 403.043L65.2127 402.787L64.7141 402.726Z" fill="black"/>
<path d="M127.567 458.624C130.607 462.698 131.215 467.379 128.941 469.081C126.667 470.784 122.339 468.875 119.299 464.801C116.259 460.728 115.651 456.058 117.925 454.344C120.198 452.629 124.527 454.563 127.567 458.624Z" fill="white"/>
<path d="M512.273 389.181C508.2 366.077 482.652 352.155 474.213 344.47L486.896 361.432C493.387 388.204 495.846 415.794 494.192 443.291C494.021 446.294 494.35 450.343 496.49 450.769C497.263 450.833 498.031 450.593 498.63 450.1C506.12 445.297 510.984 434.293 512.066 422.96C513.148 411.627 514.121 399.869 512.273 389.181Z" fill="#7572FE"/>
<path d="M493.572 363.305C492.356 360.982 492.854 353.577 486.276 361.311L485.85 358.417L445.201 327.167L354.599 331.872C345.905 332.42 332.846 347.473 329.587 353.76C326.912 377.143 326.377 397.899 326.377 397.899C326.377 397.899 323.264 423.896 326.377 436.19C329.49 448.483 333.174 452.921 337.989 462.479C341.513 469.008 345.906 475.03 351.049 480.378L355.28 513.209L449.931 521.72L493.255 519.288C493.255 519.288 489.377 454.539 489.377 453.396C489.377 452.86 494.788 440.36 500.6 427.094C510.473 404.392 504.904 385.217 493.572 363.305Z" fill="#455A64"/>
<path d="M255.875 481.071C256.35 481.071 261.08 449.103 264.181 441.844C267.099 434.998 329.587 353.747 329.587 353.747L344.3 401.17L337.989 426.535L303.942 467.501L294.324 497.194L255.875 481.071Z" fill="#455A64"/>
<path d="M506.169 387.6C501.682 359.159 479.527 360.399 479.527 360.399L457.506 398.714V477.946L351.268 487.138L349.298 513.817C349.298 513.817 455.147 538.014 479.6 529.904C495.785 524.541 509.452 511.008 510.948 488.889C512.443 466.771 510.668 416.053 506.169 387.6Z" fill="#455A64"/>
<path d="M304.052 467.452C303.743 465.64 303.337 463.846 302.836 462.077C301.503 457.829 299.098 453.995 295.852 450.947C292.606 447.899 288.629 445.74 284.305 444.677C282.506 444.273 280.688 443.965 278.857 443.753C279.358 443.693 279.864 443.693 280.365 443.753C281.728 443.809 283.083 443.988 284.414 444.288C288.851 445.27 292.94 447.435 296.247 450.551C299.554 453.668 301.957 457.621 303.201 461.992C303.584 463.303 303.844 464.646 303.979 466.005C304.063 466.482 304.088 466.969 304.052 467.452Z" fill="black"/>
<path d="M354.903 486.044C355.055 486.003 355.209 485.975 355.365 485.959L356.715 485.764L361.919 485.071L381.095 482.639L444.325 474.955L458.382 473.277L458.102 473.581C458.917 452.034 459.318 433.04 459.172 419.434C459.172 412.637 459.026 407.177 458.941 403.42C458.941 401.571 458.856 400.124 458.832 399.115V397.996C458.832 397.741 458.832 397.619 458.832 397.607C458.844 397.737 458.844 397.867 458.832 397.996C458.832 398.276 458.832 398.641 458.905 399.103C458.905 400.124 459.026 401.535 459.111 403.42C459.269 407.165 459.44 412.624 459.537 419.434C459.756 433.04 459.464 452.058 458.673 473.593V473.86H458.406L444.349 475.55L381.059 483.053L361.871 485.254L356.642 485.813L355.28 485.947L354.903 486.044Z" fill="black"/>
<path d="M512.395 486.044C512.411 486.206 512.411 486.369 512.395 486.53C512.395 486.871 512.395 487.345 512.322 487.941C512.212 489.754 512.005 491.561 511.702 493.352C511.224 496.194 510.529 498.995 509.622 501.73C508.381 505.343 506.715 508.796 504.661 512.017C502.162 515.939 499.007 519.402 495.335 522.255C491.115 525.532 486.237 527.859 481.035 529.077C478.235 529.75 475.39 530.226 472.523 530.5C469.54 530.767 466.545 530.881 463.55 530.84C457.269 530.713 451.007 530.128 444.812 529.089L408.929 523.192L393.279 520.59L379.648 518.072C371.343 516.516 364.607 515.337 359.938 514.631L354.551 513.841L353.152 513.646C352.991 513.632 352.832 513.599 352.678 513.549H353.152L354.563 513.695C355.779 513.829 357.627 514.036 359.974 514.364C364.655 514.996 371.404 516.115 379.733 517.61L393.34 520.042L409.002 522.584L444.885 528.445C451.058 529.496 457.301 530.093 463.562 530.232C466.602 530.232 469.569 530.147 472.475 529.916C475.309 529.655 478.121 529.191 480.889 528.53C486.025 527.342 490.844 525.06 495.019 521.842C498.657 519.041 501.79 515.64 504.284 511.786C506.341 508.604 508.018 505.192 509.282 501.621C510.211 498.914 510.938 496.142 511.458 493.328C511.86 491.005 512.103 489.181 512.188 487.941L512.334 486.53C512.343 486.367 512.363 486.205 512.395 486.044Z" fill="black"/>
<path d="M352.034 488.002C351.984 487.839 351.951 487.672 351.936 487.503C351.876 487.126 351.791 486.628 351.705 486.02C351.511 484.658 351.231 482.761 350.891 480.353V480.439L342.841 471.526C341.272 469.288 339.854 466.948 338.597 464.522C337.192 461.759 335.95 458.917 334.876 456.01C332.504 449.439 330.873 442.624 330.013 435.691C329.164 428.187 328.989 420.622 329.49 413.086C329.867 406.155 330.584 399.93 331.265 394.725C331.946 389.521 332.59 385.326 333.053 382.42L333.6 379.088C333.661 378.736 333.709 378.456 333.758 378.225C333.767 378.124 333.792 378.026 333.831 377.933C333.842 378.03 333.842 378.128 333.831 378.225C333.831 378.468 333.831 378.748 333.733 379.1C333.624 379.927 333.49 381.046 333.308 382.456C332.919 385.363 332.347 389.57 331.715 394.786C331.083 400.003 330.511 406.204 330.134 413.135C329.67 420.632 329.857 428.154 330.694 435.618C331.541 442.508 333.139 449.285 335.46 455.827C336.51 458.705 337.728 461.519 339.108 464.254C340.339 466.667 341.724 468.999 343.254 471.234L351.195 480.256L351.851 485.935C351.912 486.555 351.961 487.053 352.009 487.43C352.051 487.618 352.06 487.811 352.034 488.002Z" fill="black"/>
<path d="M473.691 490.957C472.889 490.067 472.153 489.12 471.49 488.123C470.164 486.336 468.304 483.904 466.127 481.314C463.951 478.724 461.896 476.45 460.376 474.845C459.503 474.012 458.69 473.118 457.944 472.17C458.933 472.857 459.846 473.648 460.668 474.529C462.758 476.546 464.735 478.677 466.589 480.913C468.457 483.133 470.207 485.451 471.83 487.856C472.553 488.824 473.177 489.863 473.691 490.957Z" fill="black"/>
<path d="M281.873 484.974C280.973 479.782 276.243 475.733 276.243 475.733C276.243 475.733 273.981 469.41 270.601 467.744C267.22 466.078 264.521 469.41 261.578 468.51C258.636 467.61 252.325 467.379 250.294 468.51C248.263 469.641 245.783 475.952 245.783 475.952C243.736 476.034 241.733 476.574 239.922 477.532C238.387 478.325 237.059 479.466 236.043 480.864C235.162 480.521 234.197 480.453 233.276 480.67C232.355 480.887 231.522 481.379 230.887 482.08C229.654 483.522 228.731 485.202 228.176 487.017L226.571 491.321C226.262 491.978 226.12 492.7 226.157 493.425C226.281 494.021 226.604 494.557 227.072 494.946C227.54 495.335 228.127 495.553 228.735 495.565C229.353 495.568 229.965 495.441 230.531 495.191C231.096 494.942 231.603 494.576 232.018 494.118C232.846 493.301 233.576 492.391 234.195 491.406L234.596 494.228C234.596 494.228 235.265 498.69 238.876 498.958C241.369 499.152 244.068 496.258 244.068 496.258L250.379 495.577L251.279 501.888C251.695 503.104 252.49 504.155 253.547 504.886C254.604 505.617 255.868 505.99 257.152 505.949C259.414 505.949 262.332 502.119 262.332 502.119L268.205 504.369C268.205 504.369 274.966 509.111 278.128 507.53C279.012 507.083 279.717 506.348 280.128 505.446C280.539 504.544 280.631 503.53 280.389 502.569C281.739 501.039 282.806 499.281 283.539 497.377C284.39 494.677 282.821 490.166 281.873 484.974Z" fill="#FFBE9D"/>
<path d="M234.45 493.145C234.193 490.913 234.271 488.655 234.681 486.445C234.892 484.211 235.441 482.021 236.311 479.952C236.481 479.952 235.812 482.907 235.301 486.543C234.791 490.178 234.681 493.145 234.45 493.145Z" fill="#EB996E"/>
<path d="M244.312 487.211C244.695 488.746 244.875 490.324 244.847 491.905C244.976 493.047 244.86 494.204 244.506 495.298C244.154 496.149 243.655 496.514 243.619 496.416C243.582 496.319 243.874 495.942 244.081 495.2C244.289 494.139 244.334 493.053 244.214 491.978C244.029 490.392 244.062 488.788 244.312 487.211Z" fill="#EB996E"/>
<path d="M248.519 484.524C248.64 484.646 247.813 485.74 246.658 486.859C245.503 487.977 244.482 488.877 244.348 488.756C244.214 488.634 245.053 487.54 246.208 486.421C247.364 485.302 248.397 484.403 248.519 484.524Z" fill="#EB996E"/>
<path d="M249.358 472.389C249.494 473.526 249.543 474.673 249.504 475.818C249.504 477.946 249.589 480.864 249.759 484.086C249.929 487.309 250.185 490.227 250.367 492.343C250.54 493.477 250.613 494.625 250.586 495.772C250.25 494.671 250.03 493.538 249.929 492.391C249.625 490.288 249.309 487.369 249.127 484.123C248.945 480.876 248.969 477.946 249.054 475.818C249.036 474.667 249.138 473.518 249.358 472.389Z" fill="#EB996E"/>
<path d="M273.02 474.809C273.02 474.809 272.753 475.417 272.327 476.511C271.734 478.061 271.263 479.655 270.917 481.278C270.698 482.323 270.467 483.454 270.212 484.658C269.97 485.976 269.612 487.27 269.142 488.525C268.617 489.942 267.732 491.199 266.576 492.173C265.944 492.72 265.192 493.111 264.38 493.312C263.568 493.512 262.721 493.518 261.907 493.328C261.06 493.137 260.295 492.686 259.718 492.039C259.185 491.396 258.844 490.617 258.733 489.789C258.56 488.312 258.532 486.822 258.648 485.339C258.786 482.851 259.168 480.383 259.791 477.97C260.208 476.344 260.745 474.751 261.396 473.204C261.627 472.656 261.809 472.243 261.955 471.988C262.017 471.839 262.099 471.7 262.198 471.574C262.047 472.166 261.856 472.747 261.627 473.313C261.069 474.877 260.602 476.473 260.229 478.092C259.675 480.488 259.342 482.93 259.231 485.388C259.135 486.823 259.172 488.264 259.341 489.692C259.44 490.407 259.735 491.08 260.192 491.638C260.688 492.182 261.336 492.563 262.052 492.732C262.774 492.898 263.525 492.891 264.244 492.711C264.962 492.532 265.628 492.185 266.187 491.698C267.272 490.787 268.108 489.615 268.619 488.294C269.383 485.952 270.012 483.569 270.503 481.156C270.885 479.523 271.423 477.931 272.109 476.402C272.298 475.983 272.513 475.577 272.753 475.186C272.899 474.93 272.996 474.797 273.02 474.809Z" fill="#EB996E"/>
<path d="M275.404 477.545C275.233 478.893 274.638 480.152 273.705 481.14C272.771 482.128 271.548 482.794 270.212 483.041C271.277 482.338 272.289 481.557 273.239 480.706C274.038 479.707 274.762 478.651 275.404 477.545Z" fill="#EB996E"/>
<path d="M262.344 493.267C262.743 494.955 262.846 496.699 262.648 498.423C262.584 499.956 262.368 501.479 262.004 502.97V503.055C261.958 503.079 261.908 503.092 261.857 503.093C261.806 503.095 261.755 503.084 261.708 503.063C261.661 503.042 261.62 503.011 261.587 502.972C261.554 502.932 261.53 502.886 261.518 502.837C261.518 502.715 261.518 502.666 261.518 502.666C261.518 502.666 261.518 502.727 261.603 502.776C261.688 502.824 261.773 502.873 261.809 502.776L261.736 502.873C261.736 502.046 261.919 500.319 262.028 498.325C262.015 496.634 262.12 494.944 262.344 493.267Z" fill="#EB996E"/>
<path d="M276.656 488.233C276.188 489.006 275.633 489.724 275.003 490.373C273.609 491.994 272.387 493.754 271.355 495.626C270.328 497.495 269.746 499.575 269.652 501.706C269.652 503.347 269.932 504.344 269.823 504.369C269.396 503.547 269.183 502.631 269.202 501.706C269.166 499.475 269.715 497.274 270.795 495.322C271.867 493.402 273.192 491.635 274.735 490.069C275.295 489.378 275.94 488.761 276.656 488.233Z" fill="#EB996E"/>
<path d="M274.163 499.444C273.783 498.077 273.847 496.624 274.345 495.296C274.843 493.967 275.75 492.831 276.936 492.051C281.18 489.035 293.886 481.107 294.154 481.107C294.421 481.107 309.074 476.243 315.239 475.611C321.404 474.979 348.386 488.379 348.386 488.379C348.386 488.379 354.648 497.401 353.639 506.059C352.629 514.716 346.987 515.215 346.987 515.215L339.157 513.306L331.083 511.762C331.083 511.762 313.22 516.735 310.411 515.823C307.602 514.911 306.63 511.859 309.669 510.205C312.709 508.552 321.452 505.962 321.452 505.962L328.176 503.116L306.289 506.241C306.289 506.241 287.782 509.889 285.618 509.378C283.453 508.868 283.125 507.25 282.943 505.73C282.943 505.73 275.489 509.378 273.276 507.384C271.063 505.39 270.09 501.049 274.163 499.444Z" fill="#FFBE9D"/>
<path d="M321.404 494.118C320.861 494.206 320.311 494.234 319.762 494.203C318.716 494.203 317.196 494.203 315.324 494.325C313.14 494.424 310.97 494.729 308.843 495.237C307.589 495.556 306.368 495.992 305.195 496.538C303.979 497.097 302.763 497.754 301.547 498.483C300.307 499.193 299.014 499.807 297.68 500.319C296.433 500.78 295.127 501.062 293.801 501.158C291.616 501.159 289.439 501.404 287.308 501.888C285.917 502.331 284.69 503.177 283.782 504.32C283.474 504.764 283.202 505.232 282.967 505.718C282.967 505.718 282.967 505.56 283.04 505.293C283.166 504.901 283.346 504.528 283.575 504.186C284.451 502.923 285.708 501.973 287.162 501.475C289.315 500.912 291.528 500.614 293.753 500.587C296.4 500.278 298.943 499.376 301.194 497.948C302.41 497.255 303.626 496.55 304.915 495.978C306.116 495.431 307.366 494.999 308.648 494.69C310.813 494.184 313.028 493.919 315.251 493.899C317.148 493.899 318.668 493.899 319.726 493.972C320.288 493.968 320.85 494.017 321.404 494.118Z" fill="#EB996E"/>
<path d="M314.789 484.889C314.663 484.972 314.528 485.042 314.387 485.096C314.132 485.217 313.731 485.375 313.171 485.558C311.679 486.018 310.155 486.367 308.612 486.603C306.678 486.944 304.344 487.199 301.863 487.819C299.19 488.627 296.623 489.75 294.215 491.163C289.727 493.66 285.042 495.783 280.207 497.511C278.358 498.167 276.839 498.654 275.781 498.97C275.244 499.164 274.69 499.306 274.127 499.395C274.631 499.125 275.16 498.905 275.708 498.739L280.049 497.085C284.814 495.248 289.446 493.083 293.911 490.604C296.364 489.167 298.986 488.039 301.717 487.248C303.972 486.739 306.253 486.357 308.551 486.105C310.081 485.911 311.6 485.631 313.099 485.266C313.654 485.109 314.219 484.983 314.789 484.889Z" fill="#EB996E"/>
<path d="M332.554 490.105C332.393 489.631 332.275 489.142 332.201 488.646C331.911 487.509 331.35 486.459 330.567 485.584C329.783 484.71 328.801 484.038 327.702 483.624C327.219 483.494 326.747 483.323 326.292 483.114C326.292 483.041 326.9 482.968 327.848 483.199C329.08 483.531 330.19 484.21 331.046 485.156C331.895 486.109 332.449 487.287 332.639 488.549C332.767 489.065 332.737 489.607 332.554 490.105Z" fill="#EB996E"/>
<path d="M342.671 503.761C342.648 503.077 342.587 502.395 342.488 501.718C342.074 500.137 341.14 498.741 339.838 497.754C338.497 496.78 337.017 496.014 335.448 495.48C334.765 495.299 334.11 495.025 333.502 494.665C334.213 494.675 334.916 494.807 335.582 495.054C337.26 495.485 338.84 496.232 340.239 497.255C341.657 498.326 342.618 499.895 342.926 501.645C343.103 502.358 343.012 503.11 342.671 503.761Z" fill="#EB996E"/>
<path d="M283.016 505.706C282.706 505.982 282.347 506.196 281.958 506.339C280.942 506.817 279.894 507.224 278.821 507.555C278.082 507.813 277.326 508.02 276.559 508.175C275.634 508.297 274.693 508.201 273.811 507.895C273.313 507.713 272.859 507.428 272.477 507.059C272.096 506.691 271.797 506.246 271.598 505.755C271.095 504.756 270.892 503.632 271.014 502.52C271.141 501.681 271.574 500.919 272.23 500.38C272.789 499.889 273.416 499.479 274.09 499.164L273.932 499.529C273.437 498.022 273.551 496.382 274.249 494.957C274.827 493.889 275.608 492.944 276.547 492.173C277.149 491.67 277.791 491.219 278.468 490.823C278.7 490.655 278.959 490.528 279.234 490.446C279.295 490.531 278.249 491.139 276.802 492.452C275.948 493.233 275.239 494.159 274.711 495.188C274.111 496.501 274.041 497.995 274.516 499.359L274.589 499.59L274.358 499.712C273.215 500.307 271.841 501.183 271.707 502.618C271.606 503.607 271.782 504.605 272.218 505.5C272.379 505.92 272.627 506.302 272.945 506.62C273.264 506.939 273.646 507.187 274.066 507.348C274.843 507.633 275.674 507.741 276.498 507.664C277.245 507.529 277.983 507.355 278.711 507.141C280.061 506.764 281.143 506.387 281.873 506.12C282.238 505.942 282.621 505.803 283.016 505.706Z" fill="#EB996E"/>
<path d="M377.228 259.729C374.59 233.392 369.008 207.176 370.164 180.692L348.507 194.213C349.589 204.695 340.166 212.818 334.706 221.816C331.439 227.313 329.523 233.507 329.115 239.888C328.707 246.27 329.819 252.657 332.359 258.526C334.305 262.903 337.065 267.037 337.783 271.78C338.998 279.781 334.05 287.915 335.873 295.807C337.965 304.89 349.079 309.876 358.04 307.322C367.002 304.769 373.422 296.378 376.061 287.49C378.7 278.601 378.152 269.007 377.228 259.729Z" fill="#263238"/>
<path d="M349.675 189.763C350.873 183.337 353.758 177.344 358.035 172.4C362.311 167.456 367.826 163.738 374.013 161.627C380.2 159.516 386.837 159.088 393.243 160.387C399.65 161.686 405.596 164.665 410.473 169.019C414.425 172.557 417.659 176.971 422.231 179.658C427.399 182.686 428.068 181.665 433.758 183.501C439.449 185.337 450.599 200.196 450.782 206.178L455.208 232.2C455.354 238.341 447.693 242.292 441.759 240.712C435.826 239.131 431.643 233.89 428.238 228.759C424.833 223.627 421.599 218.071 416.358 214.848C407.664 209.51 396.501 212.234 386.652 214.848C376.803 217.463 365.361 219.712 357.165 213.632C350.161 208.343 348.07 198.372 349.675 189.763Z" fill="#263238"/>
<path d="M346.538 227.458C346.538 210.337 356.618 188.729 373.714 189.508L427.581 199.722C430.089 199.833 432.463 200.882 434.233 202.661C436.004 204.44 437.041 206.82 437.139 209.328L439.169 337.612H439.534C439.534 337.612 420.821 384.669 385.071 375.842C377.982 374.091 383.223 356.447 381.35 348.713L380.998 348.786C380.925 347.85 380.864 346.987 380.791 346.099C379.745 340.312 379.309 334.431 379.49 328.553C378.748 318.229 378.493 313.961 378.493 314.095C378.493 314.229 356.484 311.785 350.258 283.635C347.17 269.7 346.477 246.488 346.538 227.458Z" fill="#FFBE9D"/>
<path d="M356.046 249.856C356.094 250.806 356.511 251.7 357.208 252.348C357.905 252.995 358.828 253.345 359.779 253.321C360.246 253.331 360.71 253.247 361.143 253.075C361.577 252.902 361.971 252.644 362.303 252.317C362.635 251.989 362.898 251.598 363.077 251.167C363.255 250.736 363.346 250.274 363.342 249.807C363.295 248.857 362.878 247.962 362.181 247.315C361.483 246.668 360.561 246.318 359.609 246.342C359.143 246.332 358.679 246.416 358.246 246.588C357.812 246.761 357.418 247.018 357.086 247.346C356.753 247.674 356.49 248.065 356.312 248.496C356.133 248.927 356.043 249.389 356.046 249.856Z" fill="#263238"/>
<path d="M352.289 239.216C352.763 239.666 355.402 237.453 359.33 237.234C363.257 237.015 366.248 238.791 366.625 238.292C366.832 238.061 366.309 237.234 365.008 236.395C363.238 235.318 361.178 234.816 359.111 234.96C357.09 235.105 355.166 235.883 353.615 237.185C352.399 238.134 352.046 239.022 352.289 239.216Z" fill="#263238"/>
<path d="M391.431 247.874C391.478 248.824 391.895 249.718 392.592 250.366C393.29 251.013 394.212 251.363 395.164 251.339C395.63 251.349 396.094 251.265 396.527 251.093C396.961 250.92 397.355 250.662 397.687 250.335C398.02 250.007 398.283 249.616 398.461 249.185C398.64 248.754 398.73 248.292 398.727 247.825C398.679 246.868 398.257 245.968 397.552 245.32C396.847 244.671 395.915 244.326 394.957 244.36C394.494 244.355 394.034 244.442 393.605 244.617C393.175 244.792 392.785 245.05 392.457 245.377C392.129 245.704 391.869 246.094 391.693 246.522C391.517 246.951 391.427 247.41 391.431 247.874Z" fill="#263238"/>
<path d="M390.896 237.635C391.37 238.073 394.009 235.872 397.936 235.641C401.864 235.41 404.855 237.21 405.232 236.699C405.426 236.468 404.928 235.641 403.615 234.802C401.843 233.73 399.784 233.229 397.717 233.367C395.678 233.49 393.73 234.252 392.148 235.544C391.017 236.541 390.653 237.429 390.896 237.635Z" fill="#263238"/>
<path d="M378.408 267.584C378.408 267.353 375.976 267.086 371.963 266.818C370.954 266.818 369.993 266.624 369.787 265.955C369.64 264.924 369.809 263.872 370.273 262.94C371.076 260.508 371.903 257.869 372.778 255.145C376.244 244.031 378.675 234.924 378.226 234.79C377.776 234.656 374.578 243.545 371.149 254.647L368.778 262.502C368.216 263.744 368.117 265.145 368.498 266.454C368.663 266.801 368.906 267.105 369.207 267.343C369.509 267.582 369.861 267.747 370.237 267.828C370.8 267.945 371.376 267.99 371.951 267.961C375.94 267.937 378.408 267.803 378.408 267.584Z" fill="#263238"/>
<path d="M378.493 314.168C391.888 313.561 404.852 309.251 415.945 301.717C415.945 301.717 407.53 322.084 378.931 321.172L378.493 314.168Z" fill="#EB996E"/>
<path d="M380.633 276.935C381.321 275.95 382.25 275.156 383.331 274.631C384.412 274.105 385.61 273.864 386.81 273.932C387.68 273.953 388.536 274.152 389.326 274.516C390.117 274.88 390.825 275.401 391.406 276.048C391.971 276.669 392.331 277.449 392.438 278.282C392.544 279.115 392.392 279.961 392.002 280.705C391.416 281.447 390.621 281.997 389.72 282.285C388.819 282.573 387.852 282.586 386.944 282.322C385.05 281.778 383.285 280.86 381.752 279.622C381.28 279.339 380.867 278.968 380.536 278.528C380.379 278.321 380.287 278.071 380.272 277.811C380.256 277.552 380.319 277.293 380.451 277.069" fill="#EB996E"/>
<path d="M390.093 269.603C389.449 269.603 389.692 273.859 386.239 277.093C382.785 280.328 378.213 280.145 378.213 280.741C378.213 281.009 379.271 281.507 381.192 281.446C383.689 281.333 386.066 280.343 387.905 278.65C389.668 277.022 390.728 274.771 390.859 272.375C390.944 270.588 390.397 269.554 390.093 269.603Z" fill="#263238"/>
<path d="M389.011 222.764C389.461 223.81 393.352 223.068 397.985 223.348C402.618 223.627 406.424 224.649 406.971 223.652C407.214 223.178 406.509 222.217 404.952 221.22C402.872 220.074 400.557 219.417 398.185 219.299C395.813 219.181 393.444 219.605 391.26 220.539C389.619 221.378 388.877 222.266 389.011 222.764Z" fill="#263238"/>
<path d="M353.043 227.774C353.785 228.625 356.436 227.543 359.682 227.3C362.929 227.056 365.762 227.543 366.297 226.57C366.552 226.096 366.066 225.232 364.801 224.466C363.127 223.548 361.217 223.149 359.315 223.323C357.413 223.496 355.606 224.233 354.125 225.439C353.031 226.424 352.715 227.36 353.043 227.774Z" fill="#263238"/>
<path d="M374.201 182.188L376.414 178.953C392.949 179.81 409.291 182.911 424.991 188.17C431.266 190.274 437.637 192.864 442.136 197.715C448.338 204.379 449.858 214.009 451.074 223.032C455.719 257.358 459.999 292.755 451.195 326.267C448.326 322.23 443.097 320.661 438.184 320.017C433.272 319.372 428.153 319.397 423.593 317.415C421.117 316.281 418.905 314.641 417.1 312.601C415.294 310.562 413.936 308.167 413.111 305.571C411.487 300.332 411.758 294.689 413.877 289.63C416.176 284 420.541 278.431 419.021 272.606C417.428 266.441 410.047 263.316 407.98 257.297C404.417 246.889 418.68 236.456 415.02 226.084C413.659 222.253 410.084 219.627 406.338 218.046C402.593 216.465 398.556 215.699 394.775 214.228C388.487 211.623 383.146 207.158 379.468 201.431C375.791 195.704 373.953 188.989 374.201 182.188Z" fill="#263238"/>
<path d="M458.321 199.15C440.641 174.369 428.663 171.365 412.029 170.441L435.132 222.241C438.598 230.583 443.364 240.7 444.106 249.686C444.982 260.35 441.285 269.275 436.336 278.747C430.402 290.128 423.885 300.975 413.683 308.757C403.481 316.539 380.767 326.328 368.972 321.281L385.424 330.486L424.724 330.632L470.505 330.814C470.505 330.814 475.855 326.121 480.561 314.01C492.368 283.672 478.044 226.789 458.321 199.15Z" fill="#7572FE"/>
<path d="M490.921 360.557C490.921 360.557 481.072 340.348 468.219 329.234C455.366 318.12 447.475 318.229 429.138 319.786C410.801 321.342 385.144 324.236 379.065 322.692L378.493 314.18C375.478 313.876 363.111 307.857 360.704 304.221C356.107 308.927 354.101 313.949 355.147 319.287L352.143 320.418C347.713 322.039 344.034 325.235 341.809 329.395C339.584 333.555 338.969 338.389 340.081 342.974C341.224 347.352 343.984 350.039 349.529 350.999C371.538 354.805 430.378 338.901 448.095 338.84C465.811 338.779 490.921 360.557 490.921 360.557Z" fill="#7572FE"/>
<path d="M347.535 350.768C348.051 350.753 348.567 350.782 349.079 350.854C350.076 350.951 351.511 351.109 353.444 351.243C358.808 351.661 364.193 351.75 369.568 351.51C377.531 351.1 385.446 350.027 393.23 348.3C397.632 347.339 402.216 346.172 406.922 344.81L421.441 340.323C431.4 337.296 441.383 335.228 450.514 336.128C458.56 336.864 466.347 339.354 473.326 343.424C478.011 346.17 482.248 349.619 485.887 353.65C486.876 354.739 487.801 355.884 488.659 357.079C488.977 357.462 489.266 357.869 489.522 358.295C489.139 357.955 488.796 357.571 488.501 357.152C487.881 356.362 486.896 355.255 485.595 353.869C476.316 344.15 463.815 338.142 450.429 336.967C441.48 336.14 431.655 338.183 421.733 341.199C416.759 342.694 411.932 344.287 407.202 345.661C402.472 347.035 397.863 348.178 393.425 349.115C385.584 350.816 377.61 351.825 369.592 352.13C364.19 352.311 358.782 352.112 353.408 351.534C351.511 351.34 350.04 351.121 349.055 350.963C348.543 350.942 348.035 350.877 347.535 350.768Z" fill="#263238"/>
<path d="M491.979 353.918C469.775 325.051 427.204 314.022 393.766 328.468L358.503 335.946C349.201 337.551 334.281 340.579 333.575 349.2C332.931 358.33 334.919 367.454 339.303 375.489C347.498 389.764 343.048 408.891 351.243 423.167C355.11 429.915 359.062 436.761 364.704 442.124C370.346 447.486 378.007 451.243 385.74 450.404C394.349 449.48 401.402 443.194 406.874 436.481C418.656 422.024 426.013 404.465 437.042 389.436C448.07 374.407 461.081 363.341 484.257 361.919C488.465 361.651 500.466 367.257 500.466 367.257C500.807 365.554 493.037 355.267 491.979 353.918Z" fill="#7572FE"/>
<g opacity="0.3">
<path opacity="0.3" d="M444.52 336.748C429.186 336.748 414.121 344.117 399.261 347.4C339.485 360.557 339.485 338.013 339.485 338.013C337.612 348.604 347.559 353.468 358.028 355.9C378.019 360.52 399.371 363.001 413.792 358.392C425.417 354.745 437.552 352.033 449.286 348.665C461.02 345.297 477.922 346.585 486.811 354.927C478.858 341.855 459.853 336.712 444.52 336.748Z" fill="black"/>
</g>
<g opacity="0.3">
<path opacity="0.3" d="M366.832 335.131C367.546 336.697 368.589 338.09 369.89 339.217C371.191 340.344 372.719 341.177 374.371 341.661C377.682 342.615 381.148 342.913 384.573 342.536C397.073 341.685 409.087 337.514 420.918 333.38C411.458 333.052 402.302 336.347 393.024 338.244C383.746 340.141 373.289 340.263 365.75 334.596" fill="black"/>
</g>
<path d="M494.982 363.171C494.982 363.171 494.873 363.086 494.702 362.904L493.961 362.053C493.316 361.286 492.331 360.216 491.03 358.855C487.367 355.003 482.94 351.958 478.032 349.917C474.606 348.625 471.009 347.846 467.355 347.607C463.167 347.267 458.953 347.402 454.794 348.008C445.967 349.224 436.64 352.325 426.742 355.146C416.844 357.967 407.396 360.91 398.41 361.384C390.488 361.725 382.553 361.158 374.76 359.694C368.121 358.478 362.831 357.067 359.171 356.155L354.964 355.085L353.882 354.793L353.505 354.672C353.634 354.653 353.765 354.653 353.894 354.672L355.001 354.903L359.232 355.863C362.88 356.702 368.206 358.028 374.845 359.195C382.605 360.596 390.497 361.118 398.374 360.751C407.263 360.253 416.723 357.444 426.572 354.489C436.421 351.534 445.809 348.555 454.709 347.376C458.914 346.783 463.173 346.668 467.404 347.035C471.941 347.296 476.381 348.456 480.466 350.447C484.551 352.439 488.2 355.222 491.2 358.636C492.489 360.034 493.45 361.128 494.058 361.919L494.751 362.806L494.982 363.171Z" fill="black"/>
<path d="M472.657 333.429C472.565 333.369 472.48 333.299 472.402 333.222L471.696 332.578C471.101 331.994 470.164 331.179 468.948 330.146C465.446 327.315 461.607 324.93 457.518 323.044C451.45 320.264 444.998 318.411 438.379 317.548C430.266 316.541 422.058 316.562 413.95 317.609C405.835 318.682 397.782 320.184 389.826 322.108C386.31 322.934 382.69 323.221 379.089 322.959C375.922 322.723 372.881 321.621 370.297 319.774C368.224 318.199 366.453 316.263 365.069 314.059C364.024 312.413 363.117 310.685 362.357 308.891C361.737 307.419 361.324 306.24 361.056 305.437L360.776 304.525C360.736 304.424 360.711 304.318 360.703 304.209C360.703 304.209 360.764 304.306 360.837 304.501C360.91 304.696 361.044 305.036 361.178 305.401C361.482 306.179 361.932 307.334 362.588 308.793C363.382 310.554 364.313 312.249 365.373 313.864C366.758 316.008 368.517 317.885 370.565 319.409C373.099 321.179 376.066 322.225 379.15 322.436C382.693 322.667 386.251 322.363 389.704 321.537C397.671 319.572 405.741 318.054 413.877 316.989C422.039 315.936 430.302 315.936 438.464 316.989C445.131 317.893 451.622 319.808 457.713 322.668C461.814 324.59 465.645 327.043 469.106 329.963C470.045 330.76 470.942 331.604 471.794 332.493L472.45 333.173C472.596 333.344 472.669 333.417 472.657 333.429Z" fill="black"/>
<path d="M465.483 332.833H465.179L464.279 332.687L460.814 332.116C456.567 331.462 452.289 331.027 447.997 330.814C441.628 330.501 435.243 330.704 428.907 331.422C421.155 332.463 413.472 333.969 405.901 335.934C397.827 337.879 389.972 339.582 382.688 339.472C379.25 339.494 375.823 339.085 372.486 338.256C369.576 337.433 366.885 335.976 364.607 333.988C361.337 331.131 358.681 327.639 356.8 323.725C356.085 322.308 355.518 320.821 355.11 319.287C355.168 319.373 355.213 319.468 355.244 319.567L355.572 320.418C355.876 321.172 356.338 322.254 357.019 323.604C358.963 327.435 361.64 330.847 364.899 333.648C367.143 335.56 369.778 336.959 372.62 337.745C375.915 338.547 379.297 338.935 382.688 338.901C389.887 338.901 397.681 337.283 405.791 335.326C413.391 333.346 421.107 331.843 428.895 330.827C435.263 330.141 441.676 329.982 448.07 330.352C452.376 330.603 456.663 331.102 460.911 331.848C462.419 332.128 463.574 332.359 464.364 332.541L465.252 332.748C465.398 332.784 465.483 332.821 465.483 332.833Z" fill="black"/>
<path d="M466.602 278.261C466.493 278.951 466.338 279.633 466.139 280.303C465.95 281.103 465.714 281.89 465.434 282.662C465.118 283.574 464.814 284.62 464.328 285.727C463.841 286.833 463.367 288.073 462.723 289.375C462.078 290.676 461.361 291.977 460.57 293.375C457.02 299.352 452.399 304.624 446.939 308.927C445.663 309.9 444.507 310.836 443.292 311.59C442.076 312.344 440.981 313.061 439.923 313.657C438.865 314.253 437.893 314.739 437.041 315.165C436.313 315.547 435.562 315.884 434.792 316.174C434.158 316.466 433.504 316.71 432.834 316.904C433.428 316.538 434.05 316.221 434.695 315.955C435.303 315.676 436.044 315.323 436.883 314.849C437.722 314.375 438.695 313.925 439.704 313.268C440.714 312.612 441.857 311.979 443 311.152C444.143 310.326 445.346 309.438 446.648 308.477C452.003 304.156 456.57 298.939 460.145 293.059C460.935 291.685 461.713 290.396 462.321 289.131C462.929 287.867 463.537 286.699 463.987 285.581C464.437 284.462 464.826 283.465 465.203 282.577C465.58 281.69 465.799 280.899 465.994 280.267C466.139 279.582 466.342 278.911 466.602 278.261Z" fill="black"/>
<path d="M464.765 350.744C464.435 350.744 464.106 350.715 463.78 350.659L462.564 350.501C462.102 350.44 461.555 350.501 460.959 350.416C457.521 350.333 454.095 350.864 450.843 351.984C448.6 352.754 446.418 353.689 444.313 354.781C441.902 356.051 439.56 357.447 437.297 358.964C432.506 362.162 427.496 366.077 422.122 370.029L394.69 390.397L386.312 396.476L384.013 398.057C383.758 398.265 383.48 398.444 383.187 398.592C383.418 398.364 383.666 398.153 383.928 397.96L386.153 396.233L394.41 389.971L421.769 369.519C427.144 365.579 432.153 361.663 437.005 358.478C439.291 356.961 441.658 355.569 444.094 354.307C446.236 353.228 448.455 352.31 450.733 351.559C454.038 350.464 457.519 349.994 460.996 350.173C461.604 350.173 462.151 350.233 462.613 350.306L463.829 350.525C464.147 350.57 464.46 350.644 464.765 350.744Z" fill="black"/>
<path d="M504.004 388.025C503.769 387.473 503.589 386.899 503.469 386.311C503.178 385.204 502.764 383.587 502.18 381.617C501.524 379.307 500.691 377.051 499.688 374.869C498.469 372.213 496.803 369.787 494.763 367.695C492.734 365.595 490.195 364.058 487.394 363.232C485.09 362.615 482.695 362.405 480.318 362.612C478.117 362.859 475.933 363.232 473.776 363.731C473.906 363.644 474.05 363.578 474.201 363.536C474.493 363.427 474.919 363.281 475.417 363.123C477.004 362.651 478.633 362.334 480.281 362.174C482.723 361.889 485.196 362.058 487.577 362.673C490.488 363.497 493.13 365.074 495.237 367.245C497.331 369.389 499.027 371.888 500.247 374.626C501.244 376.845 502.057 379.143 502.679 381.496C503.202 383.49 503.555 385.144 503.773 386.262C503.901 386.842 503.979 387.432 504.004 388.025Z" fill="black"/>
<path d="M482.433 161.082C506.342 159.971 524.823 139.689 523.712 115.78C522.601 91.8717 502.319 73.3905 478.411 74.5013C454.502 75.612 436.021 95.8942 437.132 119.803C438.243 143.711 458.525 162.192 482.433 161.082Z" fill="white"/>
<path d="M456.315 167.876C456.715 167.763 457.121 167.669 457.531 167.596C458.701 167.451 459.887 167.676 460.923 168.24C461.636 168.611 462.259 169.134 462.747 169.773C463.289 170.514 463.606 171.397 463.659 172.314C463.773 173.369 463.561 174.433 463.052 175.364C462.543 176.294 461.761 177.047 460.811 177.52C459.862 177.993 458.79 178.163 457.74 178.009C456.691 177.854 455.714 177.382 454.941 176.655C454.244 176.06 453.73 175.28 453.457 174.405C453.232 173.615 453.187 172.784 453.323 171.973C453.502 170.807 454.038 169.724 454.856 168.873C455.439 168.277 455.865 168.07 455.84 168.034C455.732 168.067 455.63 168.116 455.536 168.18C455.413 168.243 455.295 168.316 455.184 168.398C455.031 168.512 454.885 168.633 454.746 168.763C453.996 169.48 453.452 170.385 453.169 171.384C452.887 172.382 452.877 173.438 453.141 174.442C453.411 175.387 453.952 176.233 454.697 176.874C455.51 177.596 456.508 178.076 457.579 178.26C458.732 178.503 459.934 178.35 460.989 177.824C462.044 177.299 462.891 176.433 463.392 175.366C463.886 174.398 464.105 173.313 464.024 172.229C463.958 171.246 463.607 170.304 463.015 169.517C462.496 168.84 461.825 168.294 461.057 167.924C459.965 167.36 458.718 167.168 457.506 167.377C457.32 167.404 457.137 167.449 456.959 167.511C456.821 167.546 456.687 167.595 456.558 167.657C456.412 167.791 456.303 167.876 456.315 167.876Z" fill="#263238"/>
<path d="M444.337 142.45L443.985 141.83L442.915 140.054C442.684 139.653 442.416 139.215 442.124 138.741C441.832 138.267 441.614 137.683 441.322 137.075C441.03 136.467 440.726 135.859 440.398 135.13C440.219 134.778 440.068 134.412 439.948 134.035C439.814 133.646 439.668 133.257 439.522 132.819C438.05 128.875 437.184 124.73 436.956 120.526C436.62 114.958 437.355 109.377 439.121 104.086L439.887 101.873C440.191 101.132 440.544 100.414 440.872 99.6724C441.03 99.3076 441.2 98.9428 441.37 98.5658C441.525 98.1856 441.712 97.8195 441.93 97.4715L443.146 95.2949C443.352 94.9301 443.559 94.5653 443.778 94.2005L444.532 93.1548L446.052 91.039C446.575 90.3459 447.195 89.7015 447.779 89.0205L448.666 88.0113C448.812 87.8532 448.958 87.6708 449.116 87.5128L449.615 87.0507C450.919 85.7401 452.313 84.5212 453.785 83.4028C454.539 82.8556 455.269 82.1868 456.071 81.7126L458.503 80.217C458.917 79.9738 459.318 79.6941 459.719 79.4752L461.045 78.8429C461.932 78.4295 462.808 77.9674 463.72 77.627C465.595 76.881 467.516 76.2556 469.471 75.7544L470.955 75.3775L471.709 75.1951L472.475 75.0856L475.551 74.6236C476.597 74.5141 477.643 74.4898 478.7 74.429C479.223 74.429 479.758 74.3439 480.293 74.429L481.886 74.502C484.043 74.5809 486.192 74.8043 488.319 75.1707L491.517 75.9368L492.319 76.1314C492.587 76.2043 492.842 76.3016 493.11 76.3867L494.678 76.9339L496.259 77.4689L497.791 78.1498L499.323 78.8551L500.089 79.1956C500.345 79.3293 500.576 79.4752 500.831 79.6212L503.774 81.3113L506.57 83.3055C514.075 88.9297 519.54 96.8492 522.135 105.862C522.426 106.968 522.706 108.087 522.986 109.181L523.496 112.549L523.618 113.388V114.227L523.703 115.905L523.788 117.583L523.715 119.249L523.642 120.915V121.742L523.533 122.557C523.375 123.651 523.229 124.733 523.083 125.816C522.652 127.935 522.079 130.023 521.368 132.066L520.858 133.573C520.688 134.084 520.432 134.546 520.225 135.033C519.776 135.993 519.386 136.966 518.9 137.89C518.414 138.814 517.867 139.702 517.356 140.602L516.967 141.27C516.821 141.489 516.663 141.696 516.517 141.903L515.629 143.119C514.455 144.757 513.176 146.316 511.799 147.788C511.106 148.505 510.364 149.15 509.659 149.831L508.577 150.828C508.224 151.156 507.811 151.436 507.434 151.728L505.148 153.479C504.369 154.026 503.53 154.488 502.716 154.986C501.157 155.958 499.531 156.82 497.852 157.564L497.244 157.856L496.612 158.099L495.396 158.549C494.544 158.841 493.73 159.194 492.891 159.437L490.361 160.081L489.146 160.397L487.93 160.592L485.498 160.969C485.096 161.04 484.689 161.08 484.282 161.091H483.066C482.263 161.091 481.461 161.2 480.634 161.212L478.287 161.115C472.716 160.841 467.249 159.495 462.188 157.151C461.628 156.896 461.069 156.664 460.534 156.409L459.026 155.534L457.567 154.707C457.324 154.561 457.081 154.439 456.862 154.293L456.217 153.831L453.785 152.08C453.019 151.497 452.363 150.864 451.694 150.305L450.745 149.478C450.441 149.225 450.152 148.953 449.882 148.663L448.241 147.204C447.791 146.718 447.353 146.28 447.025 145.855L446.088 144.639L444.872 142.997C444.593 142.632 444.435 142.45 444.435 142.45L444.848 143.021C445.128 143.41 445.541 143.958 446.064 144.687L446.976 145.903C447.341 146.341 447.779 146.779 448.192 147.265L449.651 148.858C449.918 149.155 450.206 149.431 450.514 149.685L451.463 150.524C452.119 151.083 452.776 151.74 453.542 152.311L455.974 154.087L456.619 154.549C456.85 154.707 457.093 154.828 457.324 154.974L458.783 155.813L460.303 156.701L461.957 157.455C467.04 159.834 472.536 161.205 478.141 161.492L480.5 161.601C481.29 161.601 482.105 161.528 482.932 161.492L484.148 161.419C484.556 161.417 484.962 161.381 485.364 161.309L487.857 160.932L489.073 160.738L490.289 160.422L492.842 159.777C493.681 159.534 494.508 159.194 495.359 158.902L496.636 158.44C496.843 158.355 497.061 158.294 497.268 158.197L497.888 157.905C499.595 157.155 501.249 156.29 502.837 155.315C503.64 154.816 504.479 154.354 505.269 153.807L507.579 152.044C507.969 151.74 508.37 151.472 508.795 151.144L509.878 150.135C510.583 149.454 511.349 148.797 512.042 148.08C513.431 146.596 514.723 145.024 515.909 143.374C516.201 142.948 516.505 142.535 516.809 142.158C516.955 141.951 517.113 141.745 517.259 141.526L517.648 140.845L519.216 138.121C519.703 137.185 520.104 136.2 520.554 135.239C520.761 134.741 521.028 134.266 521.198 133.768L521.709 132.236C522.429 130.179 523.006 128.074 523.436 125.937C523.594 124.855 523.752 123.748 523.898 122.654L524.019 121.827V120.988L524.092 119.322L524.165 117.632L524.08 115.942L523.983 114.252V113.388L523.849 112.549L523.338 109.157C523.059 108.038 522.779 106.919 522.487 105.801C519.921 96.6825 514.437 88.6567 506.874 82.9529L504.053 80.9344L501.074 79.232C500.831 79.0861 500.588 78.9402 500.332 78.8065L499.554 78.4538L498.01 77.7486L496.466 77.0676L494.873 76.5205L493.28 75.9733L492.489 75.7058L491.675 75.5234C490.605 75.2559 489.522 75.0005 488.452 74.7573C486.306 74.3809 484.137 74.1534 481.959 74.0764L480.354 74.0034C479.819 74.0034 479.284 74.0034 478.749 74.0034C477.679 74.0764 476.621 74.0885 475.575 74.198L472.463 74.6722L471.696 74.7938C471.441 74.7938 471.186 74.9154 470.943 74.9762L469.435 75.3653C467.465 75.8632 465.532 76.4928 463.647 77.25C462.723 77.6391 461.835 78.1134 460.935 78.5268L459.61 79.1713C459.172 79.3901 458.771 79.6698 458.394 79.9251L455.962 81.4329C455.159 81.968 454.418 82.5881 453.664 83.1474C452.18 84.266 450.774 85.4848 449.457 86.7953L448.958 87.2696C448.8 87.4276 448.654 87.61 448.508 87.7803C448.362 87.9505 447.912 88.4612 447.608 88.7895C447.025 89.4826 446.392 90.1271 445.882 90.8202L444.349 92.9603L443.596 94.0181C443.377 94.3829 443.17 94.7599 442.963 95.1247L441.747 97.3134C441.536 97.6672 441.353 98.0372 441.2 98.4199L440.689 99.5386C440.361 100.28 440.009 101.01 439.717 101.752C439.425 102.493 439.206 103.247 438.951 103.989C437.187 109.314 436.468 114.929 436.835 120.526C437.078 124.751 437.967 128.913 439.473 132.868L439.911 134.084C440.032 134.46 440.182 134.826 440.361 135.178L441.31 137.124C441.614 137.72 441.857 138.279 442.136 138.778L442.939 140.079L444.046 141.842C444.191 142.243 444.337 142.45 444.337 142.45Z" fill="#263238"/>
<path d="M458.54 118.885L464.96 112.464L477.339 123.469L501.633 100.086L507.592 106.506L476.427 135.847L458.54 118.885Z" fill="#7572FE"/>
</svg>
