<svg width="69" height="69" viewBox="0 0 69 69" fill="none" xmlns="http://www.w3.org/2000/svg">
<path d="M34.5351 0C15.7421 0 0.452148 15.29 0.452148 34.084C0.452148 52.878 15.7421 68.168 34.5351 68.168C53.3281 68.168 68.6181 52.878 68.6181 34.084C68.6181 15.29 53.3281 0 34.5351 0ZM6.45215 34.084C6.45215 27.42 8.79015 21.294 12.6811 16.473L52.1451 55.938C47.3251 59.831 41.1992 62.168 34.5351 62.168C19.0501 62.168 6.45215 49.569 6.45215 34.084ZM56.3881 51.695L16.9241 12.23C21.7451 8.337 27.8711 6 34.5351 6C50.0201 6 62.6181 18.599 62.6181 34.084C62.6181 40.749 60.2801 46.875 56.3881 51.695Z" fill="#D4D4EA"/>
</svg>
