<svg width="800" height="886" viewBox="0 0 800 886" fill="none" xmlns="http://www.w3.org/2000/svg">
<g opacity="0.7">
<path d="M121.374 296.683C121.374 296.683 121.374 287.206 108.097 273.911C94.8192 260.616 86.3061 253.083 86.3061 253.083C86.3061 253.083 79.6672 274.892 91.999 288.117C101.056 297.456 110.882 306.017 121.374 313.709V296.683Z" fill="#7572FE"/>
<path d="M102.106 355.872C102.106 355.872 102.106 346.395 88.8463 333.1C75.5862 319.805 67.0556 312.255 67.0556 312.255C67.0556 312.255 60.4168 334.046 72.731 347.289C81.797 356.624 91.6226 365.19 102.106 372.898V355.872Z" fill="#7572FE"/>
<path d="M120.534 312.815C120.534 312.815 121.532 303.391 136.124 291.602C150.715 279.814 160.016 273.175 160.016 273.175C160.016 273.175 164.308 295.561 150.645 307.455C140.646 315.774 129.97 323.245 118.729 329.789L120.534 312.815Z" fill="#7572FE"/>
<path d="M97.2716 382.725C97.2716 382.725 99.251 373.458 115.016 363.264C130.781 353.069 140.695 347.499 140.695 347.499C140.695 347.499 142.605 370.27 127.786 380.588C116.969 387.816 105.567 394.126 93.6982 399.453L97.2716 382.725Z" fill="#7572FE"/>
<path d="M101.651 458.923C101.651 458.923 101.651 449.446 114.911 436.151C128.172 422.856 136.72 415.306 136.72 415.306C136.72 415.306 143.341 437.097 131.027 450.34C121.97 459.679 112.143 468.239 101.651 475.931V458.923Z" fill="#7572FE"/>
<path d="M101.424 477.525C101.424 477.525 102.773 468.154 91.5268 453.124C80.2811 438.095 72.9066 429.389 72.9066 429.389C72.9066 429.389 63.2549 450.024 73.5547 464.913C81.2001 475.439 89.7138 485.306 99.0065 494.411L101.424 477.525Z" fill="#7572FE"/>
<path d="M88.3389 532.65C88.3389 532.65 88.3389 523.173 101.617 509.878C114.894 496.583 123.407 489.033 123.407 489.033C123.407 489.033 130.046 510.824 117.714 524.067C108.657 533.406 98.8308 541.966 88.3389 549.658V532.65Z" fill="#7572FE"/>
<path d="M97.2017 582.642C97.2017 582.642 94.8019 573.463 104.208 557.278C113.615 541.092 119.973 531.581 119.973 531.581C119.973 531.581 131.92 550.989 123.354 566.947C116.958 578.273 109.622 589.043 101.423 599.142L97.2017 582.642Z" fill="#7572FE"/>
<path d="M122.566 294.248C121.896 304.116 120.686 313.94 118.94 323.676C113.685 350.774 100.582 368.256 95.3447 392.727C90.1072 417.198 105.154 448.78 101.108 480.17C97.0614 511.56 84.8522 529.094 88.3381 550.079C91.8239 571.064 110.199 627.871 110.199 627.871" stroke="#263238" stroke-linecap="round" stroke-linejoin="round"/>
<path d="M120.411 319.121L134.705 308.155" stroke="#263238" stroke-linecap="round" stroke-linejoin="round"/>
<path d="M121.077 306.492L115.086 295.842" stroke="#263238" stroke-linecap="round" stroke-linejoin="round"/>
<path d="M96.1338 391.604C96.1338 391.604 108.098 382.636 120.412 373.65" stroke="#263238" stroke-linecap="round" stroke-linejoin="round"/>
<path d="M102.106 372.898C102.106 372.898 92.1391 353.331 80.8408 340.369" stroke="#263238" stroke-linecap="round" stroke-linejoin="round"/>
<path d="M102.124 472.41C108.951 459.816 117.572 448.28 127.716 438.165" stroke="#263238" stroke-linecap="round" stroke-linejoin="round"/>
<path d="M99.7947 485.705C96.1554 477.185 91.8138 468.982 86.8148 461.182C79.8081 450.864 78.8447 449.533 78.8447 449.533" stroke="#263238" stroke-linecap="round" stroke-linejoin="round"/>
<path d="M88.3389 550.08C91.3747 542.546 94.982 535.256 99.1291 528.272C103.287 521.799 107.974 515.682 113.142 509.984" stroke="#263238" stroke-linecap="round" stroke-linejoin="round"/>
<path d="M101.528 599.144C101.528 599.144 100.127 587.793 105.031 578.124C109.936 568.455 115.682 555.86 118.011 550.868" stroke="#263238" stroke-linecap="round" stroke-linejoin="round"/>
<path d="M34.4926 423.294C34.4926 423.294 33.4591 417.338 40.3432 407.529C47.2272 397.719 51.7465 392.167 51.7465 392.167C51.7465 392.167 58.2627 405.111 51.9918 414.763C47.3273 421.613 42.0947 428.059 36.3494 434.031L34.4926 423.294Z" fill="#7572FE"/>
<path d="M52.9369 458.308C52.9369 458.308 51.9035 452.37 58.7875 442.543C65.6716 432.717 70.2434 427.199 70.2434 427.199C70.2434 427.199 76.7771 440.144 70.4886 449.813C65.819 456.659 60.5867 463.104 54.8463 469.081L52.9369 458.308Z" fill="#7572FE"/>
<path d="M36.7693 433.313C36.7693 433.313 35.0176 427.515 24.6828 421.717C14.348 415.919 7.70914 412.748 7.70914 412.748C7.70914 412.748 7.39384 427.199 17.2908 433.208C24.4616 437.336 31.9678 440.851 39.7296 443.718L36.7693 433.313Z" fill="#7572FE"/>
<path d="M58.9457 474.618C58.9457 474.618 56.6861 469.03 45.7031 464.353C34.7202 459.676 27.8887 457.224 27.8887 457.224C27.8887 457.224 29.1499 471.658 39.5723 476.492C47.1387 479.85 54.9726 482.569 62.9921 484.62L58.9457 474.618Z" fill="#7572FE"/>
<path d="M64.463 522.893C64.463 522.893 63.447 516.937 53.6727 510.07C43.8984 503.204 37.75 499.35 37.75 499.35C37.75 499.35 35.9984 513.749 45.1245 520.72C51.8163 525.593 58.9064 529.894 66.3197 533.578L64.463 522.893Z" fill="#7572FE"/>
<path d="M66.6356 534.525C66.6356 534.525 64.7613 528.797 70.1389 518.147C75.5165 507.497 79.2125 501.244 79.2125 501.244C79.2125 501.244 87.5154 513.137 82.7159 523.595C79.0656 531.027 74.8 538.14 69.9637 544.86L66.6356 534.525Z" fill="#7572FE"/>
<path d="M83.276 582.468C83.276 582.468 83.9766 576.477 93.313 569.05C102.649 561.623 108.605 557.454 108.605 557.454C108.605 557.454 111.233 571.713 102.474 579.21C96.0675 584.441 89.2357 589.128 82.0498 593.223L83.276 582.468Z" fill="#7572FE"/>
<path d="M80.8242 567.683C80.8242 567.683 79.7907 561.727 70.0339 554.861C60.2772 547.994 54.0938 544.141 54.0938 544.141C54.0938 544.141 52.3421 558.539 61.4683 565.511C68.1768 570.386 75.2846 574.687 82.716 578.368L80.8242 567.683Z" fill="#7572FE"/>
<path d="M80.6836 599.984C80.6836 599.984 81.1916 593.976 73.5018 584.85C65.812 575.724 60.8022 570.451 60.8022 570.451C60.8022 570.451 55.4246 583.921 62.5539 592.995C67.7964 599.4 73.568 605.354 79.8078 610.792L80.6836 599.984Z" fill="#7572FE"/>
<path d="M33.4766 421.944C34.9554 428.043 36.7741 434.055 38.9243 439.951C45.1602 456.382 55.2848 465.911 61.223 480.695C67.1611 495.479 61.223 516.884 67.0911 536.153C72.9592 555.421 82.7159 565.055 82.7159 578.595C82.7159 592.136 77.4609 629.762 77.4609 629.762" stroke="#263238" stroke-linecap="round" stroke-linejoin="round"/>
<path d="M37.523 437.254L27.3809 431.929" stroke="#263238" stroke-linecap="round" stroke-linejoin="round"/>
<path d="M35.7354 429.407L38.3453 422.085" stroke="#263238" stroke-linecap="round" stroke-linejoin="round"/>
<path d="M60.6272 480.082C60.6272 480.082 52.1316 475.737 43.4434 471.446" stroke="#263238" stroke-linecap="round" stroke-linejoin="round"/>
<path d="M54.8467 469.011C57.3234 461.103 60.6107 453.472 64.656 446.24" stroke="#263238" stroke-linecap="round" stroke-linejoin="round"/>
<path d="M65.6369 531.389C60.0046 524.241 53.367 517.945 45.9307 512.699" stroke="#263238" stroke-linecap="round" stroke-linejoin="round"/>
<path d="M68.5449 539.481C69.8717 533.727 71.6824 528.096 73.9576 522.647C77.2157 515.413 77.6886 514.484 77.6886 514.484" stroke="#263238" stroke-linecap="round" stroke-linejoin="round"/>
<path d="M82.2422 588.86C82.2422 588.86 88.9686 580.61 93.1726 577.527C95.6691 575.662 98.0122 573.6 100.179 571.361" stroke="#263238" stroke-linecap="round" stroke-linejoin="round"/>
<path d="M82.7155 578.596C79.9935 574.203 76.9427 570.022 73.5893 566.089C70.2894 562.483 66.698 559.156 62.8516 556.14" stroke="#263238" stroke-linecap="round" stroke-linejoin="round"/>
<path d="M79.7723 610.791C79.4274 606.206 77.8608 601.797 75.2355 598.022C71.0666 592.521 66.1444 585.217 64.1475 582.257" stroke="#263238" stroke-linecap="round" stroke-linejoin="round"/>
<path d="M118.8 719.973H63.4473C62.2919 719.968 61.1852 719.507 60.3682 718.69C59.5512 717.873 59.0902 716.766 59.0856 715.611L45.3525 623.894H136.93L123.197 715.611C123.194 716.186 123.079 716.755 122.857 717.286C122.634 717.816 122.31 718.298 121.902 718.703C121.493 719.108 121.009 719.428 120.477 719.646C119.945 719.864 119.375 719.975 118.8 719.973Z" fill="#263238" stroke="#263238" stroke-linecap="round" stroke-linejoin="round"/>
<path d="M446.081 257.146L508.895 257.654C508.895 257.654 513.047 257.146 514.15 260.264C514.15 260.264 525.063 287.765 525.571 297.627C526.079 307.489 523.504 305.93 527.656 318.91C531.807 331.89 543.736 362.509 550.428 387.435C559.484 420.91 561.848 456.451 562.426 491.011C562.514 496.564 565.842 544.28 557.171 544.28C550.007 544.28 483.917 553.038 483.128 540.303C479.958 489.505 489.119 439.915 471.48 390.536C464.631 371.355 456.783 351.106 450.968 330.979C445.152 310.852 444.136 290.06 440.353 269.531C437.778 255.535 446.081 257.146 446.081 257.146Z" fill="#263238" stroke="#263238" stroke-linecap="round" stroke-linejoin="round"/>
<path d="M439.933 263.365C440.563 256.113 446.081 257.147 446.081 257.147L508.896 257.655C508.896 257.655 513.047 257.147 514.151 260.265C514.151 260.265 525.064 287.766 525.572 297.628C525.724 300.233 525.648 302.848 525.344 305.44L524.013 307.489C524.013 307.489 521.946 325.654 497.019 326.758C472.093 327.861 458.097 316.388 452.912 305.493C447.728 294.597 445.643 276.94 441.492 266.553C441.032 265.462 440.512 264.398 439.933 263.365Z" fill="#D1D1D1" stroke="#263238" stroke-linecap="round" stroke-linejoin="round"/>
<path d="M454.506 283.56C458.71 298.73 456.258 302.934 460.392 329.104C464.526 355.274 479.765 384.702 485.669 411.66C491.572 438.618 489.032 533.821 488.191 538.025C487.874 540.264 487.751 542.526 487.823 544.787C485.003 543.736 483.286 542.282 483.164 540.285C479.993 489.486 489.154 439.897 471.515 390.517C464.666 371.336 456.819 351.087 451.003 330.961C445.187 310.834 444.172 290.042 440.388 269.512C438.776 260.894 441.299 258.179 443.488 257.355C448.25 265.591 451.952 274.396 454.506 283.56Z" fill="#D1D1D1" stroke="#263238" stroke-linecap="round" stroke-linejoin="round"/>
<path d="M575.809 666.931L576.23 666.598V607.97H567.804V570.834H598.966V607.97H590.541V667.527L665.109 691.297V697.182C665.109 698.971 664.399 700.686 663.134 701.951C661.869 703.216 660.154 703.926 658.365 703.926C656.577 703.926 654.862 703.216 653.597 701.951C652.332 700.686 651.622 698.971 651.622 697.182V696.341L589.28 689.107V698.041C589.197 699.548 588.541 700.967 587.444 702.005C586.348 703.044 584.895 703.622 583.385 703.622C581.875 703.622 580.423 703.044 579.326 702.005C578.23 700.967 577.573 699.548 577.491 698.041V688.809L512.679 696.341V697.182C512.679 698.971 511.969 700.686 510.704 701.951C509.439 703.216 507.724 703.926 505.935 703.926C504.147 703.926 502.431 703.216 501.167 701.951C499.902 700.686 499.191 698.971 499.191 697.182V691.297L575.809 666.931Z" fill="#263238" stroke="#263238" stroke-linecap="round" stroke-linejoin="round"/>
<path d="M485.405 577.736H673.605C677.474 577.736 680.611 574.599 680.611 570.73V541.757C680.611 537.887 677.474 534.75 673.605 534.75H485.405C481.536 534.75 478.399 537.887 478.399 541.757V570.73C478.399 574.599 481.536 577.736 485.405 577.736Z" fill="#263238" stroke="#263238" stroke-linecap="round" stroke-linejoin="round"/>
<path d="M712.053 362.037H637.59V448.044H712.053V362.037Z" fill="white" stroke="#263238" stroke-linecap="round" stroke-linejoin="round"/>
<path d="M631.811 451.897H715.908V374.228H676.11L631.811 451.897Z" fill="#D1D1D1" stroke="#263238" stroke-linecap="round" stroke-linejoin="round"/>
<path d="M733.932 456.224H685.831C684.902 456.224 684.011 455.855 683.354 455.198C682.697 454.541 682.328 453.65 682.328 452.721C682.328 451.791 682.697 450.9 683.354 450.243C684.011 449.586 684.902 449.217 685.831 449.217H733.932C735.21 449.221 736.471 448.927 737.615 448.359C738.76 447.791 739.756 446.965 740.526 445.945C741.296 444.925 741.818 443.741 742.051 442.484C742.283 441.228 742.221 439.935 741.867 438.707L724.789 377.556C724.546 376.667 724.663 375.718 725.116 374.914C725.568 374.111 726.319 373.518 727.206 373.265C728.095 373.022 729.045 373.139 729.848 373.592C730.652 374.045 731.244 374.796 731.497 375.682L748.559 436.833C749.188 439.089 749.287 441.461 748.848 443.762C748.409 446.063 747.443 448.231 746.027 450.097C744.611 451.963 742.782 453.475 740.684 454.517C738.586 455.559 736.275 456.101 733.932 456.101V456.224Z" fill="#D1D1D1" stroke="#263238" stroke-linecap="round" stroke-linejoin="round"/>
<path d="M727.997 297.197L717.109 295.893L700.244 436.701L711.132 438.005L727.997 297.197Z" fill="white" stroke="#263238" stroke-linecap="round" stroke-linejoin="round"/>
<path d="M727.976 297.243C727.976 297.243 747.244 366.293 711.09 438.059L727.976 297.243Z" fill="#D1D1D1" stroke="#263238" stroke-linecap="round" stroke-linejoin="round"/>
<path d="M243.448 719.971L774.887 719.971V455.925L243.448 455.925V719.971Z" fill="#263238"/>
<path d="M243.448 719.973L774.887 719.973V455.927L243.448 455.927V719.973Z" fill="white" stroke="#263238" stroke-linecap="round" stroke-linejoin="round"/>
<path d="M243.448 719.971L774.887 719.971V455.925L243.448 455.925V719.971Z" stroke="#263238" stroke-linecap="round" stroke-linejoin="round"/>
<path d="M243.798 468.73L774.693 468.73V461.864L243.798 461.864V468.73Z" fill="#263238"/>
<path d="M240.261 462.687L784.504 462.687V451.844L240.261 451.844V462.687Z" fill="white" stroke="#263238" stroke-linecap="round" stroke-linejoin="round"/>
<path d="M249.124 345.658C245.351 357.356 240.293 368.601 234.042 379.184C223.97 395.948 205.542 417.721 205.542 417.721L138.506 389.239C150.3 376.785 160.957 363.302 170.351 348.951C187.115 323.797 191.038 318.612 191.038 318.612C191.038 318.612 233.359 340.122 249.124 345.658Z" fill="white" stroke="#263238" stroke-miterlimit="10" stroke-linecap="round"/>
<path d="M267.411 515.867C256.174 520.801 244.424 524.472 232.377 526.815C213.109 530.406 184.644 531.072 184.644 531.072L161.47 462.003C178.594 462.578 195.735 461.622 212.688 459.148C242.624 455.014 249.106 454.506 249.106 454.506C249.106 454.506 261.157 500.47 267.411 515.867Z" fill="white" stroke="#263238" stroke-miterlimit="10" stroke-linecap="round"/>
<path d="M612.665 544.349C601.428 549.283 589.678 552.954 577.632 555.297C558.363 558.906 529.899 559.571 529.899 559.571L506.619 490.503C523.744 491.076 540.885 490.114 557.838 487.63C587.774 483.496 594.255 482.988 594.255 482.988C594.255 482.988 606.464 528.97 612.665 544.349Z" fill="white" stroke="#263238" stroke-miterlimit="10" stroke-linecap="round"/>
<path d="M606.586 386.086C595.225 381.396 584.421 375.456 574.373 368.377C558.468 357.026 538.219 336.847 538.219 336.847L571.956 272.351C583.406 285.123 595.975 296.848 609.512 307.384C633.229 326.092 638.099 330.436 638.099 330.436C638.099 330.436 613.348 370.917 606.586 386.086Z" fill="white" stroke="#263238" stroke-miterlimit="10" stroke-linecap="round"/>
<path d="M478.33 377.292L521.158 415.356C521.158 415.356 532.264 381.251 551.287 370.951C563.526 364.425 576.252 358.856 589.35 354.293L530.67 317.823C530.67 317.823 471.2 340.823 478.33 377.292Z" fill="white" stroke="#263238" stroke-miterlimit="10" stroke-linecap="round"/>
<path d="M174.975 278.411L217.803 316.475C217.803 316.475 228.909 282.37 247.932 272.07C260.172 265.544 272.897 259.975 285.996 255.412L227.315 218.942C227.315 218.942 167.846 241.924 174.975 278.411Z" fill="white" stroke="#263238" stroke-miterlimit="10" stroke-linecap="round"/>
<path d="M144.689 168.651C182.351 168.651 212.882 138.121 212.882 100.459C212.882 62.7974 182.351 32.2666 144.689 32.2666C107.028 32.2666 76.4971 62.7974 76.4971 100.459C76.4971 138.121 107.028 168.651 144.689 168.651Z" fill="white" stroke="#263238" stroke-linecap="round" stroke-linejoin="round"/>
<path d="M205.08 115.31C213.286 81.9516 192.896 48.2568 159.538 40.0508C126.179 31.8448 92.4842 52.235 84.2782 85.5936C76.0722 118.952 96.4624 152.647 129.821 160.853C163.18 169.059 196.874 148.669 205.08 115.31Z" fill="white" stroke="#263238" stroke-linecap="round" stroke-linejoin="round"/>
<path d="M154.289 121.951L144.689 100.458V50.4658" fill="white"/>
<path d="M154.289 121.951L144.689 100.458V50.4658" stroke="#263238" stroke-linecap="round" stroke-linejoin="round"/>
<path d="M148.472 100.458C148.472 101.206 148.251 101.938 147.835 102.56C147.419 103.182 146.828 103.667 146.137 103.954C145.445 104.24 144.685 104.315 143.951 104.169C143.217 104.023 142.543 103.662 142.013 103.133C141.484 102.604 141.124 101.93 140.978 101.196C140.832 100.462 140.907 99.7014 141.193 99.01C141.48 98.3186 141.965 97.7277 142.587 97.312C143.209 96.8962 143.941 96.6743 144.689 96.6743C145.692 96.6743 146.655 97.0729 147.364 97.7825C148.074 98.4921 148.472 99.4545 148.472 100.458Z" fill="#263238" stroke="#263238" stroke-linecap="round" stroke-linejoin="round"/>
<path d="M394.022 770.245C503.708 770.245 592.626 759.367 592.626 745.949C592.626 732.531 503.708 721.653 394.022 721.653C284.336 721.653 195.418 732.531 195.418 745.949C195.418 759.367 284.336 770.245 394.022 770.245Z" fill="#7572FE"/>
<path opacity="0.5" d="M394.022 770.245C503.708 770.245 592.626 759.367 592.626 745.949C592.626 732.531 503.708 721.653 394.022 721.653C284.336 721.653 195.418 732.531 195.418 745.949C195.418 759.367 284.336 770.245 394.022 770.245Z" fill="white"/>
<path d="M277.151 711.949L270.88 719.867C270.88 719.867 252.05 727.224 248.511 730.5C244.973 733.775 237.861 747.683 237.861 747.683L240.874 751.782C240.874 751.782 253.416 752.588 261.053 752.325C268.691 752.063 278.237 749.05 280.427 747.683C282.616 746.317 289.693 736.228 291.059 734.599C292.426 732.969 295.421 733.775 299.24 731.866C303.058 729.957 302.515 714.945 302.515 714.945L277.151 711.949Z" fill="#263238" stroke="#263238" stroke-miterlimit="10" stroke-linecap="round"/>
<path d="M289.728 713.577C289.728 713.577 289.728 714.085 289.973 714.803C290.393 716.66 291.287 720.058 292.46 720.409C294.089 720.952 302.55 714.943 302.55 714.943" fill="white"/>
<path d="M289.728 713.577C289.728 713.577 289.728 714.085 289.973 714.803C290.393 716.66 291.287 720.058 292.46 720.409C294.089 720.952 302.55 714.943 302.55 714.943" stroke="#263238" stroke-miterlimit="10" stroke-linecap="round"/>
<path d="M516.464 711.949L522.752 719.867C522.752 719.867 541.565 727.224 545.121 730.5C548.677 733.775 555.754 747.683 555.754 747.683L552.759 751.782C552.759 751.782 540.199 752.588 532.562 752.325C524.925 752.063 515.378 749.05 513.206 747.754C511.034 746.457 503.922 736.298 502.556 734.669C501.189 733.04 498.194 733.845 494.375 731.936C490.557 730.027 491.1 715.015 491.1 715.015L516.464 711.949Z" fill="#263238" stroke="#263238" stroke-miterlimit="10" stroke-linecap="round"/>
<path d="M503.922 713.577C503.922 713.577 503.922 714.085 503.677 714.803C503.274 716.66 502.363 720.058 501.189 720.409C499.56 720.952 491.1 714.943 491.1 714.943" fill="white"/>
<path d="M503.922 713.577C503.922 713.577 503.922 714.085 503.677 714.803C503.274 716.66 502.363 720.058 501.189 720.409C499.56 720.952 491.1 714.943 491.1 714.943" stroke="#263238" stroke-miterlimit="10" stroke-linecap="round"/>
<path d="M517.637 714.648L460.042 465.543L448.674 400.644L396.824 401.327L344.975 400.644L333.624 465.543L276.012 714.648L302.777 717.082L396.824 490.084L490.871 717.082L517.637 714.648Z" fill="#263238" stroke="#263238" stroke-miterlimit="10" stroke-linecap="round"/>
<path d="M382.531 466.874L385.299 471.078" stroke="#858585" stroke-miterlimit="10" stroke-linecap="round"/>
<path d="M291.707 693.591L288.712 703.208" stroke="#858585" stroke-miterlimit="10" stroke-linecap="round"/>
<path d="M357.99 480.853L295.894 680.158" stroke="#858585" stroke-miterlimit="10" stroke-linecap="round"/>
<path d="M503.834 691.928L505.481 697.621" stroke="#858585" stroke-miterlimit="10" stroke-linecap="round"/>
<path d="M464.947 556.488L502.065 685.726" stroke="#858585" stroke-miterlimit="10" stroke-linecap="round"/>
<path d="M440.669 471.917L463.283 550.708" stroke="#858585" stroke-miterlimit="10" stroke-linecap="round"/>
<path d="M358.445 430.474L377.854 459.797" stroke="#858585" stroke-miterlimit="10" stroke-linecap="round"/>
<path d="M424.081 446.115C423.278 447.262 422.63 448.511 422.154 449.828" stroke="#858585" stroke-miterlimit="10" stroke-linecap="round"/>
<path d="M440.266 421.733C440.266 421.733 433.015 432.243 427.689 440.423" stroke="#858585" stroke-miterlimit="10" stroke-linecap="round"/>
<path d="M243.07 39.896L242.696 40.0468C240.803 40.8108 239.888 42.9647 240.652 44.8575L244.468 54.3112C245.232 56.2041 247.385 57.1193 249.278 56.3553L249.652 56.2045C251.545 55.4405 252.46 53.2866 251.696 51.3937L247.88 41.94C247.116 40.0472 244.962 39.132 243.07 39.896Z" fill="white" stroke="#263238" stroke-miterlimit="10" stroke-linecap="round"/>
<path d="M236.018 44.6709L235.644 44.8217C233.751 45.5857 232.836 47.7396 233.6 49.6325L237.416 59.0862C238.18 60.979 240.334 61.8942 242.227 61.1302L242.6 60.9794C244.493 60.2154 245.408 58.0615 244.644 56.1686L240.828 46.7149C240.064 44.8221 237.911 43.9069 236.018 44.6709Z" fill="white" stroke="#263238" stroke-miterlimit="10" stroke-linecap="round"/>
<path d="M229.641 50.3086L229.267 50.4594C227.374 51.2234 226.459 53.3773 227.223 55.2701L231.039 64.7238C231.803 66.6167 233.957 67.5319 235.85 66.7679L236.223 66.6171C238.116 65.8531 239.031 63.6992 238.267 61.8063L234.452 52.3526C233.688 50.4597 231.534 49.5446 229.641 50.3086Z" fill="white" stroke="#263238" stroke-miterlimit="10" stroke-linecap="round"/>
<path d="M224.119 56.1018L223.745 56.2525C221.852 57.0162 220.936 59.1698 221.7 61.0629L224.512 68.0318C225.275 69.9248 227.429 70.8403 229.322 70.0767L229.696 69.9259C231.589 69.1622 232.504 67.0086 231.74 65.1156L228.929 58.1466C228.165 56.2536 226.012 55.3381 224.119 56.1018Z" fill="white" stroke="#263238" stroke-miterlimit="10" stroke-linecap="round"/>
<path d="M544.578 50.3262L529.829 84.7464L439.495 233.463L426.042 242.064L397.157 243.15L368.237 242.064L354.732 233.463L264.363 84.7464L249.614 50.3262L226.843 69.9974C226.843 69.9974 237.353 87.1988 239.735 88.4425C242.117 89.6861 251.997 93.3471 251.997 93.3471L291.322 219.94L338.021 326.792L344.502 376.855C344.502 376.855 337.811 396.421 341.157 401.378C345.746 408.244 362.282 411.187 369.551 413.64C386.11 419.281 404.002 419.697 420.805 414.831C430.474 412.133 446.817 410.539 452.895 401.448C456.241 396.421 449.532 376.925 449.532 376.925L456.013 326.862L502.73 220.01L542.055 93.4172C542.055 93.4172 551.882 89.7387 554.317 88.5125C556.752 87.2864 567.227 70.0675 567.227 70.0675L544.578 50.3262Z" fill="white" stroke="#263238" stroke-miterlimit="10" stroke-linecap="round"/>
<path d="M544.519 56.2351L544.893 56.3858C546.786 57.1495 548.939 56.234 549.703 54.3409L553.517 44.8866C554.281 42.9936 553.365 40.8399 551.472 40.0762L551.099 39.9255C549.206 39.1618 547.052 40.0773 546.288 41.9703L542.474 51.4247C541.711 53.3177 542.626 55.4714 544.519 56.2351Z" fill="white" stroke="#263238" stroke-miterlimit="10" stroke-linecap="round"/>
<path d="M551.548 61.007L551.922 61.1578C553.815 61.9214 555.969 61.0059 556.732 59.1129L560.546 49.6585C561.31 47.7655 560.395 45.6118 558.502 44.8482L558.128 44.6974C556.235 43.9338 554.081 44.8493 553.318 46.7423L549.503 56.1967C548.74 58.0897 549.655 60.2434 551.548 61.007Z" fill="white" stroke="#263238" stroke-miterlimit="10" stroke-linecap="round"/>
<path d="M557.941 66.6506L558.315 66.8013C560.208 67.565 562.361 66.6495 563.125 64.7565L566.939 55.3021C567.703 53.4091 566.787 51.2554 564.894 50.4917L564.521 50.341C562.628 49.5773 560.474 50.4929 559.71 52.3859L555.896 61.8402C555.132 63.7333 556.048 65.8869 557.941 66.6506Z" fill="white" stroke="#263238" stroke-miterlimit="10" stroke-linecap="round"/>
<path d="M564.47 69.9323L564.844 70.0831C566.737 70.8467 568.891 69.9312 569.654 68.0382L572.466 61.0693C573.229 59.1763 572.314 57.0226 570.421 56.2589L570.047 56.1082C568.154 55.3445 566 56.26 565.237 58.153L562.425 65.122C561.662 67.015 562.577 69.1687 564.47 69.9323Z" fill="white" stroke="#263238" stroke-miterlimit="10" stroke-linecap="round"/>
<path d="M502.801 219.939L525.887 145.563L499.437 134.773L439.495 233.462L426.042 242.063L397.157 243.149L368.237 242.063L354.732 233.462L303.128 148.524L274.155 164.289L291.427 219.886L338.126 326.738L344.607 376.801C344.607 376.801 337.916 396.367 341.262 401.324C345.115 407.087 358.218 409.645 364.279 411.712C383.267 418.228 399.067 421.521 418.58 415.443C427.198 412.745 447.605 409.399 453.001 401.324C456.346 396.297 449.637 376.801 449.637 376.801L456.119 326.738L502.801 219.939Z" fill="white" stroke="#263238" stroke-miterlimit="10" stroke-linecap="round"/>
<path d="M349.407 267.708L348.602 273.278" stroke="#263238" stroke-miterlimit="10" stroke-linecap="round"/>
<path d="M353.576 239.122L350.23 262.034" stroke="#263238" stroke-miterlimit="10" stroke-linecap="round"/>
<path d="M459.114 284.017L459.622 276.835" stroke="#263238" stroke-miterlimit="10" stroke-linecap="round"/>
<path d="M456.084 326.879L458.571 291.653" stroke="#263238" stroke-miterlimit="10" stroke-linecap="round"/>
<path d="M338.091 326.879L337.916 290.357" stroke="#263238" stroke-miterlimit="10" stroke-linecap="round"/>
<path d="M361.441 243.903C361.441 243.903 356.431 280.391 359.987 302.462" stroke="#263238" stroke-miterlimit="10" stroke-linecap="round"/>
<path d="M425.447 246.95C428.547 260.277 430.452 273.854 431.14 287.519" stroke="#263238" stroke-miterlimit="10" stroke-linecap="round"/>
<path d="M484.373 219.922C484.536 222.068 484.823 224.203 485.231 226.315" stroke="#263238" stroke-miterlimit="10" stroke-linecap="round"/>
<path d="M490.206 156.564C490.206 156.564 484.373 187.568 484.11 210.655" stroke="#263238" stroke-miterlimit="10" stroke-linecap="round"/>
<path d="M482.394 172.942C482.394 172.942 478.891 199.217 478.891 210.656" stroke="#263238" stroke-miterlimit="10" stroke-linecap="round"/>
<path d="M316.581 174.362C316.581 174.362 320.084 213.512 322.975 235.565" stroke="#263238" stroke-miterlimit="10" stroke-linecap="round"/>
<path d="M328.159 250.507C328.159 253.625 328.159 256.725 327.967 259.756" stroke="#263238" stroke-miterlimit="10" stroke-linecap="round"/>
<path d="M322.975 196.432C325.758 212.438 327.461 228.613 328.072 244.848" stroke="#263238" stroke-miterlimit="10" stroke-linecap="round"/>
<path d="M301.008 143.69L271.896 159.577C271.185 159.977 270.627 160.602 270.31 161.353C269.993 162.105 269.934 162.94 270.144 163.729L273.752 177.374C273.897 177.905 274.158 178.397 274.518 178.814C274.877 179.23 275.326 179.56 275.83 179.781C276.334 180.001 276.882 180.105 277.432 180.086C277.981 180.066 278.52 179.924 279.007 179.669L311.063 162.643C311.913 162.192 312.551 161.423 312.836 160.505C313.122 159.586 313.032 158.591 312.587 157.738L306.018 145.179C305.789 144.75 305.477 144.372 305.1 144.065C304.723 143.758 304.29 143.528 303.824 143.39C303.358 143.251 302.869 143.207 302.386 143.258C301.903 143.309 301.435 143.456 301.008 143.69Z" fill="white" stroke="#263238" stroke-miterlimit="10" stroke-linecap="round"/>
<path d="M499.717 126.542L530.529 139.031C531.289 139.343 531.923 139.901 532.33 140.615C532.736 141.33 532.892 142.159 532.771 142.972L530.722 156.986C530.642 157.533 530.439 158.054 530.129 158.512C529.819 158.969 529.409 159.35 528.93 159.627C528.451 159.903 527.916 160.068 527.365 160.108C526.814 160.148 526.261 160.063 525.747 159.859L491.992 146.546C491.094 146.194 490.371 145.501 489.981 144.619C489.591 143.736 489.564 142.735 489.908 141.834L494.918 128.679C495.086 128.219 495.346 127.798 495.68 127.44C496.015 127.082 496.418 126.795 496.866 126.595C497.313 126.396 497.796 126.289 498.286 126.279C498.776 126.27 499.263 126.359 499.717 126.542Z" fill="white" stroke="#263238" stroke-miterlimit="10" stroke-linecap="round"/>
<path d="M261.893 81.6802L256.34 53.8987C256.176 53.1148 255.727 52.4197 255.08 51.9474C254.433 51.4752 253.634 51.2592 252.837 51.3413C248.651 51.8843 241.206 52.7952 238.614 52.7952C234.935 52.7952 233.691 60.1697 236.774 60.1697C239.7 60.417 242.586 61.0049 245.375 61.9213C245.375 61.9213 241.066 77.2835 250.91 82.8187" fill="white"/>
<path d="M261.893 81.6802L256.34 53.8987C256.176 53.1148 255.727 52.4197 255.08 51.9474C254.433 51.4752 253.634 51.2592 252.837 51.3413C248.651 51.8843 241.206 52.7952 238.614 52.7952C234.935 52.7952 233.691 60.1697 236.774 60.1697C239.7 60.417 242.586 61.0049 245.375 61.9213C245.375 61.9213 241.066 77.2835 250.91 82.8187" stroke="#263238" stroke-miterlimit="10" stroke-linecap="round"/>
<path d="M532.299 81.6817L537.852 53.9003C538.013 53.1145 538.461 52.417 539.109 51.9441C539.757 51.4711 540.557 51.2568 541.355 51.3428C545.559 51.8859 553.004 52.7967 555.596 52.7967C559.274 52.7967 560.501 60.1712 557.435 60.1712C554.51 60.4163 551.623 61.0042 548.835 61.9229C548.835 61.9229 553.126 77.285 543.299 82.8203" fill="white"/>
<path d="M532.299 81.6817L537.852 53.9003C538.013 53.1145 538.461 52.417 539.109 51.9441C539.757 51.4711 540.557 51.2568 541.355 51.3428C545.559 51.8859 553.004 52.7967 555.596 52.7967C559.274 52.7967 560.501 60.1712 557.435 60.1712C554.51 60.4163 551.623 61.0042 548.835 61.9229C548.835 61.9229 553.126 77.285 543.299 82.8203" stroke="#263238" stroke-miterlimit="10" stroke-linecap="round"/>
<path d="M382.566 270.247L392.06 290.917L382.566 395.947L398.209 413.814L411.627 392.584L398.769 292.038L410.506 267.445L396.545 256.83L382.566 270.247Z" fill="#263238" stroke="#263238" stroke-miterlimit="10" stroke-linecap="round"/>
<path d="M372.809 235.284C372.809 235.284 367.326 234.093 364.979 237.631C363.644 239.624 362.472 241.721 361.476 243.902L371.67 292.493L395.931 271.298L419.841 295.997C419.841 295.997 424.553 271.684 424.553 254.062C424.553 236.44 412.029 232.149 408.876 231.01C405.723 229.871 372.809 235.284 372.809 235.284Z" fill="white" stroke="#263238" stroke-miterlimit="10" stroke-linecap="round"/>
<path d="M367.326 224.004L370.83 247.511C370.83 247.511 382.198 270.633 391.604 271.807C401.011 272.98 408.455 265.939 412.379 255.359L416.303 244.849L419.035 223.128L367.326 224.004Z" fill="white" stroke="#263238" stroke-miterlimit="10" stroke-linecap="round"/>
<path d="M419.036 226.981C419.036 226.981 398.839 247.178 392.428 249.928C386.017 252.678 368.098 227.91 368.098 227.91L419.036 226.981Z" fill="#263238"/>
<path d="M361.529 204.736C358.321 201.925 355.731 198.48 353.922 194.618C352.113 190.756 351.125 186.561 351.019 182.297C350.651 167.723 354.014 155.759 355.521 157.634C356.553 159.104 357.312 160.747 357.763 162.486C357.763 162.486 358.499 142.674 366.732 137.069C374.964 131.464 373.826 144.916 373.826 144.916C373.826 144.916 395.511 125.473 410.471 128.083C425.43 130.693 416.076 135.562 416.076 135.562C416.076 135.562 437.762 143.795 441.51 152.396C445.259 160.997 426.183 167.723 426.183 167.723C426.183 167.723 436.693 170.333 435.152 172.978C433.61 175.623 429.196 176.709 429.196 176.709C429.196 176.709 428.46 196.521 426.218 198.395C423.976 200.269 422.838 203.264 419.86 197.274C416.882 191.283 412.03 177.007 401.169 175.15C390.309 173.293 371.251 172.523 368.641 179.267C366.031 186.011 370.498 202.038 367.134 205.437C366.784 205.884 366.323 206.234 365.797 206.451C365.271 206.667 364.698 206.744 364.133 206.674C363.569 206.603 363.032 206.388 362.576 206.048C362.119 205.708 361.759 205.256 361.529 204.736Z" fill="#263238" stroke="#263238" stroke-miterlimit="10" stroke-linecap="round"/>
<path d="M400.136 158.596C400.136 158.596 384.493 155.829 375.297 161.347C366.101 166.864 361.95 177.917 361.95 182.069V200.006C361.95 200.006 351.825 192.649 349.968 199.55C348.111 206.452 350.441 216.577 354.12 217.505C355.328 217.723 356.57 217.679 357.76 217.377C358.951 217.075 360.063 216.521 361.021 215.753C361.021 215.753 362.86 226.789 371.146 230.485C379.431 234.181 390.764 239.716 395.371 239.243C399.978 238.77 418.143 227.244 419.895 225.388C421.646 223.531 423.591 213.424 423.591 213.424C423.591 213.424 427.584 217.277 429.686 215.964C435.537 212.303 436.465 205.138 436.465 199.621C436.465 194.103 425.43 196.397 425.43 196.397C425.43 196.397 420.823 170.122 416.672 164.184C412.52 158.246 400.136 158.596 400.136 158.596Z" fill="white" stroke="#263238" stroke-miterlimit="10" stroke-linecap="round"/>
<path d="M391.009 165.498C391.009 165.498 395.616 155.829 400.205 158.597C404.794 161.364 402.062 172.4 402.062 172.4" stroke="#263238" stroke-miterlimit="10" stroke-linecap="round"/>
<path d="M377.136 181.141C377.136 181.141 385.894 186.659 392.778 186.659C399.662 186.659 407.965 182.069 407.965 182.069" stroke="#263238" stroke-miterlimit="10" stroke-linecap="round"/>
<path d="M380.167 180.51C380.167 180.51 376.015 179.284 374.544 182.7" stroke="#263238" stroke-miterlimit="10" stroke-linecap="round"/>
<path d="M405.022 180.755C406.923 181.168 408.588 182.306 409.664 183.926" stroke="#263238" stroke-miterlimit="10" stroke-linecap="round"/>
<path d="M381.148 184.171C381.148 184.171 385.282 205.191 393.83 205.892C402.378 206.593 403.832 184.662 403.832 184.662C400.217 185.669 396.517 186.337 392.779 186.659C389.433 186.659 380.902 183.155 380.902 183.155L381.148 184.171Z" fill="#263238" stroke="#263238" stroke-miterlimit="10" stroke-linecap="round"/>
<path d="M380.902 183.191L381.148 184.172C381.148 184.172 381.428 185.591 381.988 187.675C388.803 190.66 396.52 190.836 403.464 188.166C403.744 186.081 403.832 184.662 403.832 184.662C400.217 185.67 396.517 186.338 392.779 186.659C389.433 186.607 380.902 183.191 380.902 183.191Z" fill="white" stroke="#263238" stroke-miterlimit="10" stroke-linecap="round"/>
<path d="M399.89 201.373C395.691 201.906 391.431 201.716 387.296 200.812C389.048 203.598 391.255 205.665 393.83 205.892C396.405 206.12 398.437 204.176 399.89 201.373Z" fill="white" stroke="#263238" stroke-miterlimit="10" stroke-linecap="round"/>
<path d="M373.825 170.263C373.825 170.263 377.959 165.131 383.582 166.357" stroke="#263238" stroke-miterlimit="10" stroke-linecap="round"/>
<path d="M403.831 166.601C405.484 166.28 407.186 166.309 408.828 166.686C410.469 167.063 412.013 167.78 413.36 168.791" stroke="#263238" stroke-miterlimit="10" stroke-linecap="round"/>
<path d="M382.601 160.734C382.601 160.734 375.279 161.224 372.354 166.112" stroke="#263238" stroke-width="2" stroke-miterlimit="10" stroke-linecap="round"/>
<path d="M405.548 160.488C405.548 160.488 412.555 160.734 416.058 166.356" stroke="#263238" stroke-width="2" stroke-miterlimit="10" stroke-linecap="round"/>
<path d="M477.734 1.00013H328.842C326.373 0.997828 323.928 1.48241 321.647 2.42616C319.365 3.3699 317.293 4.75427 315.547 6.50004C313.801 8.24581 312.417 10.3187 311.473 12.6001C310.529 14.8815 310.045 17.3266 310.047 19.7955V65.4265C310.047 67.8939 310.533 70.3371 311.478 72.6165C312.423 74.8959 313.807 76.9667 315.553 78.7106C317.299 80.4546 319.371 81.8374 321.651 82.78C323.931 83.7227 326.375 84.2067 328.842 84.2044H385.036L403.131 113.037L417.424 84.2044H477.787C480.254 84.2067 482.698 83.7227 484.978 82.78C487.258 81.8374 489.33 80.4546 491.076 78.7106C492.821 76.9667 494.206 74.8959 495.151 72.6165C496.096 70.3371 496.582 67.8939 496.582 65.4265V19.8831C496.596 17.4024 496.118 14.9436 495.176 12.6486C494.234 10.3536 492.847 8.26801 491.095 6.51225C489.342 4.75649 487.259 3.36537 484.966 2.41927C482.673 1.47317 480.215 0.990836 477.734 1.00013V1.00013Z" stroke="#263238" stroke-miterlimit="10" stroke-linecap="round"/>
<path d="M339.177 26.1733V55.3561H335.919V26.1733H339.177Z" fill="#263238"/>
<path d="M346.726 55.3561V29.0811H341.349V26.1733H355.362V29.1337H349.984V55.4087L346.726 55.3561Z" fill="#263238"/>
<path d="M359.234 33.8807H357.903L358.936 30.2197H357.728V26.1733H360.863V29.8869L359.234 33.8807Z" fill="#263238"/>
<path d="M376.61 33.178V33.9662H373.492V33.0729C373.492 30.4454 372.494 28.9039 370.164 28.9039C367.834 28.9039 366.818 30.4454 366.818 33.0379C366.818 39.5716 376.628 40.2022 376.628 48.4175C376.628 52.8317 374.491 55.7044 370.041 55.7044C365.592 55.7044 363.49 52.8317 363.49 48.4175V46.7534H366.538V48.5051C366.538 51.1326 367.624 52.6741 369.954 52.6741C372.284 52.6741 373.37 51.1326 373.37 48.5051C373.37 42.0064 363.613 41.3758 363.613 33.178C363.613 28.6762 365.697 25.8735 370.077 25.8735C374.456 25.8735 376.61 28.7463 376.61 33.178Z" fill="#263238"/>
<path d="M460.426 39.7663V42.7091H453.77V55.3561H450.529V26.1733H462.108V29.1337H453.77V39.7663H460.426Z" fill="#263238"/>
<path d="M460.426 42.2498L460.426 39.307L453.77 39.307L453.77 26.66L450.529 26.66L450.529 55.8428L462.108 55.8428L462.108 52.8825L453.77 52.8825L453.77 42.2498L460.426 42.2498Z" fill="#263238"/>
<path d="M431.725 26.1733V55.3561H428.467V26.1733H431.725Z" fill="#263238"/>
<path d="M445.576 26.1733V55.3561H442.317V26.1733H445.576Z" fill="#263238"/>
<path d="M431.584 26.3127L445.602 52.9425L442.318 55.3993L428.467 28.2137L431.584 26.3127Z" fill="#263238"/>
<path d="M400.59 26.1733C405.127 26.1733 407.212 28.9235 407.212 33.4252V48.1392C407.212 52.5885 405.127 55.3561 400.59 55.3561H393.741V26.1733H400.59ZM400.59 52.4484C402.937 52.4484 404.094 50.977 404.094 48.3144V33.2501C404.094 30.5875 402.973 29.1337 400.59 29.1337H397.087V52.3433L400.59 52.4484Z" fill="#263238"/>
<path d="M472.094 39.8889V26.1733H475.334V39.8889L474.931 48.8399H472.514L472.094 39.8889ZM475.264 51.3098V55.3561H472.129V51.3098H475.264Z" fill="#263238"/>
<path d="M672.063 127.662L668.069 201.67L616.973 184.171L672.063 127.662Z" fill="#263238" stroke="#263238" stroke-linecap="round" stroke-linejoin="round"/>
<path d="M669.804 128.677L655.212 203.842L640.621 196.765L664.496 127.346L669.804 128.677Z" fill="white" stroke="#263238" stroke-linecap="round" stroke-linejoin="round"/>
<path d="M669.803 128.677L644.614 203.403L570.326 173.765L604.379 111.423L669.803 128.677Z" fill="white" stroke="#263238" stroke-linecap="round" stroke-linejoin="round"/>
<path d="M601.068 104.908L563.67 175.885L631.81 203.772L672.063 127.662L601.068 104.908Z" fill="white" stroke="#263238" stroke-linecap="round" stroke-linejoin="round"/>
<path d="M586.004 133.495L655.458 159.069L672.063 127.662L601.068 104.908L586.004 133.495Z" fill="#7572FE"/>
<path d="M601.068 104.908L563.67 175.885L631.81 203.772L672.063 127.662L601.068 104.908Z" stroke="#263238" stroke-linecap="round" stroke-linejoin="round"/>
<path d="M608.811 129.169L607.865 130.763L604.555 129.607L600.561 136.421L598.949 135.861L608.198 120.096L613.908 122.11L612.98 123.704L608.864 122.268L605.5 128.013L608.811 129.169Z" fill="#263238"/>
<path d="M618.409 123.686C620.669 124.474 620.879 126.068 619.513 128.415L618.76 129.694C618.448 130.43 617.937 131.065 617.284 131.526C616.631 131.987 615.862 132.257 615.064 132.304C616.132 133.198 615.94 134.546 614.941 136.228L613.505 138.68C613.095 139.282 612.815 139.962 612.681 140.677L611.052 140.099C611.205 139.384 611.496 138.705 611.911 138.102L613.365 135.632C614.416 133.881 613.978 133.022 612.646 132.549L611.508 132.146L607.549 138.873L605.955 138.312L615.186 122.547L618.409 123.686ZM613.645 130.973C614.906 131.411 615.94 131.236 616.938 129.519L617.831 128.013C618.655 126.594 618.62 125.683 617.429 125.262L615.852 124.719L612.436 130.552L613.645 130.973Z" fill="#263238"/>
<path d="M624.907 125.911L615.676 141.676L614.064 141.116L623.313 125.351L624.907 125.911Z" fill="#263238"/>
<path d="M629.936 127.663C632.178 128.434 632.336 130.29 630.917 132.725L626.258 140.66C624.839 143.077 622.947 144.164 620.705 143.41L617.324 142.237L626.555 126.472L629.936 127.663ZM621.616 141.816C622.772 142.219 623.788 141.624 624.629 140.187L629.393 132.077C630.234 130.641 630.129 129.642 628.955 129.239L627.204 128.626L619.829 141.203L621.616 141.816Z" fill="#263238"/>
<path d="M628.938 142.55L626.52 145.528L625.049 145.003L637.048 130.219L639.378 131.025L632.896 147.753L631.285 147.192L632.599 143.829L628.938 142.55ZM630.041 141.114L633.247 142.235L636.96 132.566L630.041 141.114Z" fill="#263238"/>
<path d="M640.008 143.427L642.898 132.251L644.562 132.829L642.268 141.36L649.082 134.353L650.606 134.896L641.602 143.935L638.291 149.575L636.697 149.032L640.008 143.427Z" fill="#263238"/>
<path d="M592.363 138.417L645.21 157.283L626.643 191.423L576.02 170.701L592.363 138.417Z" stroke="#263238" stroke-linecap="round" stroke-linejoin="round"/>
<path d="M599.545 141.606L582.799 173.083" stroke="#263238" stroke-linecap="round" stroke-linejoin="round"/>
<path d="M608.303 144.39L591.574 175.885" stroke="#263238" stroke-linecap="round" stroke-linejoin="round"/>
<path d="M617.077 147.193L599.596 179.494" stroke="#263238" stroke-linecap="round" stroke-linejoin="round"/>
<path d="M626.24 151.571L609.494 183.049" stroke="#263238" stroke-linecap="round" stroke-linejoin="round"/>
<path d="M636.206 155.163L618.654 187.779" stroke="#263238" stroke-linecap="round" stroke-linejoin="round"/>
<path d="M589.174 145.984L640.182 165.515" stroke="#263238" stroke-linecap="round" stroke-linejoin="round"/>
<path d="M585.197 154.76L634.664 175.097" stroke="#263238" stroke-linecap="round" stroke-linejoin="round"/>
<path d="M580.014 163.133L630.216 184.643" stroke="#263238" stroke-linecap="round" stroke-linejoin="round"/>
<path d="M607.969 113.228C607.138 112.697 606.458 111.958 605.998 111.085C605.538 110.212 605.313 109.235 605.345 108.248C605.376 107.262 605.664 106.301 606.179 105.459C606.694 104.617 607.42 103.924 608.284 103.447C609.147 102.97 610.121 102.726 611.107 102.739C612.094 102.751 613.061 103.02 613.912 103.519C614.764 104.018 615.471 104.729 615.965 105.584C616.458 106.439 616.721 107.407 616.727 108.394C616.754 108.685 616.754 108.978 616.727 109.269" stroke="#263238" stroke-linecap="round" stroke-linejoin="round"/>
<path d="M619.004 116.907C618.173 116.376 617.494 115.638 617.034 114.765C616.573 113.892 616.348 112.914 616.38 111.928C616.412 110.941 616.699 109.98 617.214 109.138C617.73 108.297 618.455 107.603 619.319 107.126C620.183 106.649 621.156 106.405 622.143 106.418C623.129 106.431 624.096 106.699 624.947 107.198C625.799 107.697 626.506 108.409 627 109.263C627.493 110.118 627.756 111.086 627.763 112.073C627.789 112.364 627.789 112.657 627.763 112.949" stroke="#263238" stroke-linecap="round" stroke-linejoin="round"/>
<path d="M630.041 120.656C629.21 120.125 628.531 119.386 628.071 118.513C627.611 117.64 627.385 116.662 627.417 115.676C627.449 114.69 627.736 113.729 628.251 112.887C628.767 112.045 629.492 111.352 630.356 110.875C631.22 110.398 632.193 110.154 633.18 110.166C634.166 110.179 635.133 110.448 635.985 110.947C636.836 111.446 637.543 112.157 638.037 113.012C638.53 113.866 638.793 114.835 638.8 115.821C638.826 116.113 638.826 116.406 638.8 116.697" stroke="#263238" stroke-linecap="round" stroke-linejoin="round"/>
<path d="M641.077 124.264C640.245 123.733 639.566 122.995 639.106 122.121C638.646 121.248 638.42 120.271 638.452 119.284C638.484 118.298 638.771 117.337 639.287 116.495C639.802 115.654 640.527 114.96 641.391 114.483C642.255 114.006 643.228 113.762 644.215 113.775C645.202 113.787 646.168 114.056 647.02 114.555C647.871 115.054 648.578 115.766 649.072 116.62C649.566 117.475 649.828 118.443 649.835 119.43C649.862 119.721 649.862 120.014 649.835 120.306" stroke="#263238" stroke-linecap="round" stroke-linejoin="round"/>
<path d="M652.112 127.942C651.28 127.41 650.601 126.672 650.141 125.799C649.681 124.926 649.456 123.948 649.487 122.962C649.519 121.975 649.807 121.014 650.322 120.172C650.837 119.331 651.562 118.637 652.426 118.161C653.29 117.684 654.263 117.44 655.25 117.452C656.237 117.465 657.203 117.734 658.055 118.232C658.906 118.731 659.614 119.443 660.107 120.297C660.601 121.152 660.864 122.12 660.87 123.107C660.897 123.398 660.897 123.692 660.87 123.983" stroke="#263238" stroke-linecap="round" stroke-linejoin="round"/>
<path d="M798.78 719.971H1" stroke="#263238" stroke-miterlimit="10" stroke-linecap="round"/>
</g>
<ellipse opacity="0.7" cx="418" cy="40.2441" rx="6" ry="13" stroke="#263238" stroke-width="5"/>
<path d="M358.547 832.093H361.258V838.318H367.758V832.093H370.468V847H367.758V840.684H361.258V847H358.547V832.093ZM382.161 835.814H384.871V847H382.161V835.814ZM374.512 835.814H377.223V842.659C377.223 843.386 377.403 843.934 377.762 844.301C378.122 844.661 378.616 844.841 379.244 844.841C379.78 844.841 380.266 844.703 380.702 844.427C381.146 844.144 381.499 843.731 381.759 843.187C382.027 842.636 382.161 841.955 382.161 841.143H382.896C382.896 842.506 382.72 843.635 382.368 844.531C382.015 845.427 381.529 846.097 380.909 846.541C380.289 846.985 379.573 847.207 378.762 847.207C377.965 847.207 377.246 847.065 376.602 846.782C375.959 846.499 375.45 846.043 375.075 845.415C374.7 844.787 374.512 843.96 374.512 842.935V835.814ZM389.142 847V835.814H391.853V847H389.142ZM391.187 842.108C391.187 840.645 391.351 839.436 391.68 838.479C392.01 837.522 392.45 836.813 393.001 836.354C393.56 835.887 394.18 835.653 394.862 835.653C395.045 835.653 395.218 835.665 395.378 835.688C395.547 835.711 395.711 835.745 395.872 835.791L395.826 838.502C395.627 838.456 395.413 838.417 395.183 838.387C394.953 838.356 394.747 838.341 394.563 838.341C393.966 838.341 393.464 838.486 393.059 838.777C392.66 839.06 392.358 839.482 392.151 840.04C391.952 840.599 391.853 841.288 391.853 842.108H391.187ZM398.159 847V835.814H400.87V847H398.159ZM400.204 842.108C400.204 840.645 400.368 839.436 400.697 838.479C401.027 837.522 401.467 836.813 402.018 836.354C402.577 835.887 403.197 835.653 403.879 835.653C404.062 835.653 404.235 835.665 404.395 835.688C404.564 835.711 404.728 835.745 404.889 835.791L404.843 838.502C404.644 838.456 404.43 838.417 404.2 838.387C403.97 838.356 403.764 838.341 403.58 838.341C402.983 838.341 402.481 838.486 402.076 838.777C401.677 839.06 401.375 839.482 401.168 840.04C400.969 840.599 400.87 841.288 400.87 842.108H400.204ZM414.274 847L413.929 844.29V839.811C413.929 839.03 413.768 838.452 413.447 838.077C413.133 837.701 412.597 837.514 411.839 837.514C411.403 837.514 411.024 837.579 410.702 837.709C410.381 837.839 410.132 838.027 409.956 838.272C409.787 838.509 409.703 838.8 409.703 839.145H406.74C406.74 838.302 406.943 837.617 407.349 837.089C407.754 836.553 408.336 836.163 409.094 835.918C409.86 835.665 410.775 835.539 411.839 835.539C412.804 835.539 413.646 835.696 414.366 836.009C415.085 836.316 415.644 836.79 416.042 837.434C416.44 838.077 416.64 838.9 416.64 839.903V847H414.274ZM410.622 847.322C409.665 847.322 408.865 847.157 408.221 846.828C407.586 846.491 407.108 846.051 406.786 845.507C406.464 844.963 406.304 844.374 406.304 843.738C406.304 843.034 406.487 842.445 406.855 841.97C407.23 841.487 407.758 841.128 408.44 840.89C409.121 840.645 409.925 840.523 410.851 840.523C411.456 840.523 412.027 840.569 412.563 840.661C413.106 840.752 413.646 840.875 414.182 841.028V842.613C413.761 842.475 413.301 842.368 412.804 842.291C412.306 842.215 411.839 842.177 411.403 842.177C410.76 842.177 410.231 842.295 409.818 842.533C409.404 842.77 409.198 843.172 409.198 843.738C409.198 844.152 409.366 844.508 409.703 844.806C410.04 845.105 410.576 845.254 411.311 845.254C411.87 845.254 412.344 845.132 412.735 844.887C413.125 844.642 413.42 844.336 413.619 843.968C413.826 843.601 413.929 843.233 413.929 842.866H414.572C414.572 843.67 414.423 844.412 414.124 845.094C413.826 845.767 413.382 846.307 412.792 846.713C412.21 847.119 411.487 847.322 410.622 847.322ZM418.913 835.86H421.99L424.953 844.634H424.471L427.021 835.86H429.777L425.505 849.021C425.068 850.338 424.528 851.291 423.885 851.881C423.25 852.47 422.473 852.765 421.554 852.765C421.026 852.765 420.509 852.704 420.004 852.581C419.506 852.467 418.997 852.283 418.476 852.03V849.641C418.897 849.902 419.303 850.093 419.693 850.216C420.092 850.338 420.49 850.399 420.888 850.399C421.248 850.399 421.562 850.3 421.83 850.101C422.105 849.909 422.343 849.638 422.542 849.285C422.741 848.941 422.909 848.539 423.047 848.08L423.391 847L418.913 835.86ZM438.134 841.97L437.835 831.772H440.775L440.453 841.97H438.134ZM439.317 847.207C438.758 847.207 438.302 847.038 437.95 846.701C437.598 846.357 437.422 845.92 437.422 845.392C437.422 844.887 437.598 844.458 437.95 844.106C438.302 843.754 438.758 843.578 439.317 843.578C439.86 843.578 440.316 843.754 440.683 844.106C441.051 844.458 441.234 844.887 441.234 845.392C441.234 845.92 441.051 846.357 440.683 846.701C440.316 847.038 439.86 847.207 439.317 847.207Z" fill="black"/>
<path d="M245.064 881.75V871.172H251.582V872.301H246.378V875.855H251.279V876.983H246.378V880.605H251.582V881.75H245.064ZM253.141 873.699H254.64L257.166 880.621H256.981L259.508 873.699H261.007L257.79 881.75H256.358L253.141 873.699ZM265.806 881.952C265.11 881.952 264.487 881.775 263.936 881.422C263.392 881.062 262.96 880.565 262.639 879.931C262.325 879.296 262.168 878.567 262.168 877.741C262.168 876.86 262.325 876.102 262.639 875.467C262.954 874.833 263.383 874.347 263.928 874.01C264.478 873.668 265.104 873.497 265.806 873.497C266.418 873.497 266.94 873.62 267.373 873.867C267.805 874.114 268.153 874.448 268.417 874.869C268.681 875.29 268.863 875.768 268.964 876.301C269.071 876.829 269.102 877.376 269.057 877.943H263.229V877.135H268.189L267.802 877.387C267.819 877.056 267.799 876.725 267.743 876.394C267.693 876.062 267.594 875.759 267.448 875.484C267.302 875.203 267.097 874.979 266.834 874.81C266.57 874.642 266.233 874.558 265.823 874.558C265.306 874.558 264.874 874.69 264.526 874.954C264.178 875.217 263.917 875.566 263.743 875.998C263.569 876.425 263.482 876.888 263.482 877.387V877.926C263.482 878.488 263.566 878.99 263.734 879.434C263.908 879.878 264.167 880.228 264.509 880.487C264.852 880.745 265.284 880.874 265.806 880.874C266.328 880.874 266.758 880.748 267.095 880.495C267.432 880.242 267.636 879.869 267.709 879.375H269.074C268.99 879.908 268.799 880.369 268.501 880.756C268.204 881.138 267.825 881.433 267.364 881.641C266.904 881.848 266.384 881.952 265.806 881.952ZM271.662 881.75V873.682H272.976V881.75H271.662ZM272.572 878.112C272.572 877.09 272.67 876.242 272.867 875.568C273.063 874.889 273.349 874.384 273.726 874.052C274.107 873.716 274.571 873.547 275.115 873.547C275.295 873.547 275.458 873.561 275.604 873.589C275.755 873.612 275.907 873.648 276.058 873.699L275.974 874.996C275.817 874.945 275.646 874.903 275.46 874.869C275.275 874.83 275.11 874.81 274.964 874.81C274.486 874.81 274.102 874.948 273.81 875.223C273.518 875.493 273.304 875.874 273.17 876.368C273.041 876.863 272.976 877.444 272.976 878.112H272.572ZM280.224 881.952C279.786 881.952 279.393 881.868 279.045 881.699C278.697 881.531 278.422 881.278 278.22 880.941C278.018 880.605 277.917 880.184 277.917 879.678V871.458H279.214V879.645C279.214 880.475 279.601 880.891 280.376 880.891C280.606 880.891 280.828 880.866 281.041 880.815C281.26 880.765 281.504 880.689 281.774 880.588L281.959 881.531C281.673 881.655 281.387 881.756 281.1 881.834C280.82 881.913 280.528 881.952 280.224 881.952ZM276.62 874.608V873.699H281.757V874.608H276.62ZM289.808 881.75V877.017C289.808 876.248 289.623 875.664 289.252 875.265C288.887 874.861 288.388 874.659 287.753 874.659C287.27 874.659 286.852 874.791 286.498 875.055C286.145 875.318 285.872 875.697 285.681 876.192C285.49 876.68 285.395 877.264 285.395 877.943H284.89C284.89 877.006 285.013 876.206 285.26 875.543C285.507 874.881 285.867 874.375 286.338 874.027C286.815 873.673 287.394 873.497 288.073 873.497C288.708 873.497 289.249 873.64 289.699 873.926C290.153 874.207 290.501 874.611 290.743 875.139C290.984 875.667 291.105 876.293 291.105 877.017V881.75H289.808ZM284.081 881.75V870.263H285.395V881.75H284.081ZM294.988 871.795C294.718 871.795 294.505 871.72 294.348 871.568C294.19 871.411 294.112 871.206 294.112 870.953C294.112 870.706 294.19 870.51 294.348 870.364C294.505 870.218 294.718 870.145 294.988 870.145C295.257 870.145 295.471 870.218 295.628 870.364C295.785 870.51 295.864 870.706 295.864 870.953C295.864 871.206 295.785 871.411 295.628 871.568C295.471 871.72 295.257 871.795 294.988 871.795ZM294.331 881.75V873.682H295.645V881.75H294.331ZM304.99 881.75V877.017C304.99 876.248 304.805 875.664 304.435 875.265C304.07 874.861 303.57 874.659 302.936 874.659C302.453 874.659 302.034 874.791 301.681 875.055C301.327 875.318 301.055 875.697 300.864 876.192C300.673 876.68 300.577 877.264 300.577 877.943H300.072C300.072 877.006 300.196 876.206 300.443 875.543C300.69 874.881 301.049 874.375 301.521 874.027C301.998 873.673 302.576 873.497 303.256 873.497C303.89 873.497 304.432 873.64 304.881 873.926C305.336 874.207 305.684 874.611 305.925 875.139C306.167 875.667 306.287 876.293 306.287 877.017V881.75H304.99ZM299.264 881.75V873.699H300.392L300.577 875.551V881.75H299.264ZM312.276 885.894C311.45 885.894 310.734 885.776 310.128 885.54C309.522 885.31 309.05 884.998 308.713 884.605C308.382 884.218 308.216 883.788 308.216 883.316C308.216 882.693 308.444 882.216 308.898 881.885C309.359 881.559 309.951 881.396 310.675 881.396L311.4 881.851C310.793 881.851 310.325 881.977 309.993 882.23C309.662 882.483 309.496 882.828 309.496 883.266C309.496 883.704 309.732 884.074 310.204 884.378C310.675 884.681 311.366 884.832 312.276 884.832C312.949 884.832 313.539 884.734 314.044 884.538C314.555 884.347 314.951 884.094 315.232 883.78C315.518 883.471 315.661 883.137 315.661 882.777C315.661 882.525 315.569 882.306 315.383 882.121C315.198 881.941 314.915 881.851 314.533 881.851H311.4C310.855 881.851 310.384 881.77 309.985 881.607C309.592 881.438 309.289 881.219 309.075 880.95C308.862 880.68 308.755 880.386 308.755 880.066C308.755 879.729 308.851 879.442 309.042 879.207C309.233 878.971 309.48 878.791 309.783 878.668C310.092 878.544 310.423 878.482 310.777 878.482L311.029 878.971C310.861 878.971 310.69 879.01 310.515 879.089C310.347 879.162 310.204 879.274 310.086 879.426C309.974 879.572 309.918 879.757 309.918 879.981C309.918 880.24 310.024 880.456 310.238 880.63C310.451 880.804 310.838 880.891 311.4 880.891H314.533C315.291 880.891 315.886 881.051 316.318 881.371C316.756 881.691 316.975 882.137 316.975 882.71C316.975 883.238 316.787 883.743 316.411 884.226C316.035 884.715 315.496 885.113 314.794 885.422C314.092 885.736 313.253 885.894 312.276 885.894ZM312.511 879.392C311.894 879.392 311.335 879.268 310.836 879.021C310.341 878.774 309.948 878.429 309.656 877.985C309.37 877.542 309.227 877.028 309.227 876.444C309.227 875.855 309.37 875.338 309.656 874.895C309.948 874.451 310.341 874.109 310.836 873.867C311.335 873.62 311.894 873.497 312.511 873.497C313.112 873.497 313.657 873.62 314.145 873.867C314.639 874.109 315.032 874.451 315.324 874.895C315.616 875.338 315.762 875.855 315.762 876.444C315.762 877.028 315.616 877.542 315.324 877.985C315.032 878.429 314.639 878.774 314.145 879.021C313.657 879.268 313.112 879.392 312.511 879.392ZM312.511 878.449C313.129 878.449 313.609 878.258 313.952 877.876C314.294 877.494 314.465 877.017 314.465 876.444C314.465 875.855 314.294 875.377 313.952 875.012C313.609 874.642 313.129 874.457 312.511 874.457C311.899 874.457 311.417 874.642 311.063 875.012C310.715 875.377 310.541 875.855 310.541 876.444C310.541 877.017 310.715 877.494 311.063 877.876C311.417 878.258 311.899 878.449 312.511 878.449ZM315.156 874.777L314.533 874.524C314.533 874.052 314.625 873.64 314.811 873.286C314.996 872.927 315.26 872.649 315.602 872.452C315.945 872.25 316.352 872.149 316.823 872.149L316.722 873.446C316.217 873.446 315.83 873.556 315.56 873.774C315.291 873.988 315.156 874.322 315.156 874.777ZM323.675 871.795C323.405 871.795 323.192 871.72 323.035 871.568C322.878 871.411 322.799 871.206 322.799 870.953C322.799 870.706 322.878 870.51 323.035 870.364C323.192 870.218 323.405 870.145 323.675 870.145C323.944 870.145 324.158 870.218 324.315 870.364C324.472 870.51 324.551 870.706 324.551 870.953C324.551 871.206 324.472 871.411 324.315 871.568C324.158 871.72 323.944 871.795 323.675 871.795ZM323.018 881.75V873.682H324.332V881.75H323.018ZM330.848 881.952C330.067 881.952 329.416 881.843 328.894 881.624C328.372 881.399 327.976 881.093 327.706 880.706C327.437 880.313 327.294 879.863 327.277 879.358H328.54C328.568 879.869 328.773 880.254 329.155 880.512C329.542 880.765 330.067 880.891 330.73 880.891C331.078 880.891 331.398 880.835 331.69 880.723C331.982 880.61 332.215 880.456 332.389 880.259C332.563 880.063 332.65 879.841 332.65 879.594C332.65 879.28 332.535 879.033 332.305 878.853C332.075 878.673 331.707 878.516 331.201 878.381L329.635 877.876C328.956 877.663 328.433 877.371 328.069 877C327.709 876.624 327.53 876.175 327.53 875.653C327.53 875.001 327.816 874.479 328.389 874.086C328.961 873.693 329.714 873.497 330.646 873.497C331.634 873.497 332.4 873.699 332.945 874.103C333.489 874.507 333.773 875.012 333.795 875.619H332.498C332.448 875.265 332.268 874.998 331.959 874.819C331.651 874.634 331.213 874.541 330.646 874.541C330.101 874.541 329.674 874.664 329.365 874.911C329.062 875.153 328.911 875.422 328.911 875.72C328.911 876.276 329.388 876.686 330.342 876.95L331.943 877.489C332.633 877.696 333.161 877.969 333.526 878.305C333.896 878.642 334.082 879.072 334.082 879.594C334.082 879.998 333.95 880.38 333.686 880.739C333.422 881.099 333.049 881.391 332.566 881.615C332.083 881.84 331.51 881.952 330.848 881.952ZM343.627 881.952C342.981 881.952 342.378 881.778 341.816 881.43C341.26 881.082 340.811 880.591 340.469 879.956C340.126 879.322 339.955 878.572 339.955 877.707C339.955 876.82 340.126 876.062 340.469 875.434C340.811 874.805 341.26 874.325 341.816 873.993C342.378 873.662 342.981 873.497 343.627 873.497C344.082 873.497 344.489 873.567 344.848 873.707C345.213 873.842 345.53 874.03 345.8 874.271C346.069 874.513 346.291 874.788 346.465 875.097C346.645 875.4 346.777 875.72 346.861 876.057L345.514 876.175C345.373 875.709 345.137 875.341 344.806 875.071C344.48 874.796 344.082 874.659 343.61 874.659C343.212 874.659 342.835 874.774 342.482 875.004C342.134 875.229 341.85 875.568 341.631 876.023C341.412 876.472 341.303 877.034 341.303 877.707C341.303 878.331 341.401 878.873 341.597 879.333C341.799 879.788 342.075 880.141 342.423 880.394C342.771 880.647 343.167 880.773 343.61 880.773C344.233 880.773 344.705 880.621 345.025 880.318C345.351 880.009 345.514 879.583 345.514 879.038H346.861C346.861 879.6 346.729 880.099 346.465 880.537C346.201 880.975 345.825 881.32 345.337 881.573C344.854 881.826 344.284 881.952 343.627 881.952ZM352.396 881.952C351.672 881.952 351.026 881.792 350.459 881.472C349.898 881.152 349.454 880.678 349.129 880.049C348.803 879.42 348.64 878.645 348.64 877.724C348.64 876.798 348.803 876.023 349.129 875.4C349.454 874.771 349.898 874.297 350.459 873.977C351.026 873.657 351.672 873.497 352.396 873.497C353.115 873.497 353.755 873.657 354.316 873.977C354.884 874.297 355.327 874.771 355.647 875.4C355.973 876.023 356.136 876.798 356.136 877.724C356.136 878.645 355.973 879.42 355.647 880.049C355.327 880.678 354.884 881.152 354.316 881.472C353.755 881.792 353.115 881.952 352.396 881.952ZM352.363 880.807C352.885 880.807 353.328 880.683 353.693 880.436C354.058 880.184 354.333 879.827 354.519 879.367C354.709 878.906 354.805 878.359 354.805 877.724C354.805 876.764 354.606 876.009 354.207 875.459C353.808 874.903 353.216 874.625 352.43 874.625C351.902 874.625 351.456 874.751 351.091 875.004C350.732 875.251 350.456 875.608 350.266 876.074C350.08 876.534 349.988 877.084 349.988 877.724C349.988 878.673 350.187 879.426 350.586 879.981C350.99 880.532 351.582 880.807 352.363 880.807ZM370.013 881.75V877.017C370.013 876.248 369.827 875.664 369.457 875.265C369.092 874.861 368.598 874.659 367.975 874.659C367.245 874.659 366.686 874.942 366.299 875.509C365.911 876.071 365.718 876.848 365.718 877.842H365.111C365.111 877.118 365.181 876.484 365.322 875.939C365.468 875.394 365.678 874.942 365.953 874.583C366.229 874.218 366.563 873.946 366.956 873.766C367.349 873.586 367.795 873.497 368.295 873.497C368.929 873.497 369.471 873.64 369.92 873.926C370.375 874.207 370.723 874.611 370.964 875.139C371.206 875.667 371.327 876.293 371.327 877.017V881.75H370.013ZM358.694 881.75V873.699H359.822L359.974 875.316C360.227 874.732 360.58 874.283 361.035 873.968C361.495 873.654 362.046 873.497 362.686 873.497C363.32 873.497 363.862 873.64 364.311 873.926C364.766 874.207 365.114 874.611 365.355 875.139C365.597 875.667 365.718 876.293 365.718 877.017V881.75H364.421V877.017C364.421 876.248 364.235 875.664 363.865 875.265C363.5 874.861 363 874.659 362.366 874.659C361.883 874.659 361.465 874.791 361.111 875.055C360.757 875.318 360.485 875.697 360.294 876.192C360.103 876.68 360.008 877.264 360.008 877.943V881.75H358.694ZM378.107 881.952C377.517 881.952 377.004 881.817 376.566 881.548C376.133 881.278 375.799 880.885 375.564 880.369C375.328 879.847 375.21 879.212 375.21 878.465H375.766C375.766 878.965 375.87 879.386 376.077 879.729C376.285 880.071 376.555 880.332 376.886 880.512C377.223 880.686 377.579 880.773 377.955 880.773C378.36 880.773 378.747 880.658 379.118 880.428C379.488 880.192 379.791 879.847 380.027 879.392C380.263 878.937 380.381 878.376 380.381 877.707C380.381 877.067 380.271 876.52 380.052 876.065C379.839 875.61 379.55 875.262 379.185 875.021C378.82 874.779 378.416 874.659 377.972 874.659C377.59 874.659 377.231 874.751 376.894 874.937C376.557 875.122 376.285 875.394 376.077 875.754C375.87 876.107 375.766 876.545 375.766 877.067H375.21C375.21 876.287 375.339 875.633 375.597 875.105C375.856 874.572 376.206 874.17 376.65 873.901C377.094 873.631 377.59 873.497 378.141 873.497C378.769 873.497 379.356 873.665 379.901 874.002C380.445 874.339 380.886 874.822 381.223 875.45C381.56 876.079 381.728 876.832 381.728 877.707C381.728 878.595 381.557 879.355 381.215 879.99C380.878 880.624 380.434 881.11 379.884 881.447C379.334 881.784 378.741 881.952 378.107 881.952ZM374.452 885.708V873.699H375.547L375.766 875.585V885.708H374.452ZM384.305 881.75V870.263H385.619V881.75H384.305ZM391.822 881.952C391.126 881.952 390.502 881.775 389.952 881.422C389.407 881.062 388.975 880.565 388.655 879.931C388.341 879.296 388.183 878.567 388.183 877.741C388.183 876.86 388.341 876.102 388.655 875.467C388.97 874.833 389.399 874.347 389.944 874.01C390.494 873.668 391.12 873.497 391.822 873.497C392.434 873.497 392.956 873.62 393.388 873.867C393.821 874.114 394.169 874.448 394.432 874.869C394.696 875.29 394.879 875.768 394.98 876.301C395.087 876.829 395.117 877.376 395.073 877.943H389.245V877.135H394.205L393.818 877.387C393.835 877.056 393.815 876.725 393.759 876.394C393.708 876.062 393.61 875.759 393.464 875.484C393.318 875.203 393.113 874.979 392.849 874.81C392.585 874.642 392.248 874.558 391.839 874.558C391.322 874.558 390.89 874.69 390.542 874.954C390.193 875.217 389.932 875.566 389.758 875.998C389.584 876.425 389.497 876.888 389.497 877.387V877.926C389.497 878.488 389.581 878.99 389.75 879.434C389.924 879.878 390.182 880.228 390.525 880.487C390.867 880.745 391.3 880.874 391.822 880.874C392.344 880.874 392.773 880.748 393.11 880.495C393.447 880.242 393.652 879.869 393.725 879.375H395.089C395.005 879.908 394.814 880.369 394.517 880.756C394.219 881.138 393.84 881.433 393.38 881.641C392.919 881.848 392.4 881.952 391.822 881.952ZM400.154 881.952C399.716 881.952 399.323 881.868 398.975 881.699C398.627 881.531 398.352 881.278 398.149 880.941C397.947 880.605 397.846 880.184 397.846 879.678V871.458H399.143V879.645C399.143 880.475 399.531 880.891 400.305 880.891C400.536 880.891 400.757 880.866 400.971 880.815C401.19 880.765 401.434 880.689 401.703 880.588L401.889 881.531C401.602 881.655 401.316 881.756 401.03 881.834C400.749 881.913 400.457 881.952 400.154 881.952ZM396.549 874.608V873.699H401.687V874.608H396.549ZM406.807 881.952C406.111 881.952 405.487 881.775 404.937 881.422C404.392 881.062 403.96 880.565 403.64 879.931C403.326 879.296 403.168 878.567 403.168 877.741C403.168 876.86 403.326 876.102 403.64 875.467C403.955 874.833 404.384 874.347 404.929 874.01C405.479 873.668 406.105 873.497 406.807 873.497C407.419 873.497 407.941 873.62 408.373 873.867C408.806 874.114 409.154 874.448 409.418 874.869C409.681 875.29 409.864 875.768 409.965 876.301C410.072 876.829 410.102 877.376 410.058 877.943H404.23V877.135H409.19L408.803 877.387C408.82 877.056 408.8 876.725 408.744 876.394C408.693 876.062 408.595 875.759 408.449 875.484C408.303 875.203 408.098 874.979 407.834 874.81C407.57 874.642 407.233 874.558 406.824 874.558C406.307 874.558 405.875 874.69 405.527 874.954C405.179 875.217 404.917 875.566 404.743 875.998C404.569 876.425 404.482 876.888 404.482 877.387V877.926C404.482 878.488 404.567 878.99 404.735 879.434C404.909 879.878 405.167 880.228 405.51 880.487C405.852 880.745 406.285 880.874 406.807 880.874C407.329 880.874 407.758 880.748 408.095 880.495C408.432 880.242 408.637 879.869 408.71 879.375H410.074C409.99 879.908 409.799 880.369 409.502 880.756C409.204 881.138 408.825 881.433 408.365 881.641C407.904 881.848 407.385 881.952 406.807 881.952ZM415.543 881.952C414.892 881.952 414.294 881.778 413.749 881.43C413.205 881.076 412.77 880.582 412.444 879.948C412.118 879.308 411.955 878.555 411.955 877.691C411.955 876.832 412.115 876.088 412.435 875.459C412.755 874.83 413.179 874.347 413.707 874.01C414.241 873.668 414.824 873.497 415.459 873.497C416.048 873.497 416.565 873.64 417.009 873.926C417.458 874.212 417.806 874.625 418.053 875.164C418.3 875.703 418.423 876.354 418.423 877.118H417.918C417.918 876.585 417.811 876.135 417.598 875.77C417.39 875.406 417.118 875.13 416.781 874.945C416.444 874.754 416.082 874.659 415.695 874.659C415.257 874.659 414.855 874.782 414.49 875.029C414.131 875.271 413.842 875.619 413.623 876.074C413.41 876.523 413.303 877.062 413.303 877.691C413.303 878.331 413.41 878.881 413.623 879.341C413.842 879.802 414.131 880.155 414.49 880.402C414.855 880.65 415.257 880.773 415.695 880.773C416.06 880.773 416.411 880.678 416.747 880.487C417.09 880.296 417.371 880.018 417.59 879.653C417.809 879.282 417.918 878.836 417.918 878.314H418.423C418.423 879.094 418.294 879.757 418.036 880.301C417.783 880.84 417.438 881.25 417 881.531C416.568 881.812 416.082 881.952 415.543 881.952ZM418.137 881.75L417.918 879.863V870.263H419.232V881.75H418.137ZM422.445 883.586L421.451 883.098C421.771 882.935 422.041 882.755 422.26 882.559C422.485 882.362 422.631 882.121 422.698 881.834C422.456 881.806 422.249 881.719 422.075 881.573C421.906 881.427 421.822 881.233 421.822 880.992C421.822 880.756 421.909 880.554 422.083 880.386C422.263 880.217 422.49 880.133 422.765 880.133C423.113 880.133 423.394 880.259 423.607 880.512C423.821 880.765 423.927 881.065 423.927 881.413C423.927 881.823 423.801 882.224 423.548 882.617C423.301 883.016 422.934 883.339 422.445 883.586ZM435.891 881.75V877.017C435.891 876.248 435.706 875.664 435.336 875.265C434.971 874.861 434.471 874.659 433.836 874.659C433.354 874.659 432.935 874.791 432.582 875.055C432.228 875.318 431.956 875.697 431.765 876.192C431.574 876.68 431.478 877.264 431.478 877.943H430.973C430.973 877.006 431.097 876.206 431.344 875.543C431.591 874.881 431.95 874.375 432.422 874.027C432.899 873.673 433.477 873.497 434.157 873.497C434.791 873.497 435.333 873.64 435.782 873.926C436.237 874.207 436.585 874.611 436.826 875.139C437.068 875.667 437.188 876.293 437.188 877.017V881.75H435.891ZM430.165 881.75V873.699H431.293L431.478 875.551V881.75H430.165ZM443.244 881.952C442.52 881.952 441.874 881.792 441.307 881.472C440.745 881.152 440.302 880.678 439.976 880.049C439.651 879.42 439.488 878.645 439.488 877.724C439.488 876.798 439.651 876.023 439.976 875.4C440.302 874.771 440.745 874.297 441.307 873.977C441.874 873.657 442.52 873.497 443.244 873.497C443.963 873.497 444.603 873.657 445.164 873.977C445.731 874.297 446.175 874.771 446.495 875.4C446.82 876.023 446.983 876.798 446.983 877.724C446.983 878.645 446.82 879.42 446.495 880.049C446.175 880.678 445.731 881.152 445.164 881.472C444.603 881.792 443.963 881.952 443.244 881.952ZM443.21 880.807C443.732 880.807 444.176 880.683 444.541 880.436C444.906 880.184 445.181 879.827 445.366 879.367C445.557 878.906 445.653 878.359 445.653 877.724C445.653 876.764 445.453 876.009 445.055 875.459C444.656 874.903 444.064 874.625 443.278 874.625C442.75 874.625 442.304 874.751 441.939 875.004C441.579 875.251 441.304 875.608 441.113 876.074C440.928 876.534 440.835 877.084 440.835 877.724C440.835 878.673 441.035 879.426 441.433 879.981C441.838 880.532 442.43 880.807 443.21 880.807ZM452.017 881.952C451.58 881.952 451.187 881.868 450.838 881.699C450.49 881.531 450.215 881.278 450.013 880.941C449.811 880.605 449.71 880.184 449.71 879.678V871.458H451.007V879.645C451.007 880.475 451.394 880.891 452.169 880.891C452.399 880.891 452.621 880.866 452.834 880.815C453.053 880.765 453.298 880.689 453.567 880.588L453.752 881.531C453.466 881.655 453.18 881.756 452.893 881.834C452.613 881.913 452.321 881.952 452.017 881.952ZM448.413 874.608V873.699H453.55V874.608H448.413ZM461.601 881.75V877.017C461.601 876.248 461.416 875.664 461.045 875.265C460.68 874.861 460.181 874.659 459.546 874.659C459.063 874.659 458.645 874.791 458.291 875.055C457.938 875.318 457.665 875.697 457.474 876.192C457.284 876.68 457.188 877.264 457.188 877.943H456.683C456.683 877.006 456.806 876.206 457.053 875.543C457.3 874.881 457.66 874.375 458.131 874.027C458.609 873.673 459.187 873.497 459.866 873.497C460.501 873.497 461.043 873.64 461.492 873.926C461.946 874.207 462.295 874.611 462.536 875.139C462.777 875.667 462.898 876.293 462.898 877.017V881.75H461.601ZM455.874 881.75V870.263H457.188V881.75H455.874ZM466.781 871.795C466.511 871.795 466.298 871.72 466.141 871.568C465.984 871.411 465.905 871.206 465.905 870.953C465.905 870.706 465.984 870.51 466.141 870.364C466.298 870.218 466.511 870.145 466.781 870.145C467.05 870.145 467.264 870.218 467.421 870.364C467.578 870.51 467.657 870.706 467.657 870.953C467.657 871.206 467.578 871.411 467.421 871.568C467.264 871.72 467.05 871.795 466.781 871.795ZM466.124 881.75V873.682H467.438V881.75H466.124ZM476.784 881.75V877.017C476.784 876.248 476.598 875.664 476.228 875.265C475.863 874.861 475.363 874.659 474.729 874.659C474.246 874.659 473.827 874.791 473.474 875.055C473.12 875.318 472.848 875.697 472.657 876.192C472.466 876.68 472.371 877.264 472.371 877.943H471.865C471.865 877.006 471.989 876.206 472.236 875.543C472.483 874.881 472.842 874.375 473.314 874.027C473.791 873.673 474.369 873.497 475.049 873.497C475.683 873.497 476.225 873.64 476.674 873.926C477.129 874.207 477.477 874.611 477.718 875.139C477.96 875.667 478.081 876.293 478.081 877.017V881.75H476.784ZM471.057 881.75V873.699H472.185L472.371 875.551V881.75H471.057ZM484.069 885.894C483.243 885.894 482.528 885.776 481.921 885.54C481.315 885.31 480.843 884.998 480.506 884.605C480.175 884.218 480.009 883.788 480.009 883.316C480.009 882.693 480.237 882.216 480.692 881.885C481.152 881.559 481.744 881.396 482.469 881.396L483.193 881.851C482.586 881.851 482.118 881.977 481.786 882.23C481.455 882.483 481.29 882.828 481.29 883.266C481.29 883.704 481.525 884.074 481.997 884.378C482.469 884.681 483.159 884.832 484.069 884.832C484.742 884.832 485.332 884.734 485.837 884.538C486.348 884.347 486.744 884.094 487.025 883.78C487.311 883.471 487.454 883.137 487.454 882.777C487.454 882.525 487.362 882.306 487.176 882.121C486.991 881.941 486.708 881.851 486.326 881.851H483.193C482.648 881.851 482.177 881.77 481.778 881.607C481.385 881.438 481.082 881.219 480.868 880.95C480.655 880.68 480.548 880.386 480.548 880.066C480.548 879.729 480.644 879.442 480.835 879.207C481.026 878.971 481.273 878.791 481.576 878.668C481.885 878.544 482.216 878.482 482.57 878.482L482.822 878.971C482.654 878.971 482.483 879.01 482.309 879.089C482.14 879.162 481.997 879.274 481.879 879.426C481.767 879.572 481.711 879.757 481.711 879.981C481.711 880.24 481.817 880.456 482.031 880.63C482.244 880.804 482.631 880.891 483.193 880.891H486.326C487.084 880.891 487.679 881.051 488.111 881.371C488.549 881.691 488.768 882.137 488.768 882.71C488.768 883.238 488.58 883.743 488.204 884.226C487.828 884.715 487.289 885.113 486.587 885.422C485.885 885.736 485.046 885.894 484.069 885.894ZM484.305 879.392C483.687 879.392 483.128 879.268 482.629 879.021C482.135 878.774 481.742 878.429 481.45 877.985C481.163 877.542 481.02 877.028 481.02 876.444C481.02 875.855 481.163 875.338 481.45 874.895C481.742 874.451 482.135 874.109 482.629 873.867C483.128 873.62 483.687 873.497 484.305 873.497C484.905 873.497 485.45 873.62 485.938 873.867C486.432 874.109 486.826 874.451 487.117 874.895C487.409 875.338 487.555 875.855 487.555 876.444C487.555 877.028 487.409 877.542 487.117 877.985C486.826 878.429 486.432 878.774 485.938 879.021C485.45 879.268 484.905 879.392 484.305 879.392ZM484.305 878.449C484.922 878.449 485.402 878.258 485.745 877.876C486.087 877.494 486.258 877.017 486.258 876.444C486.258 875.855 486.087 875.377 485.745 875.012C485.402 874.642 484.922 874.457 484.305 874.457C483.693 874.457 483.21 874.642 482.856 875.012C482.508 875.377 482.334 875.855 482.334 876.444C482.334 877.017 482.508 877.494 482.856 877.876C483.21 878.258 483.693 878.449 484.305 878.449ZM486.949 874.777L486.326 874.524C486.326 874.052 486.418 873.64 486.604 873.286C486.789 872.927 487.053 872.649 487.395 872.452C487.738 872.25 488.145 872.149 488.617 872.149L488.515 873.446C488.01 873.446 487.623 873.556 487.353 873.774C487.084 873.988 486.949 874.322 486.949 874.777ZM498.382 881.952C497.792 881.952 497.279 881.817 496.841 881.548C496.408 881.278 496.074 880.885 495.838 880.369C495.603 879.847 495.485 879.212 495.485 878.465H496.041C496.041 878.965 496.144 879.386 496.352 879.729C496.56 880.071 496.829 880.332 497.161 880.512C497.498 880.686 497.854 880.773 498.23 880.773C498.635 880.773 499.022 880.658 499.393 880.428C499.763 880.192 500.066 879.847 500.302 879.392C500.538 878.937 500.656 878.376 500.656 877.707C500.656 877.067 500.546 876.52 500.327 876.065C500.114 875.61 499.825 875.262 499.46 875.021C499.095 874.779 498.691 874.659 498.247 874.659C497.865 874.659 497.506 874.751 497.169 874.937C496.832 875.122 496.56 875.394 496.352 875.754C496.144 876.107 496.041 876.545 496.041 877.067H495.485C495.485 876.287 495.614 875.633 495.872 875.105C496.13 874.572 496.481 874.17 496.925 873.901C497.368 873.631 497.865 873.497 498.416 873.497C499.044 873.497 499.631 873.665 500.176 874.002C500.72 874.339 501.161 874.822 501.498 875.45C501.835 876.079 502.003 876.832 502.003 877.707C502.003 878.595 501.832 879.355 501.49 879.99C501.153 880.624 500.709 881.11 500.159 881.447C499.609 881.784 499.016 881.952 498.382 881.952ZM494.727 885.708V873.699H495.822L496.041 875.585V885.708H494.727ZM507.376 881.952C506.68 881.952 506.056 881.775 505.506 881.422C504.961 881.062 504.529 880.565 504.209 879.931C503.895 879.296 503.738 878.567 503.738 877.741C503.738 876.86 503.895 876.102 504.209 875.467C504.524 874.833 504.953 874.347 505.498 874.01C506.048 873.668 506.674 873.497 507.376 873.497C507.988 873.497 508.51 873.62 508.942 873.867C509.375 874.114 509.723 874.448 509.987 874.869C510.25 875.29 510.433 875.768 510.534 876.301C510.641 876.829 510.672 877.376 510.627 877.943H504.799V877.135H509.759L509.372 877.387C509.389 877.056 509.369 876.725 509.313 876.394C509.262 876.062 509.164 875.759 509.018 875.484C508.872 875.203 508.667 874.979 508.403 874.81C508.139 874.642 507.802 874.558 507.393 874.558C506.876 874.558 506.444 874.69 506.096 874.954C505.748 875.217 505.486 875.566 505.312 875.998C505.138 876.425 505.051 876.888 505.051 877.387V877.926C505.051 878.488 505.136 878.99 505.304 879.434C505.478 879.878 505.736 880.228 506.079 880.487C506.421 880.745 506.854 880.874 507.376 880.874C507.898 880.874 508.327 880.748 508.664 880.495C509.001 880.242 509.206 879.869 509.279 879.375H510.643C510.559 879.908 510.368 880.369 510.071 880.756C509.773 881.138 509.394 881.433 508.934 881.641C508.473 881.848 507.954 881.952 507.376 881.952ZM518.959 881.75V877.017C518.959 876.248 518.773 875.664 518.403 875.265C518.038 874.861 517.538 874.659 516.904 874.659C516.421 874.659 516.003 874.791 515.649 875.055C515.295 875.318 515.023 875.697 514.832 876.192C514.641 876.68 514.546 877.264 514.546 877.943H514.04C514.04 877.006 514.164 876.206 514.411 875.543C514.658 874.881 515.017 874.375 515.489 874.027C515.966 873.673 516.544 873.497 517.224 873.497C517.858 873.497 518.4 873.64 518.849 873.926C519.304 874.207 519.652 874.611 519.894 875.139C520.135 875.667 520.256 876.293 520.256 877.017V881.75H518.959ZM513.232 881.75V873.699H514.36L514.546 875.551V881.75H513.232ZM526.278 881.952C525.626 881.952 525.028 881.778 524.484 881.43C523.939 881.076 523.504 880.582 523.178 879.948C522.853 879.308 522.69 878.555 522.69 877.691C522.69 876.832 522.85 876.088 523.17 875.459C523.49 874.83 523.914 874.347 524.442 874.01C524.975 873.668 525.559 873.497 526.193 873.497C526.783 873.497 527.299 873.64 527.743 873.926C528.192 874.212 528.54 874.625 528.787 875.164C529.034 875.703 529.158 876.354 529.158 877.118H528.653C528.653 876.585 528.546 876.135 528.333 875.77C528.125 875.406 527.852 875.13 527.516 874.945C527.179 874.754 526.817 874.659 526.429 874.659C525.991 874.659 525.59 874.782 525.225 875.029C524.866 875.271 524.576 875.619 524.357 876.074C524.144 876.523 524.037 877.062 524.037 877.691C524.037 878.331 524.144 878.881 524.357 879.341C524.576 879.802 524.866 880.155 525.225 880.402C525.59 880.65 525.991 880.773 526.429 880.773C526.794 880.773 527.145 880.678 527.482 880.487C527.824 880.296 528.105 880.018 528.324 879.653C528.543 879.282 528.653 878.836 528.653 878.314H529.158C529.158 879.094 529.029 879.757 528.77 880.301C528.518 880.84 528.173 881.25 527.735 881.531C527.302 881.812 526.817 881.952 526.278 881.952ZM528.872 881.75L528.653 879.863V870.263H529.966V881.75H528.872ZM534.123 871.795C533.854 871.795 533.64 871.72 533.483 871.568C533.326 871.411 533.247 871.206 533.247 870.953C533.247 870.706 533.326 870.51 533.483 870.364C533.64 870.218 533.854 870.145 534.123 870.145C534.393 870.145 534.606 870.218 534.763 870.364C534.92 870.51 534.999 870.706 534.999 870.953C534.999 871.206 534.92 871.411 534.763 871.568C534.606 871.72 534.393 871.795 534.123 871.795ZM533.466 881.75V873.682H534.78V881.75H533.466ZM544.126 881.75V877.017C544.126 876.248 543.94 875.664 543.57 875.265C543.205 874.861 542.705 874.659 542.071 874.659C541.588 874.659 541.17 874.791 540.816 875.055C540.462 875.318 540.19 875.697 539.999 876.192C539.808 876.68 539.713 877.264 539.713 877.943H539.207C539.207 877.006 539.331 876.206 539.578 875.543C539.825 874.881 540.184 874.375 540.656 874.027C541.133 873.673 541.711 873.497 542.391 873.497C543.025 873.497 543.567 873.64 544.016 873.926C544.471 874.207 544.819 874.611 545.06 875.139C545.302 875.667 545.423 876.293 545.423 877.017V881.75H544.126ZM538.399 881.75V873.699H539.527L539.713 875.551V881.75H538.399ZM551.411 885.894C550.586 885.894 549.87 885.776 549.263 885.54C548.657 885.31 548.185 884.998 547.848 884.605C547.517 884.218 547.352 883.788 547.352 883.316C547.352 882.693 547.579 882.216 548.034 881.885C548.494 881.559 549.086 881.396 549.811 881.396L550.535 881.851C549.929 881.851 549.46 881.977 549.129 882.23C548.797 882.483 548.632 882.828 548.632 883.266C548.632 883.704 548.867 884.074 549.339 884.378C549.811 884.681 550.501 884.832 551.411 884.832C552.085 884.832 552.674 884.734 553.179 884.538C553.69 884.347 554.086 884.094 554.367 883.78C554.653 883.471 554.796 883.137 554.796 882.777C554.796 882.525 554.704 882.306 554.519 882.121C554.333 881.941 554.05 881.851 553.668 881.851H550.535C549.99 881.851 549.519 881.77 549.12 881.607C548.727 881.438 548.424 881.219 548.211 880.95C547.997 880.68 547.891 880.386 547.891 880.066C547.891 879.729 547.986 879.442 548.177 879.207C548.368 878.971 548.615 878.791 548.918 878.668C549.227 878.544 549.558 878.482 549.912 878.482L550.164 878.971C549.996 878.971 549.825 879.01 549.651 879.089C549.482 879.162 549.339 879.274 549.221 879.426C549.109 879.572 549.053 879.757 549.053 879.981C549.053 880.24 549.159 880.456 549.373 880.63C549.586 880.804 549.974 880.891 550.535 880.891H553.668C554.426 880.891 555.021 881.051 555.453 881.371C555.891 881.691 556.11 882.137 556.11 882.71C556.11 883.238 555.922 883.743 555.546 884.226C555.17 884.715 554.631 885.113 553.929 885.422C553.227 885.736 552.388 885.894 551.411 885.894ZM551.647 879.392C551.029 879.392 550.47 879.268 549.971 879.021C549.477 878.774 549.084 878.429 548.792 877.985C548.505 877.542 548.362 877.028 548.362 876.444C548.362 875.855 548.505 875.338 548.792 874.895C549.084 874.451 549.477 874.109 549.971 873.867C550.47 873.62 551.029 873.497 551.647 873.497C552.247 873.497 552.792 873.62 553.281 873.867C553.775 874.109 554.168 874.451 554.46 874.895C554.752 875.338 554.898 875.855 554.898 876.444C554.898 877.028 554.752 877.542 554.46 877.985C554.168 878.429 553.775 878.774 553.281 879.021C552.792 879.268 552.247 879.392 551.647 879.392ZM551.647 878.449C552.264 878.449 552.744 878.258 553.087 877.876C553.429 877.494 553.601 877.017 553.601 876.444C553.601 875.855 553.429 875.377 553.087 875.012C552.744 874.642 552.264 874.457 551.647 874.457C551.035 874.457 550.552 874.642 550.198 875.012C549.85 875.377 549.676 875.855 549.676 876.444C549.676 877.017 549.85 877.494 550.198 877.876C550.552 878.258 551.035 878.449 551.647 878.449ZM554.291 874.777L553.668 874.524C553.668 874.052 553.761 873.64 553.946 873.286C554.131 872.927 554.395 872.649 554.737 872.452C555.08 872.25 555.487 872.149 555.959 872.149L555.858 873.446C555.352 873.446 554.965 873.556 554.695 873.774C554.426 873.988 554.291 874.322 554.291 874.777Z" fill="#4D4D4D"/>
</svg>
