<svg width="23" height="24" viewBox="0 0 23 24" fill="none" xmlns="http://www.w3.org/2000/svg">
<path d="M20.5357 0H2.46429C1.81072 0 1.18392 0.270918 0.721773 0.753154C0.259629 1.23539 0 1.88944 0 2.57143L0 21.4286C0 22.1106 0.259629 22.7646 0.721773 23.2468C1.18392 23.7291 1.81072 24 2.46429 24H9.5106V15.8405H6.27623V12H9.5106V9.07286C9.5106 5.74339 11.4102 3.90429 14.3196 3.90429C15.7129 3.90429 17.1699 4.16357 17.1699 4.16357V7.43143H15.5645C13.9828 7.43143 13.4894 8.45571 13.4894 9.50625V12H17.0205L16.4558 15.8405H13.4894V24H20.5357C21.1893 24 21.8161 23.7291 22.2782 23.2468C22.7404 22.7646 23 22.1106 23 21.4286V2.57143C23 1.88944 22.7404 1.23539 22.2782 0.753154C21.8161 0.270918 21.1893 0 20.5357 0Z" fill="#1877F2"/>
</svg>
