<svg width="242" height="216" viewBox="0 0 242 216" fill="none" xmlns="http://www.w3.org/2000/svg">
<path d="M93.0312 52.1057L93.0312 208.939C93.0312 210.745 94.6696 212.207 96.6927 212.207L133.3 212.207C135.323 212.207 136.962 210.745 136.962 208.939L136.962 52.1057C136.962 50.3 135.323 48.8376 133.3 48.8376L96.6903 48.8376C94.6696 48.8376 93.0312 50.3 93.0312 52.1057Z" fill="#D4D4EA"/>
<path d="M37.0384 116.999L36.9102 116.999L36.9102 208.939C36.9102 210.745 38.5485 212.207 40.5716 212.207L77.1789 212.207C79.2021 212.207 80.8404 210.745 80.8404 208.939L80.8404 116.999L80.7121 116.999C80.5114 116.298 80.0557 115.678 79.4165 115.234C78.7774 114.79 77.9911 114.548 77.1814 114.547L40.5692 114.547C38.8655 114.547 37.4474 115.59 37.0384 116.999Z" fill="#D4D4EA"/>
<path d="M148.855 96.215L148.855 208.939C148.855 210.745 150.494 212.207 152.517 212.207L189.124 212.207C191.147 212.207 192.786 210.745 192.786 208.939L192.786 96.215C192.786 94.4093 191.147 92.947 189.124 92.947L152.517 92.947C150.494 92.947 148.855 94.4093 148.855 96.215Z" fill="#D4D4EA"/>
</svg>
