<svg width="47" height="47" viewBox="0 0 47 47" fill="none" xmlns="http://www.w3.org/2000/svg">
<g clip-path="url(#clip0_623_3541)">
<path d="M24.2381 17.155C24.2381 17.1917 24.2344 17.2248 24.2344 17.2578C24.2303 18.5235 24.6608 19.7524 25.4539 20.7388C26.2471 21.7252 27.3549 22.4094 28.592 22.677C29.8292 22.9446 31.1207 22.7794 32.2506 22.209C33.3806 21.6386 34.2804 20.6975 34.7998 19.5432C35.3191 18.3889 35.4264 17.0913 35.1038 15.8674C34.7812 14.6434 34.0481 13.5673 33.0272 12.819C32.0064 12.0707 30.7595 11.6956 29.4952 11.7563C28.2309 11.817 27.0258 12.3099 26.0814 13.1526L27.0985 13.5859C27.2918 13.2506 27.5701 12.9723 27.9053 12.7789C28.2405 12.5855 28.6208 12.4839 29.0078 12.4844C29.3781 12.4838 29.7425 12.5767 30.0673 12.7545C30.3921 12.9323 30.6668 13.1892 30.8658 13.5015L32.7017 16.3729C32.8926 16.6724 33.0084 17.0136 33.0392 17.3674C33.07 17.7213 33.015 18.0773 32.8787 18.4054C32.7425 18.7334 32.529 19.0236 32.2566 19.2515C31.9841 19.4794 31.6607 19.6382 31.3138 19.7143L27.6419 20.5111C27.4924 20.5447 27.3398 20.5619 27.1866 20.5625C26.682 20.5616 26.1928 20.3892 25.7991 20.0736C25.4055 19.758 25.1308 19.318 25.0202 18.8257C24.9242 18.394 24.9613 17.9433 25.1267 17.5332L24.2381 17.155Z" fill="#8D79F6"/>
<path d="M19.3214 15.0657C19.1708 15.7867 19.0945 16.5213 19.0938 17.2578C19.0905 19.7988 19.9949 22.2574 21.6439 24.1907C23.293 26.1239 25.5782 27.4046 28.0879 27.8021C30.5976 28.1996 33.1668 27.6877 35.3325 26.3586C37.4982 25.0295 39.118 22.9707 39.9001 20.553C40.6822 18.1354 40.5752 15.5179 39.5982 13.1722C38.6213 10.8265 36.8387 8.90684 34.5717 7.75907C32.3047 6.6113 29.7024 6.31091 27.2335 6.91202C24.7646 7.51313 22.5916 8.97622 21.1059 11.0377L24.6236 12.5321C25.7274 11.3418 27.2122 10.5743 28.8216 10.3622C30.4311 10.1502 32.064 10.5069 33.4384 11.3708C34.8128 12.2346 35.8424 13.5514 36.3492 15.0935C36.8561 16.6357 36.8084 18.3065 36.2144 19.8173C35.6204 21.328 34.5175 22.5839 33.096 23.368C31.6746 24.152 30.0239 24.415 28.4292 24.1116C26.8345 23.8081 25.3959 22.9571 24.3618 21.7058C23.3277 20.4544 22.7632 18.8812 22.7656 17.2578C22.765 17.0199 22.7772 16.7821 22.8024 16.5455L19.3214 15.0657Z" fill="#8D79F6"/>
<path d="M29.7422 5.14062C32.2593 5.13975 34.7143 5.92253 36.7664 7.38031C38.8184 8.83809 40.3657 10.8985 41.1935 13.2757C42.0213 15.6528 42.0886 18.2287 41.3859 20.6458C40.6832 23.0628 39.2455 25.2012 37.2723 26.764C35.2991 28.3269 32.8883 29.2367 30.3745 29.3671C27.8608 29.4975 25.3687 28.8422 23.2444 27.4919C21.12 26.1417 19.4687 24.1636 18.5196 21.8323C17.5705 19.5009 17.3708 16.9319 17.9481 14.4819L13.171 12.4513C12.0198 16.4066 12.3235 20.6433 14.027 24.3939C15.7305 28.1446 18.7212 31.1609 22.4572 32.8963L16.9494 45.9792C16.8739 46.1585 16.8724 46.3603 16.9454 46.5406C17.0183 46.7209 17.1597 46.865 17.3386 46.9412C17.4273 46.9791 17.5226 46.9991 17.619 47C17.7155 47.0009 17.8111 46.9827 17.9005 46.9466C17.9899 46.9104 18.0713 46.8569 18.1399 46.7892C18.2086 46.7215 18.2632 46.6409 18.3006 46.552L23.8121 33.4655C27.4224 34.7872 31.3711 34.8634 35.0297 33.6821L40.4494 46.552C40.487 46.6408 40.5417 46.7212 40.6104 46.7888C40.6791 46.8564 40.7605 46.9097 40.8498 46.9459C40.9391 46.982 41.0347 47.0002 41.1311 46.9994C41.2274 46.9986 41.3227 46.9789 41.4114 46.9413C41.5002 46.9036 41.5806 46.8489 41.6482 46.7802C41.7158 46.7115 41.7691 46.6302 41.8053 46.5408C41.8414 46.4515 41.8596 46.3559 41.8588 46.2596C41.858 46.1632 41.8383 46.0679 41.8007 45.9792L36.4103 33.1754C38.9278 32.1217 41.1595 30.486 42.9222 28.4025C44.6849 26.319 45.9282 23.8471 46.5503 21.1899C47.1723 18.5326 47.1552 15.7657 46.5004 13.1163C45.8456 10.4669 44.5718 8.01059 42.7835 5.94903C40.9952 3.88746 38.7435 2.27943 36.2131 1.25694C33.6828 0.234458 30.9461 -0.173319 28.2276 0.0670901C25.5091 0.3075 22.8864 1.18924 20.5748 2.63992C18.2632 4.0906 16.3286 6.06885 14.9299 8.41226L19.7253 10.4502C20.8349 8.81492 22.3279 7.47612 24.074 6.55061C25.82 5.62511 27.766 5.14103 29.7422 5.14062Z" fill="#8D79F6"/>
<path d="M0.447665 5.44907L1.19306 5.76486L0.308134 6.39275C0.20406 6.46758 0.12124 6.5682 0.0678077 6.68472C0.0143757 6.80124 -0.00783109 6.92966 0.00336829 7.05736C0.0145015 7.18507 0.0590421 7.30761 0.132517 7.41267C0.205992 7.51772 0.305815 7.6016 0.421962 7.65587C0.421962 7.65587 4.29579 9.47712 4.29946 9.47712C4.41787 9.53012 4.54789 9.55188 4.6771 9.54031C4.80632 9.52874 4.9304 9.48422 5.03751 9.41103L6.80735 8.15157L28.4163 17.3349L27.0137 17.6434C26.9196 17.664 26.8305 17.703 26.7516 17.7582C26.6726 17.8133 26.6052 17.8834 26.5534 17.9646C26.5016 18.0458 26.4662 18.1364 26.4494 18.2312C26.4327 18.326 26.4347 18.4232 26.4556 18.5173C26.5026 18.7042 26.6193 18.8661 26.7817 18.9698C26.9442 19.0736 27.1401 19.1113 27.3295 19.0754L31.0013 18.2786C31.1168 18.2532 31.2245 18.2003 31.3151 18.1244C31.4058 18.0485 31.4769 17.9519 31.5223 17.8428C31.5677 17.7336 31.5861 17.6151 31.5759 17.4973C31.5658 17.3795 31.5274 17.2658 31.464 17.166L29.6281 14.2909C29.5229 14.1269 29.3568 14.0113 29.1664 13.9696C28.976 13.9279 28.7769 13.9636 28.6128 14.0688C28.4487 14.174 28.3331 14.34 28.2914 14.5304C28.2498 14.7208 28.2855 14.92 28.3906 15.0841L28.9561 15.969L7.21493 6.73056L6.73759 4.5972C6.71352 4.48792 6.66455 4.38567 6.59449 4.29842C6.52443 4.21117 6.43518 4.14126 6.33368 4.09415L2.45618 2.2729C2.33212 2.2146 2.19419 2.19222 2.05806 2.20832C1.92192 2.22442 1.79302 2.27835 1.68598 2.36398C1.57894 2.44962 1.49803 2.56353 1.45244 2.69282C1.40685 2.8221 1.39841 2.96156 1.42806 3.0954L1.71813 4.39157L1.02048 4.09782C0.931691 4.05985 0.836281 4.03976 0.739718 4.03873C0.643156 4.0377 0.547338 4.05574 0.45776 4.09181C0.368182 4.12788 0.286605 4.18128 0.217704 4.24894C0.148804 4.3166 0.0939361 4.3972 0.0562462 4.48611C0.0185562 4.57502 -0.00121458 4.6705 -0.00193283 4.76706C-0.00265107 4.86363 0.0156974 4.95938 0.0520607 5.04884C0.0884239 5.1383 0.142087 5.21971 0.209973 5.28839C0.277859 5.35707 0.358633 5.41167 0.447665 5.44907ZM5.38267 5.26915L5.55157 6.02189L3.37782 5.10025L3.18688 4.23736L5.38267 5.26915ZM2.77931 6.44048L5.2211 7.47962L4.53446 7.96431L2.18446 6.86275L2.77931 6.44048Z" fill="#8D79F6"/>
</g>
<defs>
<clipPath id="clip0_623_3541">
<rect width="47" height="47" fill="white"/>
</clipPath>
</defs>
</svg>
