<svg width="19" height="26" viewBox="0 0 19 26" fill="none" xmlns="http://www.w3.org/2000/svg">
<path d="M19 9.21267C19 4.1328 14.7383 0 9.5 0C4.2617 0 0 4.1328 0 9.21267C0 12.2197 1.5143 14.8693 3.8209 16.5515V24.1059C3.8209 25.2925 4.4878 25.7291 4.7747 25.8618C5.0597 25.9908 5.833 26.2174 6.783 25.4749L8.6621 23.9953C9.1124 23.6416 9.9313 23.6434 10.3778 23.9972L12.2588 25.473C12.7775 25.8839 13.2468 26 13.6078 26C13.9061 26 14.1341 25.9208 14.2652 25.8618C14.5502 25.7292 15.219 25.2925 15.219 24.1059V16.522C17.5009 14.8379 19 12.2031 19 9.21267ZM13.3589 24.0174L11.5501 22.5968C10.412 21.6995 8.6298 21.6977 7.4879 22.595L5.6791 24.0174V17.6331C6.8514 18.1342 8.1396 18.4253 9.5 18.4253C10.8756 18.4253 12.1771 18.1269 13.3589 17.6128V24.0174Z" fill="white"/>
</svg>
