<svg width="11" height="11" viewBox="0 0 11 11" fill="none" xmlns="http://www.w3.org/2000/svg">
<path d="M10.9986 4.5189C10.9425 1.47953 9.1795 0.271759 9.10723 0.22366L8.8341 0.0375172L8.55953 0.223179C8.10295 0.532937 7.6297 0.690221 7.15354 0.690221C6.36341 0.690221 5.82804 0.265025 5.80507 0.246748L5.49763 0L5.19236 0.247229C5.17012 0.265266 4.63402 0.690461 3.84438 0.690461C3.36798 0.690461 2.89496 0.533418 2.4379 0.222698L2.16429 0.0379982L1.88875 0.224141C1.70143 0.352806 0.0600221 1.56514 0.000562981 4.50399C-0.023124 4.75964 0.682892 9.59671 5.49956 11C10.7375 9.46949 11.0251 4.83828 10.9986 4.5189ZM0.970519 4.5771L0.971245 4.64564C0.980913 4.09082 1.05874 3.42369 1.20956 3.18319H9.78738C9.93893 3.42369 10.0175 4.0925 10.0262 4.65117L10.0296 4.64877C10.0487 4.80365 9.85699 9.15805 5.49956 10.0322C1.59847 9.1756 0.953358 4.71995 0.970519 4.5771Z" fill="white"/>
</svg>
