<svg width="22" height="24" viewBox="0 0 22 24" fill="none" xmlns="http://www.w3.org/2000/svg">
<path d="M20.4286 0H1.56652C0.702232 0 0 0.776786 0 1.73036V22.2696C0 23.2232 0.702232 24 1.56652 24H20.4286C21.2929 24 22 23.2232 22 22.2696V1.73036C22 0.776786 21.2929 0 20.4286 0ZM6.64911 20.5714H3.38839V9.11786H6.65402V20.5714H6.64911ZM5.01875 7.55357C3.97277 7.55357 3.12812 6.62679 3.12812 5.49107C3.12812 4.35536 3.97277 3.42857 5.01875 3.42857C6.05982 3.42857 6.90937 4.35536 6.90937 5.49107C6.90937 6.63214 6.06473 7.55357 5.01875 7.55357ZM18.8719 20.5714H15.6112V15C15.6112 13.6714 15.5866 11.9625 13.917 11.9625C12.2179 11.9625 11.9576 13.4089 11.9576 14.9036V20.5714H8.69688V9.11786H11.825V10.6821H11.8692C12.3062 9.78214 13.3719 8.83393 14.958 8.83393C18.258 8.83393 18.8719 11.2071 18.8719 14.2929V20.5714Z" fill="#0A66C2"/>
</svg>
