<svg width="30" height="30" viewBox="0 0 30 30" fill="none" xmlns="http://www.w3.org/2000/svg">
<path d="M27 13H26V11C26 8.08262 24.8411 5.28473 22.7782 3.22183C20.7153 1.15893 17.9174 0 15 0C12.0826 0 9.28473 1.15893 7.22183 3.22183C5.15893 5.28473 4 8.08262 4 11V13H3C2.20435 13 1.44129 13.3161 0.87868 13.8787C0.31607 14.4413 0 15.2044 0 16V20C0 20.7956 0.31607 21.5587 0.87868 22.1213C1.44129 22.6839 2.20435 23 3 23H4C4 23.7956 4.31607 24.5587 4.87868 25.1213C5.44129 25.6839 6.20435 26 7 26C7.79565 26 8.55871 25.6839 9.12132 25.1213C9.68393 24.5587 10 23.7956 10 23V13C10.0003 12.5199 9.88529 12.0468 9.66476 11.6204C9.44424 11.1939 9.1246 10.8267 8.73269 10.5494C8.34079 10.2721 7.88806 10.0929 7.41255 10.0269C6.93703 9.96091 6.45262 10.01 6 10.17C6.21097 7.93974 7.24613 5.86833 8.90311 4.3607C10.5601 2.85306 12.7198 2.01758 14.96 2.01758C17.2002 2.01758 19.3599 2.85306 21.0169 4.3607C22.6739 5.86833 23.709 7.93974 23.92 10.17C23.472 10.0256 22.9964 9.98872 22.5315 10.0622C22.0666 10.1357 21.6255 10.3176 21.2439 10.5931C20.8623 10.8686 20.5508 11.23 20.3347 11.6481C20.1187 12.0662 20.004 12.5294 20 13V23C20.0013 23.4792 20.1175 23.9512 20.3387 24.3763C20.5599 24.8014 20.8797 25.1674 21.2714 25.4435C21.6631 25.7196 22.1152 25.8979 22.5899 25.9634C23.0647 26.0289 23.5482 25.9797 24 25.82V28H20.9C20.757 28.7267 20.4491 29.411 20 30H25C25.2652 30 25.5196 29.8946 25.7071 29.7071C25.8946 29.5196 26 29.2652 26 29V23H27C27.7956 23 28.5587 22.6839 29.1213 22.1213C29.6839 21.5587 30 20.7956 30 20V16C30 15.2044 29.6839 14.4413 29.1213 13.8787C28.5587 13.3161 27.7956 13 27 13Z" fill="#09BF52"/>
</svg>
