<svg width="20" height="24" viewBox="0 0 20 24" fill="none" xmlns="http://www.w3.org/2000/svg">
<path d="M18.6038 23.808L10.3958 17.868C10.1798 17.688 9.85583 17.688 9.60383 17.868L1.39583 23.808C0.999828 24.096 0.423828 23.844 0.423828 23.412V5.484C0.423828 5.196 0.675828 4.98 1.03583 4.98H18.9998C19.3238 4.98 19.6118 5.196 19.6118 5.484V23.412C19.5758 23.88 18.9998 24.096 18.6038 23.808ZM19.0718 0.0479965H0.927828C0.639828 0.0479965 0.423828 0.263997 0.423828 0.551997V2.712C0.423828 3 0.639828 3.216 0.927828 3.216H19.1078C19.3958 3.216 19.6118 3 19.6118 2.712V0.551997C19.5758 0.263997 19.3598 0.0479965 19.0718 0.0479965Z" fill="#4394DE"/>
</svg>
