<svg width="194" height="193" viewBox="0 0 194 193" fill="none" xmlns="http://www.w3.org/2000/svg">
<path d="M96.7369 183.316C147.5 183.316 188.652 159.557 188.652 130.249C188.652 100.941 147.5 77.1816 96.7369 77.1816C45.9739 77.1816 4.82227 100.941 4.82227 130.249C4.82227 159.557 45.9739 183.316 96.7369 183.316Z" fill="#F5F5F5"/>
<path d="M163 139.67C162.984 139.634 162.964 139.601 162.942 139.569C162.925 139.548 162.907 139.527 162.888 139.507C162.872 139.481 162.853 139.456 162.83 139.434L162.761 139.369C162.684 139.303 162.601 139.245 162.514 139.195L76.5804 89.5851C76.1505 89.3693 75.6761 89.2568 75.195 89.2568C74.714 89.2568 74.2396 89.3693 73.8097 89.5851L29.093 115.332C29.0365 115.362 28.9823 115.397 28.9309 115.436C28.9309 115.436 28.8885 115.463 28.873 115.478C28.7825 115.553 28.7043 115.641 28.6415 115.741C28.6265 115.761 28.6136 115.783 28.6029 115.806C28.5833 115.84 28.5678 115.877 28.5566 115.914C28.5488 115.942 28.5423 115.971 28.5373 115.999C28.5318 116.045 28.5318 116.092 28.5373 116.138C28.5353 116.17 28.5353 116.202 28.5373 116.235C28.544 116.271 28.553 116.307 28.5643 116.343C28.5767 116.379 28.5922 116.413 28.6106 116.447C28.722 116.649 28.8895 116.816 29.093 116.925L115.03 166.531C115.287 166.67 115.564 166.765 115.852 166.813C116.039 166.842 116.227 166.858 116.416 166.859C116.602 166.859 116.787 166.844 116.971 166.817C117.032 166.809 117.093 166.798 117.153 166.782C117.324 166.742 117.491 166.685 117.65 166.612C117.704 166.589 117.751 166.558 117.801 166.531L162.514 140.789C163.039 140.488 163.185 140.055 163 139.67Z" fill="#E0E0E0"/>
<path d="M157.515 126.391C168.071 126.391 176.628 121.45 176.628 115.355C176.628 109.26 168.071 104.318 157.515 104.318C146.96 104.318 138.402 109.26 138.402 115.355C138.402 121.45 146.96 126.391 157.515 126.391Z" fill="#E0E0E0"/>
<path d="M56.9882 172.515C56.2121 172.526 55.4465 172.336 54.7654 171.964L16.4854 149.868L16.4506 149.841C16.1074 149.653 15.8196 149.379 15.6164 149.045C15.4131 148.711 15.3016 148.329 15.293 147.938C15.3118 147.535 15.4375 147.143 15.6572 146.804C15.8769 146.465 16.1826 146.191 16.5432 146.009L41.7958 131.43C42.4821 131.072 43.2446 130.886 44.0185 130.886C44.7923 130.886 45.5548 131.072 46.2412 131.43L84.4634 153.522C84.8233 153.705 85.1283 153.979 85.3472 154.318C85.5662 154.657 85.6913 155.048 85.7098 155.451C85.6994 155.831 85.5913 156.201 85.3959 156.526C85.2006 156.851 84.9245 157.12 84.5946 157.307C84.5452 157.344 84.4937 157.378 84.4402 157.408L65.3311 168.433L59.2032 171.971C58.5218 172.342 57.7562 172.531 56.9804 172.519L56.9882 172.515Z" fill="#E0E0E0"/>
<path d="M159.272 133.982C159.256 133.946 159.235 133.912 159.21 133.882C159.195 133.86 159.178 133.839 159.16 133.82C159.143 133.793 159.122 133.768 159.098 133.747L159.033 133.685C158.956 133.617 158.872 133.557 158.782 133.507L75.2026 85.2443C74.7727 85.0284 74.2983 84.916 73.8173 84.916C73.3362 84.916 72.8618 85.0284 72.4319 85.2443L31.4352 108.903L31.2693 109.007L31.2152 109.054C31.1238 109.126 31.0455 109.213 30.9837 109.312C30.9453 109.366 30.9165 109.426 30.8988 109.49C30.8966 109.518 30.8966 109.546 30.8988 109.575C30.8931 109.621 30.8931 109.667 30.8988 109.713C30.8969 109.746 30.8969 109.778 30.8988 109.81C30.906 109.846 30.915 109.882 30.9258 109.918C30.9376 109.954 30.9518 109.988 30.9683 110.022C31.0831 110.226 31.2547 110.392 31.4622 110.501L115.03 158.768C115.286 158.907 115.564 159.001 115.852 159.045C116.038 159.078 116.227 159.094 116.415 159.096C116.602 159.096 116.787 159.08 116.971 159.049C117.032 159.042 117.093 159.03 117.152 159.014C117.324 158.977 117.491 158.92 117.65 158.845C117.704 158.822 117.751 158.795 117.801 158.768L158.782 135.105C159.326 134.8 159.473 134.368 159.272 133.982ZM150.269 132.269L147.649 133.785L112.73 153.928C112.64 153.982 112.546 154.028 112.448 154.067C112.164 154.186 111.858 154.247 111.549 154.247C111.241 154.247 110.935 154.186 110.65 154.067C110.553 154.028 110.459 153.982 110.369 153.928L44.0692 115.652L40.8586 113.804C40.7463 113.74 40.6447 113.66 40.5576 113.565C40.2257 113.202 40.3299 112.739 40.8586 112.43L78.3823 90.7664C78.8098 90.4757 79.3209 90.3334 79.8371 90.3612C79.9606 90.3765 80.0814 90.409 80.196 90.4577C80.2602 90.4817 80.3222 90.5114 80.3812 90.5464L150.269 130.895C150.389 130.965 150.489 131.065 150.558 131.186C150.628 131.306 150.664 131.443 150.664 131.582C150.664 131.721 150.628 131.857 150.558 131.978C150.489 132.098 150.389 132.199 150.269 132.269Z" fill="#455A64"/>
<path d="M31.2721 109.012C30.9151 109.284 30.6212 109.63 30.4107 110.026C30.2002 110.422 30.0781 110.86 30.0527 111.308V113.137C30.0779 113.618 30.2165 114.087 30.4573 114.505C30.698 114.923 31.0341 115.278 31.4381 115.541L115.018 163.8C115.332 163.973 115.679 164.079 116.036 164.113C116.16 164.113 116.279 164.132 116.422 164.136V159.096C116.234 159.092 116.045 159.077 115.859 159.05C115.569 159.003 115.29 158.906 115.033 158.764L31.4342 110.501C30.728 110.096 30.6702 109.452 31.2721 109.012Z" fill="#37474F"/>
<path d="M137.134 143.81C136.365 143.429 135.518 143.231 134.66 143.231C133.802 143.231 132.956 143.429 132.187 143.81C131.886 143.968 131.631 144.201 131.446 144.485C131.002 145.257 131.832 145.836 132.187 146.052C132.956 146.433 133.802 146.631 134.66 146.631C135.518 146.631 136.365 146.433 137.134 146.052C137.432 145.89 137.686 145.659 137.875 145.377C138.318 144.605 137.5 144.026 137.134 143.81Z" fill="#8AAFFD"/>
<path d="M55.2787 99.2442C55.3569 99.2145 55.4242 99.1616 55.4717 99.0927C55.5193 99.0238 55.5447 98.9421 55.5447 98.8583C55.5447 98.7746 55.5193 98.6929 55.4717 98.624C55.4242 98.5551 55.3569 98.5022 55.2787 98.4725C55.0688 98.366 54.8368 98.3105 54.6014 98.3105C54.3661 98.3105 54.1341 98.366 53.9242 98.4725C53.846 98.5022 53.7787 98.5551 53.7312 98.624C53.6836 98.6929 53.6582 98.7746 53.6582 98.8583C53.6582 98.9421 53.6836 99.0238 53.7312 99.0927C53.7787 99.1616 53.846 99.2145 53.9242 99.2442C54.1341 99.3507 54.3661 99.4062 54.6014 99.4062C54.8368 99.4062 55.0688 99.3507 55.2787 99.2442Z" fill="#263238"/>
<path d="M53.1521 102.949C53.2174 102.917 53.2724 102.868 53.3109 102.807C53.3494 102.745 53.3698 102.674 53.3698 102.602C53.3698 102.529 53.3494 102.458 53.3109 102.397C53.2724 102.335 53.2174 102.286 53.1521 102.254C52.9652 102.161 52.7591 102.112 52.5501 102.112C52.3412 102.112 52.1351 102.161 51.9482 102.254C51.8829 102.286 51.8279 102.335 51.7894 102.397C51.7509 102.458 51.7305 102.529 51.7305 102.602C51.7305 102.674 51.7509 102.745 51.7894 102.807C51.8279 102.868 51.8829 102.917 51.9482 102.949C52.1345 103.044 52.3409 103.094 52.5501 103.094C52.7594 103.094 52.9657 103.044 53.1521 102.949Z" fill="#263238"/>
<path d="M55.1861 101.802L61.916 97.9165C62.3019 97.7043 62.3019 97.3686 61.9546 97.1679C61.7522 97.0704 61.5296 97.022 61.305 97.0267C61.0804 97.0314 60.86 97.089 60.6619 97.1949L53.932 101.077C53.5654 101.293 53.5461 101.625 53.8934 101.826C54.0955 101.924 54.3179 101.973 54.5425 101.969C54.7671 101.965 54.9877 101.908 55.1861 101.802Z" fill="#263238"/>
<path d="M158.966 133.632C159.537 134.076 159.475 134.705 158.781 135.106L117.795 158.769C117.37 158.996 116.893 159.109 116.41 159.097V164.132C116.891 164.142 117.367 164.028 117.792 163.801L158.777 140.142C159.181 139.879 159.517 139.525 159.758 139.108C159.998 138.691 160.137 138.223 160.162 137.742V135.909C160.137 135.466 160.017 135.033 159.811 134.641C159.604 134.248 159.316 133.904 158.966 133.632Z" fill="#263238"/>
<path d="M50.9838 123.204C51.1879 123.332 51.3592 123.506 51.4838 123.713C51.6084 123.919 51.683 124.152 51.7015 124.392C51.7101 124.474 51.6958 124.556 51.6604 124.629C51.6249 124.703 51.5697 124.765 51.5008 124.809C51.4159 124.859 51.0918 125.052 50.9992 125.102C50.9153 125.138 50.8236 125.152 50.733 125.142C50.6424 125.131 50.556 125.098 50.4821 125.045L41.1629 119.642C40.9595 119.513 40.789 119.339 40.665 119.132C40.541 118.926 40.4671 118.694 40.449 118.454C40.4422 118.376 40.4553 118.297 40.487 118.226C40.5187 118.154 40.5681 118.092 40.6304 118.045L41.1475 117.744C41.2313 117.708 41.323 117.694 41.4136 117.704C41.5042 117.715 41.5907 117.748 41.6646 117.801L50.9838 123.204Z" fill="#455A64"/>
<path d="M50.4823 123.485L41.1631 118.106C40.7772 117.878 40.4492 118.04 40.4492 118.469C40.4673 118.709 40.5413 118.941 40.6652 119.148C40.7892 119.354 40.9597 119.529 41.1631 119.657L50.4823 125.06C50.8682 125.287 51.2001 125.125 51.2001 124.697C51.1851 124.453 51.1122 124.215 50.9874 124.004C50.8626 123.794 50.6895 123.616 50.4823 123.485Z" fill="#263238"/>
<path d="M38.5081 115.999C38.7128 116.127 38.8843 116.302 39.009 116.509C39.1337 116.716 39.208 116.95 39.2259 117.191C39.2335 117.272 39.2193 117.353 39.1847 117.426C39.15 117.5 39.0963 117.562 39.0291 117.608C38.9403 117.654 38.6162 117.851 38.5274 117.901C38.4432 117.936 38.3514 117.949 38.2607 117.938C38.1701 117.927 38.0839 117.893 38.0103 117.839L33.6151 115.304C33.4116 115.175 33.2411 115.001 33.1172 114.794C32.9932 114.588 32.9192 114.355 32.9012 114.115C32.8925 114.037 32.9047 113.958 32.9365 113.886C32.9684 113.814 33.0188 113.752 33.0825 113.706C33.1674 113.648 33.507 113.456 33.5996 113.405C33.6832 113.368 33.7752 113.354 33.866 113.365C33.9568 113.375 34.0433 113.409 34.1167 113.463L38.5081 115.999Z" fill="#455A64"/>
<path d="M38.0095 116.29L33.6143 113.754C33.2284 113.527 32.9004 113.689 32.9004 114.117C32.9185 114.357 32.9924 114.59 33.1164 114.796C33.2403 115.002 33.4109 115.177 33.6143 115.306L38.0095 117.841C38.3954 118.069 38.7234 117.907 38.7234 117.478C38.7054 117.238 38.6314 117.006 38.5074 116.799C38.3835 116.593 38.213 116.418 38.0095 116.29Z" fill="#263238"/>
<path d="M150.269 132.25L147.649 133.762L112.73 153.909C112.639 153.961 112.545 154.008 112.448 154.048C112.163 154.167 111.858 154.228 111.549 154.228C111.241 154.228 110.935 154.167 110.65 154.048C110.553 154.008 110.459 153.961 110.368 153.909L44.0689 115.633L40.8622 113.781C40.7492 113.72 40.6475 113.64 40.5612 113.546C40.2293 113.183 40.3335 112.716 40.8622 112.407L78.3859 90.7473C78.8158 90.4635 79.3267 90.328 79.8407 90.3614C79.9642 90.3768 80.085 90.4092 80.1996 90.4579C80.2638 90.4819 80.3258 90.5116 80.3848 90.5467L150.269 130.895C150.385 130.966 150.48 131.066 150.547 131.184C150.613 131.303 150.648 131.436 150.648 131.572C150.648 131.708 150.613 131.842 150.547 131.96C150.48 132.079 150.385 132.178 150.269 132.25Z" fill="#8AAFFD"/>
<path opacity="0.8" d="M150.269 132.25L147.649 133.762L112.73 153.909C112.639 153.961 112.545 154.008 112.448 154.048C112.163 154.167 111.858 154.228 111.549 154.228C111.241 154.228 110.935 154.167 110.65 154.048C110.553 154.008 110.459 153.961 110.368 153.909L44.0689 115.633L40.8622 113.781C40.7492 113.72 40.6475 113.64 40.5612 113.546C40.2293 113.183 40.3335 112.716 40.8622 112.407L78.3859 90.7473C78.8158 90.4635 79.3267 90.328 79.8407 90.3614C79.9642 90.3768 80.085 90.4092 80.1996 90.4579C80.2638 90.4819 80.3258 90.5116 80.3848 90.5467L150.269 130.895C150.385 130.966 150.48 131.066 150.547 131.184C150.613 131.303 150.648 131.436 150.648 131.572C150.648 131.708 150.613 131.842 150.547 131.96C150.48 132.079 150.385 132.178 150.269 132.25Z" fill="white"/>
<path d="M48.7832 110.948C48.7643 110.944 48.7461 110.938 48.7292 110.928L48.5478 110.82L48.1041 111.079C48.0926 111.086 48.0792 111.091 48.0655 111.091C48.0517 111.091 48.0383 111.086 48.0269 111.079L47.9613 111.044L47.9304 111.021C47.9297 111.012 47.9297 111.003 47.9304 110.994L47.7452 110.342C47.7438 110.333 47.7438 110.324 47.7452 110.315C47.7508 110.305 47.7588 110.297 47.7683 110.292L47.8301 110.257C47.849 110.252 47.869 110.252 47.888 110.257C47.9084 110.259 47.9282 110.266 47.9458 110.276L48.5864 110.662L48.6867 110.608C48.7029 110.602 48.7208 110.602 48.7369 110.608C48.7576 110.609 48.7776 110.616 48.7948 110.627L48.8372 110.65C48.8565 110.65 48.8681 110.674 48.8681 110.681C48.8681 110.689 48.8681 110.701 48.8411 110.712L48.7446 110.77L48.9298 110.874C48.943 110.881 48.9538 110.892 48.9607 110.905C48.9607 110.905 48.9607 110.924 48.9298 110.936L48.8565 110.982C48.8292 110.978 48.8038 110.966 48.7832 110.948ZM48.3973 110.716L47.942 110.45L48.077 110.901L48.3973 110.716Z" fill="#455A64"/>
<path d="M49.2017 110.578C49.0056 110.566 48.8151 110.508 48.646 110.408C48.4647 110.3 48.3643 110.196 48.3527 110.087C48.3412 109.979 48.4145 109.879 48.5688 109.786C48.6332 109.751 48.7003 109.722 48.7695 109.698C48.8361 109.677 48.9046 109.663 48.974 109.655C48.974 109.655 48.9972 109.655 49.0049 109.655C49.0126 109.655 49.0049 109.655 49.0049 109.655L49.0435 109.729H49.0165C48.9147 109.739 48.8162 109.771 48.7271 109.821C48.6229 109.883 48.5727 109.952 48.5804 110.03C48.5881 110.107 48.6653 110.18 48.8081 110.261C48.9246 110.335 49.0567 110.381 49.194 110.396C49.3138 110.402 49.4329 110.374 49.5374 110.315L49.6378 110.246C49.6603 110.227 49.6799 110.205 49.6956 110.18L49.3946 110.006L49.2094 110.111C49.1921 110.117 49.1727 110.117 49.1554 110.111C49.1361 110.109 49.1175 110.102 49.1014 110.091L49.0589 110.068C49.0589 110.068 49.0281 110.045 49.0281 110.037C49.0281 110.03 49.0281 110.018 49.0551 110.006L49.3483 109.837C49.3686 109.832 49.3898 109.832 49.4101 109.837C49.4339 109.837 49.4568 109.845 49.4757 109.86L49.904 110.107C49.9163 110.111 49.927 110.119 49.9349 110.13C49.9349 110.13 49.9349 110.13 49.9349 110.153C49.8848 110.267 49.7939 110.358 49.6802 110.408C49.5395 110.508 49.3739 110.566 49.2017 110.578Z" fill="#455A64"/>
<path d="M52.8703 108.379C53.0131 108.464 53.0131 108.595 52.8703 108.676C52.7913 108.718 52.7032 108.74 52.6137 108.74C52.5242 108.74 52.4361 108.718 52.3571 108.676C52.2143 108.595 52.2143 108.464 52.3571 108.379C52.4367 108.339 52.5246 108.318 52.6137 108.318C52.7028 108.318 52.7907 108.339 52.8703 108.379Z" fill="#455A64"/>
<path d="M51.9372 108.135C51.6787 108.286 51.5976 108.502 51.698 108.691C51.7164 108.713 51.7404 108.73 51.7674 108.74C51.7945 108.75 51.8238 108.753 51.8523 108.749C51.9372 108.749 51.999 108.691 51.9719 108.644C51.8986 108.509 51.9719 108.359 52.1379 108.259C52.3453 108.15 52.5837 108.116 52.8132 108.162C52.8981 108.162 52.983 108.162 52.9945 108.093C52.9945 108.05 52.9598 108.015 52.8942 108C52.569 107.941 52.2335 107.989 51.9372 108.135Z" fill="#455A64"/>
<path d="M51.5246 107.9C51.1387 108.12 50.9998 108.432 51.1117 108.722C51.1117 108.764 51.1927 108.791 51.2661 108.787C51.351 108.787 51.405 108.733 51.3857 108.687C51.2969 108.452 51.4088 108.197 51.7214 108.016C52.0781 107.833 52.4821 107.764 52.8791 107.819C52.964 107.819 53.045 107.819 53.0527 107.749C53.0527 107.707 53.0103 107.668 52.937 107.66C52.4527 107.591 51.9589 107.675 51.5246 107.9Z" fill="#455A64"/>
<path d="M59.1147 104.226C59.1008 104.23 59.0862 104.23 59.0723 104.226C59.0723 104.226 59.0723 104.226 59.0723 104.199L59.1494 103.813C59.1494 103.813 59.1494 103.794 59.1494 103.786L59.1726 103.763L59.3077 103.686C59.3215 103.682 59.3362 103.682 59.3501 103.686C59.3652 103.681 59.3813 103.681 59.3964 103.686L60.5001 104.323C60.5021 104.326 60.5032 104.33 60.5032 104.334C60.5032 104.338 60.5021 104.342 60.5001 104.346C60.5024 104.35 60.5037 104.355 60.5037 104.359C60.5037 104.364 60.5024 104.369 60.5001 104.373L60.3611 104.454C60.3459 104.458 60.33 104.458 60.3148 104.454C60.2997 104.458 60.2836 104.458 60.2685 104.454L59.4273 103.968L59.381 104.192C59.381 104.192 59.381 104.192 59.3578 104.215C59.3414 104.219 59.3241 104.219 59.3077 104.215L59.1147 104.226Z" fill="#455A64"/>
<path d="M59.9787 103.727C59.9636 103.732 59.9475 103.732 59.9324 103.727C59.9306 103.723 59.9297 103.718 59.9297 103.714C59.9297 103.709 59.9306 103.704 59.9324 103.7L60.0135 103.314C60.0118 103.305 60.0118 103.296 60.0135 103.287L60.0328 103.264L60.1678 103.187C60.1829 103.182 60.199 103.182 60.2141 103.187C60.2293 103.183 60.2452 103.183 60.2604 103.187L61.3602 103.824C61.3602 103.824 61.3602 103.824 61.3602 103.851C61.3619 103.854 61.3628 103.858 61.3628 103.862C61.3628 103.866 61.3619 103.87 61.3602 103.874L61.2213 103.955C61.2062 103.959 61.1901 103.959 61.175 103.955H61.1287L60.2874 103.469L60.2373 103.72C60.2311 103.73 60.2216 103.738 60.2103 103.743C60.1951 103.747 60.1791 103.747 60.164 103.743L59.9787 103.727Z" fill="#455A64"/>
<path d="M61.0598 103.034C61.075 103.03 61.0908 103.03 61.1061 103.034C61.1212 103.029 61.1373 103.029 61.1524 103.034L61.3222 103.13C61.3242 103.134 61.3253 103.138 61.3253 103.142C61.3253 103.146 61.3242 103.15 61.3222 103.153C61.3242 103.157 61.3253 103.162 61.3253 103.167C61.3253 103.171 61.3242 103.176 61.3222 103.18L61.164 103.273H61.1176C61.1025 103.277 61.0865 103.277 61.0713 103.273L60.9016 103.176C60.8995 103.172 60.8984 103.168 60.8984 103.163C60.8984 103.158 60.8995 103.154 60.9016 103.149C60.8997 103.145 60.8988 103.141 60.8988 103.136C60.8988 103.131 60.8997 103.127 60.9016 103.122L61.0598 103.034ZM61.6579 103.377C61.6722 103.37 61.6881 103.366 61.7042 103.366C61.7203 103.366 61.7362 103.37 61.7505 103.377L61.9164 103.474C61.9164 103.474 61.9357 103.474 61.9357 103.501C61.9347 103.506 61.9325 103.512 61.9291 103.516C61.9258 103.521 61.9215 103.525 61.9164 103.528L61.7582 103.616C61.744 103.624 61.7281 103.628 61.7119 103.628C61.6957 103.628 61.6798 103.624 61.6656 103.616L61.4997 103.52C61.4997 103.52 61.4804 103.52 61.4804 103.493C61.4809 103.488 61.4831 103.482 61.4865 103.478C61.4899 103.474 61.4945 103.471 61.4997 103.47L61.6579 103.377Z" fill="#455A64"/>
<path d="M62.8272 103.034C62.8129 103.041 62.797 103.045 62.7809 103.045C62.7648 103.045 62.7489 103.041 62.7346 103.034L62.5301 102.918L62.0014 103.223H61.9551C61.9399 103.227 61.9239 103.227 61.9088 103.223L61.7892 103.153C61.7699 103.153 61.7621 103.134 61.7583 103.122C61.7544 103.11 61.7544 103.096 61.7583 103.084L61.6271 102.408C61.6237 102.396 61.6245 102.383 61.6294 102.371C61.6342 102.359 61.643 102.349 61.6541 102.343L61.7853 102.266H61.8316H61.8741L62.5571 102.652L62.7037 102.567H62.75H62.7963L62.9159 102.64C62.9211 102.641 62.9257 102.644 62.9291 102.649C62.9326 102.653 62.9347 102.658 62.9352 102.663C62.9352 102.663 62.9352 102.682 62.9159 102.69L62.7693 102.775L62.9777 102.895C62.9777 102.895 62.997 102.895 62.9777 102.922C62.9797 102.926 62.9808 102.93 62.9808 102.935C62.9808 102.94 62.9797 102.944 62.9777 102.949L62.8272 103.034ZM62.314 102.794L61.9512 102.582L62.0245 102.968L62.314 102.794Z" fill="#455A64"/>
<path d="M62.3638 101.961C62.3605 101.952 62.3605 101.942 62.3638 101.934C62.3638 101.934 62.3638 101.934 62.3638 101.907L63.0043 101.521C63.0185 101.513 63.0345 101.509 63.0506 101.509C63.0668 101.509 63.0828 101.513 63.097 101.521L63.2166 101.59C63.2166 101.59 63.2359 101.59 63.2359 101.617C63.2359 101.644 63.2359 101.636 63.2166 101.644L62.7381 101.918L62.9387 102.057C62.958 102.031 62.9815 102.009 63.0082 101.991L63.0777 101.945C63.1423 101.909 63.2109 101.88 63.2822 101.86C63.3522 101.838 63.4248 101.825 63.4983 101.822C63.57 101.812 63.6427 101.812 63.7144 101.822C63.7859 101.838 63.8547 101.864 63.9189 101.899C63.9797 101.929 64.0316 101.974 64.0694 102.03C64.0959 102.067 64.107 102.113 64.1003 102.157C64.0936 102.205 64.0704 102.249 64.0347 102.281C63.9878 102.325 63.936 102.364 63.8803 102.397C63.8078 102.437 63.7316 102.471 63.6526 102.497C63.5833 102.517 63.5122 102.529 63.4404 102.536C63.3762 102.542 63.3116 102.542 63.2475 102.536C63.1926 102.525 63.1394 102.506 63.0892 102.482C63.0892 102.482 63.0699 102.481 63.0699 102.454C63.0699 102.427 63.0699 102.435 63.0892 102.427L63.2282 102.346H63.2706H63.3169C63.3483 102.356 63.3806 102.363 63.4134 102.366H63.506L63.5909 102.339L63.6681 102.3C63.7337 102.262 63.7684 102.223 63.7723 102.177C63.7761 102.13 63.7491 102.096 63.6874 102.061C63.6311 102.029 63.5664 102.016 63.5021 102.022C63.4277 102.024 63.3547 102.044 63.2899 102.08C63.2642 102.095 63.2397 102.112 63.2166 102.13C63.2049 102.142 63.1945 102.155 63.1857 102.169C63.1878 102.179 63.1878 102.19 63.1857 102.2C63.1782 102.212 63.1675 102.221 63.1548 102.227L62.9966 102.319H62.9503H62.9079L62.3638 101.961Z" fill="#455A64"/>
<path d="M44.023 113.854L43.668 113.649L44.1388 113.375L44.4938 113.58L44.023 113.854Z" fill="#455A64"/>
<path d="M44.7335 113.445L44.0234 113.036L44.4942 112.762L45.2043 113.171L44.7335 113.445Z" fill="#455A64"/>
<path d="M45.442 113.036L44.377 112.419L44.8477 112.148L45.9166 112.762L45.442 113.036Z" fill="#455A64"/>
<path d="M46.1525 112.626L44.7324 111.804L45.2071 111.53L46.6233 112.352L46.1525 112.626Z" fill="#455A64"/>
<path d="M78.2502 92.7605C78.1555 92.7493 78.0595 92.764 77.9724 92.8029L76.2012 93.8217C76.0854 93.8873 76.1163 94.0108 76.2668 94.0995L76.9151 94.4854C77.0115 94.5382 77.118 94.5697 77.2276 94.578C77.2737 94.5839 77.3204 94.5839 77.3665 94.578C77.4149 94.574 77.462 94.5609 77.5055 94.5394L79.2767 93.5207C79.3886 93.4512 79.3616 93.3316 79.2072 93.2428L78.5628 92.857C78.4667 92.8028 78.3601 92.7699 78.2502 92.7605ZM77.2083 94.497C77.1616 94.492 77.1166 94.4761 77.0771 94.4507L76.4288 94.0648C76.3169 93.9992 76.2938 93.9027 76.3787 93.8525L78.1499 92.8338C78.1727 92.8215 78.1975 92.8137 78.2232 92.8106H78.2657C78.3137 92.8154 78.3599 92.8313 78.4007 92.857L79.0452 93.2428C79.1571 93.3084 79.1802 93.4049 79.0992 93.4512L77.328 94.4738C77.2906 94.4914 77.2495 94.4994 77.2083 94.497Z" fill="#455A64"/>
<path d="M76.8268 93.7412L77.5986 94.1811L77.3208 94.3432C77.2893 94.3525 77.2558 94.3525 77.2243 94.3432L76.657 94.0152C76.576 93.9689 76.5567 93.8956 76.6185 93.857L76.8268 93.7412Z" fill="#455A64"/>
<path d="M76.957 93.6676L77.2889 93.4746L78.053 93.9145L77.7172 94.1075L76.957 93.6676Z" fill="#455A64"/>
<path d="M77.4199 93.4029L77.7479 93.21L78.5158 93.6537L78.184 93.8467L77.4199 93.4029Z" fill="#455A64"/>
<path d="M78.2628 92.9723L78.8146 93.2926C78.9149 93.3505 78.8957 93.4354 78.7567 93.5126L78.6448 93.5782L77.873 93.1344L78.1393 92.9839C78.1581 92.9738 78.1787 92.9675 78.1999 92.9655C78.2211 92.9635 78.2425 92.9659 78.2628 92.9723Z" fill="#455A64"/>
<path d="M78.6317 92.8159C78.7483 92.804 78.8651 92.8356 78.9597 92.9047L79.0794 92.9742C79.2106 93.0513 79.2839 93.1362 79.2337 93.1671L79.1527 93.2211L78.543 92.87L78.6317 92.8159Z" fill="#455A64"/>
<path d="M73.7402 95.7402L75.114 94.5479L75.8395 95.5782L74.8902 95.3196L73.7402 95.7402Z" fill="#455A64"/>
<path d="M102.986 145.886V146.225C103.002 146.519 103.086 146.804 103.233 147.058C103.38 147.312 103.585 147.528 103.831 147.688L110.453 151.508C110.715 151.641 111.005 151.711 111.298 151.711C111.592 151.711 111.882 151.641 112.143 151.508L144.778 132.658C145.024 132.497 145.229 132.28 145.376 132.025C145.523 131.771 145.607 131.485 145.623 131.191V130.855C145.607 130.562 145.523 130.276 145.376 130.021C145.229 129.767 145.024 129.55 144.778 129.389L138.156 125.569C137.894 125.436 137.605 125.366 137.311 125.366C137.017 125.366 136.728 125.436 136.466 125.569L103.831 144.423C103.586 144.584 103.381 144.8 103.235 145.054C103.088 145.308 103.003 145.593 102.986 145.886Z" fill="#8AAFFD"/>
<path opacity="0.15" d="M144.875 129.466C145.226 129.732 145.187 130.122 144.763 130.365L112.128 149.219C111.868 149.356 111.577 149.427 111.283 149.424V151.708C111.579 151.716 111.871 151.647 112.132 151.508L144.763 132.657C145.008 132.496 145.213 132.279 145.359 132.024C145.506 131.77 145.591 131.484 145.608 131.191V130.855C145.593 130.584 145.52 130.32 145.393 130.08C145.267 129.84 145.09 129.631 144.875 129.466Z" fill="black"/>
<path opacity="0.3" d="M103.688 144.512C103.479 144.677 103.306 144.885 103.182 145.122C103.059 145.358 102.987 145.619 102.971 145.885V146.225C102.986 146.519 103.071 146.804 103.219 147.059C103.367 147.313 103.572 147.528 103.82 147.688L110.438 151.508C110.697 151.647 110.988 151.716 111.283 151.709V149.424C110.988 149.427 110.698 149.357 110.438 149.22L103.816 145.399C103.395 145.16 103.372 144.782 103.688 144.512Z" fill="black"/>
<path d="M113.487 142.104C113.538 142.074 113.597 142.058 113.657 142.058C113.707 142.059 113.758 142.066 113.807 142.077L117.28 143.049L117.357 143.076C117.368 143.081 117.376 143.089 117.382 143.098C117.388 143.108 117.392 143.119 117.392 143.13C117.392 143.13 117.392 143.165 117.357 143.181L116.84 143.478C116.795 143.506 116.743 143.522 116.69 143.524C116.653 143.531 116.615 143.531 116.578 143.524L116.123 143.393L115.034 144.022L115.262 144.284C115.278 144.302 115.286 144.326 115.285 144.35C115.285 144.377 115.258 144.404 115.204 144.435L114.687 144.732C114.66 144.748 114.63 144.756 114.598 144.755C114.566 144.756 114.534 144.748 114.506 144.732C114.488 144.722 114.473 144.707 114.463 144.689L112.773 142.683C112.754 142.658 112.744 142.629 112.742 142.598C112.742 142.563 112.769 142.532 112.823 142.501L113.487 142.104ZM114.614 143.52L115.277 143.134L113.962 142.748L114.614 143.52Z" fill="#455A64"/>
<path d="M116.105 140.591C116.294 140.483 116.497 140.398 116.707 140.34C116.915 140.286 117.129 140.253 117.344 140.244C117.555 140.236 117.767 140.255 117.973 140.302C118.171 140.343 118.363 140.411 118.544 140.503L118.702 140.591L118.841 140.672L118.976 140.749L119.123 140.838C119.265 140.922 119.387 141.035 119.482 141.17C119.553 141.275 119.588 141.399 119.582 141.525C119.566 141.661 119.509 141.788 119.42 141.892C119.3 142.032 119.154 142.148 118.992 142.235L117.888 142.872C117.854 142.892 117.815 142.901 117.776 142.899C117.738 142.901 117.701 142.892 117.668 142.872L115.021 141.348C114.99 141.328 114.975 141.309 114.975 141.282C114.975 141.268 114.98 141.255 114.988 141.244C114.997 141.233 115.008 141.225 115.021 141.22L116.105 140.591ZM117.768 140.931C117.608 140.847 117.429 140.808 117.248 140.816C117.068 140.825 116.893 140.882 116.742 140.981L116.325 141.224L117.869 142.123L118.305 141.869C118.648 141.672 118.671 141.483 118.37 141.286L118.212 141.189L118.066 141.105L117.923 141.023L117.768 140.931Z" fill="#455A64"/>
<path d="M119.066 138.882C119.255 138.773 119.458 138.689 119.668 138.631C119.878 138.576 120.092 138.543 120.309 138.534C120.519 138.528 120.729 138.548 120.934 138.592C121.133 138.633 121.325 138.7 121.505 138.793L121.667 138.882L121.802 138.963L121.937 139.04L122.088 139.129C122.228 139.214 122.349 139.327 122.443 139.46C122.515 139.564 122.55 139.689 122.543 139.815C122.53 139.951 122.475 140.079 122.385 140.182C122.264 140.321 122.119 140.437 121.957 140.525L120.849 141.162C120.816 141.181 120.779 141.191 120.741 141.189C120.702 141.191 120.663 141.182 120.629 141.162L117.982 139.638C117.969 139.632 117.959 139.622 117.95 139.611C117.942 139.599 117.937 139.586 117.936 139.572C117.937 139.559 117.942 139.546 117.95 139.535C117.958 139.524 117.969 139.516 117.982 139.511L119.066 138.882ZM120.729 139.221C120.569 139.137 120.39 139.098 120.209 139.107C120.029 139.116 119.854 139.172 119.703 139.271L119.286 139.514L120.83 140.414L121.27 140.159C121.613 139.962 121.632 139.773 121.335 139.576L121.177 139.48C121.127 139.453 121.077 139.426 121.03 139.395L120.884 139.314L120.729 139.221Z" fill="#455A64"/>
<path d="M123.709 136.22C123.741 136.2 123.779 136.191 123.817 136.193C123.856 136.191 123.895 136.2 123.929 136.22L124.365 136.471C124.377 136.476 124.387 136.484 124.395 136.495C124.403 136.506 124.407 136.519 124.407 136.532C124.407 136.546 124.403 136.56 124.395 136.571C124.388 136.583 124.377 136.592 124.365 136.598L123.643 136.991L125.742 138.203C125.773 138.203 125.789 138.242 125.789 138.269C125.787 138.282 125.782 138.295 125.774 138.306C125.766 138.317 125.755 138.326 125.742 138.331L125.206 138.639C125.173 138.659 125.136 138.668 125.098 138.666C125.059 138.668 125.02 138.659 124.986 138.639L122.887 137.428L122.165 137.844C122.131 137.862 122.092 137.871 122.053 137.871C122.016 137.872 121.978 137.862 121.945 137.844L121.509 137.593C121.478 137.574 121.463 137.555 121.463 137.528C121.464 137.514 121.469 137.501 121.477 137.49C121.485 137.479 121.496 137.471 121.509 137.466L123.709 136.22Z" fill="#455A64"/>
<path d="M125.113 136.628C124.983 136.548 124.87 136.443 124.781 136.319C124.707 136.219 124.67 136.096 124.676 135.972C124.693 135.837 124.748 135.71 124.835 135.605C124.961 135.461 125.111 135.339 125.278 135.247C125.474 135.135 125.683 135.05 125.9 134.992C126.106 134.937 126.319 134.906 126.533 134.899C126.735 134.894 126.937 134.915 127.135 134.961C127.319 135.001 127.498 135.065 127.667 135.15L128.053 135.358L128.404 135.571C128.534 135.651 128.647 135.756 128.736 135.879C128.81 135.98 128.847 136.102 128.84 136.227C128.832 136.369 128.777 136.505 128.682 136.613C128.558 136.758 128.407 136.879 128.238 136.968C128.044 137.082 127.835 137.17 127.617 137.23C127.41 137.284 127.198 137.314 126.984 137.319C126.782 137.324 126.579 137.303 126.382 137.257C126.197 137.216 126.019 137.153 125.85 137.068C125.73 137.006 125.61 136.937 125.464 136.863L125.113 136.628ZM127.617 135.999L127.463 135.899L127.285 135.791L127.096 135.686L126.93 135.602C126.857 135.564 126.779 135.535 126.699 135.517C126.618 135.497 126.535 135.486 126.452 135.486C126.364 135.486 126.277 135.498 126.193 135.52C126.103 135.544 126.016 135.579 125.934 135.625C125.864 135.662 125.803 135.713 125.753 135.775C125.718 135.817 125.697 135.87 125.695 135.926C125.696 135.977 125.714 136.028 125.745 136.068C125.786 136.121 125.836 136.165 125.892 136.2C125.939 136.235 125.988 136.267 126.039 136.296C126.097 136.331 126.154 136.369 126.22 136.404L126.405 136.508C126.462 136.541 126.52 136.571 126.579 136.597C126.729 136.671 126.894 136.711 127.061 136.713C127.242 136.715 127.421 136.666 127.574 136.57C127.744 136.474 127.821 136.377 127.814 136.277C127.804 136.219 127.782 136.163 127.748 136.115C127.714 136.067 127.669 136.027 127.617 135.999Z" fill="#455A64"/>
<path d="M129.693 134.005L129.836 134.094L130.028 134.206L130.225 134.322L130.383 134.403C130.452 134.438 130.525 134.465 130.6 134.484C130.679 134.507 130.76 134.519 130.843 134.522C130.93 134.521 131.016 134.511 131.101 134.491C131.198 134.469 131.29 134.431 131.375 134.38C131.448 134.342 131.514 134.291 131.568 134.229C131.601 134.191 131.625 134.146 131.638 134.098C131.649 134.061 131.649 134.022 131.638 133.986C131.621 133.954 131.601 133.924 131.576 133.897C131.555 133.874 131.539 133.846 131.53 133.816C131.53 133.816 131.553 133.774 131.599 133.747L132.135 133.438C132.163 133.425 132.194 133.418 132.224 133.418C132.255 133.418 132.285 133.425 132.313 133.438C132.435 133.504 132.537 133.603 132.606 133.723C132.663 133.827 132.68 133.948 132.656 134.063C132.623 134.196 132.558 134.319 132.467 134.422C132.346 134.558 132.203 134.671 132.043 134.758C131.85 134.868 131.644 134.953 131.429 135.008C131.223 135.065 131.01 135.097 130.796 135.101C130.593 135.106 130.389 135.086 130.191 135.039C130.006 135.002 129.828 134.938 129.662 134.85C129.542 134.792 129.423 134.723 129.276 134.65C129.129 134.576 129.029 134.503 128.917 134.43C128.786 134.354 128.673 134.252 128.585 134.129C128.515 134.026 128.48 133.902 128.485 133.778C128.498 133.642 128.552 133.515 128.639 133.411C128.762 133.265 128.911 133.145 129.079 133.056C129.262 132.951 129.458 132.869 129.662 132.813C129.864 132.755 130.07 132.718 130.279 132.701C130.477 132.688 130.675 132.698 130.87 132.732C131.043 132.758 131.21 132.814 131.364 132.898C131.374 132.902 131.383 132.91 131.39 132.919C131.397 132.929 131.401 132.94 131.402 132.952C131.402 132.963 131.398 132.974 131.391 132.983C131.384 132.992 131.375 132.999 131.364 133.002L130.827 133.314C130.792 133.338 130.75 133.351 130.708 133.353C130.662 133.347 130.617 133.338 130.573 133.326C130.522 133.31 130.471 133.298 130.418 133.291C130.354 133.283 130.289 133.283 130.225 133.291C130.148 133.298 130.072 133.31 129.998 133.33C129.906 133.357 129.818 133.396 129.735 133.446C129.66 133.483 129.594 133.537 129.542 133.604C129.508 133.645 129.489 133.697 129.488 133.751C129.493 133.804 129.515 133.854 129.55 133.893C129.594 133.935 129.642 133.973 129.693 134.005Z" fill="#455A64"/>
<path d="M132.288 131.249C132.339 131.219 132.398 131.203 132.458 131.203C132.508 131.205 132.559 131.211 132.608 131.222L136.081 132.195L136.158 132.222C136.185 132.222 136.197 132.253 136.197 132.276C136.197 132.299 136.197 132.311 136.158 132.326L135.645 132.623C135.598 132.651 135.545 132.667 135.491 132.669C135.455 132.675 135.418 132.675 135.383 132.669L134.927 132.538L133.835 133.167L134.063 133.43C134.079 133.448 134.087 133.471 134.086 133.495C134.086 133.522 134.059 133.549 134.005 133.58L133.488 133.881C133.46 133.894 133.43 133.901 133.399 133.901C133.369 133.901 133.338 133.894 133.31 133.881C133.291 133.87 133.275 133.854 133.264 133.835L131.578 131.828C131.557 131.805 131.546 131.774 131.547 131.743C131.547 131.709 131.57 131.678 131.624 131.643L132.288 131.249ZM133.415 132.666L134.078 132.28L132.762 131.894L133.415 132.666Z" fill="#455A64"/>
<path d="M134.933 129.72C135.105 129.621 135.286 129.54 135.473 129.477C135.646 129.418 135.824 129.381 136.006 129.365C136.182 129.353 136.358 129.366 136.531 129.403C136.704 129.442 136.871 129.507 137.025 129.596C137.193 129.678 137.329 129.814 137.41 129.982C137.437 130.045 137.446 130.114 137.438 130.182C137.429 130.25 137.402 130.314 137.36 130.368L138.842 130.638C138.863 130.64 138.882 130.647 138.9 130.658C138.927 130.658 138.939 130.688 138.939 130.712C138.939 130.735 138.939 130.746 138.9 130.762L138.344 131.082C138.299 131.114 138.245 131.13 138.19 131.128H138.063L136.731 130.885L136.345 131.101L137.221 131.607C137.252 131.607 137.268 131.645 137.268 131.672C137.266 131.686 137.261 131.699 137.253 131.71C137.245 131.721 137.234 131.729 137.221 131.734L136.685 132.043C136.652 132.062 136.615 132.071 136.577 132.07C136.538 132.072 136.499 132.063 136.465 132.043L133.818 130.519C133.805 130.513 133.795 130.504 133.787 130.492C133.78 130.48 133.776 130.467 133.775 130.453C133.776 130.439 133.78 130.426 133.788 130.414C133.795 130.403 133.806 130.394 133.818 130.387L134.933 129.72ZM135.705 130.704L136.172 130.43C136.263 130.386 136.34 130.316 136.392 130.229C136.423 130.16 136.392 130.09 136.268 130.025C136.163 129.961 136.039 129.937 135.917 129.955C135.793 129.973 135.674 130.015 135.566 130.079L135.103 130.349L135.705 130.704Z" fill="#455A64"/>
<path d="M138.639 127.583C138.673 127.566 138.712 127.557 138.75 127.557C138.789 127.557 138.828 127.566 138.862 127.583L139.295 127.834C139.307 127.839 139.318 127.848 139.326 127.859C139.335 127.869 139.34 127.882 139.341 127.896C139.341 127.923 139.341 127.942 139.295 127.962L138.573 128.378L140.676 129.59C140.689 129.596 140.699 129.605 140.707 129.617C140.714 129.628 140.718 129.642 140.718 129.656C140.718 129.669 140.714 129.682 140.706 129.693C140.699 129.704 140.688 129.712 140.676 129.717L140.14 130.03C140.104 130.045 140.066 130.053 140.028 130.053C139.989 130.053 139.951 130.045 139.916 130.03L137.817 128.814L137.095 129.231C137.062 129.249 137.025 129.258 136.987 129.258C136.948 129.258 136.91 129.249 136.875 129.231L136.439 128.98C136.427 128.974 136.417 128.964 136.409 128.953C136.402 128.942 136.397 128.928 136.396 128.915C136.397 128.902 136.402 128.889 136.409 128.878C136.417 128.867 136.427 128.859 136.439 128.853L138.639 127.583Z" fill="#455A64"/>
<path d="M108.39 144.323C107.352 144.921 107.352 145.889 108.39 146.484C108.97 146.778 109.612 146.932 110.263 146.932C110.914 146.932 111.556 146.778 112.137 146.484C113.171 145.889 113.171 144.921 112.137 144.323C111.556 144.028 110.914 143.874 110.263 143.874C109.612 143.874 108.97 144.028 108.39 144.323ZM111.477 145.029L110.782 145.415L111.477 145.801C111.506 145.809 111.531 145.827 111.549 145.851C111.567 145.875 111.576 145.904 111.576 145.934C111.576 145.964 111.567 145.993 111.549 146.017C111.531 146.041 111.506 146.058 111.477 146.067C111.406 146.103 111.327 146.122 111.247 146.122C111.168 146.122 111.089 146.103 111.018 146.067L110.319 145.681L109.625 146.067C109.554 146.103 109.475 146.122 109.395 146.122C109.315 146.122 109.237 146.103 109.165 146.067C109.137 146.058 109.112 146.041 109.094 146.017C109.076 145.993 109.066 145.964 109.066 145.934C109.066 145.904 109.076 145.875 109.094 145.851C109.112 145.827 109.137 145.809 109.165 145.801L109.86 145.415L109.165 145.029C109.137 145.02 109.112 145.003 109.094 144.979C109.076 144.955 109.066 144.926 109.066 144.896C109.066 144.866 109.076 144.837 109.094 144.813C109.112 144.789 109.137 144.771 109.165 144.763C109.237 144.726 109.315 144.707 109.395 144.707C109.475 144.707 109.554 144.726 109.625 144.763L110.319 145.148L111.018 144.763C111.089 144.726 111.168 144.707 111.247 144.707C111.327 144.707 111.406 144.726 111.477 144.763C111.514 144.767 111.548 144.785 111.571 144.814C111.594 144.843 111.605 144.88 111.6 144.917C111.596 144.954 111.578 144.987 111.549 145.011C111.52 145.034 111.483 145.044 111.446 145.04L111.477 145.029Z" fill="#455A64"/>
<path d="M115.41 119.096C115.367 118.195 115.112 117.316 114.665 116.531C114.219 115.747 113.593 115.079 112.84 114.582C112.091 114.142 111.416 114.122 110.937 114.435L109.182 115.423L112.867 121.778L114.607 120.791C115.093 120.524 115.402 119.942 115.41 119.096Z" fill="#37474F"/>
<path d="M111.015 115.616C111.767 116.114 112.392 116.783 112.838 117.567C113.285 118.351 113.541 119.23 113.585 120.131C113.585 121.79 112.404 122.446 110.976 121.617C110.224 121.118 109.599 120.45 109.153 119.666C108.706 118.881 108.451 118.003 108.406 117.102C108.418 115.442 109.587 114.779 111.015 115.616Z" fill="#455A64"/>
<path d="M110.121 118.105C110.121 117.457 110.507 117.16 111.005 117.446C111.272 117.639 111.49 117.892 111.641 118.185C111.791 118.478 111.871 118.802 111.873 119.132C111.873 119.78 111.487 120.073 110.989 119.792C110.723 119.598 110.506 119.344 110.356 119.051C110.205 118.759 110.125 118.435 110.121 118.105Z" fill="#263238"/>
<path opacity="0.15" d="M113.586 120.131C113.577 119.536 113.457 118.947 113.231 118.395L108.774 115.806C108.523 116.19 108.396 116.643 108.411 117.102C108.411 117.122 108.411 117.141 108.411 117.164L113.582 120.166C113.582 120.166 113.586 120.143 113.586 120.131Z" fill="black"/>
<path d="M96.9355 133.217C95.9926 133.289 95.0469 133.119 94.188 132.723L69.877 118.712C68.4068 117.971 66.7552 116.049 66.651 114.228L65.9062 96.8976L67.2607 96.8204L68.0093 114.155C68.0788 115.389 69.3715 116.941 70.4829 117.496L94.8131 131.512C95.467 131.785 96.1743 131.905 96.8816 131.864C97.5889 131.824 98.2776 131.623 98.8958 131.276L115.103 121.93C115.489 121.675 115.717 121.371 115.701 121.112C115.686 120.854 115.443 120.599 115.03 120.39L88.9862 105.271C87.5198 104.534 85.8759 102.609 85.7718 100.787L85.409 91.1749L86.7635 91.1016L87.1262 100.71C87.1957 101.953 88.4884 103.5 89.5959 104.056L115.639 119.179C116.508 119.615 117.009 120.275 117.056 121.035C117.102 121.795 116.67 122.532 115.848 123.065L99.6406 132.411C98.8221 132.905 97.8911 133.183 96.9355 133.217Z" fill="#455A64"/>
<path d="M92.5661 132.826C92.5234 131.924 92.2683 131.045 91.8217 130.26C91.3751 129.476 90.7496 128.808 89.9961 128.311C89.2475 127.871 88.5722 127.848 88.0975 128.164L86.3379 129.152L90.0231 135.508L91.7635 134.52C92.242 134.253 92.5661 133.671 92.5661 132.826Z" fill="#37474F"/>
<path d="M88.1633 129.346C88.9174 129.844 89.5432 130.512 89.9898 131.298C90.4364 132.083 90.6912 132.963 90.7333 133.865C90.7333 135.521 89.5564 136.18 88.1247 135.347C87.3724 134.849 86.7479 134.181 86.3021 133.396C85.8562 132.612 85.6015 131.733 85.5586 130.832C85.5702 129.177 86.7356 128.501 88.1633 129.346Z" fill="#455A64"/>
<path d="M87.2676 131.835C87.2676 131.187 87.6535 130.889 88.1513 131.175C88.4189 131.368 88.637 131.621 88.7879 131.914C88.9389 132.207 89.0182 132.532 89.0195 132.861C89.0195 133.506 88.6336 133.803 88.1397 133.517C87.8726 133.325 87.6545 133.072 87.503 132.78C87.3515 132.488 87.2708 132.164 87.2676 131.835Z" fill="#263238"/>
<path d="M74.5916 122.466C74.5507 121.565 74.2977 120.685 73.8532 119.9C73.4086 119.115 72.7851 118.446 72.0332 117.947C71.2807 117.507 70.6092 117.484 70.1307 117.797L68.3711 118.781L72.0447 125.144L73.789 124.156C74.2752 123.894 74.5839 123.311 74.5916 122.466Z" fill="#37474F"/>
<path d="M70.2043 118.981C70.9544 119.478 71.5772 120.145 72.0223 120.927C72.4673 121.71 72.7223 122.586 72.7666 123.484C72.7666 125.14 71.5819 125.8 70.1541 124.962C69.4022 124.464 68.7787 123.794 68.3341 123.009C67.8896 122.224 67.6366 121.345 67.5957 120.444C67.6073 118.8 68.7765 118.14 70.2043 118.981Z" fill="#455A64"/>
<path d="M69.3047 121.462C69.3047 120.818 69.6906 120.52 70.1884 120.806C70.4551 120.999 70.6726 121.253 70.8234 121.546C70.9742 121.839 71.0541 122.163 71.0566 122.492C71.0566 123.141 70.6707 123.434 70.1691 123.152C69.9035 122.957 69.687 122.703 69.537 122.409C69.3869 122.116 69.3074 121.792 69.3047 121.462Z" fill="#263238"/>
<path d="M62.9999 75.8961C62.7696 75.0134 62.8119 74.0817 63.1211 73.2235C63.4304 72.3653 63.9921 71.6208 64.7325 71.0879L80.9051 61.9462C82.3753 60.9815 83.9922 61.653 84.5015 63.3316L85.6245 66.9705L84.5131 67.6188L83.3053 63.9413C83.2561 63.7446 83.1589 63.5633 83.0223 63.4135C82.8856 63.2638 82.714 63.1503 82.5226 63.0834C82.3313 63.0164 82.1264 62.998 81.9262 63.0299C81.726 63.0618 81.5369 63.1429 81.3758 63.266L65.6277 72.1607C65.156 72.5065 64.797 72.9841 64.5958 73.5334C64.3947 74.0826 64.3603 74.6791 64.4971 75.2478L65.4464 78.7401L64.1228 79.5119L62.9999 75.8961Z" fill="#455A64"/>
<path d="M88.0048 93.4316L66.2793 105.977L98.0302 124.307L119.756 111.761L88.0048 93.4316Z" fill="#8AAFFD"/>
<path opacity="0.5" d="M88.0048 93.4316L66.2793 105.977L98.0302 124.307L119.756 111.761L88.0048 93.4316Z" fill="black"/>
<path d="M64.123 79.5353L85.6247 66.9746L88.0056 93.4311L66.2802 105.976L64.123 79.5353Z" fill="#8AAFFD"/>
<path opacity="0.35" d="M64.123 79.5353L85.6247 66.9746L88.0056 93.4311L66.2802 105.976L64.123 79.5353Z" fill="black"/>
<path d="M85.6211 66.9746L88.002 93.4311L119.753 111.761L124.769 89.5683L85.6211 66.9746ZM96.7231 92.4123C96.2646 92.5545 95.7685 92.5102 95.3424 92.2892C94.9162 92.0682 94.5943 91.6882 94.4463 91.2315L89.1983 77.6135C89.0828 77.3989 89.0145 77.162 88.9979 76.9188C88.9813 76.6756 89.0168 76.4317 89.1019 76.2033C89.1871 75.9749 89.3201 75.7674 89.4919 75.5945C89.6637 75.4215 89.8704 75.2873 90.0982 75.2006C90.326 75.114 90.5697 75.0769 90.813 75.092C91.0563 75.107 91.2936 75.1738 91.509 75.2879C91.7244 75.4019 91.913 75.5607 92.0622 75.7534C92.2114 75.9462 92.3177 76.1686 92.3741 76.4057L97.6222 90.0237C97.8155 90.4598 97.83 90.9543 97.6626 91.4009C97.4952 91.8476 97.1592 92.2107 96.7269 92.4123H96.7231ZM106.637 97.0739C106.179 97.2183 105.682 97.1755 105.255 96.955C104.829 96.7345 104.507 96.3541 104.36 95.8969L99.1272 82.2789C99.012 82.0648 98.9437 81.8287 98.9268 81.5861C98.9099 81.3436 98.9448 81.1003 99.0292 80.8723C99.1136 80.6443 99.2455 80.4368 99.4163 80.2638C99.587 80.0907 99.7926 79.956 100.019 79.8685C100.246 79.781 100.489 79.7428 100.732 79.7564C100.975 79.77 101.212 79.8351 101.427 79.9474C101.643 80.0597 101.832 80.2166 101.983 80.4077C102.133 80.5988 102.241 80.8197 102.299 81.0557L107.547 94.6736C107.744 95.1123 107.76 95.6112 107.59 96.0611C107.42 96.511 107.078 96.8752 106.64 97.0739H106.637ZM116.55 101.739C116.095 101.885 115.6 101.844 115.174 101.628C114.748 101.411 114.424 101.035 114.273 100.582L109.029 86.9636C108.917 86.7502 108.851 86.5154 108.836 86.2747C108.821 86.0341 108.857 85.7929 108.942 85.5671C109.026 85.3414 109.158 85.1361 109.328 84.9648C109.497 84.7934 109.701 84.66 109.926 84.5731C110.151 84.4862 110.392 84.448 110.633 84.4608C110.874 84.4736 111.109 84.5372 111.324 84.6474C111.538 84.7577 111.727 84.912 111.877 85.1004C112.028 85.2888 112.137 85.5069 112.197 85.7403L117.445 99.3583C117.637 99.7929 117.652 100.286 117.485 100.731C117.319 101.176 116.984 101.538 116.554 101.739H116.55Z" fill="#8AAFFD"/>
<path opacity="0.23" d="M85.6211 66.9746L88.002 93.4311L119.753 111.761L124.769 89.5683L85.6211 66.9746ZM96.7231 92.4123C96.2646 92.5545 95.7685 92.5102 95.3424 92.2892C94.9162 92.0682 94.5943 91.6882 94.4463 91.2315L89.1983 77.6135C89.0828 77.3989 89.0145 77.162 88.9979 76.9188C88.9813 76.6756 89.0168 76.4317 89.1019 76.2033C89.1871 75.9749 89.3201 75.7674 89.4919 75.5945C89.6637 75.4215 89.8704 75.2873 90.0982 75.2006C90.326 75.114 90.5697 75.0769 90.813 75.092C91.0563 75.107 91.2936 75.1738 91.509 75.2879C91.7244 75.4019 91.913 75.5607 92.0622 75.7534C92.2114 75.9462 92.3177 76.1686 92.3741 76.4057L97.6222 90.0237C97.8155 90.4598 97.83 90.9543 97.6626 91.4009C97.4952 91.8476 97.1592 92.2107 96.7269 92.4123H96.7231ZM106.637 97.0739C106.179 97.2183 105.682 97.1755 105.255 96.955C104.829 96.7345 104.507 96.3541 104.36 95.8969L99.1272 82.2789C99.012 82.0648 98.9437 81.8287 98.9268 81.5861C98.9099 81.3436 98.9448 81.1003 99.0292 80.8723C99.1136 80.6443 99.2455 80.4368 99.4163 80.2638C99.587 80.0907 99.7926 79.956 100.019 79.8685C100.246 79.781 100.489 79.7428 100.732 79.7564C100.975 79.77 101.212 79.8351 101.427 79.9474C101.643 80.0597 101.832 80.2166 101.983 80.4077C102.133 80.5988 102.241 80.8197 102.299 81.0557L107.547 94.6736C107.744 95.1123 107.76 95.6112 107.59 96.0611C107.42 96.511 107.078 96.8752 106.64 97.0739H106.637ZM116.55 101.739C116.095 101.885 115.6 101.844 115.174 101.628C114.748 101.411 114.424 101.035 114.273 100.582L109.029 86.9636C108.917 86.7502 108.851 86.5154 108.836 86.2747C108.821 86.0341 108.857 85.7929 108.942 85.5671C109.026 85.3414 109.158 85.1361 109.328 84.9648C109.497 84.7934 109.701 84.66 109.926 84.5731C110.151 84.4862 110.392 84.448 110.633 84.4608C110.874 84.4736 111.109 84.5372 111.324 84.6474C111.538 84.7577 111.727 84.912 111.877 85.1004C112.028 85.2888 112.137 85.5069 112.197 85.7403L117.445 99.3583C117.637 99.7929 117.652 100.286 117.485 100.731C117.319 101.176 116.984 101.538 116.554 101.739H116.55Z" fill="black"/>
<path d="M64.123 79.5352L66.2802 105.976L98.031 124.306L103.048 102.117L64.123 79.5352ZM76.6567 105.563C76.1982 105.705 75.7021 105.661 75.276 105.44C74.8498 105.219 74.5279 104.839 74.3799 104.382L69.1357 90.7645C69.0227 90.5509 68.9563 90.3158 68.9408 90.0746C68.9253 89.8335 68.9612 89.5918 69.0459 89.3655C69.1307 89.1392 69.2625 88.9334 69.4326 88.7618C69.6026 88.5901 69.8072 88.4565 70.0327 88.3697C70.2582 88.2829 70.4996 88.2449 70.7409 88.2582C70.9822 88.2715 71.2179 88.3358 71.4325 88.4469C71.6471 88.5579 71.8358 88.7133 71.9859 88.9026C72.1361 89.0919 72.2445 89.3108 72.3039 89.5451L77.5519 103.159C77.75 103.597 77.7671 104.095 77.5994 104.546C77.4317 104.996 77.0929 105.362 76.6567 105.563ZM86.5702 110.225C86.1122 110.369 85.6156 110.326 85.189 110.106C84.7624 109.885 84.4404 109.505 84.2934 109.048L79.0608 95.4299C78.9456 95.2158 78.8773 94.9796 78.8604 94.7371C78.8435 94.4946 78.8784 94.2512 78.9628 94.0232C79.0472 93.7952 79.1791 93.5878 79.3499 93.4147C79.5206 93.2417 79.7262 93.1069 79.9531 93.0194C80.1799 92.932 80.4228 92.8938 80.6655 92.9074C80.9082 92.921 81.1453 92.9861 81.3609 93.0984C81.5765 93.2107 81.7658 93.3676 81.9161 93.5587C82.0665 93.7497 82.1744 93.9706 82.2328 94.2066L87.477 107.825C87.6741 108.263 87.6894 108.762 87.5194 109.212C87.3495 109.662 87.0081 110.026 86.5702 110.225ZM96.4836 114.89C96.0261 115.034 95.5301 114.992 95.1041 114.771C94.6782 114.55 94.3569 114.17 94.2107 113.713L88.9627 100.095C88.8475 99.8812 88.7791 99.645 88.7622 99.4025C88.7453 99.16 88.7803 98.9166 88.8647 98.6886C88.9491 98.4606 89.081 98.2532 89.2517 98.0801C89.4225 97.907 89.6281 97.7723 89.855 97.6848C90.0818 97.5973 90.3246 97.5591 90.5674 97.5728C90.8101 97.5864 91.0472 97.6515 91.2628 97.7638C91.4784 97.8761 91.6677 98.033 91.818 98.224C91.9683 98.4151 92.0763 98.636 92.1347 98.872L97.3789 112.49C97.5768 112.927 97.5937 113.425 97.426 113.875C97.2583 114.324 96.9195 114.689 96.4836 114.89Z" fill="#8AAFFD"/>
<g opacity="0.15">
<path opacity="0.15" d="M64.123 79.5352L66.2802 105.976L98.031 124.306L103.048 102.117L64.123 79.5352ZM76.6567 105.563C76.1982 105.705 75.7021 105.661 75.276 105.44C74.8498 105.219 74.5279 104.839 74.3799 104.382L69.1357 90.7645C69.0227 90.5509 68.9563 90.3158 68.9408 90.0746C68.9253 89.8335 68.9612 89.5918 69.0459 89.3655C69.1307 89.1392 69.2625 88.9334 69.4326 88.7618C69.6026 88.5901 69.8072 88.4565 70.0327 88.3697C70.2582 88.2829 70.4996 88.2449 70.7409 88.2582C70.9822 88.2715 71.2179 88.3358 71.4325 88.4469C71.6471 88.5579 71.8358 88.7133 71.9859 88.9026C72.1361 89.0919 72.2445 89.3108 72.3039 89.5451L77.5519 103.159C77.75 103.597 77.7671 104.095 77.5994 104.546C77.4317 104.996 77.0929 105.362 76.6567 105.563ZM86.5702 110.225C86.1122 110.369 85.6156 110.326 85.189 110.106C84.7624 109.885 84.4404 109.505 84.2934 109.048L79.0608 95.4299C78.9456 95.2158 78.8773 94.9796 78.8604 94.7371C78.8435 94.4946 78.8784 94.2512 78.9628 94.0232C79.0472 93.7952 79.1791 93.5878 79.3499 93.4147C79.5206 93.2417 79.7262 93.1069 79.9531 93.0194C80.1799 92.932 80.4228 92.8938 80.6655 92.9074C80.9082 92.921 81.1453 92.9861 81.3609 93.0984C81.5765 93.2107 81.7658 93.3676 81.9161 93.5587C82.0665 93.7497 82.1744 93.9706 82.2328 94.2066L87.477 107.825C87.6741 108.263 87.6894 108.762 87.5194 109.212C87.3495 109.662 87.0081 110.026 86.5702 110.225ZM96.4836 114.89C96.0261 115.034 95.5301 114.992 95.1041 114.771C94.6782 114.55 94.3569 114.17 94.2107 113.713L88.9627 100.095C88.8475 99.8812 88.7791 99.645 88.7622 99.4025C88.7453 99.16 88.7803 98.9166 88.8647 98.6886C88.9491 98.4606 89.081 98.2532 89.2517 98.0801C89.4225 97.907 89.6281 97.7723 89.855 97.6848C90.0818 97.5973 90.3246 97.5591 90.5674 97.5728C90.8101 97.5864 91.0472 97.6515 91.2628 97.7638C91.4784 97.8761 91.6677 98.033 91.818 98.224C91.9683 98.4151 92.0763 98.636 92.1347 98.872L97.3789 112.49C97.5768 112.927 97.5937 113.425 97.426 113.875C97.2583 114.324 96.9195 114.689 96.4836 114.89Z" fill="black"/>
</g>
<path d="M103.044 102.117L124.769 89.5723L119.757 111.765L98.0312 124.306L103.044 102.117Z" fill="#8AAFFD"/>
<path opacity="0.4" d="M103.044 102.117L124.769 89.5723L119.757 111.765L98.0312 124.306L103.044 102.117Z" fill="black"/>
<path d="M110.869 54.2089L108.361 55.6792L108.369 48.081L106.849 47.2051L99.9643 51.1797L99.9527 60.5529L95.9395 62.8258L104.923 68.6527L112.39 55.0849L110.869 54.2089Z" fill="#37474F"/>
<path d="M101.484 52.0557L101.472 61.4289L97.459 63.7056L104.922 68.6527L112.389 55.0849L108.356 57.4543L108.368 48.0811L101.484 52.0557Z" fill="#455A64"/>
<path d="M99.9647 51.1797L101.485 52.0556L101.474 61.4289L99.9531 60.5529L99.9647 51.1797Z" fill="#263238"/>
<path d="M149.771 47.1166C148.648 49.5323 146.726 53.5301 145.672 55.7451L141.551 50.8906H138.078C138.078 50.8906 142.246 59.766 144.731 61.8421C144.925 62.0247 145.155 62.1656 145.406 62.2563C145.657 62.3471 145.923 62.3857 146.189 62.3698C146.456 62.3539 146.716 62.2838 146.954 62.1639C147.192 62.044 147.403 61.8767 147.575 61.6723C148.587 60.4479 149.519 59.1588 150.365 57.8135C152.333 54.7727 153.213 53.4606 153.213 53.4606L155.69 43.0417C153.537 42.8796 151.33 43.7633 149.771 47.1166Z" fill="#FFA8A7"/>
<path d="M156.105 43.0313C154.781 42.9811 153.342 42.8152 152.08 43.9188C150.873 44.9724 149.93 46.294 149.325 47.7777C148.472 49.7843 147.152 52.3273 147.152 52.3273C147.831 53.3142 148.665 54.1847 149.622 54.905C150.486 55.5722 151.509 56.0019 152.59 56.1514L156.105 43.0313Z" fill="#8AAFFD"/>
<path opacity="0.45" d="M156.105 43.0313C154.781 42.9811 153.342 42.8152 152.08 43.9188C150.873 44.9724 149.93 46.294 149.325 47.7777C148.472 49.7843 147.152 52.3273 147.152 52.3273C147.831 53.3142 148.665 54.1847 149.622 54.905C150.486 55.5722 151.509 56.0019 152.59 56.1514L156.105 43.0313Z" fill="black"/>
<path d="M145.674 55.7452C146.138 56.2899 146.563 56.8677 146.943 57.474C146.943 57.474 146.5 55.8379 145.898 55.2783L145.674 55.7452Z" fill="#F28F8F"/>
<path d="M137.049 44.4427L137.377 44.0992C137.428 44.0584 137.487 44.0301 137.551 44.0167C137.615 44.0033 137.681 44.0051 137.744 44.0221L141.734 44.7012C141.936 44.7466 142.126 44.8353 142.29 44.9612C142.455 45.0871 142.59 45.2472 142.687 45.4305L146.276 53.2293C146.316 53.2919 146.338 53.365 146.338 53.4396C146.338 53.5143 146.316 53.5874 146.276 53.65L145.936 54.005C145.883 54.0492 145.82 54.0795 145.753 54.093C145.685 54.1065 145.616 54.1028 145.55 54.0821L141.575 53.4068C141.373 53.3608 141.183 53.2714 141.018 53.1449C140.854 53.0183 140.719 52.8575 140.622 52.6737L137.034 44.8749C136.945 44.6819 136.945 44.5276 137.049 44.4427Z" fill="#455A64"/>
<path d="M145.936 53.5818L142.347 45.7792C142.25 45.5962 142.115 45.4363 141.95 45.3104C141.786 45.1846 141.596 45.0957 141.394 45.0498L137.404 44.3784C137.018 44.3167 136.864 44.5405 137.018 44.8839L140.607 52.6827C140.703 52.8666 140.838 53.0273 141.003 53.1539C141.168 53.2805 141.358 53.3699 141.56 53.4159L145.55 54.0912C145.921 54.1491 146.094 53.9214 145.936 53.5818Z" fill="#263238"/>
<path d="M141.842 45.2305C142.058 45.3651 142.234 45.5558 142.351 45.7824L145.94 53.5773C145.978 53.6386 145.999 53.7095 145.999 53.7818C145.999 53.8541 145.978 53.925 145.94 53.9863L146.26 53.6545C146.3 53.5923 146.321 53.52 146.321 53.4461C146.321 53.3722 146.3 53.2999 146.26 53.2377L142.671 45.4389C142.564 45.2264 142.401 45.0465 142.201 44.918L141.842 45.2305Z" fill="#37474F"/>
<path d="M138.936 52.1569C137.285 50.2622 137.331 47.889 138.091 47.2021L138.593 48.2981C138.593 48.2981 141.12 48.8615 142.336 48.7689C143.552 48.6762 144.543 48.383 144.875 48.6222C145.581 49.12 145.786 51.2347 143.764 52.0065C142.047 52.6586 138.936 52.1569 138.936 52.1569Z" fill="#FFA8A7"/>
<path d="M167.974 114.42C166.905 114.995 165.605 114.949 164.339 114.42L163.811 107.505L167.974 108.049V114.42Z" fill="#FFA8A7"/>
<path d="M155.212 110.288C154.313 112.237 152.685 111.696 150.852 110.45L151.176 103.504H155.594L155.212 110.288Z" fill="#FFA8A7"/>
<path d="M160.186 120.964C160.078 121.315 160.094 121.693 160.233 122.033C160.372 122.249 161.167 122.932 162.61 123.032C163.987 123.133 165.218 122.948 166.025 122.434C166.831 121.921 167.225 121.354 167.302 120.571C167.379 119.787 167.302 119.027 167.665 118.421C168.028 117.815 168.56 117.236 168.68 116.935C168.822 116.412 168.822 115.861 168.68 115.338L160.186 120.964Z" fill="#263238"/>
<path d="M163.957 114.115C163.936 114.412 163.88 114.704 163.791 114.988C163.579 115.595 163.295 116.175 162.946 116.716C162.772 116.998 162.58 117.269 162.371 117.527C161.954 118.021 161.437 118.426 160.997 118.904C160.525 119.351 160.224 119.949 160.145 120.594C160.087 121.675 161.26 122.042 162.163 122.204C163.139 122.373 164.141 122.323 165.096 122.057C165.597 121.925 166.049 121.652 166.4 121.271C166.75 120.889 166.983 120.414 167.071 119.904C167.121 119.603 167.102 119.294 167.141 118.993C167.261 118.304 167.549 117.655 167.978 117.102C168.23 116.785 168.446 116.441 168.623 116.076C168.904 115.404 168.68 114.652 168.499 113.988C168.345 113.413 168.167 112.761 167.967 112.83C167.979 112.949 167.962 113.068 167.916 113.178C167.85 113.284 167.797 113.398 167.758 113.517C167.717 113.67 167.663 113.818 167.596 113.961C167.495 114.184 167.326 114.369 167.114 114.49C167.114 114.104 167.087 113.675 167.075 113.266C167.085 113.14 167.052 113.014 166.983 112.908C166.887 112.82 166.765 112.767 166.635 112.757C165.878 112.575 165.097 112.511 164.32 112.568C164.262 112.566 164.204 112.577 164.15 112.6C164.097 112.623 164.049 112.659 164.011 112.703C163.964 112.786 163.946 112.882 163.957 112.977C163.978 113.356 163.978 113.736 163.957 114.115Z" fill="#37474F"/>
<path d="M162.798 116.924C163.184 116.623 164.103 116.619 164.597 116.673C165.097 116.717 165.579 116.885 165.997 117.163C166.059 117.208 166.134 117.229 166.209 117.224C166.285 117.218 166.356 117.186 166.41 117.132C166.441 117.102 166.465 117.065 166.48 117.024C166.496 116.983 166.502 116.939 166.499 116.896C166.496 116.852 166.484 116.81 166.464 116.772C166.443 116.733 166.414 116.7 166.379 116.673C165.919 116.333 165.372 116.13 164.801 116.087C163.589 116.002 163.234 116.21 163.234 116.21C163.234 116.21 162.686 116.581 162.798 116.924Z" fill="#F5F5F5"/>
<path d="M161.881 118.047C162.39 117.75 163.378 117.792 163.872 117.842C164.364 117.894 164.833 118.074 165.234 118.363C165.296 118.408 165.371 118.429 165.447 118.423C165.523 118.417 165.594 118.383 165.647 118.329C165.679 118.299 165.704 118.262 165.721 118.221C165.737 118.18 165.744 118.136 165.741 118.092C165.738 118.048 165.725 118.005 165.703 117.967C165.682 117.928 165.652 117.895 165.616 117.869C165.149 117.514 164.592 117.297 164.007 117.24C162.795 117.156 162.464 117.402 162.464 117.402C162.324 117.459 162.2 117.547 162.099 117.658C161.998 117.77 161.923 117.903 161.881 118.047Z" fill="#F5F5F5"/>
<path d="M165.292 114.945C164.781 114.853 164.255 114.897 163.767 115.073C163.555 115.192 163.412 115.528 163.551 115.613C163.98 115.442 164.443 115.379 164.902 115.428C165.357 115.474 165.8 115.596 166.214 115.791C166.318 115.837 166.442 115.899 166.55 115.96C166.583 115.978 166.62 115.988 166.657 115.991C166.695 115.995 166.732 115.99 166.768 115.979C166.804 115.967 166.837 115.949 166.866 115.925C166.895 115.9 166.918 115.87 166.935 115.837C166.965 115.777 166.971 115.707 166.952 115.643C166.932 115.578 166.889 115.524 166.831 115.49C166.362 115.201 165.838 115.015 165.292 114.945Z" fill="#F5F5F5"/>
<path d="M143.613 114.733C143.509 115.049 143.528 115.392 143.668 115.694C143.803 115.976 145.273 116.805 147.256 116.67C148.726 116.569 150.141 116.074 151.354 115.239C152.126 114.737 152.898 114.644 153.878 114.587C154.858 114.529 156.151 114.042 156.363 113.583C156.476 113.173 156.465 112.738 156.332 112.333L143.613 114.733Z" fill="#263238"/>
<path d="M151.581 108.636L151.068 108.435C150.977 108.389 150.873 108.378 150.775 108.405C150.647 108.451 150.597 108.601 150.563 108.733C150.517 109.025 150.444 109.313 150.346 109.593C150.201 109.821 150.012 110.019 149.791 110.176C149.299 110.571 148.768 110.914 148.205 111.198C147.557 111.546 146.924 111.816 146.252 112.117C145.581 112.418 144.666 112.611 144.134 112.973C143.362 113.498 143.254 114.814 144.134 115.335C144.905 115.783 146.908 116.269 149.019 115.671C150.177 115.347 151.442 114.127 152.951 114C153.912 113.927 155.726 113.656 156.343 112.927C156.571 112.603 156.266 111.58 156.019 110.697C155.745 109.728 155.633 108.219 155.321 108.304C155.297 108.625 155.02 108.814 154.85 109.076C154.717 109.325 154.602 109.583 154.506 109.848C154.41 110.114 154.235 110.344 154.005 110.508C153.889 110.586 153.751 110.625 153.612 110.617C153.472 110.609 153.339 110.556 153.233 110.465C152.951 110.172 153.117 109.659 152.913 109.308C152.746 109.086 152.507 108.929 152.237 108.864L151.581 108.636Z" fill="#37474F"/>
<path d="M149.1 110.688C149.169 110.557 149.271 110.444 149.395 110.361C149.519 110.279 149.661 110.228 149.81 110.214C150.246 110.133 151.017 110.453 151.496 110.851C151.542 110.887 151.578 110.935 151.601 110.989C151.624 111.043 151.633 111.102 151.628 111.16C151.623 111.219 151.603 111.275 151.57 111.324C151.538 111.373 151.494 111.413 151.442 111.441C151.377 111.477 151.303 111.491 151.23 111.483C151.157 111.475 151.088 111.444 151.033 111.395C150.505 110.917 149.811 110.663 149.1 110.688Z" fill="#F5F5F5"/>
<path d="M147.75 111.444C147.845 111.31 147.971 111.2 148.118 111.125C148.264 111.05 148.427 111.011 148.591 111.012C149.263 111.043 149.909 111.284 150.436 111.702C150.48 111.738 150.514 111.784 150.536 111.836C150.558 111.887 150.568 111.944 150.563 112C150.559 112.056 150.54 112.111 150.51 112.158C150.48 112.206 150.438 112.246 150.389 112.274C150.329 112.307 150.259 112.321 150.19 112.314C150.121 112.306 150.056 112.277 150.004 112.231C149.712 111.939 149.357 111.716 148.967 111.58C148.577 111.443 148.161 111.397 147.75 111.444Z" fill="#F5F5F5"/>
<path d="M146.252 112.127C146.362 112.005 146.496 111.907 146.646 111.84C146.797 111.774 146.96 111.74 147.124 111.741C147.772 111.78 148.391 112.025 148.891 112.44C148.935 112.475 148.97 112.521 148.992 112.573C149.014 112.625 149.023 112.681 149.019 112.737C149.014 112.794 148.996 112.848 148.966 112.896C148.936 112.943 148.894 112.983 148.845 113.011C148.784 113.043 148.714 113.056 148.645 113.047C148.576 113.039 148.511 113.01 148.459 112.965C148.182 112.663 147.838 112.43 147.455 112.284C147.072 112.139 146.66 112.085 146.252 112.127Z" fill="#F5F5F5"/>
<path d="M167.43 62.3677C167.677 69.935 167.658 88.2222 167.658 88.2222C167.739 89.1638 168.121 91.0971 168.43 94.8633C168.839 99.768 167.955 110.546 167.955 110.546C167.333 110.817 166.661 110.959 165.982 110.963C165.303 110.967 164.63 110.833 164.004 110.569C164.004 110.569 161.642 95.2222 160.909 90.3754C160.249 86.1307 158.956 76.5452 158.956 76.5452L157.463 88.9862C157.668 91.0581 157.617 93.1472 157.313 95.2068C156.965 97.4372 155.422 106.606 155.422 106.606C153.975 106.97 152.453 106.912 151.038 106.44C151.038 106.44 150.895 90.5529 150.853 88.4884C150.81 86.1307 151.899 60.5 151.899 60.5L167.43 62.3677Z" fill="#37474F"/>
<path d="M158.941 76.5448L157.822 70.3436C157.822 70.3436 154.735 70.0735 153.006 68.3447C153.006 68.3447 153.311 70.0388 157.212 71.0459L158.327 77.3205L157.447 88.9743L158.941 76.5448Z" fill="#263238"/>
<path d="M152.279 48.8571C152.611 46.4338 152.931 43.1769 156.686 43.0264L161.533 43.2579C162.725 43.5705 167.364 44.1184 167.364 44.1184L167.452 54.63C167.452 54.63 167.746 62.2089 167.657 66.2645C164.184 68.4641 156.64 69.178 151.897 65.5777C151.754 62.232 151.947 51.2574 152.279 48.8571Z" fill="#FAFAFA"/>
<path d="M152.9 30.5591C152.575 31.1331 152.371 31.7681 152.302 32.4245C152.233 33.0808 152.301 33.7442 152.5 34.3734C152.699 35.0025 153.026 35.5838 153.46 36.0808C153.894 36.5778 154.426 36.9799 155.023 37.262L154.151 37.8639L162.864 38.6357L162.752 40.735C163.141 40.6291 163.474 40.3776 163.682 40.0326C163.995 39.4731 164.84 36.0387 164.84 36.0387C165.658 34.1633 166.059 32.2338 165.473 31.5933C165.243 31.3393 164.939 31.1638 164.604 31.0916L165.762 30.5089C165.711 30.3941 165.638 30.2908 165.547 30.205C165.455 30.1193 165.347 30.053 165.229 30.0101C165.111 29.9672 164.986 29.9486 164.861 29.9554C164.735 29.9622 164.613 29.9943 164.5 30.0497C164.402 30.0997 164.313 30.1663 164.238 30.2465C164.267 30.1196 164.287 29.9906 164.296 29.8606C164.335 29.4779 164.243 29.0932 164.037 28.7686C163.871 28.5504 163.662 28.368 163.424 28.2322C162.443 27.6186 161.282 27.391 160.19 27.0051C159.572 26.7851 158.974 26.515 158.365 26.268C157.968 26.0699 157.524 25.9895 157.083 26.0365C156.861 26.0734 156.663 26.1969 156.532 26.38C156.401 26.5631 156.348 26.7907 156.385 27.0128C156.145 26.7952 155.847 26.6531 155.527 26.6044C155.207 26.5557 154.88 26.6024 154.587 26.7388C154.31 26.8536 154.076 27.0524 153.918 27.3072C153.76 27.562 153.686 27.8599 153.707 28.1589C153.312 28.0606 152.895 28.1014 152.526 28.2746C152.344 28.3624 152.192 28.5025 152.089 28.6771C151.987 28.8517 151.939 29.0528 151.951 29.2548C152.103 29.7882 152.44 30.2504 152.9 30.5591Z" fill="#37474F"/>
<path d="M159.037 31.7862C159.839 31.6898 160.634 31.5586 161.429 31.4351C161.464 31.4246 161.501 31.4217 161.538 31.4263C161.575 31.431 161.61 31.4431 161.641 31.4621C161.676 31.4938 161.699 31.5358 161.707 31.5817C162.232 33.1253 162.216 34.7653 162.633 36.3204C162.672 36.4632 162.76 36.7063 162.93 36.7063C163.239 36.741 163.451 36.467 163.582 36.2278L163.879 35.6914C163.941 35.5912 164.015 35.4991 164.099 35.4174C164.485 35.074 165.577 34.6457 166.091 35.8265C166.604 37.0073 165.504 38.5972 164.617 38.8441C163.073 39.2725 162.884 38.2884 162.884 38.2884L162.591 43.7681C161.232 45.1881 156.768 44.6942 157.651 43.4593L157.709 41.7923C157.028 41.8795 156.34 41.8924 155.656 41.8309C154.545 41.6225 153.873 40.7195 153.572 39.5156C153.09 37.5553 153.144 35.1589 153.522 32.1837C153.568 31.8311 153.661 31.486 153.796 31.1572C155.359 32.0293 157.261 31.9985 159.037 31.7862Z" fill="#FFA8A7"/>
<path d="M157.709 41.8122C157.709 41.8122 160.221 41.3916 161.108 40.9555C161.63 40.7038 162.063 40.3002 162.351 39.7979C162.202 40.3036 161.955 40.7746 161.622 41.1832C160.958 41.9781 157.689 42.4721 157.689 42.4721L157.709 41.8122Z" fill="#F28F8F"/>
<path d="M158.068 35.6291C158.069 35.7344 158.101 35.8371 158.16 35.9244C158.218 36.0117 158.302 36.0799 158.399 36.1203C158.496 36.1607 158.603 36.1716 158.706 36.1517C158.81 36.1318 158.905 36.082 158.98 36.0083C159.055 35.9347 159.107 35.8406 159.129 35.7376C159.151 35.6347 159.143 35.5276 159.104 35.4296C159.066 35.3316 159 35.247 158.913 35.1864C158.827 35.1258 158.725 35.0919 158.62 35.0889C158.476 35.0878 158.336 35.1441 158.233 35.2453C158.13 35.3465 158.07 35.4845 158.068 35.6291Z" fill="#263238"/>
<path d="M158.812 33.3994L159.935 33.8818C159.997 33.7289 159.997 33.5581 159.936 33.4051C159.875 33.252 159.757 33.1283 159.607 33.0598C159.533 33.0281 159.453 33.0117 159.372 33.0117C159.292 33.0117 159.212 33.0281 159.137 33.0598C159.063 33.0915 158.996 33.138 158.94 33.1964C158.884 33.2547 158.841 33.3238 158.812 33.3994Z" fill="#263238"/>
<path d="M158.717 38.5439L156.957 39.1421C156.991 39.2596 157.048 39.369 157.125 39.4639C157.202 39.5589 157.298 39.6373 157.406 39.6946C157.514 39.7518 157.632 39.7867 157.754 39.7972C157.876 39.8077 157.998 39.7936 158.115 39.7556C158.353 39.6713 158.549 39.4978 158.661 39.2716C158.773 39.0455 158.793 38.7845 158.717 38.5439Z" fill="#B16668"/>
<path d="M158.119 39.7464C158.269 39.6946 158.403 39.6059 158.51 39.4886C158.616 39.3713 158.691 39.2291 158.729 39.075C158.611 39.0192 158.482 38.9938 158.353 39.0013C158.223 39.0087 158.097 39.0487 157.987 39.1176C157.877 39.1864 157.786 39.2819 157.723 39.3952C157.66 39.5085 157.626 39.636 157.625 39.7657C157.788 39.8075 157.96 39.8008 158.119 39.7464Z" fill="#F28F8F"/>
<path d="M153.608 33.851L154.727 33.4227C154.701 33.3482 154.659 33.28 154.605 33.2221C154.552 33.1642 154.487 33.1179 154.414 33.0861C154.342 33.0543 154.264 33.0376 154.185 33.0371C154.106 33.0366 154.028 33.0523 153.955 33.0831C153.81 33.1426 153.693 33.2552 153.629 33.398C153.564 33.5408 153.557 33.7029 153.608 33.851Z" fill="#263238"/>
<path d="M154.002 35.6301C154.003 35.7361 154.035 35.8395 154.094 35.9275C154.153 36.0155 154.237 36.0841 154.335 36.1248C154.433 36.1655 154.54 36.1765 154.644 36.1565C154.748 36.1364 154.844 36.0862 154.92 36.012C154.996 35.9378 155.048 35.843 155.07 35.7393C155.093 35.6357 155.084 35.5278 155.045 35.429C155.007 35.3303 154.94 35.2451 154.853 35.1841C154.766 35.1231 154.664 35.089 154.558 35.086C154.412 35.0849 154.272 35.1415 154.168 35.2435C154.064 35.3454 154.004 35.4844 154.002 35.6301Z" fill="#263238"/>
<path d="M156.625 35.4636L156.544 38.4272L154.893 37.9487L156.436 35.4405C156.5 35.4344 156.565 35.4423 156.625 35.4636Z" fill="#F28F8F"/>
<path d="M151.689 51.8714C151.816 48.8036 152.075 46.0831 153.201 44.6514C154.328 43.2198 154.957 42.9381 157.666 42.9805V43.1658C157.512 43.1753 157.362 43.2204 157.228 43.2973C157.095 43.3743 156.98 43.4812 156.894 43.6095C155.957 45.0321 155.254 46.5954 154.811 48.2402C154.039 51.2231 153.888 57.8874 153.846 61.4723C153.803 65.0572 153.846 67.9513 153.846 67.9513C153.846 67.9513 152.032 67.5269 151.473 66.62C151.473 66.62 151.558 54.943 151.689 51.8714Z" fill="#8AAFFD"/>
<path opacity="0.35" d="M151.689 51.8714C151.816 48.8036 152.075 46.0831 153.201 44.6514C154.328 43.2198 154.957 42.9381 157.666 42.9805V43.1658C157.512 43.1753 157.362 43.2204 157.228 43.2973C157.095 43.3743 156.98 43.4812 156.894 43.6095C155.957 45.0321 155.254 46.5954 154.811 48.2402C154.039 51.2231 153.888 57.8874 153.846 61.4723C153.803 65.0572 153.846 67.9513 153.846 67.9513C153.846 67.9513 152.032 67.5269 151.473 66.62C151.473 66.62 151.558 54.943 151.689 51.8714Z" fill="black"/>
<path d="M161.054 46.9858C161.44 45.3496 162.239 44.2845 162.598 43.4395L165.986 43.918C167.232 44.4929 168.853 45.8474 168.733 47.2366L167.846 57.2928L168.093 66.8165C166.163 69.8226 160.375 69.2669 160.375 69.2669C160.375 69.2669 160.209 64.9836 160.394 56.7101C160.51 52.0718 160.564 49.0696 161.054 46.9858Z" fill="#8AAFFD"/>
<path opacity="0.35" d="M161.054 46.9858C161.44 45.3496 162.239 44.2845 162.598 43.4395L165.986 43.918C167.232 44.4929 168.853 45.8474 168.733 47.2366L167.846 57.2928L168.093 66.8165C166.163 69.8226 160.375 69.2669 160.375 69.2669C160.375 69.2669 160.209 64.9836 160.394 56.7101C160.51 52.0718 160.564 49.0696 161.054 46.9858Z" fill="black"/>
<path d="M160.896 47.7926C161.12 46.743 161.24 44.7904 161.425 44.3968C161.61 44.0032 162.618 43.2391 162.656 42.695V42.3516C162.975 42.4132 163.269 42.5644 163.505 42.7876C163.821 43.0693 164.755 43.7215 164.755 43.7215C164.663 44.3693 164.423 44.9872 164.053 45.5274C163.497 46.3262 162.726 46.8472 162.606 46.6504C162.486 46.4535 162.506 46.1526 162.301 45.6895C162.046 45.1068 161.985 44.8598 161.715 45.4348C161.514 45.894 160.896 47.7926 160.896 47.7926Z" fill="#37474F"/>
<path d="M155.119 47.2174C154.845 48.1049 155.567 44.1534 156.037 43.4588C156.508 42.7642 157.704 42.4902 157.704 42.4902L157.654 43.343C157.339 43.4177 157.064 43.6077 156.882 43.8756C156.151 44.9076 155.558 46.0311 155.119 47.2174Z" fill="#37474F"/>
<path d="M160.773 48.6221C163.365 48.8872 165.941 49.2904 168.491 49.8299L168.464 50.1155C165.908 49.5729 163.325 49.1684 160.727 48.9038C160.754 48.8189 160.761 48.7224 160.773 48.6221Z" fill="#8AAFFD"/>
<path d="M151.929 48.5684C152.774 48.468 153.735 48.3793 154.789 48.3291L154.719 48.6185C153.677 48.6687 152.728 48.7574 151.898 48.8578C151.906 48.7613 151.918 48.661 151.929 48.5684Z" fill="#8AAFFD"/>
<path d="M175.055 57.475C171.435 48.2832 170.644 45.4238 168.089 44.3549C167.416 44.0962 166.707 43.9451 165.986 43.9072C165.357 45.0649 164.443 49.5103 167.46 52.6051C167.46 52.6051 169.652 58.0076 170.756 60.5622C170.721 63.1322 170.906 65.2738 170.123 68.7468C169.964 69.2161 169.658 69.6219 169.251 69.9045C168.333 70.41 168.178 70.9811 167.499 71.6333C166.97 72.1426 166.507 72.2623 166.585 72.4321C166.704 72.6198 166.883 72.7621 167.093 72.8363C167.303 72.9104 167.531 72.9121 167.742 72.8411C168.239 72.6378 168.716 72.3884 169.166 72.0963C169.255 72.2005 168.394 73.5704 167.503 74.5699C166.179 76.0401 165.859 77.1013 168.502 77.2055C170.158 77.2711 171.945 75.9128 173.067 72.6134C173.287 71.9613 173.519 71.0197 173.754 70.1013C173.924 69.7154 175.136 63.5181 175.39 61.6118C175.73 59.2578 175.645 58.9684 175.055 57.475Z" fill="#FFA8A7"/>
<path d="M165.536 43.9187C166.637 43.7617 167.76 43.959 168.742 44.4821C170.174 45.3464 170.672 46.1028 172.397 50.1237C174.122 54.1447 174.461 54.9203 174.461 54.9203C174.461 54.9203 173.689 57.2125 169.082 57.4749L167.017 52.7671C167.017 52.7671 165.304 50.6331 165.146 47.9975C164.988 45.3619 165.536 43.9187 165.536 43.9187Z" fill="#8AAFFD"/>
<path opacity="0.45" d="M165.536 43.9187C166.637 43.7617 167.76 43.959 168.742 44.4821C170.174 45.3464 170.672 46.1028 172.397 50.1237C174.122 54.1447 174.461 54.9203 174.461 54.9203C174.461 54.9203 173.689 57.2125 169.082 57.4749L167.017 52.7671C167.017 52.7671 165.304 50.6331 165.146 47.9975C164.988 45.3619 165.536 43.9187 165.536 43.9187Z" fill="black"/>
</svg>
