<svg width="344" height="308" viewBox="0 0 344 308" fill="none" xmlns="http://www.w3.org/2000/svg">
<path d="M140.989 42.1839L140.989 265.817C140.989 268.391 143.318 270.477 146.194 270.477L198.231 270.477C201.106 270.477 203.435 268.391 203.435 265.817L203.435 42.1839C203.435 39.609 201.106 37.5239 198.231 37.5239L146.19 37.5239C143.318 37.5239 140.989 39.609 140.989 42.1839Z" fill="#D4D4EA"/>
<path d="M61.3984 134.716L61.2161 134.716L61.2161 265.817C61.2161 268.391 63.5449 270.477 66.4208 270.477L118.458 270.477C121.333 270.477 123.662 268.391 123.662 265.817L123.662 134.716L123.48 134.716C123.195 133.718 122.547 132.833 121.638 132.2C120.73 131.567 119.612 131.222 118.461 131.22L66.4173 131.22C63.9956 131.22 61.9797 132.708 61.3984 134.716Z" fill="#D4D4EA"/>
<path d="M220.342 105.081L220.342 265.817C220.342 268.391 222.671 270.477 225.547 270.477L277.584 270.477C280.46 270.477 282.789 268.391 282.789 265.817L282.789 105.081C282.789 102.506 280.46 100.421 277.584 100.421L225.547 100.421C222.671 100.421 220.342 102.506 220.342 105.081Z" fill="#D4D4EA"/>
</svg>
