<svg width="306" height="306" viewBox="0 0 306 306" fill="none" xmlns="http://www.w3.org/2000/svg">
<path d="M102.004 137.181H94.6091C84.5175 136.816 74.4586 138.529 65.0567 142.214C55.6548 145.899 47.1105 151.476 39.9541 158.601L37.9141 160.981V231.361H72.5941V191.411L77.2691 186.141L79.3941 183.676C90.4604 172.307 104.238 163.941 119.429 159.366C111.823 153.579 105.825 145.941 102.004 137.181Z" fill="#D4D4EA"/>
<path d="M266.392 158.362C259.235 151.238 250.691 145.66 241.289 141.976C231.887 138.291 221.828 136.578 211.737 136.942C208.642 136.951 205.549 137.121 202.472 137.452C198.58 145.671 192.745 152.819 185.472 158.277C201.69 162.764 216.381 171.579 227.972 183.777L230.097 186.157L234.687 191.427V231.462H268.177V160.742L266.392 158.362Z" fill="#D4D4EA"/>
<path d="M94.3497 120.62H96.9847C95.7603 110.107 97.6049 99.4654 102.296 89.9782C106.987 80.491 114.323 72.5643 123.42 67.1549C120.122 62.1174 115.573 58.0226 110.218 55.2715C104.862 52.5204 98.8839 51.2073 92.8684 51.4608C86.853 51.7143 81.0065 53.5257 75.9014 56.7176C70.7964 59.9095 66.6078 64.3726 63.7459 69.6697C60.8839 74.9667 59.4467 80.9163 59.575 86.9357C59.7033 92.9551 61.3927 98.8381 64.4777 104.008C67.5628 109.179 71.9377 113.459 77.1741 116.431C82.4105 119.402 88.3289 120.963 94.3497 120.96V120.62Z" fill="#D4D4EA"/>
<path d="M207.65 114.232C207.753 116.186 207.753 118.144 207.65 120.097C209.281 120.356 210.929 120.498 212.58 120.522H214.195C220.189 120.203 225.999 118.336 231.058 115.105C236.117 111.874 240.253 107.388 243.063 102.084C245.874 96.7793 247.263 90.8377 247.095 84.8372C246.928 78.8367 245.21 72.9818 242.108 67.8425C239.006 62.7032 234.626 58.4546 229.395 55.5104C224.164 52.5662 218.259 51.0268 212.256 51.0419C206.254 51.057 200.357 52.6261 195.141 55.5966C189.924 58.5671 185.566 62.8376 182.49 67.9924C190.183 73.0154 196.509 79.8695 200.9 87.94C205.292 96.0104 207.611 105.045 207.65 114.232Z" fill="#D4D4EA"/>
<path d="M151.89 152.322C172.874 152.322 189.885 135.311 189.885 114.327C189.885 93.343 172.874 76.332 151.89 76.332C130.905 76.332 113.895 93.343 113.895 114.327C113.895 135.311 130.905 152.322 151.89 152.322Z" fill="#D4D4EA"/>
<path d="M153.937 172.558C142.837 172.11 131.76 173.912 121.374 177.856C110.988 181.8 101.507 187.804 93.5024 195.508L91.3774 197.888V251.693C91.4106 253.445 91.7887 255.174 92.4902 256.781C93.1917 258.387 94.2028 259.84 95.4657 261.055C96.7287 262.271 98.2187 263.226 99.8508 263.865C101.483 264.505 103.225 264.817 104.977 264.783H202.642C204.395 264.817 206.137 264.505 207.769 263.865C209.401 263.226 210.891 262.271 212.154 261.055C213.417 259.84 214.428 258.387 215.13 256.781C215.831 255.174 216.209 253.445 216.242 251.693V198.058L214.202 195.508C206.249 187.781 196.801 181.759 186.439 177.813C176.076 173.867 165.016 172.078 153.937 172.558Z" fill="#D4D4EA"/>
</svg>
