<svg width="126" height="176" viewBox="0 0 126 176" fill="none" xmlns="http://www.w3.org/2000/svg">
<path d="M113 175.5H13C9.68581 175.497 6.50831 174.179 4.16482 171.835C1.82133 169.492 0.503309 166.314 0.5 163V13C0.503309 9.68581 1.82133 6.50831 4.16482 4.16482C6.50831 1.82133 9.68581 0.503309 13 0.5H113C116.314 0.503309 119.492 1.82133 121.835 4.16482C124.179 6.50831 125.497 9.68581 125.5 13V116.863L94.25 101.238L63 116.863V13H13V163H113V138H125.5V163C125.495 166.314 124.176 169.49 121.833 171.833C119.49 174.176 116.314 175.495 113 175.5ZM94.25 87.2625L113 96.6375V13H75.5V96.6375L94.25 87.2625Z" fill="#D4D4EA"/>
</svg>
