<svg width="38" height="42" viewBox="0 0 38 42" fill="none" xmlns="http://www.w3.org/2000/svg">
<path d="M33.5833 4.25065H24.875C24 1.83398 21.7083 0.0839844 19 0.0839844C16.2917 0.0839844 14 1.83398 13.125 4.25065H4.41667C2.125 4.25065 0.25 6.12565 0.25 8.41732V37.584C0.25 39.8756 2.125 41.7506 4.41667 41.7506H33.5833C35.875 41.7506 37.75 39.8756 37.75 37.584V8.41732C37.75 6.12565 35.875 4.25065 33.5833 4.25065ZM19 4.25065C20.1458 4.25065 21.0833 5.18815 21.0833 6.33398C21.0833 7.47982 20.1458 8.41732 19 8.41732C17.8542 8.41732 16.9167 7.47982 16.9167 6.33398C16.9167 5.18815 17.8542 4.25065 19 4.25065ZM23.1667 33.4173H8.58333V29.2507H23.1667V33.4173ZM29.4167 25.084H8.58333V20.9173H29.4167V25.084ZM29.4167 16.7507H8.58333V12.584H29.4167V16.7507Z" fill="black"/>
</svg>
