<svg width="34" height="34" viewBox="0 0 34 34" fill="none" xmlns="http://www.w3.org/2000/svg">
<path d="M32.8129 13.736C32.3351 13.1625 31.7373 12.7009 31.0617 12.3836C30.386 12.0664 29.649 11.9013 28.9025 11.9001H21.1498L22.1019 9.46906C22.4979 8.40466 22.6298 7.26009 22.4863 6.13353C22.3427 5.00697 21.928 3.93204 21.2777 3.00096C20.6274 2.06988 19.7609 1.31043 18.7525 0.787757C17.7442 0.265088 16.6241 -0.00520102 15.4883 7.58049e-05C15.1613 0.000758119 14.8414 0.0957435 14.567 0.273644C14.2926 0.451544 14.0753 0.704809 13.9412 1.00307L9.09579 11.9001H5.10044C3.74772 11.9001 2.4504 12.4374 1.49389 13.3938C0.537367 14.3502 0 15.6474 0 17V28.9C0 30.2526 0.537367 31.5498 1.49389 32.5062C2.4504 33.4627 3.74772 34 5.10044 34H26.7433C27.9365 33.9996 29.0918 33.5809 30.0082 32.8168C30.9245 32.0527 31.544 30.9916 31.7588 29.818L33.9179 17.918C34.0515 17.1826 34.0217 16.4268 33.8308 15.7041C33.6398 14.9814 33.2923 14.3095 32.8129 13.736ZM8.50074 30.6H5.10044C4.64954 30.6 4.2171 30.4209 3.89826 30.1021C3.57942 29.7833 3.4003 29.3509 3.4003 28.9V17C3.4003 16.5492 3.57942 16.1168 3.89826 15.798C4.2171 15.4791 4.64954 15.3 5.10044 15.3H8.50074V30.6ZM30.6027 17.306L28.4435 29.206C28.3711 29.602 28.1604 29.9595 27.8491 30.2148C27.5377 30.4701 27.1459 30.6066 26.7433 30.6H11.901V13.957L16.5254 3.55307C17.0015 3.69183 17.4435 3.92776 17.8238 4.24596C18.204 4.56416 18.5141 4.95772 18.7346 5.4018C18.9551 5.84588 19.0811 6.33085 19.1047 6.82607C19.1282 7.3213 19.0489 7.81604 18.8716 8.27906L17.9706 10.7101C17.7786 11.2239 17.7137 11.7765 17.7816 12.3209C17.8495 12.8652 18.0481 13.385 18.3605 13.8359C18.6728 14.2868 19.0896 14.6555 19.5753 14.9105C20.0611 15.1654 20.6013 15.2991 21.1498 15.3H28.9025C29.1523 15.2996 29.3991 15.3543 29.6253 15.46C29.8516 15.5658 30.0518 15.7201 30.2116 15.912C30.3754 16.1013 30.4954 16.3244 30.563 16.5653C30.6306 16.8063 30.6441 17.0592 30.6027 17.306Z" fill="#8D79F6"/>
</svg>
