<svg width="383" height="383" viewBox="0 0 383 383" fill="none" xmlns="http://www.w3.org/2000/svg">
<g opacity="0.7">
<path d="M191.408 327.351C273.393 327.351 339.855 323.47 339.855 318.684C339.855 313.897 273.393 310.017 191.408 310.017C109.423 310.017 42.9609 313.897 42.9609 318.684C42.9609 323.47 109.423 327.351 191.408 327.351Z" fill="#F5F5F5"/>
<path d="M321.412 111.644H246.304C242.342 111.644 239.13 114.856 239.13 118.818V139.244C239.13 143.207 242.342 146.418 246.304 146.418H321.412C325.374 146.418 328.586 143.207 328.586 139.244V118.818C328.586 114.856 325.374 111.644 321.412 111.644Z" fill="#8AAFFD"/>
<path d="M306.509 117.508H247.84C247.146 117.508 246.584 118.071 246.584 118.764V120.142C246.584 120.836 247.146 121.398 247.84 121.398H306.509C307.203 121.398 307.765 120.836 307.765 120.142V118.764C307.765 118.071 307.203 117.508 306.509 117.508Z" fill="#8AAFFD"/>
<path d="M287.928 126.88H247.84C247.146 126.88 246.584 127.442 246.584 128.135V129.514C246.584 130.207 247.146 130.769 247.84 130.769H287.928C288.621 130.769 289.183 130.207 289.183 129.514V128.135C289.183 127.442 288.621 126.88 287.928 126.88Z" fill="#8AAFFD"/>
<path d="M277.178 136.251H247.84C247.146 136.251 246.584 136.813 246.584 137.506V138.885C246.584 139.578 247.146 140.14 247.84 140.14H277.178C277.872 140.14 278.434 139.578 278.434 138.885V137.506C278.434 136.813 277.872 136.251 277.178 136.251Z" fill="#8AAFFD"/>
<path d="M313.538 136.251H284.199C283.506 136.251 282.943 136.813 282.943 137.506V138.885C282.943 139.578 283.506 140.14 284.199 140.14H313.538C314.231 140.14 314.793 139.578 314.793 138.885V137.506C314.793 136.813 314.231 136.251 313.538 136.251Z" fill="#8AAFFD"/>
<g opacity="0.5">
<path opacity="0.5" d="M306.507 117.508H247.838C247.144 117.508 246.582 118.071 246.582 118.764V120.142C246.582 120.836 247.144 121.398 247.838 121.398H306.507C307.201 121.398 307.763 120.836 307.763 120.142V118.764C307.763 118.071 307.201 117.508 306.507 117.508Z" fill="white"/>
<path opacity="0.5" d="M287.927 126.879H247.839C247.145 126.879 246.583 127.442 246.583 128.135V129.513C246.583 130.207 247.145 130.769 247.839 130.769H287.927C288.62 130.769 289.182 130.207 289.182 129.513V128.135C289.182 127.442 288.62 126.879 287.927 126.879Z" fill="white"/>
<path opacity="0.5" d="M277.177 136.251H247.839C247.145 136.251 246.583 136.813 246.583 137.506V138.884C246.583 139.578 247.145 140.14 247.839 140.14H277.177C277.871 140.14 278.433 139.578 278.433 138.884V137.506C278.433 136.813 277.871 136.251 277.177 136.251Z" fill="white"/>
<path opacity="0.5" d="M313.539 136.251H284.2C283.507 136.251 282.944 136.813 282.944 137.506V138.884C282.944 139.578 283.507 140.14 284.2 140.14H313.539C314.232 140.14 314.794 139.578 314.794 138.884V137.506C314.794 136.813 314.232 136.251 313.539 136.251Z" fill="white"/>
</g>
<path d="M261.248 103.536H175.995C170.185 103.536 165.476 108.246 165.476 114.055V144.007C165.476 149.817 170.185 154.526 175.995 154.526H261.248C267.057 154.526 271.767 149.817 271.767 144.007V114.055C271.767 108.246 267.057 103.536 261.248 103.536Z" fill="#8AAFFD"/>
<path d="M264.265 112.134H178.254C177.235 112.134 176.409 112.96 176.409 113.979V115.993C176.409 117.012 177.235 117.838 178.254 117.838H264.265C265.284 117.838 266.11 117.012 266.11 115.993V113.979C266.11 112.96 265.284 112.134 264.265 112.134Z" fill="#8AAFFD"/>
<path d="M237.016 125.877H178.254C177.235 125.877 176.409 126.703 176.409 127.722V129.735C176.409 130.754 177.235 131.581 178.254 131.581H237.016C238.035 131.581 238.861 130.754 238.861 129.735V127.722C238.861 126.703 238.035 125.877 237.016 125.877Z" fill="#8AAFFD"/>
<path d="M221.259 139.62H178.254C177.235 139.62 176.409 140.446 176.409 141.465V143.478C176.409 144.497 177.235 145.323 178.254 145.323H221.259C222.279 145.323 223.105 144.497 223.105 143.478V141.465C223.105 140.446 222.279 139.62 221.259 139.62Z" fill="#8AAFFD"/>
<path d="M267.395 139.62H231.564C230.545 139.62 229.719 140.446 229.719 141.465V143.478C229.719 144.497 230.545 145.323 231.564 145.323H267.395C268.414 145.323 269.24 144.497 269.24 143.478V141.465C269.24 140.446 268.414 139.62 267.395 139.62Z" fill="#8AAFFD"/>
<g opacity="0.5">
<path opacity="0.5" d="M264.263 112.134H178.252C177.233 112.134 176.407 112.96 176.407 113.979V115.992C176.407 117.011 177.233 117.838 178.252 117.838H264.263C265.282 117.838 266.108 117.011 266.108 115.992V113.979C266.108 112.96 265.282 112.134 264.263 112.134Z" fill="white"/>
<path opacity="0.5" d="M237.014 125.876H178.252C177.233 125.876 176.407 126.702 176.407 127.721V129.735C176.407 130.754 177.233 131.58 178.252 131.58H237.014C238.033 131.58 238.859 130.754 238.859 129.735V127.721C238.859 126.702 238.033 125.876 237.014 125.876Z" fill="white"/>
<path opacity="0.5" d="M221.258 139.619H178.252C177.233 139.619 176.407 140.446 176.407 141.465V143.478C176.407 144.497 177.233 145.323 178.252 145.323H221.258C222.277 145.323 223.103 144.497 223.103 143.478V141.465C223.103 140.446 222.277 139.619 221.258 139.619Z" fill="white"/>
<path opacity="0.5" d="M267.395 139.619H231.564C230.545 139.619 229.719 140.446 229.719 141.465V143.478C229.719 144.497 230.545 145.323 231.564 145.323H267.395C268.414 145.323 269.24 144.497 269.24 143.478V141.465C269.24 140.446 268.414 139.619 267.395 139.619Z" fill="white"/>
</g>
<path d="M208.24 163.767H167.18C164.465 163.767 162.265 165.968 162.265 168.683V230.193C162.265 232.908 164.465 235.108 167.18 235.108H208.24C210.955 235.108 213.156 232.908 213.156 230.193V168.683C213.156 165.968 210.955 163.767 208.24 163.767Z" fill="#8AAFFD"/>
<path opacity="0.4" d="M208.24 163.767H167.18C164.465 163.767 162.265 165.968 162.265 168.683V230.193C162.265 232.908 164.465 235.108 167.18 235.108H208.24C210.955 235.108 213.156 232.908 213.156 230.193V168.683C213.156 165.968 210.955 163.767 208.24 163.767Z" fill="black"/>
<path d="M206.36 171.209H169.059C168.56 171.209 168.155 171.614 168.155 172.113V173.468C168.155 173.967 168.56 174.371 169.059 174.371H206.36C206.859 174.371 207.263 173.967 207.263 173.468V172.113C207.263 171.614 206.859 171.209 206.36 171.209Z" fill="#FAFAFA"/>
<path d="M194.485 178.82H169.059C168.56 178.82 168.155 179.224 168.155 179.723V181.078C168.155 181.577 168.56 181.982 169.059 181.982H194.485C194.984 181.982 195.389 181.577 195.389 181.078V179.723C195.389 179.224 194.984 178.82 194.485 178.82Z" fill="#FAFAFA"/>
<path d="M206.36 186.438H169.059C168.56 186.438 168.155 186.842 168.155 187.341V188.696C168.155 189.195 168.56 189.6 169.059 189.6H206.36C206.859 189.6 207.263 189.195 207.263 188.696V187.341C207.263 186.842 206.859 186.438 206.36 186.438Z" fill="#FAFAFA"/>
<path d="M182.924 194.048H169.059C168.56 194.048 168.155 194.453 168.155 194.952V196.307C168.155 196.806 168.56 197.21 169.059 197.21H182.924C183.423 197.21 183.828 196.806 183.828 196.307V194.952C183.828 194.453 183.423 194.048 182.924 194.048Z" fill="#FAFAFA"/>
<path d="M202.325 194.048H188.459C187.96 194.048 187.556 194.453 187.556 194.952V196.307C187.556 196.806 187.96 197.21 188.459 197.21H202.325C202.824 197.21 203.228 196.806 203.228 196.307V194.952C203.228 194.453 202.824 194.048 202.325 194.048Z" fill="#FAFAFA"/>
<path d="M206.36 201.666H169.059C168.56 201.666 168.155 202.07 168.155 202.569V203.924C168.155 204.423 168.56 204.828 169.059 204.828H206.36C206.859 204.828 207.263 204.423 207.263 203.924V202.569C207.263 202.07 206.859 201.666 206.36 201.666Z" fill="#FAFAFA"/>
<path d="M206.36 209.276H169.059C168.56 209.276 168.155 209.681 168.155 210.18V211.535C168.155 212.034 168.56 212.438 169.059 212.438H206.36C206.859 212.438 207.263 212.034 207.263 211.535V210.18C207.263 209.681 206.859 209.276 206.36 209.276Z" fill="#FAFAFA"/>
<path d="M199.745 216.894H169.059C168.56 216.894 168.155 217.299 168.155 217.798V219.153C168.155 219.652 168.56 220.056 169.059 220.056H199.745C200.244 220.056 200.648 219.652 200.648 219.153V217.798C200.648 217.299 200.244 216.894 199.745 216.894Z" fill="#FAFAFA"/>
<path d="M183.376 224.505H169.059C168.56 224.505 168.155 224.909 168.155 225.408V226.763C168.155 227.262 168.56 227.667 169.059 227.667H183.376C183.875 227.667 184.279 227.262 184.279 226.763V225.408C184.279 224.909 183.875 224.505 183.376 224.505Z" fill="#FAFAFA"/>
<path d="M219.35 163.331H162.396L187.577 183.368L226.187 197.914V170.153C226.183 168.342 225.461 166.607 224.179 165.328C222.898 164.049 221.161 163.331 219.35 163.331Z" fill="#8AAFFD"/>
<path opacity="0.4" d="M219.35 163.331H162.396L187.577 183.368L226.187 197.914V170.153C226.183 168.342 225.461 166.607 224.179 165.328C222.898 164.049 221.161 163.331 219.35 163.331Z" fill="black"/>
<path d="M216.864 173.652H175.191C174.565 173.652 174.058 174.159 174.058 174.785V176.898C174.058 177.524 174.565 178.031 175.191 178.031H216.864C217.49 178.031 217.997 177.524 217.997 176.898V174.785C217.997 174.159 217.49 173.652 216.864 173.652Z" fill="#FAFAFA"/>
<path d="M317.85 217.568V177.51C317.85 174.44 315.361 171.952 312.291 171.952H242.734C239.664 171.952 237.176 174.44 237.176 177.51V217.568C237.176 220.638 239.664 223.126 242.734 223.126H312.291C315.361 223.126 317.85 220.638 317.85 217.568Z" fill="#8AAFFD"/>
<path d="M330.55 204.874V164.816C330.55 161.746 328.061 159.258 324.991 159.258H255.434C252.364 159.258 249.876 161.746 249.876 164.816V204.874C249.876 207.944 252.364 210.432 255.434 210.432H324.991C328.061 210.432 330.55 207.944 330.55 204.874Z" fill="#8AAFFD"/>
<path opacity="0.5" d="M330.55 204.874V164.816C330.55 161.746 328.061 159.258 324.991 159.258H255.434C252.364 159.258 249.876 161.746 249.876 164.816V204.874C249.876 207.944 252.364 210.432 255.434 210.432H324.991C328.061 210.432 330.55 207.944 330.55 204.874Z" fill="white"/>
<path d="M323.492 191.146V166.485C323.492 165.12 322.385 164.013 321.019 164.013H298.288C296.922 164.013 295.815 165.12 295.815 166.485V191.146C295.815 192.512 296.922 193.619 298.288 193.619H321.019C322.385 193.619 323.492 192.512 323.492 191.146Z" fill="#8AAFFD"/>
<path opacity="0.7" d="M323.492 191.146V166.485C323.492 165.12 322.385 164.013 321.019 164.013H298.288C296.922 164.013 295.815 165.12 295.815 166.485V191.146C295.815 192.512 296.922 193.619 298.288 193.619H321.019C322.385 193.619 323.492 192.512 323.492 191.146Z" fill="white"/>
<path d="M291.48 203.075V184.179C291.48 183.13 290.63 182.28 289.582 182.28H272.164C271.115 182.28 270.265 183.13 270.265 184.179V203.075C270.265 204.123 271.115 204.973 272.164 204.973H289.582C290.63 204.973 291.48 204.123 291.48 203.075Z" fill="#8AAFFD"/>
<path opacity="0.3" d="M291.48 203.075V184.179C291.48 183.13 290.63 182.28 289.582 182.28H272.164C271.115 182.28 270.265 183.13 270.265 184.179V203.075C270.265 204.123 271.115 204.973 272.164 204.973H289.582C290.63 204.973 291.48 204.123 291.48 203.075Z" fill="white"/>
<path d="M280.871 83.2695V73.0637C280.871 69.9431 278.341 67.4134 275.221 67.4134L88.3088 67.4134C85.1882 67.4134 82.6584 69.9431 82.6584 73.0637V83.2695C82.6584 86.39 85.1882 88.9198 88.3088 88.9198L275.221 88.9198C278.341 88.9198 280.871 86.39 280.871 83.2695Z" fill="#8AAFFD"/>
<path opacity="0.5" d="M280.871 83.2695V73.0637C280.871 69.9431 278.341 67.4134 275.221 67.4134L88.3088 67.4134C85.1882 67.4134 82.6584 69.9431 82.6584 73.0637V83.2695C82.6584 86.39 85.1882 88.9198 88.3088 88.9198L275.221 88.9198C278.341 88.9198 280.871 86.39 280.871 83.2695Z" fill="white"/>
<path d="M245.507 92.5183V85.1147H191.722V92.5183H245.507Z" fill="#8AAFFD"/>
<path opacity="0.5" d="M245.507 92.5183V85.1147H191.722V92.5183H245.507Z" fill="white"/>
<path d="M300.156 51.4962V41.2905C300.156 38.1699 297.627 35.6401 294.506 35.6401L107.594 35.6401C104.473 35.6401 101.944 38.1699 101.944 41.2905V51.4962C101.944 54.6168 104.473 57.1466 107.594 57.1466L294.506 57.1466C297.627 57.1466 300.156 54.6168 300.156 51.4962Z" fill="#8AAFFD"/>
<path d="M99.8071 148.73C99.1334 150.262 98.3907 151.915 97.74 153.531C97.0892 155.146 96.4154 156.808 95.8259 158.461C94.6163 161.685 93.6464 164.994 92.9242 168.361L92.7021 169.586L92.6256 170.045C92.6256 170.176 92.6256 170.344 92.5796 170.497C92.5505 171.243 92.5659 171.989 92.6256 172.733C92.7711 174.348 93.0314 176.078 93.3912 177.809C94.0343 181.277 94.8536 184.853 95.6881 188.374L91.7604 189.906C89.9295 186.568 88.3703 183.089 87.0978 179.501C86.4274 177.634 85.8851 175.723 85.4746 173.782C85.2447 172.708 85.1013 171.617 85.0459 170.52C85.0459 170.214 85.0459 169.923 85.0459 169.594C85.0459 169.264 85.0459 168.897 85.0995 168.683L85.2526 167.151C85.4814 165.179 85.8317 163.223 86.3015 161.294C86.7303 159.38 87.2815 157.52 87.8328 155.682C88.384 153.845 89.0731 152.038 89.8004 150.262C90.1603 149.373 90.5661 148.493 90.9182 147.613C91.2704 146.732 91.6839 145.89 92.1739 144.948L99.8071 148.73Z" fill="#E4897B"/>
<path d="M95.4817 187.341L98.4676 190.258L91.9522 193.32C91.9522 193.32 90.375 190.557 91.4698 188.061L95.4817 187.341Z" fill="#E4897B"/>
<path d="M100.879 194.599L95.3737 196.85L91.959 193.29L98.4668 190.258L100.879 194.599Z" fill="#E4897B"/>
<path opacity="0.4" d="M212.394 191.46C201.561 190.244 191.332 185.843 183 178.814C174.668 171.785 168.607 162.443 165.583 151.97C162.559 141.497 162.709 130.362 166.012 119.974C169.315 109.586 175.625 100.41 184.142 93.6069C192.66 86.8038 203.003 82.6788 213.865 81.7533C224.726 80.8278 235.618 83.1434 245.164 88.4073C254.71 93.6713 262.481 101.647 267.494 111.327C272.508 121.007 274.538 131.955 273.33 142.789C272.527 149.987 270.314 156.956 266.817 163.299C263.319 169.641 258.607 175.232 252.948 179.752C247.289 184.272 240.794 187.632 233.836 189.641C226.878 191.65 219.592 192.268 212.394 191.46Z" fill="#FAFAFA"/>
<path opacity="0.4" d="M252.495 93.2455L168.66 160.23C168.307 159.464 167.963 158.699 167.641 157.933C165.539 152.934 164.195 147.649 163.652 142.253L236.065 84.3949C242.01 86.378 247.569 89.3722 252.495 93.2455Z" fill="#FAFAFA"/>
<path opacity="0.4" d="M271.844 122.592L193.023 185.565C185.535 181.661 179.046 176.086 174.059 169.272L260.123 100.504C265.67 106.871 269.681 114.429 271.844 122.592Z" fill="#FAFAFA"/>
<path d="M156.486 115.609L155.759 115.364C157.018 111.647 158.602 108.048 160.49 104.607L161.156 104.975C159.293 108.377 157.73 111.935 156.486 115.609ZM165.781 97.7396L165.161 97.2879C171.453 88.7802 179.687 81.8999 189.178 77.2209L189.523 77.9099C180.14 82.5407 171.999 89.3474 165.781 97.7626V97.7396ZM249.686 78.9588C247.184 77.6169 244.595 76.4429 241.938 75.4446L242.213 74.7249C244.897 75.7466 247.511 76.9436 250.038 78.308L249.686 78.9588Z" fill="#8AAFFD"/>
<path opacity="0.3" d="M156.486 115.609L155.759 115.364C157.018 111.647 158.602 108.048 160.49 104.607L161.156 104.975C159.293 108.377 157.73 111.935 156.486 115.609ZM165.781 97.7396L165.161 97.2879C171.453 88.7802 179.687 81.8999 189.178 77.2209L189.523 77.9099C180.14 82.5407 171.999 89.3474 165.781 97.7626V97.7396ZM249.686 78.9588C247.184 77.6169 244.595 76.4429 241.938 75.4446L242.213 74.7249C244.897 75.7466 247.511 76.9436 250.038 78.308L249.686 78.9588Z" fill="black"/>
<path d="M275.525 108.52C268.436 93.8162 255.96 82.4046 240.684 76.6507C225.408 70.8969 208.504 71.242 193.476 77.6145C178.448 83.9871 166.448 95.8984 159.965 110.879C153.482 125.86 153.012 142.761 158.653 158.079C153.538 159.87 148.485 161.792 143.463 163.775C136.22 166.649 129.043 169.65 121.933 172.779C114.828 175.925 107.754 179.133 100.748 182.487C97.2341 184.133 93.7658 185.871 90.2669 187.555C88.4467 188.337 86.7976 189.469 85.4128 190.886C84.6635 191.67 84.0036 192.536 83.4452 193.466C82.7638 194.566 82.2479 195.761 81.9139 197.011C81.3378 199.264 81.587 201.649 82.6163 203.734C83.6456 205.819 85.3871 207.467 87.526 208.38C88.7137 208.878 89.9668 209.203 91.2469 209.345C92.3281 209.467 93.4196 209.467 94.5008 209.345C96.4656 209.106 98.3645 208.485 100.09 207.515C103.558 205.762 107.049 204.07 110.495 202.271C117.385 198.756 124.276 195.089 131.082 191.368C137.889 187.647 144.703 183.75 151.348 179.754C155.942 176.974 160.582 174.134 165.13 171.163C173.863 184.95 187.565 194.848 203.397 198.807C219.229 202.766 235.977 200.482 250.171 192.429C264.365 184.375 274.917 171.17 279.64 155.549C284.363 139.928 282.895 123.088 275.54 108.52H275.525ZM240.72 181.66C231.822 186.052 221.822 187.707 211.984 186.415C202.146 185.124 192.912 180.945 185.449 174.406C177.986 167.866 172.63 159.261 170.057 149.678C167.485 140.095 167.812 129.964 170.997 120.567C174.182 111.169 180.081 102.927 187.95 96.8827C195.819 90.8383 205.304 87.2628 215.205 86.6085C225.106 85.9542 234.978 88.2503 243.574 93.2067C252.17 98.163 259.103 105.557 263.497 114.453C266.415 120.362 268.141 126.787 268.575 133.362C269.01 139.937 268.145 146.534 266.03 152.775C263.915 159.016 260.591 164.779 256.248 169.735C251.905 174.691 246.629 178.743 240.72 181.66Z" fill="#8AAFFD"/>
<path opacity="0.3" d="M275.525 108.52C268.436 93.8162 255.96 82.4046 240.684 76.6507C225.408 70.8969 208.504 71.242 193.476 77.6145C178.448 83.9871 166.448 95.8984 159.965 110.879C153.482 125.86 153.012 142.761 158.653 158.079C153.538 159.87 148.485 161.792 143.463 163.775C136.22 166.649 129.043 169.65 121.933 172.779C114.828 175.925 107.754 179.133 100.748 182.487C97.2341 184.133 93.7658 185.871 90.2669 187.555C88.4467 188.337 86.7976 189.469 85.4128 190.886C84.6635 191.67 84.0036 192.536 83.4452 193.466C82.7638 194.566 82.2479 195.761 81.9139 197.011C81.3378 199.264 81.587 201.649 82.6163 203.734C83.6456 205.819 85.3871 207.467 87.526 208.38C88.7137 208.878 89.9668 209.203 91.2469 209.345C92.3281 209.467 93.4196 209.467 94.5008 209.345C96.4656 209.106 98.3645 208.485 100.09 207.515C103.558 205.762 107.049 204.07 110.495 202.271C117.385 198.756 124.276 195.089 131.082 191.368C137.889 187.647 144.703 183.75 151.348 179.754C155.942 176.974 160.582 174.134 165.13 171.163C173.863 184.95 187.565 194.848 203.397 198.807C219.229 202.766 235.977 200.482 250.171 192.429C264.365 184.375 274.917 171.17 279.64 155.549C284.363 139.928 282.895 123.088 275.54 108.52H275.525ZM240.72 181.66C231.822 186.052 221.822 187.707 211.984 186.415C202.146 185.124 192.912 180.945 185.449 174.406C177.986 167.866 172.63 159.261 170.057 149.678C167.485 140.095 167.812 129.964 170.997 120.567C174.182 111.169 180.081 102.927 187.95 96.8827C195.819 90.8383 205.304 87.2628 215.205 86.6085C225.106 85.9542 234.978 88.2503 243.574 93.2067C252.17 98.163 259.103 105.557 263.497 114.453C266.415 120.362 268.141 126.787 268.575 133.362C269.01 139.937 268.145 146.534 266.03 152.775C263.915 159.016 260.591 164.779 256.248 169.735C251.905 174.691 246.629 178.743 240.72 181.66Z" fill="black"/>
<path d="M120.969 121.39C120.969 121.842 121.206 122.209 121.505 122.209C121.803 122.209 122.041 121.842 122.041 121.39C122.041 120.938 121.803 120.571 121.505 120.571C121.206 120.571 120.969 120.969 120.969 121.39Z" fill="#263238"/>
<path d="M121.184 122.209C121.726 123.596 122.455 124.902 123.35 126.091C123.041 126.312 122.686 126.463 122.312 126.534C121.938 126.604 121.552 126.591 121.184 126.497V122.209Z" fill="#DE5753"/>
<path d="M119.384 118.871C119.342 118.871 119.299 118.861 119.261 118.843C119.223 118.824 119.189 118.797 119.162 118.764C119.122 118.705 119.106 118.634 119.118 118.564C119.129 118.494 119.167 118.431 119.224 118.389C119.561 118.133 119.955 117.962 120.372 117.892C120.789 117.821 121.217 117.852 121.62 117.983C121.656 117.993 121.69 118.01 121.719 118.034C121.748 118.057 121.772 118.087 121.789 118.12C121.805 118.154 121.815 118.19 121.817 118.228C121.819 118.265 121.813 118.303 121.8 118.337C121.786 118.372 121.765 118.404 121.739 118.431C121.713 118.457 121.681 118.478 121.646 118.491C121.611 118.505 121.573 118.511 121.536 118.509C121.499 118.507 121.462 118.497 121.429 118.48C121.109 118.382 120.77 118.362 120.441 118.422C120.112 118.482 119.802 118.62 119.537 118.825C119.492 118.855 119.439 118.871 119.384 118.871Z" fill="#263238"/>
<path d="M105.507 124.797C106.273 128.908 107.115 136.45 104.236 139.198C104.236 139.198 105.362 143.371 113.01 143.371C121.432 143.371 117.022 139.198 117.022 139.198C112.429 138.096 112.559 134.696 113.355 131.496L105.507 124.797Z" fill="#E4897B"/>
<path d="M100.794 141.365C101.705 139.949 100.174 136.511 100.174 136.511C100.174 136.511 113.71 133.104 119.246 138.333C120.394 139.413 119.123 141.005 119.123 141.005L100.794 141.365Z" fill="#8AAFFD"/>
<path opacity="0.1" d="M100.794 141.365C101.705 139.949 100.174 136.511 100.174 136.511C100.174 136.511 113.71 133.104 119.246 138.333C120.394 139.413 119.123 141.005 119.123 141.005L100.794 141.365Z" fill="black"/>
<path d="M78.4004 297.576C77.6884 297.576 76.5476 296.389 76.2107 295.945C76.1962 295.923 76.1885 295.898 76.1885 295.872C76.1885 295.846 76.1962 295.821 76.2107 295.799C76.2231 295.778 76.2409 295.76 76.2625 295.748C76.2841 295.736 76.3085 295.73 76.3332 295.73C76.4174 295.73 78.2932 295.899 78.8062 296.565C78.8619 296.635 78.9018 296.717 78.9229 296.804C78.9441 296.891 78.946 296.982 78.9287 297.07C78.922 297.184 78.8801 297.293 78.8088 297.382C78.7375 297.472 78.6403 297.536 78.5305 297.568L78.4004 297.576ZM76.6241 296.044C77.183 296.687 78.0788 297.415 78.4616 297.323C78.4616 297.323 78.6148 297.285 78.6607 297.04C78.6708 296.988 78.6691 296.936 78.6558 296.885C78.6426 296.835 78.6181 296.788 78.5841 296.749C78.017 296.319 77.3345 296.069 76.6241 296.029V296.044Z" fill="#8AAFFD"/>
<path d="M76.7059 296.029C76.5685 296.043 76.43 296.043 76.2925 296.029C76.2683 296.027 76.2452 296.018 76.2261 296.003C76.207 295.988 76.1928 295.968 76.1853 295.945C76.1746 295.923 76.1689 295.9 76.1689 295.876C76.1689 295.852 76.1746 295.828 76.1853 295.807C76.2389 295.761 77.3644 294.589 78.2142 294.589C78.3159 294.587 78.417 294.606 78.5107 294.646C78.6044 294.686 78.6886 294.745 78.7578 294.819C78.834 294.883 78.8862 294.971 78.9057 295.068C78.9252 295.166 78.9108 295.267 78.865 295.355C78.643 295.784 77.4716 296.029 76.7059 296.029ZM76.6064 295.761C77.372 295.761 78.4822 295.524 78.6659 295.187C78.6659 295.187 78.7195 295.087 78.597 294.965C78.5525 294.916 78.4979 294.878 78.437 294.853C78.3762 294.828 78.3106 294.816 78.2449 294.819C77.6172 294.963 77.0468 295.291 76.6064 295.761Z" fill="#8AAFFD"/>
<path d="M128.924 314.955C128.344 314.951 127.765 314.897 127.194 314.794C127.166 314.789 127.14 314.774 127.122 314.751C127.104 314.729 127.094 314.701 127.095 314.672C127.09 314.646 127.094 314.618 127.105 314.594C127.116 314.569 127.133 314.549 127.156 314.534C127.24 314.488 129.2 313.363 130.142 313.623C130.229 313.643 130.311 313.68 130.384 313.733C130.456 313.785 130.517 313.852 130.563 313.929C130.623 314.014 130.655 314.116 130.655 314.22C130.655 314.324 130.623 314.426 130.563 314.511C130.341 314.856 129.644 314.955 128.924 314.955ZM127.63 314.595C128.672 314.749 130.096 314.741 130.356 314.373C130.394 314.327 130.425 314.243 130.356 314.082C130.298 313.987 130.204 313.918 130.096 313.891C129.499 313.738 128.312 314.243 127.63 314.595Z" fill="#8AAFFD"/>
<path d="M127.226 314.802C127.201 314.809 127.174 314.809 127.149 314.802C127.128 314.789 127.112 314.769 127.102 314.745C127.092 314.722 127.09 314.697 127.096 314.672C127.148 313.875 127.454 313.116 127.969 312.505C128.073 312.415 128.195 312.349 128.327 312.311C128.459 312.272 128.598 312.263 128.734 312.283C129.102 312.283 129.209 312.505 129.232 312.651C129.331 313.286 127.992 314.503 127.31 314.81L127.226 314.802ZM128.596 312.505C128.428 312.504 128.265 312.564 128.137 312.674C127.704 313.157 127.436 313.766 127.371 314.412C128.06 313.991 128.979 313.041 128.903 312.658C128.903 312.658 128.903 312.528 128.642 312.505H128.596Z" fill="#8AAFFD"/>
<path d="M121.037 314.664H126.664L127.223 301.641H121.596L121.037 314.664Z" fill="#E4897B"/>
<path d="M70.9307 292.308L75.6316 295.386L86.0135 286.619L81.3049 283.534L70.9307 292.308Z" fill="#E4897B"/>
<path d="M76.4027 295.095L71.518 291.091C71.4317 291.02 71.3235 290.981 71.2118 290.981C71.1001 290.981 70.9918 291.02 70.9055 291.091L66.8783 294.253C66.781 294.33 66.7025 294.429 66.6485 294.541C66.5945 294.653 66.5664 294.775 66.5664 294.9C66.5664 295.024 66.5945 295.147 66.6485 295.259C66.7025 295.371 66.781 295.469 66.8783 295.547C68.6086 296.917 69.5197 297.499 71.6711 299.26C72.9957 300.339 76.2649 303.647 78.11 305.14C79.9552 306.633 81.6472 305.025 81.0347 304.252C78.2861 300.768 77.2066 297.79 76.8927 295.945C76.8385 295.611 76.6642 295.309 76.4027 295.095Z" fill="#263238"/>
<path d="M126.628 314.014H120.503C120.391 314.014 120.283 314.052 120.196 314.121C120.108 314.191 120.046 314.288 120.021 314.396L118.911 319.396C118.883 319.517 118.883 319.643 118.911 319.764C118.939 319.885 118.994 319.998 119.072 320.095C119.15 320.192 119.249 320.269 119.362 320.322C119.475 320.375 119.598 320.401 119.722 320.399C121.935 320.361 125.135 320.23 127.922 320.23C131.176 320.23 133.993 320.406 137.806 320.406C140.103 320.406 140.761 318.071 139.789 317.865C135.394 316.9 131.796 316.8 127.999 314.45C127.591 314.18 127.117 314.029 126.628 314.014Z" fill="#263238"/>
<path d="M93.1455 140.875C88.2685 143.172 85.4893 158.561 85.4893 158.561L97.41 163.316C99.155 159.055 100.565 154.665 101.629 150.185C103.267 143.095 98.1374 138.502 93.1455 140.875Z" fill="#263238"/>
<path d="M99.4706 149.55C96.523 152.536 95.1755 158.385 94.5859 162.19L97.4417 163.331C99.137 159.191 100.519 154.93 101.576 150.583C101.323 148.96 100.696 148.309 99.4706 149.55Z" fill="#203048"/>
<path d="M125.671 140.768C125.671 140.768 131.658 147.536 126.007 189.385H95.926C95.7193 184.791 98.621 162.244 94.165 140.485C97.4894 139.84 100.853 139.415 104.233 139.214C108.491 138.961 112.761 138.961 117.019 139.214C119.939 139.507 122.831 140.027 125.671 140.768Z" fill="#263238"/>
<path d="M128.422 157.014L123.353 148.279C122.375 152.354 121.975 156.548 122.167 160.735C122.304 163.737 125.053 174.853 127.526 176.477C128.182 170.011 128.481 163.513 128.422 157.014Z" fill="#203048"/>
<path d="M129.126 146.747C129.892 150.468 130.658 154.281 131.477 158.017C132.296 161.754 133.146 165.505 134.133 169.127C134.386 170.022 134.623 170.941 134.899 171.799L135.106 172.457L135.205 172.786V172.748C135.152 172.679 135.09 172.672 135.136 172.748C135.451 173.092 135.853 173.343 136.3 173.475C137.024 173.745 137.769 173.952 138.528 174.096C142.148 174.669 145.813 174.908 149.477 174.808L150.204 178.973C149.178 179.302 148.221 179.539 147.21 179.777C146.2 180.014 145.204 180.213 144.186 180.366C142.079 180.717 139.943 180.86 137.808 180.795C136.622 180.763 135.442 180.609 134.287 180.335C132.818 180.014 131.438 179.374 130.244 178.46C129.464 177.83 128.821 177.049 128.353 176.163C128.23 175.933 128.123 175.673 128.024 175.451L127.886 175.091L127.603 174.325C127.212 173.353 126.891 172.396 126.538 171.439C125.245 167.611 124.165 163.744 123.216 159.886C122.266 156.027 121.447 152.176 120.766 148.217L129.126 146.747Z" fill="#E4897B"/>
<path d="M118.16 144.872C116.575 150.009 122.998 165.329 122.998 165.329L135.792 162.114C135.792 162.114 135.302 154.151 132.385 147.835C127.99 138.31 120.058 138.708 118.16 144.872Z" fill="#263238"/>
<path d="M149.367 174.808L155.737 174.647L152.674 181.277C152.674 181.277 150.079 181.622 147.95 178.123L145.707 175.443L148.287 174.93C148.642 174.855 149.004 174.814 149.367 174.808Z" fill="#E4897B"/>
<path d="M159.755 175.88L156.111 181.377L152.673 181.277L155.735 174.647L159.755 175.88Z" fill="#E4897B"/>
<path d="M127.227 301.641L126.936 308.355H121.309L121.6 301.641H127.227Z" fill="#CE6F64"/>
<path d="M81.3019 283.534L86.0105 286.619L80.6511 291.137L75.9502 288.059L81.3019 283.534Z" fill="#CE6F64"/>
<path d="M105.855 120.418C106.192 125.984 106.108 129.268 108.918 132.124C113.144 136.434 120.027 133.885 121.359 128.296C122.561 123.289 121.811 115.02 116.36 112.8C115.157 112.314 113.851 112.142 112.563 112.3C111.276 112.458 110.049 112.94 108.999 113.701C107.949 114.463 107.11 115.479 106.56 116.653C106.01 117.828 105.768 119.123 105.855 120.418Z" fill="#E4897B"/>
<path d="M99.3015 119.437C100.687 124.514 103.949 130.363 108.167 130.738C113.404 131.197 115.77 125.784 116.459 120.195C119.598 118.044 117.952 115.678 121.099 115.38C125.141 114.997 123.847 107.601 118.526 106.414C118.526 106.414 120.31 109.745 116.566 108.06C113.006 106.368 109.05 105.682 105.128 106.077C105.128 106.077 109.905 108.466 105.235 109.53C100.565 110.594 99.1713 113.473 101.323 115.211C101.323 115.219 98.3904 116.099 99.3015 119.437Z" fill="#263238"/>
<path d="M113.268 121.344C113.371 122.727 113.929 124.038 114.853 125.072C116.078 126.428 117.357 125.585 117.571 123.939C117.77 122.462 117.365 119.973 115.864 119.223C114.363 118.473 113.169 119.675 113.268 121.344Z" fill="#E4897B"/>
<path d="M115.333 189.385C115.333 189.385 120.815 229.083 116.497 244.992C109.652 270.181 83.483 291.443 83.483 291.443L74.6094 285.624C74.6094 285.624 96.8967 267.67 99.6223 246.577C102.072 227.643 95.9244 204.743 95.9244 189.377L115.333 189.385Z" fill="#8AAFFD"/>
<path opacity="0.1" d="M115.333 189.385C115.333 189.385 120.815 229.083 116.497 244.992C109.652 270.181 83.483 291.443 83.483 291.443L74.6094 285.624C74.6094 285.624 96.8967 267.67 99.6223 246.577C102.072 227.643 95.9244 204.743 95.9244 189.377L115.333 189.385Z" fill="black"/>
<path d="M117.6 212.078C116.141 210.406 114.534 208.869 112.8 207.484C113.734 220.37 114.499 239.457 113.65 253.016C114.792 250.417 115.744 247.738 116.498 245C118.603 237.229 118.381 223.807 117.6 212.078Z" fill="#8AAFFD"/>
<path opacity="0.3" d="M117.6 212.078C116.141 210.406 114.534 208.869 112.8 207.484C113.734 220.37 114.499 239.457 113.65 253.016C114.792 250.417 115.744 247.738 116.498 245C118.603 237.229 118.381 223.807 117.6 212.078Z" fill="black"/>
<path d="M87.0592 289.46C87.0975 289.46 83.6215 291.757 83.6215 291.757L73.9287 285.402L76.9912 282.868L87.0592 289.46Z" fill="#8AAFFD"/>
<path opacity="0.3" d="M87.0592 289.46C87.0975 289.46 83.6215 291.757 83.6215 291.757L73.9287 285.402L76.9912 282.868L87.0592 289.46Z" fill="black"/>
<path d="M126.007 189.385C126.007 189.385 134.474 225.293 135.072 242.451C135.745 261.683 129.031 307.054 129.031 307.054H119.499C119.499 307.054 118.327 261.331 117.906 243.813C117.439 224.711 106.23 189.385 106.23 189.385H126.007Z" fill="#8AAFFD"/>
<path opacity="0.1" d="M126.007 189.385C126.007 189.385 134.474 225.293 135.072 242.451C135.745 261.683 129.031 307.054 129.031 307.054H119.499C119.499 307.054 118.327 261.331 117.906 243.813C117.439 224.711 106.23 189.385 106.23 189.385H126.007Z" fill="black"/>
<path d="M130.861 303.264C130.907 303.264 130.325 307.215 130.325 307.215H118.734L118.42 303.685L130.861 303.264Z" fill="#8AAFFD"/>
<path opacity="0.3" d="M130.861 303.264C130.907 303.264 130.325 307.215 130.325 307.215H118.734L118.42 303.685L130.861 303.264Z" fill="black"/>
<path d="M272.564 154.878C273.214 155.49 273.727 156.011 274.263 156.593C274.799 157.175 275.305 157.741 275.795 158.331C276.79 159.502 277.724 160.735 278.627 161.975C280.432 164.463 282.037 167.09 283.428 169.831L283.711 170.389C283.849 170.66 283.965 170.942 284.056 171.232C284.241 171.792 284.354 172.373 284.393 172.962C284.442 174 284.3 175.038 283.971 176.024C283.412 177.662 282.581 179.195 281.514 180.557C279.59 183.028 277.321 185.209 274.776 187.034L272.87 184.844C273.766 183.796 274.7 182.67 275.534 181.545C276.383 180.454 277.151 179.303 277.831 178.099C278.466 177.049 278.936 175.908 279.225 174.715C279.324 174.289 279.342 173.847 279.278 173.414C279.251 173.268 279.204 173.126 279.14 172.993C279.112 172.934 279.078 172.878 279.041 172.824L278.796 172.411C277.319 170.003 275.717 167.675 273.995 165.436C273.145 164.31 272.234 163.231 271.316 162.167C270.864 161.631 270.397 161.11 269.93 160.589C269.463 160.069 268.958 159.548 268.552 159.142L272.564 154.878Z" fill="#E4897B"/>
<path d="M273.601 184.201L267.882 183.267L270.875 188.275C270.875 188.275 274.558 188.144 275.607 185.978L273.601 184.201Z" fill="#E4897B"/>
<path d="M263.654 185.58L266.38 189.645L270.874 188.275L267.881 183.267L263.654 185.58Z" fill="#E4897B"/>
<path d="M273.327 314.886C272.938 314.919 272.55 314.814 272.232 314.588C272.136 314.497 272.065 314.383 272.026 314.257C271.987 314.131 271.982 313.997 272.01 313.868C272.015 313.786 272.043 313.707 272.09 313.639C272.138 313.572 272.202 313.518 272.278 313.485C272.944 313.186 274.69 314.304 274.889 314.434C274.911 314.448 274.929 314.469 274.938 314.494C274.948 314.519 274.949 314.546 274.942 314.572C274.939 314.598 274.928 314.623 274.91 314.642C274.892 314.662 274.869 314.675 274.843 314.679C274.347 314.805 273.838 314.875 273.327 314.886ZM272.561 313.699C272.505 313.691 272.448 313.691 272.393 313.699C272.359 313.715 272.33 313.74 272.31 313.771C272.29 313.802 272.279 313.838 272.278 313.875C272.258 313.961 272.26 314.05 272.284 314.135C272.308 314.219 272.353 314.296 272.416 314.358C272.707 314.618 273.457 314.656 274.46 314.457C273.885 314.078 273.239 313.82 272.561 313.699Z" fill="#8AAFFD"/>
<path d="M274.858 314.672H274.789C274.245 314.358 273.196 313.14 273.327 312.474C273.351 312.369 273.409 312.275 273.492 312.206C273.575 312.137 273.678 312.097 273.786 312.091C273.889 312.076 273.995 312.085 274.094 312.117C274.194 312.149 274.285 312.203 274.36 312.275C274.988 312.826 274.996 314.48 274.996 314.572C274.994 314.595 274.987 314.618 274.975 314.638C274.963 314.658 274.947 314.675 274.927 314.687L274.858 314.672ZM273.878 312.375H273.817C273.648 312.375 273.61 312.467 273.594 312.535C273.518 312.926 274.169 313.86 274.712 314.296C274.726 313.654 274.541 313.023 274.184 312.49C274.138 312.447 274.084 312.414 274.024 312.395C273.965 312.375 273.902 312.368 273.839 312.375H273.878Z" fill="#8AAFFD"/>
<path d="M247.234 314.886C246.745 314.933 246.256 314.808 245.848 314.534C245.756 314.452 245.686 314.35 245.642 314.235C245.598 314.121 245.582 313.997 245.596 313.875C245.601 313.801 245.624 313.729 245.664 313.666C245.705 313.603 245.76 313.551 245.825 313.516C246.537 313.117 248.819 314.281 249.079 314.427C249.103 314.442 249.122 314.464 249.134 314.49C249.147 314.515 249.151 314.544 249.148 314.572C249.144 314.599 249.131 314.624 249.112 314.643C249.093 314.662 249.068 314.675 249.041 314.679C248.447 314.806 247.842 314.875 247.234 314.886ZM246.216 313.699C246.128 313.694 246.041 313.712 245.963 313.753C245.936 313.766 245.912 313.787 245.896 313.812C245.88 313.838 245.871 313.868 245.871 313.898C245.86 313.978 245.867 314.059 245.894 314.135C245.921 314.211 245.965 314.28 246.024 314.335C246.377 314.649 247.318 314.702 248.589 314.488C247.848 314.093 247.046 313.827 246.216 313.699Z" fill="#8AAFFD"/>
<path d="M249.016 314.672H248.955C248.274 314.366 246.918 313.141 247.026 312.475C247.026 312.321 247.163 312.13 247.539 312.092C247.676 312.077 247.814 312.09 247.946 312.131C248.078 312.172 248.199 312.239 248.304 312.329C249.024 312.926 249.162 314.473 249.162 314.542C249.165 314.565 249.161 314.589 249.152 314.61C249.142 314.632 249.127 314.651 249.108 314.664C249.079 314.677 249.047 314.679 249.016 314.672ZM247.646 312.375H247.561C247.316 312.375 247.301 312.498 247.294 312.528C247.232 312.919 248.151 313.891 248.825 314.312C248.758 313.658 248.491 313.04 248.059 312.543C247.943 312.444 247.798 312.385 247.646 312.375Z" fill="#8AAFFD"/>
<path d="M258.065 137.276C257.843 140.737 257.246 147.765 259.902 149.71C259.902 149.71 259.42 153.255 253.149 154.082C246.259 154.978 249.406 151.088 249.406 151.088C253.058 149.695 252.59 146.916 251.595 144.374L258.065 137.276Z" fill="#E4897B"/>
<path d="M243.806 131.159C243.768 131.159 243.731 131.151 243.697 131.135C243.662 131.119 243.632 131.096 243.607 131.067C243.388 130.807 243.111 130.603 242.799 130.47C242.486 130.337 242.147 130.279 241.808 130.302C241.772 130.308 241.735 130.307 241.7 130.299C241.665 130.291 241.631 130.276 241.602 130.254C241.572 130.233 241.548 130.205 241.529 130.174C241.511 130.143 241.499 130.108 241.494 130.072C241.485 130 241.506 129.927 241.55 129.87C241.594 129.813 241.66 129.775 241.732 129.766C242.164 129.729 242.599 129.798 242.998 129.966C243.398 130.134 243.752 130.396 244.028 130.73C244.062 130.77 244.083 130.819 244.09 130.87C244.096 130.922 244.089 130.974 244.067 131.021C244.045 131.068 244.011 131.108 243.968 131.137C243.924 131.165 243.874 131.181 243.822 131.182L243.806 131.159Z" fill="#263238"/>
<path d="M242.611 134.551C242.34 135.649 241.92 136.705 241.363 137.69C241.619 137.827 241.902 137.907 242.191 137.923C242.481 137.939 242.771 137.89 243.04 137.782L242.611 134.551Z" fill="#DE5753"/>
<path d="M242.916 133.708C242.977 134.168 242.786 134.566 242.487 134.612C242.189 134.658 241.89 134.306 241.836 133.846C241.783 133.387 241.967 132.989 242.265 132.95C242.564 132.912 242.862 133.218 242.916 133.708Z" fill="#263238"/>
<path d="M242.403 132.958L241.262 132.782C241.262 132.782 241.936 133.571 242.403 132.958Z" fill="#263238"/>
<path d="M255.328 314.549H249.586L249.203 301.266H254.945L255.328 314.549Z" fill="#E4897B"/>
<path d="M281.397 314.549H275.655L273.81 301.266H279.552L281.397 314.549Z" fill="#E4897B"/>
<path d="M275.303 313.906H281.75C281.86 313.905 281.966 313.944 282.049 314.016C282.132 314.088 282.187 314.188 282.201 314.297L282.967 319.403C282.981 319.532 282.968 319.662 282.928 319.786C282.888 319.909 282.823 320.022 282.736 320.118C282.649 320.214 282.543 320.291 282.425 320.343C282.306 320.396 282.178 320.422 282.048 320.422C279.805 320.383 278.718 320.253 275.885 320.253C274.139 320.253 271.59 320.429 269.186 320.429C266.782 320.429 266.652 318.048 267.655 317.834C272.149 316.869 272.861 315.537 274.369 314.258C274.632 314.04 274.961 313.916 275.303 313.906Z" fill="#263238"/>
<path d="M249.394 313.906H255.833C255.943 313.905 256.051 313.944 256.135 314.015C256.22 314.087 256.275 314.187 256.292 314.297L257.058 319.403C257.072 319.532 257.058 319.662 257.019 319.786C256.979 319.909 256.913 320.022 256.827 320.118C256.74 320.214 256.634 320.291 256.515 320.343C256.397 320.396 256.268 320.422 256.139 320.422C253.896 320.383 252.809 320.253 249.976 320.253C248.23 320.253 244.616 320.429 242.212 320.429C239.808 320.429 239.678 318.048 240.681 317.834C245.175 316.869 246.944 315.537 248.46 314.258C248.723 314.04 249.052 313.916 249.394 313.906Z" fill="#263238"/>
<path d="M249.203 301.266L249.402 308.118H255.144L254.945 301.266H249.203Z" fill="#CE6F64"/>
<path d="M279.552 301.266H273.81L274.767 308.118H280.501L279.552 301.266Z" fill="#CE6F64"/>
<path d="M258.143 130.11C258.534 135.791 258.817 138.188 256.352 141.457C252.638 146.364 245.579 145.606 243.497 140.155C241.621 135.248 241.299 126.787 246.521 123.817C247.67 123.158 248.967 122.805 250.291 122.789C251.615 122.773 252.921 123.095 254.085 123.726C255.25 124.356 256.233 125.273 256.944 126.391C257.654 127.508 258.067 128.788 258.143 130.11Z" fill="#E4897B"/>
<path d="M261.453 135.385C264.638 137.161 267.004 132.782 267.004 132.782C267.004 132.782 261.292 133.402 261.805 130.003C262.479 125.493 259.248 120.011 251.148 120.716C250.696 120.754 250.267 120.808 249.846 120.877C248.998 120.475 248.039 120.371 247.125 120.582C246.21 120.793 245.394 121.307 244.808 122.04C242.512 122.232 239.411 124.973 241.516 128.594C241.664 128.178 241.893 127.795 242.19 127.469C242.366 129.589 244.219 132.958 246.531 133.18C247.029 136.082 245.099 139.443 245.765 142.475C246.753 146.847 254.126 147.834 254.126 147.834C253.872 147.288 253.777 146.682 253.853 146.084C253.929 145.487 254.172 144.923 254.555 144.458C259.562 146.755 262.862 144.511 262.862 144.511C259.447 143.241 260.481 140.974 260.481 140.974C261.66 141.498 262.996 141.544 264.208 141.103C265.42 140.661 266.414 139.767 266.981 138.608C265.847 138.662 264.721 138.387 263.74 137.815C262.759 137.243 261.965 136.399 261.453 135.385Z" fill="#263238"/>
<path d="M248.528 134.053C248.541 134.598 248.447 135.141 248.249 135.649C248.052 136.158 247.757 136.622 247.379 137.016C246.369 138.065 245.128 137.33 244.791 135.99C244.493 134.78 244.661 132.782 245.978 132.231C246.268 132.117 246.582 132.077 246.891 132.116C247.2 132.154 247.494 132.269 247.748 132.45C248.001 132.631 248.205 132.872 248.341 133.152C248.477 133.432 248.542 133.742 248.528 134.053Z" fill="#E4897B"/>
<path d="M253.298 186.981C253.298 186.981 254.753 224.772 258.213 246.96C261 264.891 273.38 306.786 273.38 306.786H281.205C281.205 306.786 274.751 266.322 273.334 248.598C269.751 203.74 279.053 194.109 270.272 184.768L253.298 186.981Z" fill="#263238"/>
<path d="M259.836 198.932C259.836 198.932 256.299 198.32 254.231 205.057C254.997 217.82 256.306 234.756 258.213 246.96C258.634 249.678 259.277 252.955 260.066 256.545C258.573 234.985 259.836 198.932 259.836 198.932Z" fill="#161F33"/>
<path d="M247.197 187.777C247.197 187.777 240.75 229.588 241.125 247.082C241.516 265.281 248.184 306.801 248.184 306.801H255.94C255.94 306.801 254.715 266.361 255.396 248.491C256.162 229.006 264.117 185.579 264.117 185.579L247.197 187.777Z" fill="#263238"/>
<path d="M282.338 307.153H271.934L271.122 303.662L282.262 303.738L282.338 307.153Z" fill="#8AAFFD"/>
<path opacity="0.2" d="M282.338 307.153H271.934L271.122 303.662L282.262 303.738L282.338 307.153Z" fill="black"/>
<path d="M269.882 149.718C272.876 150.009 277.423 158.515 277.423 158.515L269.867 164.311C269.867 164.311 263.612 158.821 264.354 155.736C265.128 152.528 267.011 149.45 269.882 149.718Z" fill="#8AAFFD"/>
<path opacity="0.1" d="M269.882 149.718C272.876 150.009 277.423 158.515 277.423 158.515L269.867 164.311C269.867 164.311 263.612 158.821 264.354 155.736C265.128 152.528 267.011 149.45 269.882 149.718Z" fill="black"/>
<path d="M267.623 153.377C266.86 153.172 266.07 153.084 265.28 153.117C264.878 153.954 264.568 154.832 264.354 155.736C263.588 158.798 269.866 164.311 269.866 164.311L270.425 163.882L267.623 153.377Z" fill="#8AAFFD"/>
<path opacity="0.3" d="M267.623 153.377C266.86 153.172 266.07 153.084 265.28 153.117C264.878 153.954 264.568 154.832 264.354 155.736C263.588 158.798 269.866 164.311 269.866 164.311L270.425 163.882L267.623 153.377Z" fill="black"/>
<path d="M244.631 161.547C242.449 167.067 240.153 172.679 238.323 178.214C238.2 178.566 238.101 178.903 237.993 179.248L237.733 180.098C237.662 180.348 237.662 180.613 237.733 180.863C238.165 181.821 238.851 182.641 239.716 183.237C242.005 184.879 244.499 186.215 247.135 187.21L246.446 190.028C243.204 189.6 240.068 188.578 237.197 187.011C235.43 186.067 233.991 184.61 233.071 182.831C232.542 181.694 232.358 180.427 232.542 179.187C232.56 179.035 232.585 178.884 232.619 178.735L232.695 178.413L232.825 177.831C232.917 177.441 233.009 177.066 233.109 176.683C233.874 173.621 234.854 170.711 235.888 167.825C236.922 164.938 238.001 162.09 239.218 159.25L244.631 161.547Z" fill="#E4897B"/>
<path d="M239.986 153.798C239.986 153.798 237.398 155.108 247.198 187.777L270.305 184.76C268.681 175.404 267.916 169.609 269.883 149.718C266.57 149.48 263.244 149.48 259.93 149.718C256.403 149.923 252.895 150.383 249.434 151.096C245.001 152.083 239.986 153.798 239.986 153.798Z" fill="#8AAFFD"/>
<path opacity="0.1" d="M239.986 153.798C239.986 153.798 237.398 155.108 247.198 187.777L270.305 184.76C268.681 175.404 267.916 169.609 269.883 149.718C266.57 149.48 263.244 149.48 259.93 149.718C256.403 149.923 252.895 150.383 249.434 151.096C245.001 152.083 239.986 153.798 239.986 153.798Z" fill="black"/>
<path d="M270.472 183.359L271.796 185.281C271.896 185.434 271.727 185.618 271.467 185.656L247.235 188.826C247.028 188.826 246.837 188.772 246.806 188.642L246.332 186.598C246.293 186.46 246.462 186.314 246.691 186.284L270.089 183.221C270.159 183.21 270.231 183.217 270.298 183.241C270.365 183.265 270.425 183.306 270.472 183.359Z" fill="#8AAFFD"/>
<path opacity="0.2" d="M270.472 183.359L271.796 185.281C271.896 185.434 271.727 185.618 271.467 185.656L247.235 188.826C247.028 188.826 246.837 188.772 246.806 188.642L246.332 186.598C246.293 186.46 246.462 186.314 246.691 186.284L270.089 183.221C270.159 183.21 270.231 183.217 270.298 183.241C270.365 183.265 270.425 183.306 270.472 183.359Z" fill="black"/>
<path d="M267.669 186.384L268.297 186.299C268.419 186.299 268.503 186.207 268.488 186.131L267.845 183.482C267.821 183.437 267.781 183.401 267.734 183.382C267.687 183.362 267.634 183.36 267.585 183.375L266.957 183.451C266.827 183.451 266.743 183.543 266.765 183.627L267.409 186.269C267.424 186.353 267.546 186.399 267.669 186.384Z" fill="#263238"/>
<path d="M252.476 188.343L253.104 188.259C253.227 188.259 253.318 188.167 253.296 188.091L252.652 185.442C252.627 185.397 252.588 185.362 252.541 185.341C252.494 185.32 252.442 185.315 252.392 185.327L251.764 185.411C251.642 185.411 251.55 185.503 251.573 185.58L252.216 188.229C252.231 188.344 252.354 188.389 252.476 188.343Z" fill="#263238"/>
<path d="M241.064 164.885C241.7 167.84 242.596 171.584 243.905 176.323L244.188 164.311L241.064 164.885Z" fill="#8AAFFD"/>
<path opacity="0.3" d="M241.064 164.885C241.7 167.84 242.596 171.584 243.905 176.323L244.188 164.311L241.064 164.885Z" fill="black"/>
<path d="M239.982 153.799C237.111 154.955 234.623 164.778 234.623 164.778L244.5 169.586C244.5 169.586 249.269 157.573 247.133 155.23C244.997 152.888 243.29 152.474 239.982 153.799Z" fill="#8AAFFD"/>
<path opacity="0.1" d="M239.982 153.799C237.111 154.955 234.623 164.778 234.623 164.778L244.5 169.586C244.5 169.586 249.269 157.573 247.133 155.23C244.997 152.888 243.29 152.474 239.982 153.799Z" fill="black"/>
<path d="M257.263 307.153H246.858L246.047 303.662L257.631 303.738L257.263 307.153Z" fill="#8AAFFD"/>
<path opacity="0.2" d="M257.263 307.153H246.858L246.047 303.662L257.631 303.738L257.263 307.153Z" fill="black"/>
<path d="M247.297 186.261L246.462 185.917C246.257 185.833 246.033 185.805 245.814 185.836C245.595 185.867 245.387 185.956 245.213 186.092C245.039 186.229 244.904 186.41 244.822 186.615C244.74 186.821 244.714 187.045 244.747 187.264L245.352 191.253C245.381 191.453 245.454 191.643 245.566 191.811C245.677 191.979 245.825 192.12 245.998 192.224C246.171 192.328 246.365 192.393 246.565 192.413C246.766 192.433 246.969 192.408 247.159 192.34C247.462 192.23 247.747 192.072 248.001 191.873C248.278 191.643 248.497 191.352 248.64 191.022C248.784 190.692 248.848 190.333 248.828 189.974L248.744 188.321C248.729 187.874 248.584 187.441 248.327 187.075C248.07 186.709 247.712 186.426 247.297 186.261Z" fill="#E4897B"/>
</g>
</svg>
