<svg width="15" height="17" viewBox="0 0 15 17" fill="none" xmlns="http://www.w3.org/2000/svg">
<path d="M13.4766 16.7002L7.77656 12.5752C7.62656 12.4502 7.40156 12.4502 7.22656 12.5752L1.52656 16.7002C1.25156 16.9002 0.851562 16.7252 0.851562 16.4252V3.9752C0.851562 3.7752 1.02656 3.6252 1.27656 3.6252H13.7516C13.9766 3.6252 14.1766 3.7752 14.1766 3.9752V16.4252C14.1516 16.7502 13.7516 16.9002 13.4766 16.7002ZM13.8016 0.200195H1.20156C1.00156 0.200195 0.851562 0.350196 0.851562 0.550196V2.0502C0.851562 2.2502 1.00156 2.4002 1.20156 2.4002H13.8266C14.0266 2.4002 14.1766 2.2502 14.1766 2.0502V0.550196C14.1516 0.350196 14.0016 0.200195 13.8016 0.200195Z" fill="#4ded30"/>
</svg>
