<svg width="21" height="21" viewBox="0 0 21 21" fill="none" xmlns="http://www.w3.org/2000/svg">
<rect width="21" height="21" fill="white"/>
<path d="M18.375 9.1875H17.7188V7.875C17.7188 5.96047 16.9582 4.12435 15.6044 2.77057C14.2506 1.41679 12.4145 0.65625 10.5 0.65625C8.58547 0.65625 6.74935 1.41679 5.39557 2.77057C4.04179 4.12435 3.28125 5.96047 3.28125 7.875V9.1875H2.625C2.10286 9.1875 1.6021 9.39492 1.23288 9.76413C0.863671 10.1333 0.65625 10.6341 0.65625 11.1562V13.7812C0.65625 14.3034 0.863671 14.8042 1.23288 15.1734C1.6021 15.5426 2.10286 15.75 2.625 15.75H3.28125C3.28125 16.2721 3.48867 16.7729 3.85788 17.1421C4.2271 17.5113 4.72786 17.7187 5.25 17.7188C5.77214 17.7187 6.2729 17.5113 6.64212 17.1421C7.01133 16.7729 7.21875 16.2721 7.21875 15.75V9.1875C7.21892 8.87245 7.14347 8.56196 6.99875 8.28212C6.85403 8.00228 6.64427 7.76125 6.38708 7.57929C6.12989 7.39733 5.83279 7.27975 5.52073 7.23642C5.20868 7.1931 4.89078 7.2253 4.59375 7.33031C4.7322 5.86671 5.41152 4.50734 6.49892 3.51796C7.58631 2.52857 9.00361 1.98029 10.4738 1.98029C11.9439 1.98029 13.3612 2.52857 14.4486 3.51796C15.536 4.50734 16.2153 5.86671 16.3538 7.33031C16.0598 7.23558 15.7476 7.21135 15.4425 7.25958C15.1374 7.30781 14.848 7.42714 14.5975 7.60794C14.3471 7.78874 14.1427 8.02592 14.0009 8.30032C13.8591 8.57472 13.7839 8.87864 13.7812 9.1875V15.75C13.7821 16.0645 13.8583 16.3742 14.0035 16.6532C14.1487 16.9322 14.3586 17.1723 14.6156 17.3535C14.8726 17.5348 15.1693 17.6518 15.4809 17.6947C15.7924 17.7377 16.1097 17.7055 16.4062 17.6006V19.0312H14.3719C14.278 19.5082 14.076 19.9572 13.7812 20.3438H17.0625C17.2365 20.3438 17.4035 20.2746 17.5265 20.1515C17.6496 20.0285 17.7188 19.8615 17.7188 19.6875V15.75H18.375C18.8971 15.75 19.3979 15.5426 19.7671 15.1734C20.1363 14.8042 20.3438 14.3034 20.3438 13.7812V11.1562C20.3437 10.6341 20.1363 10.1333 19.7671 9.76413C19.3979 9.39492 18.8971 9.1875 18.375 9.1875V9.1875Z" fill="black"/>
<path d="M11.1562 16.4062H9.84375C9.32161 16.4062 8.82085 16.6137 8.45163 16.9829C8.08242 17.3521 7.875 17.8529 7.875 18.375C7.875 18.8971 8.08242 19.3979 8.45163 19.7671C8.82085 20.1363 9.32161 20.3437 9.84375 20.3438H11.1562C11.6784 20.3437 12.1792 20.1363 12.5484 19.7671C12.9176 19.3979 13.125 18.8971 13.125 18.375C13.125 17.8529 12.9176 17.3521 12.5484 16.9829C12.1792 16.6137 11.6784 16.4062 11.1562 16.4062Z" fill="black"/>
</svg>
