<svg width="13" height="15" viewBox="0 0 13 15" fill="none" xmlns="http://www.w3.org/2000/svg">
<path d="M11.5191 14.3883L6.73106 10.9233C6.60506 10.8183 6.41606 10.8183 6.26906 10.9233L1.48106 14.3883C1.25006 14.5563 0.914062 14.4093 0.914062 14.1573V3.69932C0.914062 3.53132 1.06106 3.40532 1.27106 3.40532H11.7501C11.9391 3.40532 12.1071 3.53132 12.1071 3.69932V14.1573C12.0861 14.4303 11.7501 14.5563 11.5191 14.3883ZM11.7921 0.52832H1.20806C1.04006 0.52832 0.914062 0.654321 0.914062 0.822321V2.08232C0.914062 2.25032 1.04006 2.37632 1.20806 2.37632H11.8131C11.9811 2.37632 12.1071 2.25032 12.1071 2.08232V0.822321C12.0861 0.654321 11.9601 0.52832 11.7921 0.52832Z" fill="black"/>
</svg>
