<svg width="414" height="382" viewBox="0 0 414 382" fill="none" xmlns="http://www.w3.org/2000/svg">
<path d="M39.9362 313.594C43.6526 311.851 47.829 311.342 51.8552 312.142C54.0158 312.505 56.2827 313.152 57.7438 314.799C59.2049 316.446 59.5148 319.279 57.8058 320.678C56.7171 321.416 55.404 321.748 54.0955 321.617C50.9431 321.617 47.4453 321.024 44.9305 322.919C43.496 324.008 42.5396 325.805 40.8218 326.337C39.9676 326.525 39.0755 326.433 38.2778 326.074C37.4802 325.715 36.8196 325.109 36.3942 324.344C35.5748 322.767 35.391 320.935 35.8806 319.226C36.0788 318.039 36.5477 316.913 37.251 315.937C37.9543 314.96 38.8732 314.159 39.9362 313.594Z" fill="#EBEBEB"/>
<path d="M31.6302 297.549C33.8528 300.719 38.1564 299.665 40.1576 297.735C42.1589 295.804 43.0001 293.006 43.7617 290.332C45.5327 284.231 47.3037 277.829 45.9843 271.612C45.6639 269.737 44.8302 267.987 43.5757 266.556C42.9521 265.837 42.1498 265.294 41.2497 264.983C40.3496 264.672 39.3835 264.604 38.4486 264.785C36.2791 265.361 34.9066 267.442 33.9502 269.514C31.0713 275.487 29.5588 282.027 29.5227 288.658C29.5227 291.74 29.8769 294.981 31.6125 297.514" fill="#EBEBEB"/>
<path d="M25.5468 302.1C27.9553 299.249 28.4069 295.078 27.3178 291.474C26.1046 287.919 23.9317 284.768 21.0395 282.371C17.7583 279.452 13.9422 277.197 9.80243 275.73C8.19925 275.078 6.47541 274.776 4.74619 274.844C3.88213 274.894 3.04325 275.154 2.30248 275.601C1.56171 276.049 0.941493 276.671 0.49575 277.412C-0.681975 279.67 0.451475 282.407 1.68233 284.647C3.83571 288.597 6.29614 292.372 9.0409 295.937C11.2547 298.797 13.7961 301.613 17.1699 302.897C20.5436 304.181 24.0945 304.04 25.8655 301.702" fill="#EBEBEB"/>
<path d="M31.4797 345.313C31.6043 344.845 31.6726 344.363 31.6834 343.879C31.7896 342.834 31.9136 341.514 32.0641 339.956C32.2611 338.021 32.5567 336.096 32.9497 334.191C33.4645 331.875 34.1633 329.604 35.0395 327.399C35.9028 325.196 37.0713 323.124 38.5106 321.245C39.6968 319.715 41.2094 318.469 42.9382 317.597C44.1006 317.021 45.3469 316.632 46.6307 316.446C47.1151 316.433 47.5964 316.364 48.0653 316.242C47.5796 316.19 47.0898 316.19 46.6042 316.242C45.2506 316.329 43.9242 316.662 42.6902 317.225C40.8836 318.076 39.2984 319.334 38.059 320.9C36.5574 322.804 35.3459 324.919 34.4639 327.178C33.5709 329.415 32.8746 331.727 32.3829 334.085C32.0137 336.01 31.7594 337.956 31.6214 339.912C31.4974 341.576 31.4531 342.931 31.4266 343.861C31.3983 344.346 31.4161 344.832 31.4797 345.313Z" fill="#E0E0E0"/>
<path d="M31.7542 342.294C31.7809 342.073 31.7809 341.85 31.7542 341.63V339.717C31.7542 338.061 31.7542 335.661 31.8339 332.704C31.9845 326.788 32.4892 320.413 33.481 311.451C34.3665 303.004 35.6593 293.175 37.023 286.781C37.3064 285.329 37.5986 284.018 37.8642 282.876C38.1299 281.734 38.3424 280.733 38.5461 279.936C38.7498 279.139 38.8737 278.564 38.9977 278.077C39.0619 277.864 39.1006 277.644 39.1128 277.421C39.0114 277.618 38.9341 277.826 38.8826 278.041C38.732 278.528 38.5549 279.13 38.3247 279.874C38.0945 280.618 37.8288 281.645 37.5366 282.796C37.2444 283.948 36.9256 285.24 36.6511 286.693C35.0071 294.245 33.7715 301.88 32.9497 309.565C31.9668 318.562 31.5152 326.762 31.4797 332.695C31.4797 335.661 31.4797 338.07 31.586 339.726C31.586 340.496 31.6657 341.134 31.7011 341.63C31.6958 341.852 31.7136 342.075 31.7542 342.294Z" fill="#E0E0E0"/>
<path d="M31.7895 326.487C31.8435 325.824 31.8435 325.158 31.7895 324.495C31.6771 322.685 31.4731 320.882 31.1785 319.093C30.735 316.438 30.1437 313.81 29.4075 311.221C28.5448 308.038 27.4437 304.924 26.1134 301.906C23.8295 296.343 20.5529 291.242 16.4436 286.852C15.7337 286.099 14.9734 285.395 14.1679 284.745C13.8225 284.443 13.5126 284.151 13.2027 283.921L12.3172 283.31C11.7877 282.91 11.2281 282.552 10.6436 282.239C12.5701 283.759 14.4006 285.398 16.1248 287.144C20.0924 291.575 23.2783 296.647 25.5466 302.145C26.8582 305.142 27.9646 308.225 28.8584 311.372C29.6133 313.936 30.2369 316.537 30.7269 319.164C31.1431 321.405 31.3821 323.238 31.5238 324.477C31.5635 325.153 31.6523 325.825 31.7895 326.487Z" fill="#E0E0E0"/>
<path d="M16.5146 354.372L18.0997 376.076H45.9755L47.5605 354.372H16.5146Z" fill="#E0E0E0"/>
<path d="M50.8901 345.818H13.8228V354.372H50.8901V345.818Z" fill="#E0E0E0"/>
<path d="M13.8228 375.243V377.617H15.5672H50.2791V375.243H13.8228Z" fill="#EBEBEB"/>
<path d="M17.2673 381.787L15.5671 377.616H48.9508L46.9584 381.787H17.2673Z" fill="#E0E0E0"/>
<path d="M47.0469 361.465L46.914 361.669C46.7989 361.81 46.6661 361.996 46.4979 362.218L44.8774 364.298L44.7977 364.387L44.7268 364.29L40.7421 358.773H40.9723L37.0406 364.334L36.9167 364.511L36.7838 364.343C35.3316 362.625 33.7554 360.748 32.1261 358.799H32.3917L32.1349 359.118L27.973 364.343L27.8314 364.52L27.6985 364.334C26.2906 362.333 24.9623 360.464 23.7669 358.773H23.9971L19.1622 364.281L19.0737 364.378L19.0117 364.272C18.3653 363.2 17.8605 362.342 17.4886 361.722L17.099 361.049C17.0542 360.972 17.0157 360.892 16.9839 360.81C16.9839 360.81 17.0459 360.872 17.1433 361.022L17.5772 361.669L19.1711 364.175H19.0206L23.7757 358.596L23.8997 358.454L24.006 358.605L27.973 364.139H27.7074L31.8604 358.906L32.1172 358.587L32.25 358.419L32.3917 358.578L37.0318 364.13H36.775C38.2095 362.129 39.5378 360.261 40.7421 358.596L40.8572 358.428L40.9723 358.596L44.8774 364.175H44.7357L46.427 362.191L46.8786 361.669C46.9849 361.518 47.038 361.456 47.0469 361.465Z" fill="#F5F5F5"/>
<path d="M47.9502 354.221C47.9502 354.319 40.9635 354.398 32.3475 354.398C23.7315 354.398 16.7449 354.319 16.7449 354.221C16.7449 354.124 23.7315 354.044 32.3475 354.044C40.9635 354.044 47.9502 354.133 47.9502 354.221Z" fill="#F5F5F5"/>
<path d="M49.3581 377.847C49.3581 377.944 41.7693 378.024 32.4006 378.024C23.0319 378.024 15.4431 377.944 15.4431 377.847C15.4431 377.749 23.0319 377.678 32.4006 377.678C41.7693 377.678 49.3581 377.749 49.3581 377.847Z" fill="#F5F5F5"/>
<path d="M355.071 11.8665H7.2522V220.032H355.071V11.8665Z" fill="#F5F5F5"/>
<path d="M368.902 304.739H290.588V380.512H368.902V304.739Z" fill="#F5F5F5"/>
<path d="M296.663 374.021L318.322 335.032L336.041 359.951L346.809 346.721L362.828 374.021H296.663Z" fill="#E0E0E0"/>
<path d="M343.594 327.452C343.594 328.568 343.264 329.659 342.644 330.586C342.024 331.514 341.143 332.237 340.112 332.664C339.082 333.091 337.947 333.202 336.853 332.985C335.759 332.767 334.754 332.23 333.965 331.441C333.176 330.652 332.639 329.647 332.421 328.553C332.204 327.459 332.315 326.325 332.742 325.294C333.169 324.263 333.892 323.382 334.82 322.762C335.748 322.143 336.838 321.812 337.954 321.812C339.45 321.812 340.884 322.406 341.942 323.464C343 324.522 343.594 325.956 343.594 327.452Z" fill="#E0E0E0"/>
<g opacity="0.3">
<path opacity="0.3" d="M362.828 374.234C362.828 374.234 362.828 374.119 362.828 373.924C362.828 373.729 362.828 373.41 362.828 373.038C362.828 372.233 362.828 371.099 362.828 369.629C362.828 366.627 362.783 362.279 362.748 356.763C362.704 345.694 362.651 329.932 362.58 311.009L362.898 311.336L296.733 311.389C296.645 311.46 297.433 310.681 297.105 311.026V319.589C297.105 322.423 297.105 325.239 297.105 328.019C297.105 333.589 297.105 339.044 297.105 344.348C297.105 354.974 297.105 364.998 297.105 374.225L296.787 373.897L344.604 374.066L358.099 374.145L361.641 374.19H362.571C362.677 374.182 362.783 374.182 362.89 374.19C362.795 374.198 362.701 374.198 362.606 374.19H361.721H358.179L344.754 374.278L296.707 374.446H296.379V374.119C296.379 364.892 296.379 354.859 296.379 344.242C296.379 338.929 296.379 333.483 296.379 327.913V311.035L296.76 310.646L362.925 310.699H363.253V311.017C363.182 330.029 363.129 345.853 363.084 356.975C363.084 362.457 363.022 366.778 363.005 369.771C363.005 371.205 363.005 372.33 362.96 373.118C362.96 373.472 362.96 373.747 362.96 374.004C362.928 374.087 362.883 374.164 362.828 374.234Z" fill="#E0E0E0"/>
</g>
<path d="M372.914 33.2781H21.2344V233.199H372.914V33.2781Z" fill="#E0E0E0"/>
<path d="M413.824 380.866C413.824 380.999 321.395 381.097 207.403 381.097C93.4121 381.097 0.965088 380.999 0.965088 380.866C0.965088 380.734 93.3766 380.636 207.403 380.636C321.43 380.636 413.824 380.787 413.824 380.866Z" fill="#263238"/>
<path d="M366.343 307.148C367.606 307.731 368.737 308.564 369.67 309.596C370.603 310.627 371.318 311.837 371.771 313.152C372.663 315.791 372.939 318.599 372.577 321.36C372.037 326.673 369.035 332.119 365.865 336.414C361.322 332.553 360.207 325.726 359.861 322.246C359.312 316.72 361.677 306.395 366.343 307.192" fill="#7572FE"/>
<path d="M371.213 345.154C370.893 343.634 370.978 342.057 371.46 340.58C371.942 339.104 372.803 337.78 373.958 336.742C375.136 335.727 376.503 334.958 377.981 334.477C379.458 333.997 381.017 333.815 382.566 333.943C383.991 334.032 385.541 334.43 386.373 335.599C386.732 336.168 386.93 336.822 386.949 337.493C386.968 338.165 386.806 338.829 386.48 339.416C385.815 340.59 384.849 341.565 383.681 342.241C379.821 344.729 375.632 346.42 371.213 345.154Z" fill="#7572FE"/>
<path d="M363.678 348.253C363.005 345.045 361.577 342.044 359.511 339.498C357.446 336.952 354.804 334.936 351.803 333.616C350.271 332.96 348.261 332.58 347.11 333.74C345.959 334.9 346.278 336.901 346.951 338.433C348.402 341.594 350.756 344.256 353.717 346.082C356.678 347.908 360.113 348.818 363.589 348.696" fill="#7572FE"/>
<path d="M365.059 361.899C365.081 361.523 365.138 361.149 365.228 360.783C365.352 360.075 365.555 359.012 365.839 357.781C366.514 354.467 367.618 351.255 369.124 348.227C370.668 345.182 372.998 342.605 375.871 340.762C376.747 340.224 377.683 339.793 378.661 339.478C378.925 339.388 379.194 339.314 379.467 339.256C379.561 339.227 379.66 339.209 379.759 339.203C378.449 339.661 377.19 340.255 376.004 340.974C373.219 342.847 370.961 345.402 369.443 348.395C367.949 351.399 366.819 354.571 366.078 357.843L365.36 360.81C365.281 361.178 365.18 361.542 365.059 361.899Z" fill="#263238"/>
<path d="M365.236 315.171C365.278 315.327 365.299 315.487 365.298 315.649C365.298 315.994 365.351 316.455 365.387 317.021C365.466 318.217 365.555 319.944 365.644 322.078C365.829 326.346 366.007 332.252 366.06 338.778C366.113 345.304 366.06 351.175 365.9 355.479C365.838 357.622 365.776 359.349 365.723 360.544C365.723 361.111 365.67 361.571 365.652 361.917C365.646 362.077 365.629 362.237 365.599 362.395C365.588 362.236 365.588 362.076 365.599 361.917C365.599 361.562 365.599 361.111 365.599 360.535C365.599 359.304 365.644 357.586 365.67 355.479C365.723 351.202 365.776 345.304 365.723 338.778C365.67 332.252 365.537 326.381 365.413 322.086C365.351 319.979 365.307 318.261 365.272 317.03C365.272 316.455 365.272 316.003 365.272 315.649C365.245 315.491 365.233 315.331 365.236 315.171Z" fill="#263238"/>
<path d="M352.804 338.575C353.144 338.689 353.473 338.835 353.787 339.009C354.173 339.178 354.546 339.376 354.902 339.602C355.388 339.871 355.858 340.167 356.31 340.487L357.098 341.054C357.373 341.258 357.639 341.497 357.913 341.727C358.489 342.188 359.029 342.745 359.622 343.321C360.838 344.628 361.918 346.055 362.845 347.58C363.737 349.123 364.465 350.756 365.015 352.451C365.252 353.192 365.447 353.946 365.599 354.709C365.661 355.063 365.75 355.408 365.794 355.745C365.838 356.081 365.874 356.4 365.918 356.71C366.007 357.33 366.007 357.888 366.033 358.384C366.061 358.805 366.061 359.228 366.033 359.65C366.029 360.009 366 360.367 365.945 360.721C365.856 360.721 365.998 359.18 365.688 356.745C365.644 356.435 365.59 356.117 365.546 355.789C365.502 355.461 365.405 355.125 365.325 354.771C365.192 354.062 364.953 353.327 364.723 352.548C363.636 349.192 361.822 346.117 359.41 343.542C358.834 342.967 358.312 342.4 357.754 341.94C357.479 341.709 357.222 341.47 356.957 341.267L356.195 340.682C354.176 339.257 352.759 338.646 352.804 338.575Z" fill="#263238"/>
<path d="M374.251 380.866H357.984L354.663 357.029H377.35L374.251 380.866Z" fill="#263238"/>
<path d="M375.889 368.018C375.889 368.142 371.461 368.248 366.078 368.248C360.694 368.248 356.266 368.142 356.266 368.018C356.266 367.894 360.694 367.788 366.078 367.788C371.461 367.788 375.889 367.894 375.889 368.018Z" fill="#FAFAFA"/>
<path d="M375.889 369.435C375.889 369.559 371.461 369.665 366.078 369.665C360.694 369.665 356.266 369.559 356.266 369.435C356.266 369.311 360.694 369.204 366.078 369.204C371.461 369.204 375.889 369.275 375.889 369.435Z" fill="#FAFAFA"/>
<path d="M325.69 380.786L201.648 380.84C201.399 380.841 201.153 380.793 200.923 380.699C200.693 380.604 200.484 380.466 200.308 380.29C200.132 380.115 199.992 379.907 199.897 379.677C199.802 379.448 199.753 379.202 199.753 378.953V304.031C199.753 303.782 199.802 303.536 199.897 303.307C199.992 303.077 200.132 302.869 200.308 302.694C200.484 302.519 200.693 302.38 200.923 302.286C201.153 302.191 201.399 302.143 201.648 302.145L325.69 302.083C326.191 302.085 326.67 302.286 327.024 302.641C327.377 302.996 327.576 303.476 327.576 303.978V378.891C327.576 379.392 327.377 379.873 327.024 380.228C326.67 380.583 326.191 380.784 325.69 380.786Z" fill="#263238"/>
<path d="M264.979 333.571L275.472 339.212L265.404 345.844L255.327 352.486L254.911 340.204L254.486 327.922L264.979 333.571Z" fill="white"/>
<path d="M318.34 372.95C318.34 373.083 293.855 373.198 263.66 373.207C233.464 373.215 208.979 373.127 208.979 373.003C208.979 372.879 233.455 372.764 263.66 372.746C293.864 372.728 318.34 372.817 318.34 372.95Z" fill="white"/>
<path d="M210.937 373.003C210.937 373.276 210.856 373.543 210.704 373.77C210.552 373.998 210.336 374.175 210.084 374.279C209.831 374.384 209.554 374.411 209.286 374.358C209.018 374.305 208.772 374.173 208.578 373.98C208.385 373.787 208.254 373.54 208.2 373.272C208.147 373.005 208.174 372.727 208.279 372.474C208.384 372.222 208.561 372.006 208.788 371.854C209.015 371.703 209.282 371.622 209.555 371.622C209.922 371.622 210.273 371.767 210.532 372.026C210.791 372.285 210.937 372.637 210.937 373.003Z" fill="white"/>
<path d="M306.306 380.592L174.578 380.654C174.075 380.654 173.593 380.454 173.238 380.099C172.882 379.743 172.683 379.261 172.683 378.759V299.107C172.683 298.859 172.732 298.613 172.827 298.383C172.922 298.154 173.062 297.946 173.238 297.77C173.414 297.595 173.623 297.456 173.853 297.362C174.083 297.268 174.329 297.22 174.578 297.221L306.306 297.159C306.807 297.159 307.287 297.358 307.643 297.711C307.998 298.065 308.198 298.544 308.201 299.045V378.741C308.191 379.237 307.987 379.709 307.633 380.055C307.278 380.401 306.801 380.594 306.306 380.592Z" fill="#455A64"/>
<path d="M241.832 330.507L252.963 336.484L242.284 343.524L231.604 350.564L231.162 337.547L230.71 324.521L241.832 330.507Z" fill="white"/>
<path d="M298.407 372.259C298.407 372.392 272.453 372.507 240.442 372.516C208.431 372.525 182.468 372.445 182.468 372.312C182.468 372.179 208.422 372.073 240.442 372.055C272.462 372.038 298.407 372.135 298.407 372.259Z" fill="white"/>
<path d="M184.486 372.312C184.486 372.601 184.401 372.884 184.24 373.124C184.08 373.364 183.851 373.551 183.584 373.662C183.317 373.773 183.024 373.802 182.74 373.745C182.457 373.689 182.196 373.55 181.992 373.345C181.788 373.141 181.649 372.881 181.592 372.597C181.536 372.314 181.565 372.02 181.675 371.753C181.786 371.486 181.973 371.258 182.214 371.097C182.454 370.937 182.736 370.851 183.025 370.851C183.413 370.851 183.784 371.005 184.058 371.279C184.332 371.553 184.486 371.925 184.486 372.312Z" fill="white"/>
<path d="M255.77 332.978H181.803C180.757 332.978 179.908 333.826 179.908 334.873V378.954C179.908 380 180.757 380.849 181.803 380.849H255.77C256.816 380.849 257.665 380 257.665 378.954V334.873C257.665 333.826 256.816 332.978 255.77 332.978Z" fill="#7572FE"/>
<path d="M219.597 352.096L225.981 355.523L219.854 359.561L213.726 363.608L213.469 356.134L213.212 348.66L219.597 352.096Z" fill="white"/>
<path d="M252.059 376.058C252.059 376.182 237.165 376.288 218.8 376.297C200.434 376.306 185.531 376.208 185.531 376.084C185.531 375.96 200.425 375.845 218.8 375.836C237.174 375.828 252.059 375.925 252.059 376.058Z" fill="white"/>
<path d="M186.691 376.084C186.691 376.251 186.642 376.414 186.549 376.553C186.456 376.691 186.324 376.799 186.17 376.862C186.016 376.926 185.846 376.942 185.683 376.909C185.519 376.876 185.369 376.795 185.252 376.676C185.135 376.558 185.055 376.407 185.024 376.243C184.992 376.079 185.01 375.91 185.075 375.756C185.14 375.603 185.25 375.472 185.389 375.381C185.529 375.289 185.692 375.241 185.859 375.243C186.08 375.246 186.292 375.335 186.448 375.493C186.604 375.65 186.691 375.863 186.691 376.084Z" fill="white"/>
<path d="M382.92 55.2473H34.7117V277.067H382.92V55.2473Z" fill="white"/>
<path d="M383.159 276.217C383.159 274.508 383.088 190.526 382.973 54.3973L383.159 54.6098L34.9861 54.6718L35.2341 54.3973C35.2341 132.906 35.2341 207.918 35.2341 276.217L35.0038 275.96L383.203 276.217L35.0038 276.474H34.7205V276.217C34.7205 207.918 34.7205 132.906 34.7205 54.3973V54.1228H35.0038L383.177 54.1848H383.371V54.3973C383.239 190.526 383.168 274.526 383.159 276.217Z" fill="#263238"/>
<path d="M383.362 67.6977C383.362 67.8305 305.314 67.9457 209.068 67.9457C112.822 67.9457 34.7205 67.8305 34.7205 67.6977C34.7205 67.5649 112.751 67.4409 209.033 67.4409C305.314 67.4409 383.362 67.556 383.362 67.6977Z" fill="#263238"/>
<path d="M46.232 59.4801C46.232 59.925 46.1001 60.3599 45.853 60.7297C45.6058 61.0996 45.2545 61.3879 44.8436 61.5581C44.4326 61.7284 43.9803 61.7729 43.544 61.6861C43.1077 61.5993 42.707 61.3851 42.3924 61.0706C42.0779 60.756 41.8636 60.3552 41.7769 59.9189C41.6901 59.4826 41.7346 59.0304 41.9049 58.6194C42.0751 58.2084 42.3634 57.8572 42.7333 57.61C43.1031 57.3629 43.538 57.231 43.9828 57.231C44.5794 57.231 45.1514 57.4679 45.5733 57.8897C45.9951 58.3115 46.232 58.8836 46.232 59.4801Z" fill="#263238"/>
<path d="M53.1302 59.4801C53.1302 59.925 52.9983 60.3599 52.7512 60.7297C52.504 61.0996 52.1527 61.3879 51.7418 61.5581C51.3308 61.7284 50.8785 61.7729 50.4422 61.6861C50.0059 61.5993 49.6052 61.3851 49.2906 61.0706C48.9761 60.756 48.7618 60.3552 48.6751 59.9189C48.5883 59.4826 48.6328 59.0304 48.803 58.6194C48.9733 58.2084 49.2616 57.8572 49.6314 57.61C50.0013 57.3629 50.4362 57.231 50.881 57.231C51.1764 57.231 51.4689 57.2891 51.7418 57.4022C52.0146 57.5152 52.2626 57.6809 52.4714 57.8897C52.6803 58.0986 52.846 58.3465 52.959 58.6194C53.072 58.8923 53.1302 59.1848 53.1302 59.4801Z" fill="#263238"/>
<path d="M59.993 59.4801C59.993 59.925 59.8611 60.3599 59.614 60.7297C59.3668 61.0996 59.0155 61.3879 58.6045 61.5581C58.1936 61.7284 57.7413 61.7729 57.305 61.6861C56.8687 61.5993 56.468 61.3851 56.1534 61.0706C55.8388 60.756 55.6246 60.3552 55.5378 59.9189C55.4511 59.4826 55.4956 59.0304 55.6658 58.6194C55.8361 58.2084 56.1244 57.8572 56.4942 57.61C56.8641 57.3629 57.299 57.231 57.7438 57.231C58.3403 57.231 58.9124 57.4679 59.3342 57.8897C59.756 58.3115 59.993 58.8836 59.993 59.4801Z" fill="#263238"/>
<path d="M129.877 187.215H58.0713V256.692H129.877V187.215Z" fill="#7572FE"/>
<g opacity="0.3">
<path opacity="0.3" d="M63.6411 250.75L83.503 214.993L99.7521 237.848L109.626 225.708L124.316 250.75H63.6411Z" fill="black"/>
</g>
<g opacity="0.3">
<path opacity="0.3" d="M106.677 208.042C106.679 209.065 106.377 210.066 105.81 210.917C105.243 211.769 104.436 212.433 103.491 212.826C102.546 213.218 101.506 213.322 100.502 213.124C99.4984 212.925 98.5761 212.433 97.852 211.71C97.1279 210.987 96.6345 210.066 96.4342 209.063C96.234 208.059 96.3359 207.019 96.727 206.074C97.1182 205.128 97.781 204.32 98.6316 203.751C99.4822 203.183 100.482 202.879 101.506 202.879C102.875 202.881 104.188 203.426 105.157 204.393C106.126 205.361 106.672 206.672 106.677 208.042Z" fill="black"/>
</g>
<g opacity="0.3">
<path opacity="0.3" d="M124.316 250.936C124.303 250.842 124.303 250.746 124.316 250.652C124.316 250.449 124.316 250.183 124.316 249.846C124.316 249.103 124.316 248.075 124.316 246.721C124.316 243.967 124.316 239.982 124.237 234.917C124.237 224.769 124.148 210.317 124.086 192.97L124.387 193.263L63.7121 193.316L64.0486 192.979V208.582C64.0486 213.682 64.0486 218.685 64.0486 223.547C64.0486 233.287 64.0486 242.479 64.0486 250.936L63.7564 250.643L107.624 250.794L120.022 250.874H123.307H124.192H124.493C124.405 250.887 124.316 250.887 124.228 250.874H123.404H120.181L107.872 250.953L63.8184 251.104H63.5173V250.803C63.5173 242.346 63.5173 233.146 63.5173 223.414C63.5173 218.553 63.5173 213.549 63.5173 208.449V192.979L63.8627 192.634L124.538 192.678H124.83V192.97C124.768 210.397 124.715 224.911 124.679 235.103C124.679 240.141 124.617 244.1 124.6 246.836C124.6 248.155 124.6 249.182 124.6 249.908C124.6 250.236 124.6 250.484 124.6 250.688C124.512 250.778 124.417 250.861 124.316 250.936Z" fill="black"/>
</g>
<path d="M188.445 200.435H139.839V202.879H188.445V200.435Z" fill="#7572FE"/>
<path d="M205.34 210.92C205.34 211.061 190.738 211.176 172.736 211.176C154.733 211.176 140.131 211.061 140.131 210.92C140.131 210.778 154.725 210.672 172.736 210.672C190.747 210.672 205.34 210.769 205.34 210.92Z" fill="#263238"/>
<path d="M205.34 217.738C205.34 217.88 190.738 217.995 172.736 217.995C154.733 217.995 140.096 217.853 140.096 217.738C140.096 217.623 154.689 217.49 172.7 217.49C190.712 217.49 205.34 217.605 205.34 217.738Z" fill="#263238"/>
<path d="M205.34 224.557C205.34 224.698 190.738 224.804 172.736 224.804C154.733 224.804 140.131 224.698 140.131 224.557C140.131 224.415 154.725 224.309 172.736 224.309C190.747 224.309 205.34 224.415 205.34 224.557Z" fill="#263238"/>
<path d="M205.34 231.375C205.34 231.508 190.738 231.623 172.736 231.623C154.733 231.623 140.131 231.508 140.131 231.375C140.131 231.242 154.725 231.127 172.736 231.127C190.747 231.127 205.34 231.233 205.34 231.375Z" fill="#263238"/>
<path d="M205.34 238.22C205.34 238.353 190.738 238.468 172.736 238.468C154.733 238.468 140.096 238.326 140.096 238.22C140.096 238.114 154.689 237.963 172.7 237.963C190.712 237.963 205.34 238.052 205.34 238.22Z" fill="#263238"/>
<path d="M173.621 244.418C173.621 244.551 166.121 244.666 156.876 244.666C147.632 244.666 140.096 244.587 140.096 244.418C140.096 244.25 147.596 244.162 156.841 244.162C166.086 244.162 173.621 244.312 173.621 244.418Z" fill="#263238"/>
<path d="M345.454 196.318H296.848V198.762H345.454V196.318Z" fill="#7572FE"/>
<path d="M362.358 206.811C362.358 206.953 347.756 207.059 329.754 207.059C311.751 207.059 297.149 206.953 297.149 206.811C297.149 206.669 311.743 206.563 329.754 206.563C347.765 206.563 362.358 206.669 362.358 206.811Z" fill="#263238"/>
<path d="M362.358 213.629C362.358 213.771 347.756 213.877 329.754 213.877C311.751 213.877 297.149 213.771 297.149 213.629C297.149 213.488 311.743 213.381 329.754 213.381C347.765 213.381 362.358 213.488 362.358 213.629Z" fill="#263238"/>
<path d="M362.358 220.448C362.358 220.581 347.756 220.696 329.754 220.696C311.751 220.696 297.149 220.581 297.149 220.448C297.149 220.315 311.743 220.191 329.754 220.191C347.765 220.191 362.358 220.306 362.358 220.448Z" fill="#263238"/>
<path d="M362.358 227.266C362.358 227.399 347.756 227.514 329.754 227.514C311.751 227.514 297.149 227.399 297.149 227.266C297.149 227.133 311.743 227.009 329.754 227.009C347.765 227.009 362.358 227.124 362.358 227.266Z" fill="#263238"/>
<path d="M362.358 234.076C362.358 234.217 347.756 234.332 329.754 234.332C311.751 234.332 297.149 234.217 297.149 234.076C297.149 233.934 311.743 233.828 329.754 233.828C347.765 233.828 362.358 233.943 362.358 234.076Z" fill="#263238"/>
<path d="M330.631 240.345C330.631 240.478 323.13 240.593 313.886 240.593C304.641 240.593 297.141 240.478 297.141 240.345C297.141 240.212 304.641 240.088 313.886 240.088C323.13 240.088 330.631 240.203 330.631 240.345Z" fill="#263238"/>
<path d="M286.807 259.038C287.585 258.796 288.404 258.712 289.215 258.79C288.711 259.295 289.074 258.932 288.959 259.038V258.587V258.135C288.959 257.846 288.976 257.589 289.012 257.365C289.056 256.931 289.118 256.665 289.189 256.665C289.26 256.665 289.322 256.931 289.366 257.365C289.366 257.589 289.384 257.846 289.419 258.135V259.02L289.171 259.277C288.375 259.36 287.57 259.279 286.807 259.038Z" fill="#263238"/>
<path d="M276.464 259.038C278.166 258.707 279.916 258.707 281.618 259.038C279.917 259.38 278.165 259.38 276.464 259.038Z" fill="#263238"/>
<path d="M266.192 259.038C267.894 258.707 269.644 258.707 271.346 259.038C269.645 259.38 267.893 259.38 266.192 259.038Z" fill="#263238"/>
<path d="M255.885 259.038C257.587 258.707 259.336 258.707 261.038 259.038C259.338 259.38 257.586 259.38 255.885 259.038Z" fill="#263238"/>
<path d="M245.578 259.038C247.28 258.707 249.029 258.707 250.731 259.038C249.03 259.38 247.278 259.38 245.578 259.038Z" fill="#263238"/>
<path d="M235.27 259.038C236.972 258.707 238.722 258.707 240.424 259.038C238.723 259.38 236.971 259.38 235.27 259.038Z" fill="#263238"/>
<path d="M224.963 259.038C226.665 258.707 228.415 258.707 230.117 259.038C228.416 259.38 226.664 259.38 224.963 259.038Z" fill="#263238"/>
<path d="M217.401 256.638C217.653 257.412 217.741 258.229 217.658 259.038L217.401 258.79H218.339L219.11 258.843C219.544 258.896 219.809 258.958 219.809 259.02C219.809 259.082 219.544 259.153 219.11 259.206L218.339 259.26H217.401C217.294 259.144 217.658 259.507 217.153 259.003C217.08 258.206 217.164 257.403 217.401 256.638Z" fill="#263238"/>
<path d="M217.401 246.685C217.743 248.326 217.743 250.021 217.401 251.662C217.07 250.019 217.07 248.328 217.401 246.685Z" fill="#263238"/>
<path d="M217.401 236.741C217.743 238.382 217.743 240.076 217.401 241.718C217.07 240.075 217.07 238.383 217.401 236.741Z" fill="#263238"/>
<path d="M217.401 226.797C217.743 228.435 217.743 230.126 217.401 231.765C217.159 230.959 217.075 230.114 217.153 229.276C217.075 228.442 217.159 227.6 217.401 226.797Z" fill="#263238"/>
<path d="M217.401 216.844C217.743 218.485 217.743 220.179 217.401 221.82C217.07 220.178 217.07 218.486 217.401 216.844Z" fill="#263238"/>
<path d="M217.401 206.899C217.743 208.538 217.743 210.229 217.401 211.867C217.159 211.064 217.075 210.222 217.153 209.388C217.075 208.55 217.159 207.705 217.401 206.899Z" fill="#263238"/>
<path d="M217.401 196.946C217.743 198.587 217.743 200.282 217.401 201.923C217.07 200.28 217.07 198.589 217.401 196.946Z" fill="#263238"/>
<path d="M219.792 189.57C219.014 189.816 218.194 189.901 217.383 189.818L217.64 189.57V190.031V190.482C217.64 190.766 217.64 191.031 217.587 191.244C217.542 191.678 217.48 191.952 217.41 191.952C217.339 191.952 217.277 191.678 217.233 191.244C217.233 191.031 217.233 190.766 217.179 190.482C217.126 190.199 217.179 190.172 217.179 190.031V189.57L217.427 189.322C218.224 189.245 219.028 189.33 219.792 189.57Z" fill="#263238"/>
<path d="M230.117 189.57C228.415 189.901 226.665 189.901 224.963 189.57C226.665 189.239 228.415 189.239 230.117 189.57Z" fill="#263238"/>
<path d="M240.424 189.57C238.722 189.901 236.972 189.901 235.27 189.57C236.972 189.239 238.722 189.239 240.424 189.57Z" fill="#263238"/>
<path d="M250.731 189.57C249.029 189.901 247.28 189.901 245.578 189.57C247.28 189.239 249.029 189.239 250.731 189.57Z" fill="#263238"/>
<path d="M261.038 189.57C259.336 189.901 257.587 189.901 255.885 189.57C257.587 189.239 259.336 189.239 261.038 189.57Z" fill="#263238"/>
<path d="M271.346 189.57C269.644 189.901 267.894 189.901 266.192 189.57C267.894 189.239 269.644 189.239 271.346 189.57Z" fill="#263238"/>
<path d="M281.653 189.57C279.951 189.901 278.201 189.901 276.5 189.57C278.201 189.239 279.951 189.239 281.653 189.57Z" fill="#263238"/>
<path d="M289.215 191.979C288.964 191.202 288.876 190.382 288.959 189.57L289.215 189.818H288.728H288.277C287.985 189.818 287.728 189.818 287.506 189.765C287.073 189.72 286.807 189.658 286.807 189.588C286.807 189.517 287.073 189.455 287.506 189.411C287.731 189.411 287.988 189.393 288.277 189.357H288.728H289.215L289.463 189.605C289.535 190.405 289.451 191.211 289.215 191.979Z" fill="#263238"/>
<path d="M289.215 201.914C288.873 200.273 288.873 198.579 289.215 196.938C289.546 198.58 289.546 200.272 289.215 201.914Z" fill="#263238"/>
<path d="M289.215 211.867C288.873 210.229 288.873 208.538 289.215 206.899C289.457 207.705 289.541 208.55 289.463 209.388C289.541 210.222 289.457 211.064 289.215 211.867Z" fill="#263238"/>
<path d="M289.215 221.82C288.873 220.179 288.873 218.485 289.215 216.844C289.546 218.486 289.546 220.178 289.215 221.82Z" fill="#263238"/>
<path d="M289.215 231.765C288.873 230.126 288.873 228.435 289.215 226.797C289.457 227.6 289.541 228.442 289.463 229.276C289.541 230.114 289.457 230.959 289.215 231.765Z" fill="#263238"/>
<path d="M289.215 241.762C288.873 240.121 288.873 238.427 289.215 236.785C289.546 238.428 289.546 240.12 289.215 241.762Z" fill="#263238"/>
<path d="M289.215 251.662C288.873 250.021 288.873 248.326 289.215 246.685C289.546 248.328 289.546 250.019 289.215 251.662Z" fill="#263238"/>
<path d="M267.175 123.423C267.175 123.423 267.175 123.237 267.175 122.9C267.175 122.564 267.175 122.015 267.175 121.43C267.175 120.128 267.175 118.251 267.131 115.851C267.131 111.025 267.069 104.101 267.034 95.6442L267.211 95.8213L222.103 95.8744C222.05 95.9187 222.537 95.4405 222.324 95.6442V110.007C222.324 114.656 222.324 119.137 222.324 123.405L222.103 123.192L254.53 123.299L263.855 123.361H266.343H266.989C267.066 123.353 267.143 123.353 267.219 123.361H266.396H263.943L254.672 123.423L222.103 123.529H221.89V123.307C221.89 119.039 221.89 114.559 221.89 109.91V102.826C221.89 101.63 221.89 100.417 221.89 99.2039V95.653C221.687 95.8567 222.174 95.3697 222.129 95.4228L267.237 95.467H267.423V95.653C267.379 104.163 267.343 111.114 267.326 115.975C267.326 118.357 267.326 120.217 267.281 121.51C267.281 122.13 267.281 122.608 267.281 122.953C267.281 123.299 267.175 123.423 267.175 123.423Z" fill="#7572FE"/>
<path d="M244.896 107.227L248.597 109.219L245.046 111.557L241.487 113.895L241.345 109.565L241.194 105.234L244.896 107.227Z" fill="#7572FE"/>
<path d="M263.916 120.642C263.916 120.775 255.274 120.872 244.621 120.872C233.969 120.872 225.317 120.775 225.317 120.642C225.317 120.509 233.96 120.447 244.586 120.447C255.212 120.447 263.916 120.518 263.916 120.642Z" fill="#7572FE"/>
<path d="M225.503 121.129C225.772 121.129 225.99 120.911 225.99 120.642C225.99 120.373 225.772 120.155 225.503 120.155C225.234 120.155 225.016 120.373 225.016 120.642C225.016 120.911 225.234 121.129 225.503 121.129Z" fill="#7572FE"/>
<path d="M325.92 98.894H277.314V101.338H325.92V98.894Z" fill="#7572FE"/>
<path d="M342.815 109.387C342.815 109.52 328.222 109.635 310.22 109.635C292.217 109.635 277.615 109.52 277.615 109.387C277.615 109.255 292.208 109.131 310.22 109.131C328.231 109.131 342.815 109.246 342.815 109.387Z" fill="#263238"/>
<path d="M342.815 116.197C342.815 116.339 328.222 116.454 310.22 116.454C292.217 116.454 277.615 116.339 277.615 116.197C277.615 116.055 292.208 115.949 310.22 115.949C328.231 115.949 342.815 116.064 342.815 116.197Z" fill="#263238"/>
<path d="M267.175 164.218C267.175 164.218 267.175 164.041 267.175 163.704C267.175 163.368 267.175 162.863 267.175 162.234C267.175 160.933 267.175 159.055 267.131 156.656C267.131 151.83 267.069 144.905 267.034 136.448L267.211 136.625L222.103 136.679C222.05 136.679 222.537 136.236 222.324 136.448V150.82C222.324 155.469 222.324 159.95 222.324 164.218L222.103 164.005L254.53 164.112L263.855 164.174H266.343H266.989H267.219C267.219 164.174 267.157 164.174 267.016 164.174H266.396H263.943L254.672 164.236L222.103 164.333H221.89V164.112C221.89 159.843 221.89 155.363 221.89 150.714V143.63C221.89 142.426 221.89 141.221 221.89 140.008V136.36C221.687 136.563 222.174 136.076 222.129 136.13L267.237 136.174H267.423V136.36C267.379 144.87 267.343 151.821 267.326 156.673C267.326 159.055 267.326 160.924 267.281 162.217C267.281 162.836 267.281 163.306 267.281 163.651C267.258 163.842 267.222 164.031 267.175 164.218Z" fill="#7572FE"/>
<path d="M244.896 148.022L248.597 150.014L245.046 152.361L241.487 154.699L241.345 150.369L241.194 146.03L244.896 148.022Z" fill="#7572FE"/>
<path d="M263.916 161.446C263.916 161.57 255.274 161.677 244.621 161.677C233.969 161.677 225.317 161.57 225.317 161.446C225.317 161.322 233.96 161.181 244.586 161.181C255.212 161.181 263.916 161.322 263.916 161.446Z" fill="#7572FE"/>
<path d="M225.503 161.933C225.772 161.933 225.99 161.715 225.99 161.446C225.99 161.177 225.772 160.959 225.503 160.959C225.234 160.959 225.016 161.177 225.016 161.446C225.016 161.715 225.234 161.933 225.503 161.933Z" fill="#7572FE"/>
<path d="M325.92 139.698H277.314V142.142H325.92V139.698Z" fill="#7572FE"/>
<path d="M342.815 150.183C342.815 150.324 328.222 150.44 310.22 150.44C292.217 150.44 277.615 150.324 277.615 150.183C277.615 150.041 292.208 149.935 310.22 149.935C328.231 149.935 342.815 150.05 342.815 150.183Z" fill="#263238"/>
<path d="M342.815 157.001C342.815 157.143 328.222 157.258 310.22 157.258C292.217 157.258 277.615 157.143 277.615 157.001C277.615 156.859 292.208 156.753 310.22 156.753C328.231 156.753 342.815 156.868 342.815 157.001Z" fill="#263238"/>
<path d="M198.336 174.003C199.051 173.778 199.804 173.7 200.549 173.772L200.319 174.003V173.578V173.161C200.319 172.896 200.319 172.657 200.363 172.453C200.363 172.055 200.461 171.807 200.532 171.807C200.603 171.807 200.647 172.055 200.691 172.453C200.691 172.657 200.691 172.896 200.744 173.161V174.047L200.514 174.277C199.777 174.336 199.035 174.242 198.336 174.003Z" fill="#E0E0E0"/>
<path d="M189.498 174.003C190.958 173.695 192.466 173.695 193.926 174.003C192.466 174.311 190.958 174.311 189.498 174.003Z" fill="#E0E0E0"/>
<path d="M180.67 174.003C182.13 173.693 183.638 173.693 185.097 174.003C183.638 174.312 182.13 174.312 180.67 174.003Z" fill="#E0E0E0"/>
<path d="M171.833 174.003C173.292 173.695 174.8 173.695 176.26 174.003C174.8 174.311 173.292 174.311 171.833 174.003Z" fill="#E0E0E0"/>
<path d="M163.004 174.003C163.716 173.778 164.466 173.7 165.209 173.773C165.955 173.7 166.708 173.778 167.423 174.003C166.709 174.232 165.955 174.311 165.209 174.233C164.466 174.312 163.715 174.234 163.004 174.003Z" fill="#E0E0E0"/>
<path d="M154.167 174.003C155.626 173.695 157.134 173.695 158.594 174.003C157.134 174.311 155.626 174.311 154.167 174.003Z" fill="#E0E0E0"/>
<path d="M145.338 174.003C146.798 173.695 148.306 173.695 149.766 174.003C148.306 174.311 146.798 174.311 145.338 174.003Z" fill="#E0E0E0"/>
<path d="M136.501 174.003C137.216 173.778 137.969 173.7 138.715 173.773C139.457 173.7 140.208 173.778 140.919 174.003C140.209 174.234 139.457 174.312 138.715 174.233C137.969 174.311 137.215 174.232 136.501 174.003Z" fill="#E0E0E0"/>
<path d="M127.699 174.003C129.158 173.695 130.667 173.695 132.126 174.003C130.667 174.311 129.158 174.311 127.699 174.003Z" fill="#E0E0E0"/>
<path d="M118.844 174.003C120.303 173.693 121.812 173.693 123.271 174.003C121.812 174.312 120.303 174.312 118.844 174.003Z" fill="#E0E0E0"/>
<path d="M109.989 174.003C111.449 173.695 112.957 173.695 114.416 174.003C112.957 174.311 111.449 174.311 109.989 174.003Z" fill="#E0E0E0"/>
<path d="M101.178 174.003C102.638 173.693 104.146 173.693 105.606 174.003C104.146 174.312 102.638 174.312 101.178 174.003Z" fill="#E0E0E0"/>
<path d="M92.3406 174.003C93.8003 173.695 95.3084 173.695 96.7681 174.003C95.3084 174.311 93.8003 174.311 92.3406 174.003Z" fill="#E0E0E0"/>
<path d="M83.512 174.003C84.2238 173.778 84.9739 173.7 85.7169 173.773C86.4599 173.7 87.2099 173.778 87.9218 174.003C87.2112 174.234 86.4599 174.312 85.7169 174.233C84.9739 174.312 84.2226 174.234 83.512 174.003Z" fill="#E0E0E0"/>
<path d="M74.6746 174.003C75.3896 173.778 76.1424 173.7 76.8883 173.773C77.6313 173.701 78.3812 173.779 79.0932 174.003C78.3822 174.232 77.6313 174.31 76.8883 174.233C76.1424 174.311 75.3886 174.232 74.6746 174.003Z" fill="#E0E0E0"/>
<path d="M65.8462 174.003C66.5581 173.778 67.3081 173.7 68.0511 173.773C68.797 173.7 69.5499 173.778 70.2649 174.003C69.5509 174.232 68.797 174.311 68.0511 174.233C67.3081 174.312 66.5568 174.234 65.8462 174.003Z" fill="#E0E0E0"/>
<path d="M59.2137 171.807C59.4382 172.522 59.5165 173.275 59.444 174.02L59.2137 173.79H60.0992C60.3649 173.79 60.604 173.79 60.8076 173.843C61.2061 173.843 61.4541 173.941 61.4541 174.003C61.4541 174.065 61.2061 174.127 60.8076 174.171L60.0992 174.215H59.6831H59.2403L59.0101 173.985C58.9337 173.253 59.003 172.512 59.2137 171.807Z" fill="#E0E0E0"/>
<path d="M59.2136 163.093C59.5206 164.526 59.5206 166.008 59.2136 167.441C58.9067 166.008 58.9067 164.526 59.2136 163.093Z" fill="#E0E0E0"/>
<path d="M59.2136 154.406C59.5206 155.84 59.5206 157.321 59.2136 158.754C58.9067 157.321 58.9067 155.84 59.2136 154.406Z" fill="#E0E0E0"/>
<path d="M59.2136 145.711C59.5206 147.144 59.5206 148.626 59.2136 150.059C58.9067 148.626 58.9067 147.144 59.2136 145.711Z" fill="#E0E0E0"/>
<path d="M59.2136 137.015C59.5206 138.448 59.5206 139.93 59.2136 141.363C58.9067 139.93 58.9067 138.448 59.2136 137.015Z" fill="#E0E0E0"/>
<path d="M59.2136 128.32C59.5206 129.753 59.5206 131.234 59.2136 132.667C58.9067 131.234 58.9067 129.753 59.2136 128.32Z" fill="#E0E0E0"/>
<path d="M59.2137 119.633C59.5208 121.063 59.5208 122.542 59.2137 123.972C58.9066 122.542 58.9066 121.063 59.2137 119.633Z" fill="#E0E0E0"/>
<path d="M59.2136 110.937C59.5206 112.37 59.5206 113.852 59.2136 115.285C58.9067 113.852 58.9067 112.37 59.2136 110.937Z" fill="#E0E0E0"/>
<path d="M59.2136 102.241C59.5206 103.674 59.5206 105.156 59.2136 106.589C58.9067 105.156 58.9067 103.674 59.2136 102.241Z" fill="#E0E0E0"/>
<path d="M59.2136 93.5457C59.5206 94.9787 59.5206 96.4605 59.2136 97.8935C58.9067 96.4605 58.9067 94.9787 59.2136 93.5457Z" fill="#E0E0E0"/>
<path d="M61.4274 86.9841C60.7147 87.2192 59.9602 87.3007 59.2137 87.2231C59.6741 86.7538 59.3376 87.0903 59.4439 86.9929V87.4268C59.4439 87.5596 59.4439 87.6925 59.4439 87.843C59.4439 87.9935 59.4439 88.3477 59.3908 88.5426C59.3908 88.941 59.2934 89.189 59.2314 89.189C59.1694 89.189 59.1074 88.941 59.072 88.5426C59.072 88.3477 59.072 88.1086 59.0189 87.843V86.9575C59.1251 86.8512 58.7886 87.1789 59.2491 86.7184C59.9856 86.6621 60.726 86.7524 61.4274 86.9841Z" fill="#E0E0E0"/>
<path d="M70.2649 86.984C69.5521 87.2192 68.7976 87.3007 68.0511 87.2231C67.3075 87.301 66.5558 87.2195 65.8462 86.984C66.5581 86.7591 67.3081 86.6808 68.0511 86.7538C68.797 86.6813 69.5499 86.7596 70.2649 86.984Z" fill="#E0E0E0"/>
<path d="M79.0932 86.984C78.3833 87.2179 77.6319 87.2994 76.8883 87.2231C76.1418 87.3006 75.3873 87.2191 74.6746 86.984C75.3896 86.7596 76.1424 86.6813 76.8883 86.7537C77.6313 86.6817 78.3812 86.76 79.0932 86.984Z" fill="#E0E0E0"/>
<path d="M87.9218 86.984C87.2122 87.2195 86.4605 87.301 85.7169 87.2231C84.9733 87.301 84.2216 87.2195 83.512 86.984C84.2238 86.7591 84.9739 86.6808 85.7169 86.7538C86.4599 86.6808 87.2099 86.7591 87.9218 86.984Z" fill="#E0E0E0"/>
<path d="M96.7591 86.9841C95.3006 87.3043 93.79 87.3043 92.3315 86.9841C93.7913 86.6759 95.2993 86.6759 96.7591 86.9841Z" fill="#E0E0E0"/>
<path d="M105.561 86.9839C104.103 87.3052 102.592 87.3052 101.134 86.9839C102.593 86.6743 104.101 86.6743 105.561 86.9839Z" fill="#E0E0E0"/>
<path d="M114.416 86.9841C112.958 87.3043 111.447 87.3043 109.989 86.9841C111.449 86.6759 112.957 86.6759 114.416 86.9841Z" fill="#E0E0E0"/>
<path d="M123.271 86.9839C121.813 87.3052 120.302 87.3052 118.844 86.9839C120.303 86.6743 121.812 86.6743 123.271 86.9839Z" fill="#E0E0E0"/>
<path d="M132.126 86.9841C130.668 87.3043 129.157 87.3043 127.699 86.9841C129.158 86.6759 130.667 86.6759 132.126 86.9841Z" fill="#E0E0E0"/>
<path d="M140.919 86.984C140.21 87.2195 139.458 87.301 138.715 87.2231C137.968 87.3007 137.213 87.2192 136.501 86.984C137.216 86.7596 137.969 86.6813 138.715 86.7538C139.457 86.6808 140.208 86.7591 140.919 86.984Z" fill="#E0E0E0"/>
<path d="M149.757 86.9841C148.298 87.3043 146.788 87.3043 145.329 86.9841C146.789 86.6759 148.297 86.6759 149.757 86.9841Z" fill="#E0E0E0"/>
<path d="M158.585 86.9841C157.127 87.3043 155.616 87.3043 154.158 86.9841C155.617 86.6759 157.126 86.6759 158.585 86.9841Z" fill="#E0E0E0"/>
<path d="M167.423 86.984C166.71 87.2192 165.955 87.3007 165.209 87.2231C164.465 87.301 163.714 87.2195 163.004 86.984C163.716 86.7591 164.466 86.6808 165.209 86.7538C165.955 86.6813 166.708 86.7596 167.423 86.984Z" fill="#E0E0E0"/>
<path d="M176.251 86.9841C174.793 87.3043 173.282 87.3043 171.824 86.9841C173.283 86.6759 174.792 86.6759 176.251 86.9841Z" fill="#E0E0E0"/>
<path d="M185.08 86.9839C183.621 87.3052 182.11 87.3052 180.652 86.9839C182.112 86.6743 183.62 86.6743 185.08 86.9839Z" fill="#E0E0E0"/>
<path d="M193.917 86.9841C192.459 87.3043 190.948 87.3043 189.49 86.9841C190.949 86.6759 192.457 86.6759 193.917 86.9841Z" fill="#E0E0E0"/>
<path d="M200.549 89.1978C200.319 88.484 200.241 87.7299 200.319 86.984C200.78 87.4445 200.443 87.1168 200.549 87.2231H200.098H199.682H198.982C198.584 87.1788 198.336 87.1257 198.336 87.0549C198.336 86.984 198.584 86.9397 198.982 86.8955L199.682 86.8423H200.567C200.665 86.9486 200.337 86.6121 200.797 87.0726C200.853 87.7903 200.769 88.5122 200.549 89.1978Z" fill="#E0E0E0"/>
<path d="M200.55 97.8935C200.243 96.4605 200.243 94.9787 200.55 93.5457C200.857 94.9787 200.857 96.4605 200.55 97.8935Z" fill="#E0E0E0"/>
<path d="M200.55 106.589C200.243 105.156 200.243 103.674 200.55 102.241C200.857 103.674 200.857 105.156 200.55 106.589Z" fill="#E0E0E0"/>
<path d="M200.55 115.285C200.243 113.852 200.243 112.37 200.55 110.937C200.857 112.37 200.857 113.852 200.55 115.285Z" fill="#E0E0E0"/>
<path d="M200.55 123.989C200.243 122.559 200.243 121.08 200.55 119.65C200.857 121.08 200.857 122.559 200.55 123.989Z" fill="#E0E0E0"/>
<path d="M200.55 132.667C200.243 131.234 200.243 129.753 200.55 128.32C200.857 129.753 200.857 131.234 200.55 132.667Z" fill="#E0E0E0"/>
<path d="M200.55 141.363C200.243 139.93 200.243 138.448 200.55 137.015C200.857 138.448 200.857 139.93 200.55 141.363Z" fill="#E0E0E0"/>
<path d="M200.55 150.059C200.243 148.626 200.243 147.144 200.55 145.711C200.857 147.144 200.857 148.626 200.55 150.059Z" fill="#E0E0E0"/>
<path d="M200.55 158.754C200.32 158.053 200.242 157.31 200.319 156.576C200.241 155.845 200.32 155.105 200.55 154.406C200.776 155.106 200.854 155.845 200.78 156.576C200.852 157.31 200.774 158.052 200.55 158.754Z" fill="#E0E0E0"/>
<path d="M200.55 167.441C200.243 166.008 200.243 164.526 200.55 163.093C200.857 164.526 200.857 166.008 200.55 167.441Z" fill="#E0E0E0"/>
<path d="M190.349 173.321L52.9975 180.857C52.4991 180.883 52.0103 180.712 51.6373 180.381C51.2642 180.049 51.0371 179.584 51.0051 179.086L46.4536 95.9719C46.4246 95.4729 46.5948 94.9828 46.9269 94.6093C47.2589 94.2357 47.7257 94.0092 48.2246 93.9795L185.567 86.4439C186.065 86.4172 186.554 86.5882 186.927 86.9198C187.3 87.2514 187.527 87.7168 187.559 88.2149L192.12 171.32C192.135 171.568 192.102 171.816 192.021 172.051C191.94 172.286 191.814 172.502 191.65 172.688C191.485 172.874 191.285 173.026 191.062 173.134C190.839 173.243 190.596 173.306 190.349 173.321Z" fill="#7572FE"/>
<path d="M120.287 124.822L132.206 130.418L121.491 138.352L110.768 146.286L109.564 132.756L108.359 119.225L120.287 124.822Z" fill="white"/>
<path d="M181.564 165.104C181.564 165.227 154.548 166.813 121.208 168.646C87.8688 170.479 60.8343 171.851 60.8254 171.727C60.8166 171.603 87.8423 170.009 121.19 168.185C154.539 166.361 181.556 164.971 181.564 165.104Z" fill="white"/>
<path d="M62.9328 171.612C62.9482 171.913 62.874 172.211 62.7198 172.47C62.5656 172.728 62.3382 172.935 62.0664 173.065C61.7946 173.194 61.4905 173.24 61.1926 173.197C60.8946 173.153 60.6162 173.023 60.3925 172.821C60.1688 172.62 60.0098 172.357 59.9356 172.065C59.8615 171.773 59.8754 171.466 59.9757 171.182C60.0761 170.898 60.2582 170.65 60.4993 170.47C60.7404 170.29 61.0295 170.185 61.3301 170.169C61.5302 170.158 61.7304 170.187 61.9193 170.254C62.1082 170.32 62.2821 170.424 62.431 170.558C62.5799 170.692 62.7008 170.854 62.787 171.035C62.8731 171.216 62.9227 171.412 62.9328 171.612Z" fill="white"/>
<g opacity="0.3">
<path opacity="0.3" d="M178.244 86.9663C176.048 91.1814 173.816 95.9897 175.304 100.497C176.003 102.56 177.42 104.296 178.492 106.191C181.786 112.008 181.671 119.066 181.476 125.743C181.414 127.638 181.254 129.763 179.829 131.003C178.651 132.012 176.977 132.127 175.401 132.18L156.717 132.898V165.794L191.376 158.126L189.755 108.936L188.87 100.639L185.372 86.4705L178.244 86.9663Z" fill="black"/>
</g>
<path d="M148.535 352.964L149.721 380.716L164.704 380.379L163.58 352.574L148.535 352.964Z" fill="#7572FE"/>
<path d="M157.08 379.503C157.204 379.503 156.965 373.419 156.558 365.928C156.15 358.437 155.672 352.371 155.583 352.38C155.495 352.389 155.69 358.463 156.106 365.954C156.522 373.446 156.921 379.512 157.08 379.503Z" fill="#263238"/>
<path d="M149.633 378.803L164.625 378.422L164.704 380.379L149.722 380.716L149.633 378.803Z" fill="#E0E0E0"/>
<path d="M164.341 371.498C164.341 371.498 164.226 371.258 163.934 370.904C162.871 369.661 161.539 368.677 160.038 368.026C158.923 367.54 157.71 367.322 156.496 367.389C155.4 367.434 154.325 367.707 153.34 368.19C152.355 368.673 151.482 369.356 150.775 370.196C150.356 370.701 150.013 371.265 149.757 371.869C149.643 372.084 149.571 372.319 149.544 372.56C149.976 371.802 150.468 371.079 151.014 370.4C152.441 368.853 154.42 367.933 156.522 367.84C158.623 367.806 160.672 368.497 162.322 369.797C163.633 370.754 164.288 371.551 164.341 371.498Z" fill="#263238"/>
<g opacity="0.3">
<path opacity="0.3" d="M163.898 360.491L164.022 363.546L149.004 363.811L148.898 361.509L163.898 360.491Z" fill="black"/>
</g>
<path d="M112.291 353.69L113.044 371.046C113.044 371.046 95.6437 377.643 95.4666 380.866L129.187 380.618L129.125 353.513L112.291 353.69Z" fill="#7572FE"/>
<path d="M123.271 369.576C123.597 369.675 123.876 369.89 124.054 370.181C124.232 370.471 124.297 370.817 124.236 371.152C124.152 371.482 123.945 371.768 123.656 371.949C123.368 372.13 123.021 372.194 122.687 372.126C122.339 372.025 122.041 371.797 121.853 371.487C121.665 371.177 121.599 370.809 121.669 370.453C121.791 370.116 122.04 369.841 122.363 369.685C122.685 369.53 123.056 369.506 123.395 369.62" fill="#E0E0E0"/>
<path d="M129.187 380.618V377.9L96.5556 379.14C96.5556 379.14 95.0503 379.804 95.2274 380.866L129.187 380.618Z" fill="#E0E0E0"/>
<path d="M112.734 371.161C112.734 371.329 113.619 371.4 114.39 371.923C115.16 372.445 115.647 373.145 115.807 373.083C115.966 373.021 115.7 372.055 114.7 371.436C113.699 370.816 112.698 371.046 112.734 371.161Z" fill="#263238"/>
<path d="M109.183 372.658C109.183 372.826 109.865 373.1 110.431 373.8C110.998 374.5 111.175 375.235 111.317 375.226C111.459 375.217 111.583 374.278 110.856 373.455C110.13 372.631 109.183 372.507 109.183 372.658Z" fill="#263238"/>
<path d="M107.19 376.944C107.341 376.944 107.571 376.147 107.137 375.235C106.703 374.322 105.924 373.977 105.853 374.119C105.783 374.26 106.27 374.739 106.615 375.482C106.96 376.226 107.031 376.926 107.19 376.944Z" fill="#263238"/>
<path d="M113.008 367.159C113.079 367.309 113.832 367.07 114.779 367.159C115.727 367.247 116.453 367.504 116.55 367.362C116.648 367.221 115.931 366.636 114.824 366.583C113.717 366.53 112.92 367.026 113.008 367.159Z" fill="#263238"/>
<path d="M112.371 363.422C112.927 363.58 113.515 363.58 114.071 363.422C114.683 363.311 115.278 363.124 115.842 362.864C116.178 362.712 116.504 362.538 116.816 362.342C117.004 362.232 117.174 362.095 117.321 361.934C117.432 361.817 117.499 361.665 117.512 361.504C117.525 361.343 117.483 361.182 117.392 361.049C117.31 360.931 117.202 360.836 117.075 360.769C116.949 360.703 116.808 360.668 116.666 360.668C116.45 360.673 116.236 360.706 116.028 360.765C115.666 360.856 115.313 360.98 114.974 361.137C114.401 361.4 113.873 361.749 113.407 362.173C112.628 362.908 112.362 363.537 112.424 363.564C112.486 363.59 112.876 363.094 113.673 362.492C114.134 362.128 114.644 361.83 115.187 361.607C115.511 361.479 115.846 361.378 116.187 361.306C116.542 361.208 116.852 361.199 116.94 361.359C117.029 361.518 116.94 361.447 116.94 361.553C116.832 361.67 116.707 361.768 116.568 361.846C116.284 362.037 115.988 362.212 115.683 362.368C115.157 362.633 114.609 362.849 114.044 363.015C113.477 363.109 112.918 363.245 112.371 363.422Z" fill="#263238"/>
<path d="M112.592 363.661C112.903 363.17 113.055 362.594 113.026 362.014C113.053 361.384 112.969 360.755 112.778 360.154C112.668 359.794 112.52 359.446 112.335 359.118C112.248 358.888 112.101 358.684 111.91 358.529C111.719 358.373 111.49 358.271 111.246 358.233C111.095 358.238 110.949 358.286 110.823 358.37C110.698 358.455 110.599 358.573 110.538 358.711C110.457 358.913 110.401 359.124 110.37 359.34C110.316 359.718 110.316 360.103 110.37 360.482C110.466 361.125 110.722 361.734 111.113 362.253C111.778 363.138 112.477 363.324 112.486 363.262C112.495 363.2 111.963 362.864 111.45 362.023C111.138 361.539 110.941 360.991 110.874 360.42C110.83 360.094 110.83 359.763 110.874 359.437C110.927 359.074 111.06 358.782 111.193 358.817C111.326 358.853 111.654 359.083 111.795 359.375C111.965 359.656 112.108 359.952 112.22 360.26C112.417 360.804 112.534 361.374 112.566 361.952C112.645 363.014 112.504 363.634 112.592 363.661Z" fill="#263238"/>
<g opacity="0.3">
<path opacity="0.3" d="M129.195 363.927L129.16 367.778H112.902V365.662L129.195 363.927Z" fill="black"/>
</g>
<path d="M179.678 89.6672C179.297 89.6672 178.315 93.5102 177.828 95.4406C177.652 96.1479 177.754 96.8954 178.111 97.5304L182.016 104.446C182.747 105.724 183.804 106.785 185.08 107.519L187.037 108.626L187.294 112.735L198.283 112.912L194.936 100.081L193.536 92.2617C193.35 91.8783 193.074 91.5454 192.732 91.2911C192.39 91.0368 191.991 90.8685 191.571 90.8006L190.535 90.6501L190.145 89.6583C190.033 89.3767 189.85 89.1287 189.614 88.938C189.378 88.7473 189.098 88.6203 188.799 88.5691L188.153 88.4894L187.267 86.2668C187.123 85.9143 186.878 85.6122 186.563 85.398C186.248 85.1838 185.877 85.0671 185.496 85.0625L180.183 85.1333C180.183 85.1333 179.014 86.7096 181.697 87.4534C182.44 87.6639 183.21 87.7594 183.982 87.7367L185.222 92.5273C185.222 92.5273 186.107 97.557 183.743 97.557C181.671 97.557 181.476 94.8474 181.476 94.8474C181.476 94.8474 182.388 89.3661 179.678 89.6672Z" fill="#FFBE9D"/>
<path d="M190.57 94.4666C190.524 94.1289 190.456 93.7946 190.366 93.4659C190.087 92.686 189.562 92.0179 188.87 91.5621C188.502 90.8036 188.225 90.0039 188.046 89.1801C187.946 88.8444 187.907 88.4935 187.931 88.144C187.931 88.144 188.002 88.5337 188.17 89.1447C188.389 89.9332 188.67 90.7031 189.011 91.447L189.552 91.8897C189.716 92.0458 189.864 92.2178 189.994 92.4033C190.218 92.7142 190.386 93.0618 190.49 93.4305C190.56 93.6753 190.596 93.9286 190.596 94.1832C190.605 94.2785 190.596 94.3745 190.57 94.4666Z" fill="#EB996E"/>
<path d="M192.261 93.5369C192.237 93.3636 192.183 93.1958 192.102 93.041C191.999 92.8558 191.852 92.6985 191.675 92.5827C191.497 92.467 191.294 92.3963 191.083 92.3769H191.022V92.3237L190.96 92.1555C190.696 91.5094 190.486 90.8431 190.331 90.1631C190.658 90.7775 190.928 91.4208 191.137 92.0846L191.199 92.2617L191.119 92.1998C191.359 92.2222 191.588 92.3078 191.784 92.4478C191.98 92.5878 192.136 92.7772 192.235 92.9967C192.341 93.3155 192.288 93.5546 192.261 93.5369Z" fill="#EB996E"/>
<path d="M183.867 87.7543C183.822 87.7543 183.619 87.5152 183.672 87.1433C183.725 86.7714 183.902 86.5412 183.946 86.5678C183.991 86.5943 183.893 86.8423 183.858 87.161C183.822 87.4798 183.911 87.7278 183.867 87.7543Z" fill="#EB996E"/>
<path d="M127.575 137.573L147.499 137.325L145.276 120.35C145.276 120.35 146.64 120.058 146.729 112.681C146.817 105.305 147.162 92.7486 147.162 92.7486C142.965 90.9463 138.362 90.2965 133.829 90.8662C129.297 91.4359 124.998 93.2045 121.377 95.9896L120.287 96.8751L127.575 137.573Z" fill="#FFBE9D"/>
<path d="M122.599 105.916C122.475 105.863 117.525 104.411 117.684 109.458C117.843 114.506 122.882 113.301 122.882 113.16C122.882 113.018 122.599 105.916 122.599 105.916Z" fill="#FFBE9D"/>
<path d="M146.295 104.862C146.419 104.809 150.917 103.596 150.722 108.644C150.527 113.691 145.524 112.487 145.524 112.336C145.524 112.186 146.295 104.862 146.295 104.862Z" fill="#FFBE9D"/>
<path d="M151.971 90.2781C152.021 89.8201 151.955 89.3567 151.778 88.931C151.602 88.5053 151.321 88.131 150.961 87.843C150.59 87.5697 150.133 87.4383 149.674 87.4724C149.214 87.5065 148.782 87.7039 148.455 88.029C148.524 87.7205 148.528 87.4009 148.466 87.0909C148.403 86.781 148.277 86.4875 148.094 86.2296C147.911 85.9717 147.676 85.755 147.404 85.5936C147.133 85.4322 146.83 85.3297 146.516 85.2927C145.312 85.2219 144.284 86.1251 143.124 86.4439C141.964 86.6933 140.753 86.5532 139.68 86.0454C138.582 85.6115 137.563 85.0005 136.457 84.602C134.119 83.7447 131.538 83.8463 129.275 84.8847C127.012 85.9232 125.252 87.8142 124.378 90.1453C123.557 89.9462 122.694 90.0003 121.904 90.3006C121.114 90.6009 120.433 91.1333 119.951 91.8278C119.012 93.2563 118.637 94.9822 118.897 96.6715C119.072 97.8041 119.369 98.9144 119.782 99.9833C119.782 100.081 119.782 100.169 119.782 100.267C119.853 104.322 121.97 117.153 123.705 117.18C126.725 117.224 124.352 103.481 124.352 103.481C128.053 102.047 126.672 96.4944 127.601 95.6532C128.531 94.8119 130.462 92.855 138.228 96.8221C141.114 98.1104 144.333 98.4574 147.428 97.8138H147.623H147.667C147.667 97.8138 147.711 97.8138 147.738 97.8138C148.441 97.6237 149.11 97.325 149.721 96.9283C150.447 96.5137 151.021 95.8775 151.36 95.113C151.522 94.7283 151.568 94.3046 151.492 93.894C151.417 93.4834 151.223 93.1038 150.935 92.8018C151.518 92.0793 151.878 91.2023 151.971 90.2781Z" fill="#263238"/>
<path d="M120.96 105.394C121.713 109.627 121.562 111.849 122.262 114.674C123.369 119.101 125.591 122.573 129.612 124.804C133.632 127.036 139.087 126.991 142.549 123.919C144.949 121.811 146.649 119.429 146.976 116.25C147.304 113.071 147.694 107.457 147.72 104.26C147.72 98.4957 148.145 92.9878 148.145 92.9878L131.675 90.0037L122.306 95.5735L120.96 105.394Z" fill="#263238"/>
<path d="M137.944 127.31C137.023 127.655 136.024 127.741 135.057 127.558C134.072 127.525 133.116 127.218 132.295 126.673C132.348 126.549 133.561 126.929 135.111 127.098C136.66 127.266 137.927 127.168 137.944 127.31Z" fill="#263238"/>
<path d="M142.221 89.2597C141.971 89.3503 141.708 89.3982 141.442 89.4014C140.71 89.4077 139.987 89.2376 139.335 88.9055C138.388 88.412 137.498 87.8182 136.678 87.1345C135.681 86.3006 134.48 85.7473 133.198 85.5318C131.912 85.3566 130.603 85.5855 129.452 86.187C128.518 86.6907 127.73 87.4293 127.168 88.33C126.654 89.1643 126.32 90.096 126.185 91.0662C126.187 90.8016 126.214 90.5378 126.265 90.2781C126.41 89.5649 126.676 88.882 127.053 88.2591C127.617 87.3272 128.417 86.5606 129.373 86.0365C130.552 85.4083 131.901 85.1696 133.225 85.3547C134.535 85.5663 135.761 86.1364 136.767 87.0017C137.593 87.6763 138.483 88.2694 139.423 88.7727C140.055 89.1067 140.755 89.2915 141.469 89.3129C141.947 89.3306 142.221 89.2332 142.221 89.2597Z" fill="#455A64"/>
<path d="M126.406 91.3319C126.029 91.1474 125.634 90.9992 125.228 90.8892C124.234 90.6662 123.192 90.8309 122.315 91.3497C121.459 91.8995 120.85 92.7597 120.615 93.7494C120.532 94.1636 120.488 94.5845 120.482 95.0068C120.447 94.8982 120.429 94.7846 120.429 94.6703C120.401 94.3532 120.422 94.0337 120.491 93.7228C120.587 93.2037 120.79 92.7103 121.088 92.2742C121.385 91.8382 121.771 91.4691 122.219 91.1906C122.668 90.9122 123.169 90.7305 123.692 90.6573C124.215 90.584 124.747 90.6208 125.255 90.7652C125.565 90.8456 125.863 90.9678 126.141 91.1283C126.24 91.1805 126.33 91.2494 126.406 91.3319Z" fill="#455A64"/>
<path d="M125.928 109.334C124.874 107.697 124.085 105.904 123.59 104.021C124.644 105.658 125.433 107.451 125.928 109.334Z" fill="#455A64"/>
<path d="M130.24 112.23C129.261 111.689 128.451 110.885 127.903 109.91C127.23 109.015 126.816 107.952 126.707 106.837C126.84 106.837 127.318 108.174 128.292 109.653C129.266 111.132 130.356 112.132 130.24 112.23Z" fill="#455A64"/>
<path d="M134.491 113.168C133.742 112.94 133.065 112.522 132.525 111.955C131.551 111.07 130.958 110.246 131.055 110.184C131.152 110.122 131.887 110.804 132.826 111.619C133.765 112.434 134.562 113.053 134.491 113.168Z" fill="#455A64"/>
<path d="M142.009 106.323C142.122 107.187 141.968 108.065 141.566 108.838C141.301 109.669 140.792 110.4 140.105 110.937C140.404 110.158 140.75 109.398 141.141 108.661C141.388 107.867 141.678 107.087 142.009 106.323Z" fill="#455A64"/>
<path d="M144.524 102.339C144.72 103.376 144.619 104.447 144.231 105.429C144.006 106.455 143.493 107.395 142.753 108.139C142.646 108.059 143.355 106.89 143.851 105.296C144.347 103.703 144.426 102.339 144.524 102.339Z" fill="#455A64"/>
<path d="M146.516 92.1112C146.324 92.3113 146.103 92.4814 145.861 92.6159C145.197 93.0008 144.456 93.2308 143.691 93.2889C142.557 93.3675 141.419 93.1921 140.362 92.7753C139.088 92.258 137.856 91.6422 136.678 90.9335C135.503 90.2381 134.245 89.6965 132.932 89.3218C131.857 89.0264 130.722 89.0264 129.647 89.3218C128.926 89.5249 128.266 89.9019 127.725 90.4199C127.353 90.8006 127.212 91.0663 127.194 91.0486C127.317 90.8007 127.479 90.5736 127.672 90.3756C128.204 89.819 128.873 89.4127 129.612 89.1979C130.703 88.8689 131.865 88.8475 132.968 89.1359C134.301 89.5021 135.579 90.0472 136.766 90.7564C137.938 91.4595 139.161 92.0752 140.424 92.5982C141.456 93.0179 142.569 93.2024 143.682 93.1384C144.709 93.0904 145.697 92.7322 146.516 92.1112Z" fill="#455A64"/>
<path d="M147.977 94.5286C147.897 94.5994 147.807 94.659 147.711 94.7057C147.457 94.8514 147.194 94.9816 146.923 95.0953C145.131 95.8524 143.147 96.0319 141.247 95.6089C140.947 95.5505 140.652 95.4736 140.362 95.3787C140.167 95.3079 140.061 95.2636 140.069 95.2459C140.078 95.2282 140.512 95.3521 141.229 95.485C142.167 95.651 143.123 95.6927 144.072 95.6089C145.016 95.5165 145.945 95.3022 146.835 94.9714C147.561 94.7146 147.968 94.5021 147.977 94.5286Z" fill="#455A64"/>
<path d="M138.803 247.093L143.647 293.812L147.127 364.174H165.696L166.201 214.426L113.035 218.216L102.019 296.787L111.565 365.556H131.941L127.168 300.161L138.803 247.093Z" fill="#263238"/>
<path d="M138.803 247.075C137.711 248.365 136.502 249.551 135.19 250.617C133.983 251.807 132.67 252.886 131.268 253.84C132.364 252.554 133.573 251.369 134.88 250.298C136.087 249.106 137.4 248.027 138.803 247.075Z" fill="#455A64"/>
<path d="M138.75 246.189C138.671 244.191 138.703 242.189 138.847 240.195C138.848 238.194 138.963 236.196 139.193 234.208C139.43 236.201 139.468 238.212 139.308 240.212C139.313 242.218 139.127 244.219 138.75 246.189Z" fill="#455A64"/>
<path d="M144.887 228.718C144.987 228.708 145.088 228.708 145.188 228.718L146.073 228.665L149.615 228.497L162.207 227.966H162.42V228.187C162.42 232.11 162.42 236.555 162.42 241.257V241.665L162.269 241.718L154.087 245.003H154.007H153.928L146.693 242.488H146.578V242.373C146.047 238.291 145.613 234.89 145.294 232.455C145.152 231.322 145.046 230.41 144.957 229.728C144.869 229.046 144.86 228.789 144.869 228.798C144.896 228.885 144.917 228.974 144.931 229.064C144.931 229.268 145.002 229.507 145.055 229.799C145.161 230.489 145.312 231.41 145.489 232.562C145.852 234.961 146.374 238.3 146.959 242.302L146.835 242.143L154.087 244.604H153.937L162.119 241.302L161.977 241.514V241.266C161.977 236.564 161.977 232.119 161.977 228.196L162.189 228.4L149.739 228.71L146.197 228.772H144.887V228.718Z" fill="#455A64"/>
<path d="M118.082 228.949C118.173 228.937 118.266 228.937 118.357 228.949H119.18L122.368 228.842L133.88 228.577H134.092V228.789C133.968 232.668 133.827 237.14 133.676 241.895V242.019L133.579 242.081L132.25 242.966L125.521 247.394L125.405 247.473L125.282 247.394L117.648 242.647L117.551 242.585V242.479C117.693 238.406 117.817 235.014 117.896 232.579C117.95 231.446 117.994 230.534 118.02 229.861C118.024 229.55 118.044 229.239 118.082 228.931C118.096 229.019 118.096 229.108 118.082 229.197V229.932C118.082 230.622 118.082 231.543 118.082 232.703C118.082 235.103 117.994 238.459 117.941 242.444L117.843 242.275L125.459 246.836H125.22L131.949 242.408L133.278 241.523L133.171 241.709C133.348 236.945 133.508 232.473 133.65 228.594L133.853 228.807L122.492 228.869H118.401L118.082 228.949Z" fill="#455A64"/>
<path d="M160.463 250.112C159.624 250.167 158.782 250.14 157.948 250.032C156.398 249.917 154.264 249.705 151.909 249.404C149.553 249.103 147.437 248.757 145.914 248.474C145.079 248.368 144.257 248.178 143.461 247.907C144.299 247.917 145.134 247.997 145.958 248.146L151.971 248.943L157.983 249.705C158.82 249.771 159.649 249.908 160.463 250.112Z" fill="#455A64"/>
<path d="M160.029 302.189C160.029 302.189 159.958 302.463 159.595 302.782C159.055 303.213 158.382 303.441 157.691 303.429C156.674 303.395 155.698 303.021 154.919 302.366C154 301.594 153.155 300.737 152.396 299.807C150.977 298.158 149.717 296.379 148.632 294.494C148.149 293.739 147.753 292.931 147.455 292.085C147.981 292.804 148.465 293.552 148.907 294.326C150.065 296.132 151.346 297.857 152.741 299.488C153.486 300.394 154.303 301.238 155.185 302.012C155.884 302.633 156.767 303.01 157.7 303.083C158.324 303.121 158.944 302.96 159.471 302.623C159.852 302.384 160.002 302.171 160.029 302.189Z" fill="#455A64"/>
<path d="M123.36 303.836C123.36 303.836 123.36 304.075 123.112 304.429C122.784 304.93 122.344 305.348 121.828 305.651C121.054 306.101 120.172 306.33 119.278 306.315C118.187 306.277 117.127 305.94 116.214 305.341C114.607 304.225 113.331 302.695 112.521 300.914C112.137 300.224 111.84 299.489 111.636 298.727C112.088 299.374 112.49 300.055 112.84 300.763C113.708 302.421 114.958 303.848 116.488 304.925C117.336 305.483 118.317 305.807 119.331 305.864C120.153 305.894 120.97 305.714 121.704 305.341C122.355 304.96 122.919 304.447 123.36 303.836Z" fill="#455A64"/>
<path d="M124.546 296.787C124.101 297.178 123.584 297.479 123.023 297.673C121.699 298.212 120.29 298.512 118.861 298.558C117.427 298.623 115.994 298.428 114.629 297.983C114.054 297.84 113.515 297.581 113.044 297.221C114.916 297.817 116.87 298.116 118.835 298.107C120.795 297.96 122.721 297.515 124.546 296.787Z" fill="#455A64"/>
<path d="M184.974 131.888H157.904C157.904 131.888 154.22 129.772 152.449 130.117C151.144 130.532 149.988 131.317 149.119 132.375L152.706 162.199L161.472 155.717L194.112 152.326C195.511 152.311 196.892 152.014 198.173 151.452C199.454 150.891 200.609 150.076 201.568 149.058C202.609 147.952 203.395 146.631 203.871 145.189C204.347 143.746 204.501 142.216 204.322 140.708L198.283 108.626L185.886 109.042L185.39 117.18L184.974 131.888Z" fill="#455A64"/>
<path d="M110.449 139.406C107.541 141.206 105.259 143.859 103.914 147.004C102.338 150.794 91.5171 169.726 85.8675 179.626C84.8627 181.379 84.4517 183.41 84.6958 185.416C84.94 187.422 85.8263 189.296 87.2223 190.757C90.6758 194.361 96.467 195.352 101.506 193.714C103.764 192.979 112.805 185.638 112.805 185.638L110.449 139.406Z" fill="#455A64"/>
<path d="M115.16 207.05L108.953 153.645L110.449 139.406L126.255 132.676L146.72 131.33L166.21 133.482L161.649 188.26L166.635 219.155L112.052 221.617L115.16 207.05Z" fill="#455A64"/>
<path d="M115.133 206.82C115.01 206.82 113.522 194.945 111.813 180.255C110.104 165.564 108.829 153.689 108.953 153.636C109.077 153.583 110.564 165.52 112.273 180.201C113.982 194.883 115.302 206.802 115.133 206.82Z" fill="#263238"/>
<path d="M165.776 145.463C165.801 145.624 165.801 145.789 165.776 145.95C165.776 146.313 165.705 146.765 165.652 147.322C165.519 148.571 165.351 150.28 165.138 152.352C164.704 156.665 164.12 162.509 163.473 168.973C162.827 175.437 162.349 181.37 162.03 185.603C161.88 187.684 161.756 189.393 161.667 190.65C161.667 191.208 161.587 191.66 161.561 192.023C161.556 192.185 161.532 192.345 161.49 192.501C161.467 192.342 161.467 192.181 161.49 192.023C161.49 191.651 161.49 191.199 161.49 190.641C161.49 189.446 161.596 187.719 161.702 185.585C161.941 181.317 162.393 175.42 163.013 168.929C163.633 162.438 164.297 156.532 164.784 152.317C165.05 150.2 165.271 148.482 165.448 147.296C165.528 146.747 165.599 146.295 165.652 145.932C165.671 145.771 165.713 145.613 165.776 145.463Z" fill="#263238"/>
<path d="M156.416 198.638C156.149 199.011 155.853 199.364 155.53 199.691C155.186 200.101 154.817 200.488 154.424 200.851C153.963 201.276 153.467 201.79 152.847 202.268C152.194 202.828 151.508 203.348 150.793 203.827C149.986 204.395 149.149 204.921 148.287 205.403C144.315 207.611 139.909 208.926 135.376 209.255C134.331 209.255 133.349 209.37 132.419 209.317C131.56 209.307 130.703 209.248 129.851 209.14C129.146 209.066 128.446 208.957 127.752 208.812C127.222 208.726 126.699 208.604 126.185 208.449C125.74 208.35 125.305 208.214 124.883 208.042C124.883 207.936 126.778 208.52 129.877 208.812C130.725 208.897 131.576 208.938 132.428 208.936C133.313 208.936 134.314 208.883 135.341 208.83C139.799 208.455 144.132 207.162 148.066 205.031C148.951 204.509 149.837 204.048 150.563 203.517C151.289 202.986 152.006 202.498 152.626 202.02C155.097 200.072 156.336 198.567 156.416 198.638Z" fill="#263238"/>
<g opacity="0.3">
<path opacity="0.3" d="M127.557 208.609C124.901 207.847 124.75 205.341 125.786 204.27C126.822 203.198 128.443 203.056 129.957 203.269C131.407 203.625 132.892 203.824 134.385 203.862C136.811 203.703 138.812 202.012 140.53 200.258C142.248 198.505 143.815 196.539 146.029 195.53C148.243 194.52 151.342 194.883 152.493 197.017C152.826 197.718 152.976 198.491 152.93 199.265C152.883 200.039 152.642 200.789 152.228 201.445C151.392 202.756 150.269 203.858 148.942 204.668C145.853 206.776 142.357 208.215 138.679 208.894C135.001 209.572 131.222 209.475 127.584 208.609" fill="black"/>
</g>
<g opacity="0.2">
<path opacity="0.2" d="M111.193 173.25C110.715 173.923 106.101 180.228 106.101 180.228C105.977 180.866 101.506 186.63 101.506 186.63C101.506 186.63 105.482 184.425 108.537 182.849C109.828 182.084 111.051 181.21 112.194 180.237C112.194 180.237 111.503 175.898 111.202 174.277C110.52 170.647 110.06 162.456 110.06 162.456" fill="black"/>
</g>
<path d="M159.834 132.977C161.292 133.506 162.536 134.498 163.376 135.802C164.348 137.013 164.898 138.509 164.943 140.061C164.113 137.177 162.303 134.672 159.825 132.977H159.834Z" fill="#263238"/>
<path d="M111.193 173.25C110.818 174.012 110.37 174.735 109.856 175.411C108.97 176.704 107.748 178.475 106.358 180.414C103.569 184.275 101.187 187.365 101.045 187.188L102.471 185.125L106.013 180.148C107.403 178.209 108.669 176.465 109.617 175.225C110.082 174.521 110.609 173.86 111.193 173.25Z" fill="#263238"/>
</svg>
