<svg width="61" height="39" viewBox="0 0 61 39" fill="none" xmlns="http://www.w3.org/2000/svg">
<path d="M55.2004 5.67435C51.8198 2.30224 47.3159 0.292836 42.5483 0.029577C37.7807 -0.233682 33.083 1.26763 29.3516 4.24704H15.6023C15.3418 4.24704 15.092 4.35051 14.9078 4.53469C14.7237 4.71887 14.6202 4.96867 14.6202 5.22914C14.6202 5.48961 14.7237 5.7394 14.9078 5.92358C15.092 6.10776 15.3418 6.21123 15.6023 6.21123H27.2565C26.1685 7.38074 25.2294 8.68044 24.4608 10.0807H9.01571C8.75524 10.0807 8.50544 10.1842 8.32126 10.3683C8.13708 10.5525 8.03361 10.8023 8.03361 11.0628C8.03361 11.3233 8.13708 11.5731 8.32126 11.7572C8.50544 11.9414 8.75524 12.0449 9.01571 12.0449H23.518C22.3291 14.9634 21.8641 18.1263 22.1627 21.2635H15.6154C15.3549 21.2635 15.1051 21.367 14.9209 21.5511C14.7368 21.7353 14.6333 21.9851 14.6333 22.2456C14.6333 22.5061 14.7368 22.7558 14.9209 22.94C15.1051 23.1242 15.3549 23.2277 15.6154 23.2277H22.4573C22.7097 24.4957 23.0892 25.735 23.59 26.9269H9.01571C8.75524 26.9269 8.50544 27.0304 8.32126 27.2146C8.13708 27.3987 8.03361 27.6485 8.03361 27.909C8.03361 28.1695 8.13708 28.4193 8.32126 28.6034C8.50544 28.7876 8.75524 28.8911 9.01571 28.8911H24.5525C25.2969 30.2399 26.2027 31.4931 27.2499 32.6231H6.63249C6.37202 32.6231 6.12222 32.7265 5.93804 32.9107C5.75386 33.0949 5.65039 33.3447 5.65039 33.6052C5.65039 33.8656 5.75386 34.1154 5.93804 34.2996C6.12222 34.4838 6.37202 34.5872 6.63249 34.5872H28.7035C28.8755 34.5851 29.0443 34.5401 29.1945 34.4563C33.0479 37.6518 37.9868 39.2352 42.9799 38.8758C47.9729 38.5165 52.6342 36.2422 55.9903 32.5278C59.3464 28.8135 61.1379 23.9462 60.9907 18.9424C60.8435 13.9386 58.769 9.18503 55.2004 5.67435ZM53.8124 31.7392C51.3725 34.1771 48.2646 35.8368 44.8816 36.5087C41.4985 37.1805 37.9922 36.8343 34.806 35.5137C31.6197 34.1932 28.8965 31.9576 26.9805 29.0896C25.0646 26.2215 24.042 22.8499 24.042 19.4008C24.042 15.9517 25.0646 12.58 26.9805 9.71199C28.8965 6.84397 31.6197 4.60838 34.806 3.28781C37.9922 1.96725 41.4985 1.62101 44.8816 2.29286C48.2646 2.96472 51.3725 4.62449 53.8124 7.06238C57.0784 10.338 58.9125 14.7751 58.9125 19.4008C58.9125 24.0265 57.0784 28.4635 53.8124 31.7392Z" fill="#8D79F6"/>
<path d="M41.4762 4.79034C38.5872 4.79034 35.7631 5.64703 33.3609 7.25207C30.9588 8.85711 29.0866 11.1384 27.981 13.8075C26.8755 16.4766 26.5862 19.4136 27.1498 22.2471C27.7134 25.0806 29.1046 27.6833 31.1474 29.7261C33.1903 31.7689 35.793 33.1601 38.6265 33.7237C41.46 34.2874 44.397 33.9981 47.0661 32.8925C49.7351 31.7869 52.0164 29.9147 53.6215 27.5126C55.2265 25.1105 56.0832 22.2864 56.0832 19.3974C56.078 15.5249 54.5374 11.8126 51.7992 9.07439C49.061 6.33616 45.3486 4.79554 41.4762 4.79034ZM42.4583 31.9682V30.8224C42.4583 30.562 42.3548 30.3122 42.1706 30.128C41.9864 29.9438 41.7366 29.8403 41.4762 29.8403C41.2157 29.8403 40.9659 29.9438 40.7817 30.128C40.5976 30.3122 40.4941 30.562 40.4941 30.8224V31.9682C37.4978 31.7307 34.6841 30.4339 32.5569 28.3104C30.4298 26.1869 29.1283 23.3753 28.8857 20.3795H30.0511C30.3116 20.3795 30.5614 20.276 30.7456 20.0918C30.9298 19.9076 31.0332 19.6578 31.0332 19.3974C31.0332 19.1369 30.9298 18.8871 30.7456 18.7029C30.5614 18.5188 30.3116 18.4153 30.0511 18.4153H28.8857C29.1226 15.4155 30.4217 12.5985 32.5495 10.4707C34.6773 8.34288 37.4943 7.04379 40.4941 6.80691V7.97233C40.4941 8.2328 40.5976 8.4826 40.7817 8.66678C40.9659 8.85096 41.2157 8.95443 41.4762 8.95443C41.7366 8.95443 41.9864 8.85096 42.1706 8.66678C42.3548 8.4826 42.4583 8.2328 42.4583 7.97233V6.80691C45.4581 7.04379 48.2751 8.34288 50.4029 10.4707C52.5307 12.5985 53.8298 15.4155 54.0667 18.4153H52.9012C52.6408 18.4153 52.391 18.5188 52.2068 18.7029C52.0226 18.8871 51.9191 19.1369 51.9191 19.3974C51.9191 19.6578 52.0226 19.9076 52.2068 20.0918C52.391 20.276 52.6408 20.3795 52.9012 20.3795H54.0667C53.824 23.3753 52.5226 26.1869 50.3954 28.3104C48.2683 30.4339 45.4545 31.7307 42.4583 31.9682Z" fill="#8D79F6"/>
<path d="M46.8722 21.689L42.7539 19.07L47.0293 10.5585C47.1076 10.3315 47.1001 10.0835 47.008 9.86167C46.9159 9.63981 46.7457 9.45939 46.5295 9.35455C46.3134 9.24971 46.0663 9.22772 45.8351 9.29274C45.6038 9.35776 45.4044 9.50528 45.2746 9.70739L40.5998 18.9587C40.4901 19.1758 40.4648 19.4259 40.5289 19.6606C40.5931 19.8952 40.742 20.0978 40.9468 20.2289L45.8115 23.3454C45.9681 23.4447 46.1499 23.497 46.3353 23.496C46.5476 23.4969 46.7545 23.4289 46.925 23.3023C47.0954 23.1756 47.2202 22.9972 47.2807 22.7936C47.3412 22.5901 47.3341 22.3724 47.2604 22.1732C47.1867 21.9741 47.0505 21.8042 46.8722 21.689ZM12.381 22.2389C12.381 21.9785 12.2775 21.7287 12.0933 21.5445C11.9091 21.3603 11.6593 21.2568 11.3989 21.2568H0.982096C0.721628 21.2568 0.471828 21.3603 0.287649 21.5445C0.103471 21.7287 0 21.9785 0 22.2389C0 22.4994 0.103471 22.7492 0.287649 22.9334C0.471828 23.1176 0.721628 23.221 0.982096 23.221H11.412C11.6701 23.2176 11.9166 23.1126 12.0979 22.9288C12.2793 22.745 12.381 22.4971 12.381 22.2389ZM5.79436 6.20458H11.412C11.6724 6.20458 11.9222 6.10111 12.1064 5.91693C12.2906 5.73275 12.394 5.48295 12.394 5.22248C12.394 4.96201 12.2906 4.71222 12.1064 4.52804C11.9222 4.34386 11.6724 4.24039 11.412 4.24039H5.79436C5.5339 4.24039 5.2841 4.34386 5.09992 4.52804C4.91574 4.71222 4.81227 4.96201 4.81227 5.22248C4.81227 5.48295 4.91574 5.73275 5.09992 5.91693C5.2841 6.10111 5.5339 6.20458 5.79436 6.20458ZM4.72715 17.5642H17.6712C17.9316 17.5642 18.1814 17.4607 18.3656 17.2765C18.5498 17.0923 18.6533 16.8425 18.6533 16.5821C18.6533 16.3216 18.5498 16.0718 18.3656 15.8876C18.1814 15.7034 17.9316 15.6 17.6712 15.6H4.72715C4.46669 15.6 4.21689 15.7034 4.03271 15.8876C3.84853 16.0718 3.74506 16.3216 3.74506 16.5821C3.74506 16.8425 3.84853 17.0923 4.03271 17.2765C4.21689 17.4607 4.46669 17.5642 4.72715 17.5642Z" fill="#8D79F6"/>
</svg>
