<svg width="398" height="376" viewBox="0 0 398 376" fill="none" xmlns="http://www.w3.org/2000/svg">
<path d="M198.779 375.563C308.562 375.563 397.558 324.182 397.558 260.801C397.558 197.42 308.562 146.039 198.779 146.039C88.9964 146.039 0 197.42 0 260.801C0 324.182 88.9964 375.563 198.779 375.563Z" fill="#F5F5F5"/>
<path d="M87.4003 17.7407L80.2535 21.8579C80.2949 21.546 80.3151 21.2316 80.314 20.917V18.8455C80.314 15.16 77.7246 13.6667 74.5482 15.5138C73.1703 16.3511 71.992 17.4793 71.0957 18.8196C70.5778 14.1933 66.9441 12.467 62.5335 15.0132C57.7604 17.7666 53.9022 24.5077 53.9022 29.9713V33.0699C53.8725 34.304 54.1234 35.5288 54.6358 36.6519L48.7061 40.1044C47.7741 40.7111 46.9984 41.5291 46.442 42.4919C45.8856 43.4548 45.5642 44.5353 45.5039 45.6457C45.5039 47.6913 46.9367 48.5199 48.7061 47.5015L87.4003 25.1291C88.3323 24.5224 89.108 23.7045 89.6644 22.7416C90.2208 21.7788 90.5422 20.6982 90.6025 19.5878C90.6025 17.5422 89.1697 16.7136 87.4003 17.7407Z" fill="#EBEBEB"/>
<path d="M117.956 38.5414L112.57 41.6487C112.598 41.4137 112.612 41.1774 112.614 40.9409V39.3786C112.614 36.5993 110.663 35.4773 108.255 36.8669C107.221 37.5004 106.337 38.3516 105.665 39.3614C105.268 35.9088 102.524 34.5624 99.2005 36.4871C97.3021 37.7237 95.722 39.3904 94.5882 41.3519C93.4545 43.3135 92.7991 45.5147 92.6752 47.7769V50.116C92.6565 51.0463 92.8452 51.9692 93.2276 52.8176L88.7566 55.407C88.0536 55.8662 87.4685 56.4844 87.0486 57.2116C86.6288 57.9389 86.386 58.7547 86.3398 59.5931C86.3398 61.1381 87.4188 61.7596 88.7566 60.9914L117.956 44.1345C118.659 43.6753 119.244 43.057 119.664 42.3298C120.084 41.6026 120.327 40.7867 120.373 39.9483C120.373 38.3947 119.294 37.7732 117.956 38.5414Z" fill="#EBEBEB"/>
<path d="M72.4225 300.367L81.3386 295.188C81.3386 295.188 83.5224 276.104 82.0637 261.328C80.0267 240.561 66.6136 215.582 50.6112 221.442C34.6088 227.303 57.9392 248.51 63.118 266.109C68.2967 283.709 72.4225 300.367 72.4225 300.367Z" fill="#798CFC"/>
<path opacity="0.2" d="M72.4225 300.367L81.3386 295.188C81.3386 295.188 83.5224 276.104 82.0637 261.328C80.0267 240.561 66.6136 215.582 50.6112 221.442C34.6088 227.303 57.9392 248.51 63.118 266.109C68.2967 283.709 72.4225 300.367 72.4225 300.367Z" fill="black"/>
<path d="M77.1112 298.2C77.0409 298.198 76.9718 298.181 76.9077 298.152C76.8436 298.124 76.7859 298.082 76.7378 298.031C76.6897 297.98 76.6522 297.919 76.6274 297.854C76.6026 297.788 76.591 297.718 76.5933 297.647C78.1556 251.496 55.1877 228.286 54.9547 228.062C54.8943 228.015 54.8446 227.955 54.8088 227.887C54.773 227.819 54.752 227.745 54.7472 227.668C54.7423 227.592 54.7537 227.515 54.7806 227.443C54.8075 227.371 54.8493 227.306 54.9032 227.251C54.9571 227.197 55.022 227.154 55.0935 227.127C55.165 227.099 55.2416 227.087 55.3182 227.091C55.3948 227.095 55.4697 227.115 55.5379 227.15C55.6062 227.185 55.6663 227.234 55.7142 227.294C55.9473 227.518 79.2518 251.073 77.6723 297.682C77.6701 297.753 77.6537 297.823 77.6242 297.887C77.5947 297.952 77.5526 298.01 77.5004 298.058C77.4481 298.107 77.3868 298.144 77.32 298.168C77.2532 298.193 77.1822 298.203 77.1112 298.2Z" fill="white"/>
<path d="M67.6677 304.051L74.0117 300.391C74.0117 300.391 75.0907 287.298 68.669 271.382C63.0759 257.572 49.214 246.049 42.2399 248.457C35.2658 250.865 35.4298 255.819 38.7874 261.007C42.145 266.194 62.9291 278.563 67.6677 304.051Z" fill="#798CFC"/>
<path d="M71.0161 302.664C70.8718 302.664 70.7335 302.607 70.6315 302.505C70.5296 302.403 70.4723 302.265 70.4723 302.12C70.6017 272.947 43.206 253.224 42.9298 253.026C42.8323 252.937 42.7707 252.816 42.7569 252.685C42.743 252.554 42.7779 252.423 42.8548 252.316C42.9316 252.209 43.0452 252.135 43.1736 252.106C43.3021 252.078 43.4365 252.098 43.5512 252.162C43.8274 252.361 71.6807 272.411 71.5512 302.146C71.5467 302.285 71.4884 302.417 71.3885 302.514C71.2886 302.61 71.155 302.664 71.0161 302.664Z" fill="white"/>
<path d="M238.853 263.492L183.613 295.428L183.483 295.359L162.466 283.214C160.637 282.04 159.185 280.364 158.282 278.387C157.379 276.409 157.064 274.214 157.374 272.063L165.142 231.565L220.382 199.629L212.614 240.127C212.304 242.278 212.619 244.474 213.522 246.451C214.425 248.428 215.878 250.104 217.706 251.279L238.853 263.492Z" fill="#37474F"/>
<path d="M165.171 231.564L157.438 271.708L212.695 239.815L219.842 202.684L216.355 201.984L165.171 231.564Z" fill="#263238"/>
<path d="M183.596 295.422L162.458 283.217C160.631 282.041 159.18 280.365 158.277 278.388C157.374 276.411 157.058 274.217 157.366 272.066L165.134 231.568L155.924 226.242L147.017 272.575C145.834 278.703 149.296 286.273 154.699 289.389L183.57 306.056L183.596 295.422Z" fill="#263238"/>
<path d="M238.855 263.492L183.598 295.419V306.062L238.855 274.135V263.492Z" fill="#455A64"/>
<path d="M292.914 1.05818C295.451 2.52551 297.514 6.23696 297.514 9.38739V178.958C297.421 180.661 296.929 182.319 296.075 183.796C295.222 185.273 294.032 186.529 292.603 187.46L81.2481 309.498C78.5379 311.06 74.274 311.138 71.7536 309.67C69.2333 308.203 67.1445 304.492 67.1445 301.341V131.771C67.2378 130.066 67.731 128.408 68.5842 126.929C69.4374 125.451 70.6267 124.194 72.0557 123.26L283.393 1.23081C286.103 -0.34009 290.367 -0.417769 292.914 1.05818Z" fill="#455A64"/>
<path d="M80.6605 309.792C77.9503 311.061 74.0921 311.035 71.7185 309.672C69.1723 308.204 67.1094 304.493 67.1094 301.342V131.772C67.1707 130.062 67.6668 128.395 68.5508 126.93L77.7949 132.255C76.9102 133.717 76.414 135.381 76.3535 137.089V306.659C76.3276 309.568 78.2179 310.871 80.6605 309.792Z" fill="#263238"/>
<path d="M297.513 178.958V9.42223C297.513 6.28907 295.321 5.02027 292.602 6.58253L81.2472 128.586C79.8178 129.517 78.6281 130.772 77.7748 132.25C76.9215 133.727 76.4285 135.384 76.3359 137.088V306.658C76.3359 309.792 78.5369 311.06 81.2472 309.498L292.602 187.46C294.031 186.529 295.221 185.274 296.074 183.797C296.928 182.319 297.421 180.662 297.513 178.958Z" fill="#37474F"/>
<path d="M286.725 15.2032L84.8647 131.812C83.7218 132.558 82.7705 133.562 82.0882 134.743C81.4059 135.925 81.0116 137.251 80.9375 138.614V289.169C80.9375 291.673 82.6638 292.691 84.8647 291.439L286.734 174.831C287.877 174.085 288.828 173.081 289.51 171.899C290.193 170.718 290.587 169.392 290.661 168.029V17.4733C290.661 14.9702 288.9 13.9517 286.725 15.2032Z" fill="#798CFC"/>
<path opacity="0.8" d="M286.725 15.2032L84.8647 131.812C83.7218 132.558 82.7705 133.562 82.0882 134.743C81.4059 135.925 81.0116 137.251 80.9375 138.614V289.169C80.9375 291.673 82.6638 292.691 84.8647 291.439L286.734 174.831C287.877 174.085 288.828 173.081 289.51 171.899C290.193 170.718 290.587 169.392 290.661 168.029V17.4733C290.661 14.9702 288.9 13.9517 286.725 15.2032Z" fill="white"/>
<path d="M95.3239 272.927C94.2536 272.927 93.5977 272.064 93.5977 270.588V151.355L277.98 44.9141V163.646C277.907 164.912 277.539 166.142 276.905 167.239C276.271 168.337 275.389 169.27 274.329 169.964L96.8344 272.452C96.3807 272.739 95.8601 272.903 95.3239 272.927Z" fill="#F5F5F5"/>
<path d="M277.548 45.6706V163.661C277.475 164.853 277.125 166.012 276.526 167.046C275.926 168.08 275.094 168.96 274.096 169.616L96.6188 272.078C96.2293 272.324 95.7838 272.466 95.3242 272.493C94.1676 272.493 94.0467 271.163 94.0467 270.585V151.603L277.548 45.6706ZM278.411 44.1774L93.1836 151.119V270.585C93.1836 272.311 94.0467 273.356 95.3242 273.356C95.9369 273.334 96.5327 273.149 97.0504 272.821L274.536 170.35C275.664 169.616 276.603 168.626 277.276 167.46C277.95 166.295 278.339 164.987 278.411 163.643V44.1602V44.1774Z" fill="#E0E0E0"/>
<path d="M93.1836 151.102V167.873L278.411 60.9308V44.1602L93.1836 151.102Z" fill="#798CFC"/>
<path d="M209.402 90.5541V94.1619C209.402 94.8956 209.929 95.1977 210.568 94.8352L267.534 61.9499V55.6836L210.568 88.5689C210.233 88.7875 209.954 89.0805 209.752 89.4249C209.55 89.7692 209.43 90.1557 209.402 90.5541Z" fill="#FAFAFA"/>
<path d="M273.622 52.1626C274.261 51.7915 274.778 52.0936 274.778 52.8359V56.4438C274.755 56.8458 274.639 57.237 274.438 57.5861C274.237 57.9352 273.958 58.2327 273.622 58.4548L267.52 61.9764V55.6842L273.622 52.1626Z" fill="#455A64"/>
<path d="M273.162 57.1081L272.489 56.901C272.556 56.6181 272.591 56.3286 272.592 56.0378C272.623 55.763 272.582 55.4849 272.473 55.2307C272.364 54.9765 272.191 54.755 271.971 54.5878C271.821 54.4971 271.65 54.4492 271.475 54.4492C271.3 54.4492 271.128 54.4971 270.978 54.5878C270.545 54.919 270.196 55.3483 269.96 55.8404C269.725 56.3325 269.609 56.8735 269.623 57.4189C269.592 57.6949 269.634 57.9742 269.742 58.2298C269.851 58.4853 270.024 58.7084 270.245 58.8775C270.376 58.9521 270.525 58.9908 270.676 58.9897C270.875 58.9869 271.068 58.9302 271.237 58.8258C271.754 58.4702 272.139 57.9546 272.333 57.3584L273.015 57.5656H273.093C273.147 57.5645 273.2 57.5464 273.243 57.5138C273.286 57.4813 273.318 57.436 273.335 57.3843C273.34 57.3257 273.326 57.2669 273.295 57.2169C273.264 57.167 273.217 57.1287 273.162 57.1081ZM270.978 58.4201C270.905 58.4634 270.822 58.4862 270.737 58.4862C270.652 58.4862 270.568 58.4634 270.495 58.4201C270.356 58.2922 270.25 58.133 270.186 57.9559C270.121 57.7787 270.1 57.5886 270.124 57.4016C270.117 56.9448 270.213 56.4923 270.406 56.0782C270.599 55.6641 270.883 55.2991 271.237 55.0107C271.328 54.9531 271.432 54.9204 271.539 54.9158C271.599 54.9018 271.661 54.9018 271.721 54.9158C271.857 55.0449 271.962 55.2042 272.027 55.3811C272.091 55.5579 272.113 55.7473 272.092 55.9343C272.111 56.4065 272.021 56.8768 271.827 57.3081C271.634 57.7394 271.343 58.1201 270.978 58.4201Z" fill="#FAFAFA"/>
<path d="M93.1836 142.999C93.2547 141.656 93.642 140.348 94.314 139.183C94.9859 138.017 95.9235 137.027 97.0504 136.292L274.536 33.8215C276.676 32.5872 278.411 33.5885 278.411 36.057V44.1618L93.1836 151.104V142.999Z" fill="#37474F"/>
<path d="M256.617 48.3491C256.09 48.6937 255.651 49.1578 255.336 49.7036C255.021 50.2494 254.839 50.8617 254.805 51.4909C254.805 52.6561 255.616 53.1222 256.617 52.5439C257.149 52.2004 257.591 51.7357 257.907 51.188C258.224 50.6403 258.406 50.0253 258.438 49.3935C258.438 48.2628 257.627 47.7708 256.617 48.3491Z" fill="#798CFC"/>
<path d="M262.977 44.6897C262.447 45.0323 262.006 45.4957 261.689 46.0417C261.373 46.5878 261.19 47.2012 261.156 47.8315C261.156 48.988 261.968 49.4628 262.977 48.8845C263.506 48.539 263.946 48.0736 264.261 47.5262C264.576 46.9788 264.757 46.3648 264.79 45.734C264.79 44.5775 263.979 44.1114 262.977 44.6897Z" fill="#798CFC"/>
<path d="M269.332 41.0301C268.805 41.3747 268.366 41.8387 268.051 42.3846C267.736 42.9304 267.554 43.5427 267.52 44.1719C267.52 45.3285 268.331 45.8032 269.332 45.2249C269.86 44.8789 270.3 44.4134 270.615 43.8661C270.929 43.3188 271.111 42.705 271.145 42.0745C271.136 40.9179 270.333 40.495 269.332 41.0301Z" fill="#798CFC"/>
<path d="M174.386 155.05L197.207 141.879C198.649 141.016 199.797 141.715 199.797 143.389V169.732C199.749 170.637 199.49 171.519 199.041 172.306C198.591 173.092 197.963 173.763 197.207 174.264L174.386 187.435C172.945 188.298 171.797 187.59 171.797 185.924V159.608C171.838 158.698 172.095 157.81 172.545 157.018C172.995 156.226 173.626 155.552 174.386 155.05Z" fill="#798CFC"/>
<path d="M180.654 187.865L194.464 179.907C195.5 179.302 196.329 179.734 196.329 180.847C196.282 181.475 196.089 182.083 195.765 182.622C195.442 183.162 194.996 183.618 194.464 183.955L180.654 191.913C179.618 192.508 178.781 192.085 178.781 190.972C178.827 190.343 179.02 189.734 179.346 189.194C179.671 188.654 180.12 188.199 180.654 187.865Z" fill="#455A64"/>
<path d="M185.599 154.084C188.024 152.686 189.983 153.816 189.983 156.613C189.902 158.133 189.462 159.613 188.7 160.932C187.938 162.25 186.875 163.37 185.599 164.2C183.182 165.598 181.223 164.467 181.223 161.671C181.305 160.151 181.744 158.673 182.504 157.354C183.264 156.036 184.325 154.916 185.599 154.084Z" fill="#FAFAFA"/>
<path d="M194.238 169.024C194.238 164.44 191.01 162.395 187.04 164.708L184.554 166.149C180.575 168.445 177.355 174.021 177.355 178.613V179.847L194.238 170.111V169.024Z" fill="#FAFAFA"/>
<path d="M216.484 130.726L239.296 117.555C240.747 116.692 241.886 117.391 241.886 119.065V145.408C241.84 146.313 241.581 147.195 241.131 147.982C240.682 148.77 240.053 149.44 239.296 149.939L216.484 163.111C215.042 163.974 213.895 163.266 213.895 161.6V135.257C213.941 134.352 214.199 133.47 214.649 132.683C215.099 131.896 215.727 131.226 216.484 130.726Z" fill="#798CFC"/>
<path opacity="0.2" d="M216.484 130.726L239.296 117.555C240.747 116.692 241.886 117.391 241.886 119.065V145.408C241.84 146.313 241.581 147.195 241.131 147.982C240.682 148.77 240.053 149.44 239.296 149.939L216.484 163.111C215.042 163.974 213.895 163.266 213.895 161.6V135.257C213.941 134.352 214.199 133.47 214.649 132.683C215.099 131.896 215.727 131.226 216.484 130.726Z" fill="black"/>
<path d="M222.748 163.541L236.558 155.583C237.585 154.987 238.422 155.41 238.422 156.523C238.377 157.151 238.185 157.76 237.861 158.299C237.537 158.839 237.091 159.295 236.558 159.631L222.748 167.589C221.712 168.184 220.875 167.761 220.875 166.648C220.921 166.019 221.114 165.41 221.439 164.87C221.765 164.33 222.213 163.875 222.748 163.541Z" fill="#455A64"/>
<path d="M227.696 129.76C230.122 128.361 232.081 129.492 232.081 132.289C232 133.809 231.561 135.289 230.799 136.608C230.037 137.926 228.974 139.046 227.696 139.876C225.28 141.274 223.32 140.143 223.32 137.347C223.403 135.827 223.842 134.349 224.603 133.031C225.363 131.713 226.423 130.592 227.696 129.76Z" fill="#FAFAFA"/>
<path d="M236.336 144.699C236.336 140.116 233.108 138.071 229.137 140.384L226.652 141.825C222.673 144.121 219.453 149.697 219.453 154.289V155.523L236.336 145.796V144.699Z" fill="#FAFAFA"/>
<path d="M132.335 179.31L155.157 166.139C156.598 165.276 157.746 165.984 157.746 167.65V193.992C157.701 194.898 157.442 195.78 156.993 196.567C156.543 197.354 155.914 198.025 155.157 198.524L132.335 211.695C130.894 212.558 129.746 211.859 129.746 210.185V183.842C129.794 182.937 130.053 182.055 130.502 181.268C130.952 180.482 131.58 179.811 132.335 179.31Z" fill="#798CFC"/>
<path opacity="0.5" d="M132.335 179.31L155.157 166.139C156.598 165.276 157.746 165.984 157.746 167.65V193.992C157.701 194.898 157.442 195.78 156.993 196.567C156.543 197.354 155.914 198.025 155.157 198.524L132.335 211.695C130.894 212.558 129.746 211.859 129.746 210.185V183.842C129.794 182.937 130.053 182.055 130.502 181.268C130.952 180.482 131.58 179.811 132.335 179.31Z" fill="white"/>
<path d="M138.603 212.127L152.414 204.168C153.449 203.573 154.278 203.996 154.278 205.109C154.233 205.737 154.04 206.346 153.716 206.885C153.393 207.425 152.946 207.881 152.414 208.217L138.603 216.175C137.568 216.77 136.73 216.347 136.73 215.234C136.776 214.605 136.969 213.996 137.295 213.456C137.62 212.916 138.069 212.46 138.603 212.127Z" fill="#455A64"/>
<path d="M143.548 178.344C145.973 176.946 147.933 178.085 147.933 180.873C147.851 182.395 147.411 183.876 146.649 185.196C145.887 186.515 144.825 187.637 143.548 188.469C141.131 189.858 139.172 188.727 139.172 185.931C139.255 184.412 139.694 182.933 140.454 181.615C141.214 180.297 142.274 179.176 143.548 178.344Z" fill="#FAFAFA"/>
<path d="M152.189 193.267C152.189 188.675 148.961 186.638 144.99 188.952L142.531 190.393C138.552 192.689 135.332 198.273 135.332 202.865V204.1L152.215 194.355L152.189 193.267Z" fill="#FAFAFA"/>
<path d="M351.13 124.763L341.963 119.472C332.719 114.293 320.049 115.027 306.005 123.132C292.869 130.701 280.888 143.338 271.86 157.959C261.416 174.79 254.848 194.28 254.848 211.749C254.848 228.045 260.553 239.473 269.78 244.833L279.041 250.141C288.363 256.08 301.483 255.553 316.156 247.129C344.415 230.807 367.322 191.129 367.322 158.503C367.288 141.482 361.073 129.804 351.13 124.763Z" fill="#798CFC"/>
<path opacity="0.1" d="M278.678 249.923L269.779 244.83C260.552 239.479 254.855 228.034 254.855 211.738C254.855 194.268 261.424 174.796 271.859 157.965L281.94 163.825C271.497 180.657 264.945 200.12 264.945 217.573C264.945 233.152 270.159 244.287 278.678 249.923Z" fill="black"/>
<path opacity="0.4" d="M350.758 124.546C341.643 120.127 329.482 121.249 316.129 128.948C302.975 136.552 290.995 149.197 281.941 163.827L271.859 157.966C280.896 143.293 292.885 130.709 306.013 123.139C320.048 115.025 332.727 114.257 341.98 119.471L350.758 124.546Z" fill="white"/>
<path d="M293.171 247.195C289.45 247.273 285.787 246.272 282.623 244.312L282.476 244.217L282.183 244.053C275.442 239.461 271.73 230.07 271.73 217.564C271.73 202.027 277.539 183.807 287.681 167.502C296.485 153.278 307.766 141.72 319.462 134.962C326.323 131 333.039 128.92 338.856 128.92C341.812 128.876 344.74 129.492 347.427 130.724L347.738 130.897L347.893 130.974C355.756 134.953 360.262 145 360.262 158.543C360.262 188.934 338.856 226.005 312.539 241.188C305.66 245.106 298.988 247.195 293.171 247.195Z" fill="#FAFAFA"/>
<path d="M318.363 198.009C305.338 201.461 294.773 193.762 294.773 180.746V172.399C294.773 161.36 303.724 150.019 314.764 147.058L321.953 145.133C332.993 142.173 341.944 148.724 341.944 159.763V168.11C341.909 181.126 331.387 194.513 318.363 198.009Z" fill="#263238"/>
<path d="M282.355 278.718C282.441 277.337 284.642 262.232 286.161 253.688L300.938 254.956L295.552 286.107L285.859 285.477C281.992 285.623 282.294 280.082 282.355 278.718Z" fill="#FFA8A7"/>
<path d="M350.429 230.91L360.838 263.493L347.822 270.623L340.02 239.973L350.429 230.91Z" fill="#FFA8A7"/>
<path d="M327.645 203.006C334.55 201.279 342.206 202.143 344.829 207.667C347.453 213.191 353.193 233.034 353.193 233.034C349.622 237.846 344.394 241.164 338.52 242.347L327.645 203.006Z" fill="#798CFC"/>
<path opacity="0.3" d="M327.645 203.006C334.55 201.279 342.206 202.143 344.829 207.667C347.453 213.191 353.193 233.034 353.193 233.034C349.622 237.846 344.394 241.164 338.52 242.347L327.645 203.006Z" fill="black"/>
<path d="M313.297 207.13L307.532 208.952C301.257 212.404 298.995 217.945 296.363 225.083C294.442 230.152 294.266 235.716 295.862 240.896L303.207 263.467C303.207 263.467 299.755 273.98 295.776 284.122C314.204 291.027 337.206 278.649 342.756 268.499C342.998 266.591 342.678 258.392 343.119 248.846C343.602 238.661 344.793 226.991 343.429 221.139C340.883 210.289 336.127 200.735 326.65 203.272L313.297 207.13Z" fill="#F5F5F5"/>
<path d="M307.534 208.953C301.25 211.663 291.998 215.599 288.83 233.716C285.602 252.075 284.98 256.408 284.98 256.408C284.98 256.408 290.479 261.267 300.914 258.41C300.914 258.41 310.115 221.598 307.534 208.953Z" fill="#798CFC"/>
<path opacity="0.3" d="M307.534 208.953C301.25 211.663 291.998 215.599 288.83 233.716C285.602 252.075 284.98 256.408 284.98 256.408C284.98 256.408 290.479 261.267 300.914 258.41C300.914 258.41 310.115 221.598 307.534 208.953Z" fill="black"/>
<path d="M297.734 233.386C305.114 231.41 311.104 223.823 311.104 216.443V192.707C303.716 194.692 297.734 202.279 297.734 209.659V233.386Z" fill="#263238"/>
<path d="M301.188 257.271C302.353 252.377 303.578 246.809 304.735 240.871C304.735 240.871 304.683 253.145 302.871 262.449L301.188 257.271Z" fill="#E0E0E0"/>
<path d="M334.202 152.859C336.687 153.887 339.769 160.3 339.467 175.551C339.208 188.498 335.6 192.615 333.787 194.013C331.975 195.412 328.479 195.791 325.087 196.05V203.767C325.087 203.767 329.782 208.807 329.48 212.398C329.178 215.989 322.705 218.587 318.311 216.308C315.41 214.643 312.942 212.319 311.104 209.524V190.898C311.104 190.898 308.808 195.049 305.062 193.176C301.316 191.303 301.17 184.226 303.336 181.092C305.503 177.959 310.241 177.502 311.104 180.799C311.104 180.799 316.516 179.582 323.732 173.031C329.52 167.774 333.234 160.618 334.202 152.859Z" fill="#FFA8A7"/>
<path d="M327.037 175.645C327.058 176.091 326.941 176.533 326.703 176.91C326.466 177.288 326.119 177.585 325.708 177.76C324.94 178.002 324.275 177.466 324.241 176.552C324.219 176.106 324.334 175.665 324.57 175.287C324.806 174.909 325.152 174.612 325.562 174.437C326.373 174.195 326.994 174.73 327.037 175.645Z" fill="#263238"/>
<path d="M327.411 186.441L330.665 186.769C330.585 187.282 330.331 187.753 329.946 188.101C329.562 188.45 329.069 188.656 328.55 188.686C327.653 188.591 327.144 187.589 327.411 186.441Z" fill="#F28F8F"/>
<path d="M338.519 167.607L335.68 166.097C336.198 165.027 337.251 164.492 338.036 164.914C338.821 165.337 339.029 166.511 338.519 167.607Z" fill="#263238"/>
<path d="M337.862 171.578C337.884 172.023 337.768 172.464 337.53 172.841C337.292 173.218 336.944 173.512 336.532 173.684C335.764 173.934 335.108 173.39 335.065 172.476C335.044 172.032 335.159 171.592 335.395 171.215C335.631 170.839 335.977 170.544 336.386 170.37C337.162 170.119 337.818 170.663 337.862 171.578Z" fill="#263238"/>
<path d="M331.258 172.426L331.482 182.093L335.91 179.322L331.258 172.426Z" fill="#F28F8F"/>
<path d="M325.088 196.049C321.506 196.463 314.143 195.997 313.004 192.941C313.408 194.413 314.327 195.69 315.593 196.541C317.794 198.129 325.088 198.621 325.088 198.621V196.049Z" fill="#F28F8F"/>
<path d="M303.556 231.351L296.504 227.277H296.427C292.922 225.292 288.115 225.551 282.789 228.658C277.809 231.532 273.295 236.322 269.842 241.864C265.889 248.251 263.395 255.674 263.395 262.268C263.395 268.44 265.561 272.781 269.057 274.809L276.221 278.901C279.751 281.153 284.74 280.955 290.281 277.753C300.992 271.564 309.684 256.52 309.684 244.151C309.684 237.695 307.328 233.258 303.556 231.351Z" fill="#37474F"/>
<path d="M276.074 278.805L269.057 274.8C265.552 272.772 263.395 268.43 263.395 262.25C263.395 255.63 265.88 248.242 269.842 241.863L277.334 246.179C273.372 252.566 270.886 259.937 270.886 266.557C270.869 272.444 272.863 276.673 276.074 278.805Z" fill="#263238"/>
<path d="M303.407 231.246C299.954 229.571 295.345 229.994 290.279 232.92C285.212 235.846 280.784 240.593 277.332 246.143L269.84 241.828C273.292 236.278 277.815 231.47 282.787 228.622C288.112 225.549 292.92 225.255 296.424 227.232H296.502L303.407 231.246Z" fill="#455A64"/>
<path d="M298.695 247.879L292.23 251.616V241.259C292.23 239.593 291.367 238.756 290.28 239.377C289.192 239.998 288.329 241.846 288.329 243.511V253.869L281.856 257.606C281.32 258.031 280.89 258.574 280.598 259.192C280.306 259.81 280.161 260.488 280.173 261.171C280.173 262.604 280.932 263.329 281.856 262.785L288.329 259.056V269.414C288.329 271.08 289.192 271.917 290.28 271.296C291.367 270.674 292.23 268.818 292.23 267.161V256.804L298.695 253.066C299.232 252.642 299.663 252.1 299.955 251.482C300.247 250.863 300.392 250.185 300.378 249.502C300.378 248.069 299.619 247.344 298.695 247.879Z" fill="#F5F5F5"/>
</svg>
