<svg width="49" height="41" viewBox="0 0 49 41" fill="none" xmlns="http://www.w3.org/2000/svg">
<path d="M38.9118 10.25L30.2647 26.3571H47.5588L38.9118 10.25ZM10.0882 10.25L1.44118 26.3571H18.7353L10.0882 10.25ZM28.5758 5.85714C28.3657 6.46726 28.0241 7.01256 27.5512 7.49302C27.0784 7.97349 26.5417 8.3205 25.9412 8.53404V38.0714H39.6324C39.8425 38.0714 40.0152 38.1401 40.1503 38.2773C40.2854 38.4146 40.3529 38.59 40.3529 38.8036V40.2679C40.3529 40.4814 40.2854 40.6568 40.1503 40.7941C40.0152 40.9314 39.8425 41 39.6324 41H9.36765C9.15748 41 8.98483 40.9314 8.84972 40.7941C8.71461 40.6568 8.64706 40.4814 8.64706 40.2679V38.8036C8.64706 38.59 8.71461 38.4146 8.84972 38.2773C8.98483 38.1401 9.15748 38.0714 9.36765 38.0714H23.0588V8.53404C22.4583 8.3205 21.9216 7.97349 21.4488 7.49302C20.9759 7.01256 20.6343 6.46726 20.4242 5.85714H9.36765C9.15748 5.85714 8.98483 5.7885 8.84972 5.65123C8.71461 5.51395 8.64706 5.33854 8.64706 5.125V3.66071C8.64706 3.44717 8.71461 3.27176 8.84972 3.13449C8.98483 2.99721 9.15748 2.92857 9.36765 2.92857H20.4242C20.7394 2.05915 21.2649 1.3537 22.0005 0.812221C22.7361 0.27074 23.5692 0 24.5 0C25.4308 0 26.2639 0.27074 26.9995 0.812221C27.7351 1.3537 28.2606 2.05915 28.5758 2.92857H39.6324C39.8425 2.92857 40.0152 2.99721 40.1503 3.13449C40.2854 3.27176 40.3529 3.44717 40.3529 3.66071V5.125C40.3529 5.33854 40.2854 5.51395 40.1503 5.65123C40.0152 5.7885 39.8425 5.85714 39.6324 5.85714H28.5758ZM24.5 6.22321C24.9954 6.22321 25.4195 6.04399 25.7723 5.68555C26.1251 5.3271 26.3015 4.8962 26.3015 4.39286C26.3015 3.88951 26.1251 3.45861 25.7723 3.10017C25.4195 2.74172 24.9954 2.5625 24.5 2.5625C24.0046 2.5625 23.5805 2.74172 23.2277 3.10017C22.8749 3.45861 22.6985 3.88951 22.6985 4.39286C22.6985 4.8962 22.8749 5.3271 23.2277 5.68555C23.5805 6.04399 24.0046 6.22321 24.5 6.22321ZM49 26.3571C49 27.4706 48.651 28.4697 47.9529 29.3544C47.2548 30.239 46.3729 30.933 45.307 31.4364C44.2411 31.9397 43.1565 32.3172 42.0531 32.5689C40.9497 32.8206 39.9026 32.9464 38.9118 32.9464C37.921 32.9464 36.8739 32.8206 35.7705 32.5689C34.667 32.3172 33.5824 31.9397 32.5165 31.4364C31.4507 30.933 30.5687 30.239 29.8706 29.3544C29.1726 28.4697 28.8235 27.4706 28.8235 26.3571C28.8235 26.1894 29.0862 25.5716 29.6117 24.5039C30.1371 23.4362 30.8277 22.1054 31.6834 20.5114C32.5391 18.9175 33.3422 17.4265 34.0928 16.0385C34.8434 14.6505 35.6091 13.2472 36.3897 11.8287C37.1703 10.4102 37.5907 9.64751 37.6507 9.54074C37.921 9.03739 38.3413 8.78571 38.9118 8.78571C39.4822 8.78571 39.9026 9.03739 40.1728 9.54074C40.2328 9.64751 40.6532 10.4102 41.4338 11.8287C42.2145 13.2472 42.9801 14.6505 43.7307 16.0385C44.4813 17.4265 45.2845 18.9175 46.1402 20.5114C46.9959 22.1054 47.6864 23.4362 48.2119 24.5039C48.7373 25.5716 49 26.1894 49 26.3571ZM20.1765 26.3571C20.1765 27.4706 19.8274 28.4697 19.1294 29.3544C18.4313 30.239 17.5493 30.933 16.4835 31.4364C15.4176 31.9397 14.3329 32.3172 13.2295 32.5689C12.1261 32.8206 11.079 32.9464 10.0882 32.9464C9.09743 32.9464 8.05032 32.8206 6.94692 32.5689C5.84352 32.3172 4.75888 31.9397 3.69301 31.4364C2.62714 30.933 1.74517 30.239 1.0471 29.3544C0.349035 28.4697 0 27.4706 0 26.3571C0 26.1894 0.262714 25.5716 0.788143 24.5039C1.31357 23.4362 2.00414 22.1054 2.85983 20.5114C3.71553 18.9175 4.51869 17.4265 5.2693 16.0385C6.01991 14.6505 6.78554 13.2472 7.56618 11.8287C8.34681 10.4102 8.76716 9.64751 8.82721 9.54074C9.09743 9.03739 9.51777 8.78571 10.0882 8.78571C10.6587 8.78571 11.079 9.03739 11.3493 9.54074C11.4093 9.64751 11.8297 10.4102 12.6103 11.8287C13.3909 13.2472 14.1566 14.6505 14.9072 16.0385C15.6578 17.4265 16.4609 18.9175 17.3166 20.5114C18.1723 22.1054 18.8629 23.4362 19.3883 24.5039C19.9138 25.5716 20.1765 26.1894 20.1765 26.3571Z" fill="#8D79F6"/>
</svg>
