<?xml version="1.0" standalone="no"?>
<!DOCTYPE svg PUBLIC "-//W3C//DTD SVG 1.1//EN" "http://www.w3.org/Graphics/SVG/1.1/DTD/svg11.dtd" >
<svg xmlns="http://www.w3.org/2000/svg" xmlns:xlink="http://www.w3.org/1999/xlink" version="1.1">
<metadata>
Created by FontForge 20170731 at Fri Jan  1 02:30:17 1904
 By ,,,
Generated by Glyphter
</metadata>
<defs>
<font id="MyFontRegular" horiz-adv-x="1024" >
  <font-face 
    font-family="My Font"
    font-weight="500"
    font-stretch="normal"
    units-per-em="1024"
    panose-1="0 0 0 0 0 0 0 0 0 0"
    ascent="819"
    descent="-205"
    x-height="878"
    cap-height="1024"
    bbox="-0.0930233 -198 1025.04 1025"
    underline-thickness="50"
    underline-position="-200"
    unicode-range="U+0020-007A"
  />
<missing-glyph horiz-adv-x="472" 
d="M0 700v-700h432v700h-432zM50 50v600h332v-600h-332z" />
    <glyph glyph-name=".notdef" horiz-adv-x="472" 
d="M0 700v-700h432v700h-432zM50 50v600h332v-600h-332z" />
    <glyph glyph-name=".notdef" horiz-adv-x="472" 
d="M0 700v-700h432v700h-432zM50 50v600h332v-600h-332z" />
    <glyph glyph-name=".null" horiz-adv-x="0" 
 />
    <glyph glyph-name="nonmarkingreturn" horiz-adv-x="341" 
 />
    <glyph glyph-name="space" unicode=" " horiz-adv-x="40" 
 />
    <glyph glyph-name="A" unicode="A" 
d="M624 891l10 10q6 5 25 24l32 32l67 66l266 -266l-132 -132zM846 579l-222 -222l-222 -222l-268 266l-44 -46l266 -266l-14 -12l-342 -76l76 342l504 502z" />
    <glyph glyph-name="B" unicode="B" 
d="M946 586h-344h-344l158 156q24 24 24 57t-24 55q-22 24 -55 24t-57 -24l-280 -280q-18 -18 -22 -44l-1 -8q-1 -3 -1 -10t1 -10l1 -8q8 -30 22 -44l280 -280q24 -24 57 -24t55 24q24 22 24 55t-24 57l-156 156h686q33 0 55 22q23 23 23 52t-23 52q-22 22 -55 22z" />
    <glyph glyph-name="C" unicode="C" 
d="M909 1024h-397h-397q-26 0 -26 -26v-972q0 -26 26 -26h794q27 0 27 26v972q0 26 -27 26zM549 83h-192h-191v854h383v-854z" />
    <glyph glyph-name="D" unicode="D" 
d="M206 86q0 -36 24 -61t58 -25h448q34 0 58 25t24 61v580h-612v-580zM614 564h52h52v-462h-104v462zM460 564h52h52v-462h-104v462zM306 564h51h51v-462h-102v462zM844 922h-89h-89v60q0 16 -12 29t-28 13h-228q-16 0 -28 -13t-12 -29v-60h-178q-32 0 -55 -23t-23 -55
q0 -31 23 -54q22 -22 55 -22h664q33 0 55 22q23 23 23 54q0 32 -23 55t-55 23z" />
    <glyph glyph-name="E" unicode="E" 
d="M106 788q103 -61 206 -124l206 -124l404 248l-408 236zM564 496q6 4 30 18q7 4 16.5 9.5t25 14.5t27.5 16q45 26 93 54l192 112v-480l-384 -240v496zM492 484v-236v-236l-416 222v486z" />
    <glyph glyph-name="F" unicode="F" 
d="M315 256q48 -12 95 -12q171 0 291 114t120 276t-120 276t-290 114q-171 0 -291 -114t-120 -275q0 -167 128 -284v-236zM805 913q43 -60 66 -135q81 -94 87 -210q10 -151 -96 -266t-267 -127q-73 -4 -145 17q-48 -7 -71 -9h-30q-30 -1 -30 0q127 -83 282 -72q41 2 93 16
l195 -127l-14 224q75 66 116 157q40 91 33 193q-8 108 -67 197q-59 87 -152 142z" />
    <glyph glyph-name="G" unicode="G" 
d="M53 1024h114h114v-229h-228v229zM392 1024h114h115v-229h-229v229zM731 1024h115h114v-229h-229v229zM55 636h114h114v-228h-228v228zM394 636h114h115v-228h-229v228zM731 636h115h114v-228h-229v228zM65 229h115h115v-229h-230v229zM406 229h114h115v-229h-229v229z
M743 229h115h114v-229h-229v229z" />
    <glyph glyph-name="H" unicode="H" 
d="M440 634h72h72v146h-144v-146zM440 244h72h72v340h-144v-340zM150 874q-150 -150 -150 -362t150 -362t362 -150t362 150t150 362t-150 362t-362 150t-287 -75zM210 210q-126 126 -126 302t126 302t302 126t302 -126t126 -302t-126 -302t-302 -126t-239 63z" />
    <glyph glyph-name="I" unicode="I" 
d="M0 0h512h512v1024h-1024v-1024zM922 102h-410h-410v820h820v-820zM220 292l212 212l212 212h-234v104h410v-410h-104v234l-424 -424z" />
    <glyph glyph-name="J" unicode="J" 
d="M1 338q9 9 26.5 26t50 48.5t60.5 58.5l138 134q38 20 70 -10l195 -177q17 -5 28 2l205 191q12 18 0 30l-79 76q-17 44 16 44l276 9q38 -2 38 -43v-241l-5 -13q-3 -7 -16 -19q-14 -12 -30 4l-88 77q-8 8 -28 -10l-277 -259q-25 -22 -54 0l-201 188q-24 8 -34 -2l-205 -186
l-1 -1q-1 -1 -2.5 -2t-3.5 -2q-5 -3 -19 -6q-13 -5 -24 9q-43 34 -36 68v6z" />
    <glyph glyph-name="K" unicode="K" 
d="M452 3q-97 13 -181 52q-83 38 -152 105l-21 20v50q0 36 3 65q2 25 7 44q1 4 7 14q3 9 12 20q10 16 26 32q12 11 33 23q105 61 122 70q55 29 58 28l3 -5l4 -13l68 -216q5 -10 9 0l41 118l-10 18q-14 23 -18 34q-5 17 -5 25q0 33 42 40q19 4 38 -3t26 -19q6 -11 1 -35
q-5 -19 -23 -47l-7 -12l7 -22q2 -6 26 -72q10 -29 12 -31t3 0l4 13l15 52l37 113q9 30 17 52q0 2 4 9l2 1l8 -4l13 -8q7 -4 14 -7q2 -2 9 -5q16 -5 61 -30q47 -26 75 -45q7 -7 12 -7l2 -1q0 -1 1 -1t2 -1l4 -4q1 -1 6.5 -6t9.5 -9q7 -6 20 -21q3 -4 10 -18q11 -22 14 -44
q3 -24 3 -81v-58l-22 -22l-17 -15q-44 -38 -101 -70q-50 -27 -114 -47q-50 -14 -109 -19q-61 -6 -111 0zM482 561q-9 2 -11 5q-2 2 -3 10q0 4 -1 8l-3 9l-4 24l-22 7l-25 12l-17 -12q-17 -12 -22 -14q-7 -3 -12 -1q-10 5 -23 21q-15 15 -17 23q0 3 4 10q1 5 9 16l13 20
l-17 43q-1 3 -6 5q-5 0 -25 4q-20 3 -24 10q-5 9 -4 31q2 25 6 32q5 6 25 8q16 3 23 6q6 2 6 4v2l1 1q1 1 1 2v4l14 34l-11 16q-10 11 -14 20q-4 7 -4 10q1 4 19 23q16 16 24 21q5 2 12 -1q3 -1 21 -14l17 -12l23 11l11 4q9 2 12 5q2 2 4 8q1 1 1 3l1 4v8q4 21 8 27q2 4 9 5
q2 1 25 1q21 1 32 -4q6 -5 9 -29l4 -23l28 -11l18 -9l9 6q20 14 30 20q7 4 12 1q10 -6 25 -21t17 -23q0 -2 -4 -9q-1 -1 -4 -7q-5 -6 -6 -10l-15 -22l9 -17l5 -13q3 -12 8 -15t28 -6q18 -2 23 -8q4 -7 4 -32q0 -24 -5 -32t-26 -9q-16 -2 -23 -4q-6 -3 -6 -7q0 -2 -3 -8
l-6 -14l-8 -19l13 -18q15 -20 14 -27q-1 -8 -19 -26t-25 -19q-8 -2 -28 14q-4 3 -8.5 6t-6.5 4l-2 1q-5 2 -7 0l-10 -5l-31 -12l-4 -24q-1 -2 -1.5 -5t-0.5 -5l-2 -6v-2q-1 -7 -4 -10q-2 -2 -8 -3q-3 -1 -19 -1h-18h-12zM539 651q25 6 50 24q26 18 39 40q12 20 17 37
q5 23 4 40q1 16 0 26q-1 8 -4 17q-17 47 -54 75q-39 27 -85 28q-56 -1 -95 -34t-49 -88q-9 -53 17 -97q25 -44 78 -64q36 -13 82 -4z" />
    <glyph glyph-name="L" unicode="L" 
d="M425 3l-16 4l-17 4l-54 15l-20 7q-15 5 -41 18q-24 11 -25 13q-2 2 -3 2q-3 0 -7 6q-4 4 -4 10q1 19 30 4q34 -18 75 -32q47 -18 66 -21l33 -5q27 -3 55 -2q39 0 62 4l30 5q17 2 49 14q39 15 55 22q25 13 30 18q3 4 -4 14l-12 19q-11 14 7 11l74 -7l12 -2q0 -4 -1 -6
l-13 -38q-1 -5 -10 -28q-6 -16 -10 -20q-2 0 -10 12l-5 10q-2 2 -3 5l-2 3q-3 3 -6 4q-3 0 -3 -2q-4 -4 -5 -4q-4 0 -8 -3l-25 -14l-6 -2q-1 -1 -3 -1q-2 -1 -4 -1l-10 -5q-10 -4 -34 -13l-26 -6q-32 -9 -57 -12t-65 -3q-51 0 -69 3zM54 132v1q-1 1 -1 4v7v10q-1 3 -1 12v16
v17q-1 30 -1 247q0 240 1 265q0 47 3 49q4 4 10 6l12 4l39 13q9 3 12 3l7 2l21 7v186q1 14 1 32q8 0 28 -7q2 -1 9 -3.5t11 -3.5q2 -1 5 -2t5 -1.5t3.5 -1.5t2.5 -1l13 -5l9 -3h4l4 -2q3 -2 30 -10q9 -3 25 -9q4 0 11 -3l37 -14q8 -2 11 -3l11 -3l60 -21q12 -4 22.5 -7
t16 -5t6.5 -2q9 -4 16 -2l89 29l34 11l49 17l23 7l40 13q7 3 10 3h2l1 1q1 1 2 1h4l38 14q9 3 12 3l12 4l20 7q22 7 32 9q12 2 16 -1l6 -2v-246l87 -26v-619l-52 15l-41 13l-9 2q-2 0 -10 3l-53 16q-1 0 -2 1q-3 0 -5 1q-1 0 -2.5 0.5t-2.5 1.5l-45 14l-86 25l-46 15l-11 3
q-2 0 -4 1q-5 0 -7 1l-90 28l-82 -28l-24 -7l-48 -16l-117 -37l-6 -2q-2 -2 -2 0q-1 0 -9 -3l-42 -14l-46 -14q-52 -16 -65 -19q-12 -3 -13 3zM101 166q4 2 8 3.5t5 1.5q2 1 6 1q0 -2 2 0q1 0 3 1t3 1l45 15q10 3 13 3q5 1 11 4q1 0 11 4q6 2 16 6q17 7 23 7q1 -1 3 0
q1 0 3 1t3 1l45 16q4 0 5 1h4l1 1l8 2l39 13l22 7l41 13l25 7l44 16l1 583l-6 -1l-41 -14l-137 -44l-24 -7l-161 -52l-20 -5l-23 -8v-292v-206q0 -85 1 -86zM876 324q0 3 -1 6q-3 10 -4 15q-1 4 -3 10.5t-3 9.5q0 1 -9 31q-13 40 -14 45l-7 24v6q-1 2 -1 5l-1 2l-1 3
q-1 2 -1 4l-21 70q-5 9 -9 28q-5 17 -6 24l-3 10l-13 46q-1 3 -3 11l-3 9q-2 4 -2 5q-3 6 -5 6l-27 7q-1 1 -2 1t-1.5 0.5t-1.5 0.5q-3 0 -4 1q-3 0 -4 1t-4 1q-7 1 -8 0q-2 -2 -6 -13l-22 -50l-14 -34l-24 -54l-10 -26l-32 -72l-16 -41q-5 -8 -1 -10q7 -2 13.5 -4t10.5 -3
t5 -1q18 -6 22 -6q3 0 6 4l3 9l2 7l14 30q2 6 4 8q1 2 9 0q4 0 7 -1q6 -2 8 -3l44 -13q9 -3 11 -3q1 0 26 -7q14 -5 24 -10q2 -2 8 -20q7 -22 12 -43q1 -9 7 -13q5 -3 20 -6q4 -1 9.5 -2.5t7.5 -1.5q15 -5 15 -4zM860 888v53v52l-7 -1h-3q-1 -1 -2 -1t-1.5 -0.5t-1.5 -0.5
t-3 -1t-3 -1l-296 -97q-11 -3 -12 -3q-4 0 -4 -1q-2 -2 2 -2q3 -1 11 -3l50 -17l6 -1l11 -3l37 -12q7 -3 10 -3l11 -3l55 -17q2 0 12 -3l127 -39zM358 363q-1 1 -3.5 3t-4.5 4l-7 6v57v40q-1 16 -2 16q-3 0 -4 -1q-2 -2 -9 -5l-39 -16l-1 -18q-2 -11 -3 -18t-6 -15
q-18 -33 -53 -48t-65 -3q-11 5 -22 16t-18 24q-7 12 -11 29q-4 16 -1 19q6 2 8 2q3 0 5 -2l5 -15q5 -14 14 -23q13 -13 20 -17q22 -9 49 2q26 10 39 36q5 13 5 23q0 11 -6 19q-20 22 -62 2l-16 -7l-14 11q-18 16 -11 17q5 0 22 9q10 4 32 18q27 18 40 37q12 16 7 33
q-1 4 -9 7t-16 3q-14 -2 -38 -15q-23 -13 -46 -33l-6 -6l-20 21l-3 5q2 6 25 19q28 15 46 20q35 11 56 4q25 -7 32 -28q13 -42 -31 -80l-14 -12l15 -1q7 -1 16 0q14 0 17 1q28 3 43 13q17 10 25 24q3 10 4 15q1 4 1 37v43l-32 -10l-7 -1q-2 1 -16 13q-13 10 -13 13q1 1 18 7
l140 45q17 4 27 9q10 3 11 2t1 -6v-30l-83 -27v-148q-1 -38 -1 -117q-2 -33 -3 -33q-4 -3 -10 0q-8 2 -17 11zM754 487q-5 2 -11 3l-6 2l-19 5l-12 4q-12 1 -12 7q-2 4 9 24l18 43q12 31 17 36q2 2 3 1q3 -3 4 -9l12 -43l23 -78q0 -3 -5 -1q-5 1 -21 6z" />
    <glyph glyph-name="M" unicode="M" 
d="M100 207q-19 4 -33 13q-13 8 -27 21q-37 34 -40 89q-2 57 39 99q18 18 37 27q21 8 45 11l22 2l5 16q8 19 18 36q13 18 27 32q22 22 43 34q23 14 49 20l11 2q10 1 18 3q20 3 27 3q1 0 3 6l2 4q1 2 3 8q1 2 1 4.5t1 3.5q18 62 64 108t107 63q34 10 63 11q27 0 63 -9
q64 -16 111 -62q48 -48 67 -108q1 -4 3.5 -14.5t4.5 -16.5q0 -3 0.5 -7.5t1 -7t0.5 -3.5q0 -7 2 -9t8 -3q2 -1 12 -1q34 -4 68 -22q35 -21 56 -47q12 -14 25 -41q9 -21 14 -48q7 -35 -4 -80q-11 -41 -37 -74q-21 -25 -50 -41q-29 -17 -62 -24h-4q-4 0 -12.5 -0.5t-19.5 -0.5
t-27.5 -0.5t-34.5 -0.5q-41 -1 -283 -1h-368zM864 324v44q0 17 -1 18q-2 0 -7 11q-4 8 -8 12l-3 3q-2 1 -5 4l-6 6h-100l-8 -7q-7 -7 -9 -11q-2 -3 -7 -5t-5 -5q-1 -4 -3 -4q-2 -2 -2 -4q0 -4 -5 -9t-5 -8q-2 -3 -5 -3q-4 -2 -5 -3q-2 -2 -23 -2h-24l-24 24l-17 17l-4 4
q-2 1 -4 3l-2 1q-2 0 -2 4t-4 4q-5 0 -5 2q-1 1 -7 3q-4 0 -5 -1q-3 -2 -1 -4q0 -4 5 -9q2 -2 4 -5l2 -2q0 -3 4 -3q3 -1 6 -6l2 -4q2 -2 3 -1q3 2 6 -3q3 -4 6 -4t3 -5q0 -6 12 -19q10 -10 11 -12q2 -8 2 -9q0 -9 1 -10t10 -3q2 -1 10 -1q5 -1 10 -1l30 -2q13 -1 15 4
q1 4 6 7q4 2 5 1t1 -9l-1 -45v-11q0 -2 15 -2q6 -1 63 -1h75v61zM591 322v24l-1 25l-8 7q-8 6 -9 6q-2 0 -2 -11q-1 -3 -1 -14q-1 -7 -1 -16q0 -41 -3 -45q-14 -3 -95 -3q-82 0 -97 3q-1 0 -1 31q-1 13 -1 103v131h197v-131l7 -7q11 -14 14 -1q2 25 1 77l-1 59q0 24 -1 25
t-37 1h-86h-122l-1 -315l248 1v50zM803 446q4 2 5 6q0 4 4 5q9 5 9 33q0 16 -3 23t-11 12t-8 9t-6 2q-7 -1 -11 1q-9 7 -15 0q-4 -3 -7 -1q-5 2 -7 1q-4 -1 -4 -5q-1 -4 -5 -4q-4 -2 -6 -6q-3 -4 -6 -7q-3 -1 -3 -7t-2 -8t-2 -11t2 -9q2 -2 2 -7q0 -6 8 -14q12 -12 16 -14
q3 -3 8 -2q2 1 7 -1q2 -2 15 0q7 1 20 4z" />
    <glyph glyph-name="N" unicode="N" 
d="M13 123q-1 -1 -3 -1q-6 0 -8 45q-2 94 -2 346q0 251 2 345q2 26 3 36q3 12 8 7l82 3h416q292 1 455 -1q68 -1 54 -12q3 0 4 -61v-318v-300q-2 -80 -3 -79q-3 -5 -9 -9q7 -2 -44 -3h-26q-36 -1 -430 -1q-368 0 -410 1zM121 169l2 10v28l-1 35h-73l-1 -34q-2 -34 1 -37
q2 -2 10 -3q8 -2 26 0h24q5 1 11 1h1zM241 169q1 0 3 8v30v36h-73v-62q1 -5 1 -12q2 -1 34 -1t35 1zM365 169l2 10v28l-1 35h-73l1 -61q1 -5 1 -12q2 -1 34 -1q33 0 36 1zM486 206v18v19h-71v-62l2 -12q0 -1 10 -1h24l34 1zM609 206v18v19h-71v-62l2 -12q0 -1 10 -1h24l34 1
zM729 170q1 1 1 11v61h-72l-1 -35q0 -25 1 -28q0 -9 1 -10q15 -2 36 -1q26 0 34 2zM853 206v18v19h-73v-36q0 -26 1 -29q0 -9 2 -9l11 -1l58 1zM974 171q4 1 2 37l-1 34h-73l-1 -35q0 -25 1 -28q0 -9 2 -9l11 -2h24q18 -2 26 0l9 2v1zM975 512v110v110h-926l-1 -373
q0 -64 1 -66l93 -1q44 -1 370 -1l463 1v220zM123 818v28l-2 9q-14 2 -36 2q-29 -2 -35 -3q-2 -10 -2 -36q-1 -22 1 -36h12l25 -1l36 1zM244 818q0 12 -1 19v19h-71l-1 -75h73v37zM367 818v32q-1 6 -4 6h-13h-55l-2 -63q0 -10 1 -11q0 -1 11 -1l61 1zM486 818q0 12 -1 19v19
h-69l-1 -75h71v37zM609 818q0 12 -1 19v19h-69l-1 -75h71v37zM730 817v26q0 11 -1 12l-4 1q-4 0 -12 0.5t-17 0.5q-22 0 -36 -2q-2 0 -2 -7q-1 -3 -1 -29v-25l2 -11q0 -1 11 -1l25 -1l35 1v35zM853 818v19l-1 19h-71l-1 -75h73v37zM976 816q2 34 -1 37q-1 1 -9 3q-3 1 -26 1
l-24 -1h-12q-2 -2 -2 -8q-1 -3 -1 -29v-25l2 -11q0 -1 11 -1l26 -1l35 1zM499 335q-6 3 -10 10q-2 2 -4 5q-1 1 -9 1l-271 -11l1 323l9 1q5 0 7 2q1 1 1 8v8l25 3q11 2 32 3l40 3q66 2 83 1q38 -2 83 -7q6 0 12 -0.5t9.5 -1t4.5 -0.5t4.5 0.5t9.5 1t12 0.5q46 5 84 7
q17 1 82 -1l40 -3q21 -1 32 -3l25 -3v-8q0 -6 2 -8t7 -2l8 -1l1 -323l-271 11q-7 0 -8 -1q-3 -1 -5 -6q-6 -6 -10 -8q-7 -4 -13 -4q-5 0 -13 3zM363 387q27 0 89 -2q35 -2 46 -5q2 -5 3 20v127l-1 147l-19 2q-40 5 -79 7q-17 1 -83 -1l-39 -3l-28 -2l-20 -3v-248
q0 -42 1 -43q0 -3 25 0q14 1 39 3q48 0 66 1zM652 387q27 0 89 -2q35 -2 46 -5q3 0 4 21v126v148l-53 5l-37 2q-58 2 -75 1q-40 -2 -80 -6l-23 -2v-295l25 3q40 3 104 4zM255 448q0 10 1 11l12 2q14 4 48 7l50 2q1 0 51 -2q36 -3 47 -7l13 -2v-11q0 -10 -2 -10l-25 3
q-23 4 -84 4q-62 0 -83 -4t-25 -3t-3 10zM255 503q0 10 2 12l25 4q40 6 86 6q51 0 86 -7l23 -3v-12q1 -7 0 -9q-2 -3 -3 -2l-29 5q-20 2 -31 3q-8 1 -48 1t-47 -1q-21 -2 -32 -3l-28 -5q-3 -2 -3 2q-1 1 -1 9zM255 587v19v19l14 2q14 2 46 7q9 1 52 1q42 0 51 -1
q32 -5 46 -7l13 -2v-75l-4 1q-45 9 -108 9q-65 0 -105 -9l-5 -2v38zM544 448v5v6l13 2q34 7 89 8q36 1 87 -4q28 -5 32 -6q5 -3 5 -11q0 -9 -4 -10t-25 3q-12 2 -29 3q-8 1 -55 1t-55 -1q-18 -2 -30 -3q-21 -4 -25 -3t-3 10zM545 503v6v5l22 4q35 7 90 7q54 0 89 -7l22 -4
v-11v-8q-2 -2 -4 -2l-28 4q-45 6 -88 5q-41 -1 -86 -7l-17 -3q-1 1 0 11zM544 558q-1 7 4 12q17 3 29 5q20 2 31 3q8 1 49 1t49 -1q22 -1 31 -3q12 -2 29 -5q4 -3 3 -12v-11l-8 2q-43 7 -95 8q-42 1 -88 -5l-32 -4q-2 2 -2 10zM545 604q-1 1 -1 11v10l14 2q35 7 86 8
q34 1 85 -4q29 -3 35 -6q5 -3 5 -12q-1 -10 -3 -10q-25 6 -50 8q-21 2 -62 0q-47 0 -54 -1q-16 -2 -30 -3l-17 -3q-7 -1 -7 0h-1z" />
    <glyph glyph-name="O" unicode="O" horiz-adv-x="40" 
 />
    <glyph glyph-name="P" unicode="P" 
d="M587 47q8 14 8 33t-9 34q-20 35 -66 44q-48 8 -83 -17q-30 -19 -33 -54q-2 -29 14 -49q24 -33 71 -38q33 -2 58 11q26 12 40 36zM377 99l9 15l15 27q5 10 5 16q0 5 -3 16q-6 20 -5 32q2 19 14 37q8 14 8 20q2 12 -9 21q-29 24 -57 -4q-11 -11 -20 -34q-11 -28 -8 -54
q4 -49 42 -84zM619 101l8 7q29 26 39 65q2 10 2 28t-2 28q-13 52 -44 64q-6 2 -14 2q-7 0 -15 -2q-16 -7 -19 -15q-8 -14 6 -32q12 -16 15 -31q5 -24 -4 -43q-4 -8 -1 -16q2 -9 18 -34zM520 184q40 0 42 1q12 5 9 18q0 11 -13 33q-1 2 -5 8q-3 4 -3 6q-6 19 0 34q8 14 18 20
q14 9 23 10q2 0 4 1h3q12 4 30 -1q18 -6 31 -22q4 -5 19 -31q16 -27 17 -31q0 -1 1.5 -1.5t4 0.5t5.5 2q38 12 79 53l10 10l3 3q0 2 10 13q55 68 61 133q5 20 0 22q0 2 -17 0q-44 -3 -61 -3q-22 1 -40 16q-16 15 -16 37q2 19 18 32q12 11 21 12q3 0 4 1t24 4q44 4 48 12
q5 8 -10 34t-39 54q-19 25 -21 25l-33 -29q-3 -3 -5 -4l-1 -1q0 -2 -10 -12t-19 -14q-14 -8 -27 -8q-9 -1 -28 4q-21 7 -30 24q-9 16 -3 35q4 14 43 58l8 10q0 1 -36 13q-77 24 -157 18h-8q-3 -1 -7 -1q-2 -1 -4 -1q-40 -4 -82 -18q-28 -9 -28 -11l12 -15q22 -25 22 -26v-1
q2 0 6 -7q6 -10 7 -13q5 -14 2 -24q-6 -29 -43 -39q-17 -5 -34 0q-17 6 -17 8l-1 1q-1 0 -8 6q-7 4 -7 6v1q-1 0 -7 6q-5 7 -21 21q-2 2 -8 7t-8 8q-1 0 -10 -9q-3 -3 -4 -5q-2 -4 -3 -5l-3 -3q-20 -27 -38 -54q-27 -38 -26 -39l13 -2l27 -6q14 -3 16 -3q8 0 10 -1
q29 -2 48 -16q16 -13 16 -35q0 -26 -27 -41q-18 -8 -38 -8q-23 0 -64 3q-12 1 -12 0l1 -10q7 -52 28 -92q9 -19 30 -48q0 -1 1 -2l4 -4q24 -32 70 -63l12 -7q3 -3 6 1q4 13 25 44q14 18 34 24q6 2 20 2q12 0 22 -2q24 -8 33 -24q6 -10 6 -22t-9 -28q-16 -28 -12 -39
q1 -4 16 -9q21 -4 36 -4h44zM870 492q64 21 89 69q8 16 10 24q1 3 -2 3q-49 0 -71 -5l-4 -3l-4 -4l-3 -2q-14 -12 -26 -19q-21 -11 -51 -13q-35 -1 -43 -15q-7 -12 -2 -25q5 -15 30 -19q34 -4 77 9zM227 484q16 0 22 3q12 3 17 14q4 7 3 18q-3 12 -10 16q-3 3 -8 5
q-13 4 -24 3q-11 0 -15 1q-35 3 -64 26q-13 10 -28 12q-50 5 -64 5l4 -10q26 -63 104 -85q19 -5 40 -7q3 -1 23 -1zM145 617q19 9 34 28q23 37 4 72q-15 30 -51 42q-32 11 -65 3q-47 -12 -64 -54q-2 -5 -3 -20q0 -19 4 -28q7 -21 28 -35q19 -14 48 -19q35 -5 65 11zM953 609
q52 10 69 56q2 8 2 21t-2 21q-8 21 -26 37q-17 13 -40 19q-10 2 -27 2q-8 1 -25 -1q-52 -13 -67 -55q-8 -20 -2 -38q4 -22 25 -40q24 -21 57 -25q19 -2 36 3zM697 644q11 3 18 16q25 37 67 45q20 5 24 9q6 6 12 14q2 2 7.5 9t8.5 10q6 7 9 12l1 3l-8 2q-62 14 -128 -21
q-16 -11 -27 -18q-24 -21 -31 -40q-8 -22 4 -32q5 -6 22 -11q12 -2 21 2zM362 651q21 11 14 33q-9 28 -46 53q-47 32 -108 32q-31 0 -46 -6l4 -6q6 -8 12 -14q10 -12 14 -16q13 -14 33 -19q41 -8 68 -41q14 -17 25 -20q14 -4 30 4z" />
    <glyph glyph-name="Q" unicode="Q" 
d="M865 399v-135v-267q3 -36 -13.5 -55t-34.5 -20l-18 -1h-87q-19 1 -39 -4t-30 -11l-10 -6l-172 -98l-195 102q-15 8 -52.5 11t-67.5 3l-30 -1q-36 2 -52 19.5t-14 34.5l1 17v355q1 22 16 35t29 15l14 2l621 4h107h27zM749 494l-20 -77v-6t3 -8.5t13 1.5l63 50l111 174
l-60 37zM888 708l-19 -28l62 -38l16 25q7 9 -1 17l-39 26q-10 7 -19 -2zM689 409q0 -32 -46.5 -46t-113 -11t-133 10.5t-112.5 16.5l-47 9q0 89 67.5 163t159.5 74q93 0 159 -64.5t66 -151.5zM363 726q0 -42 30 -72.5t73 -30.5q44 0 75 29.5t31 73.5t-30 72t-76 28
q-45 0 -74 -29t-29 -71zM185 302v-43h565v43h-565zM190 188v-43h555v43h-555zM192 76v-42h553v42h-553z" />
    <glyph glyph-name="R" unicode="R" horiz-adv-x="40" 
 />
    <glyph glyph-name="a" unicode="a" 
d="M669 373q81 132 134 132h146q62 -26 75 -79v-227h-294l-4 138q-4 -5 -12 -9l-24 -14q-13 -10 -21 -10l-111 4l-6 45l-130 134q-12 13 14 18l136 -134zM919 565q-29 -27 -68 -27q-40 0 -68 28q-29 29 -29 68q0 40 28 68q27 28 68 28t69 -28t28 -69t-28 -68zM444 434v-89
v-89h-399v525h399v-260l45 -38v343h-489v-613h489v181zM304 544h-22h-22v48q0 17 -16 17q-17 0 -17 -17v-48h-42q-17 0 -17 -15q0 -16 17 -16h44v-42q0 -14 16 -14q15 0 15 16v38h44q16 0 16 17q0 16 -16 16z" />
    <glyph glyph-name="b" unicode="b" 
d="M477 606q0 -68 -47 -115q-46 -48 -114 -48t-115 48q-48 47 -48 114t48 116q47 48 115 48t114 -48q47 -50 47 -115zM39 89l5 -4l5 -4q27 -19 33 -22q20 -13 53 -27q27 -13 75 -22q44 -9 92 -9q58 0 109 9q54 9 81 22q38 18 55 27q6 3 33 22l10 8l-22 183q0 32 -22 57
q-22 24 -51 24h-360q-30 0 -51 -23q-21 -24 -21 -58zM763 1025q-93 0 -158 -57q-66 -58 -66 -139q0 -82 66 -139q64 -58 158 -58q90 0 158 59q65 59 65 139q0 79 -65 138q-66 57 -158 57zM849 801h-30h-30l2 -54q0 -20 -22 -20t-22 20v54h-59q-22 0 -22 21t22 21h59v65
q0 22 21 22t21 -22v-65h60q20 0 20 -21t-20 -21z" />
    <glyph glyph-name="c" unicode="c" 
d="M84 1024q-21 0 -34 -13q-14 -14 -14 -33v-838q0 -41 52 -90q53 -50 92 -50h734q74 0 74 74v804q0 18 -29 45t-45 27v-804q0 -72 -72 -72h-586q-17 4 -42 26q-26 23 -32 46h586q42 0 58 13t16 61v730q0 40 -16 56q-16 18 -58 18h-684zM256 804h183h183v-146h-366v146z" />
    <glyph glyph-name="d" unicode="d" 
d="M886 930q-10 62 -78 72q-139 22 -296 22t-296 -22q-68 -10 -78 -72l-12 -92q-18 -145 -23 -192q-11 -106 -15 -164v-330q0 -39 40 -46q26 -5 26 -30v-36q0 -40 68 -40h16q72 0 72 40v38q0 28 28 28h348q28 0 28 -28v-38q0 -40 70 -40h14q72 0 72 40v36q0 25 26 30
q40 7 40 46v330q-4 58 -15 164q-5 47 -23 192zM290 948h222h222q24 0 24 -25t-24 -25h-444q-24 0 -24 25t24 25zM222 226q-22 0 -37 15t-15 37t15 37t36 15t36 -15t15 -37q0 -20 -14 -37q-14 -15 -36 -15zM640 356v-32v-32q0 -18 -19 -18t-19 18v22l-136 -132q-10 -6 -22 -4
q0 2 -2 2t-4 2l-48 46q-16 12 0 24q12 14 26 0l36 -32l124 120h-24q-18 0 -18 17t18 17h70q4 0 6 -2q5 0 10 -8q0 -2 2 -4v-4zM765 241q-15 15 -15 37t15 37t37 15t37 -15t15 -37t-15 -37t-37 -15q-21 0 -29 8zM810 458h-298h-298q-22 0 -35 16q-13 14 -11 36l26 282
q5 44 48 44h540q43 0 48 -44l26 -282q2 -22 -11 -36q-13 -16 -35 -16z" />
    <glyph glyph-name="e" unicode="e" 
d="M669 373q81 132 134 132h146q62 -26 75 -79v-227h-294l-4 138q-4 -5 -12 -9l-24 -14q-13 -10 -21 -10l-111 4l-6 45l-130 134q-12 13 14 18l136 -134zM919 565q-29 -27 -68 -27q-40 0 -68 28q-29 29 -29 68q0 40 28 68q27 28 68 28t69 -28t28 -69t-28 -68zM444 434v-89
v-89h-399v525h399v-260l45 -38v343h-489v-613h489v181z" />
    <glyph glyph-name="f" unicode="f" 
d="M390 1024q-162 0 -276 -108t-114 -261q0 -157 122 -267v-225l178 133q41 -10 90 -10q161 0 275 108t114 261t-114 261t-275 108zM390 349q-59 0 -111 16l-95 -77v55l2 73q-125 92 -125 239q0 125 96 217q94 91 232 91q137 0 231 -91q96 -92 96 -217q0 -127 -96 -216
q-96 -90 -230 -90zM840 869q39 -65 51 -133q72 -92 72 -204q0 -183 -163 -289v-121l-43 33h2l-59 45q-49 -16 -106 -16q-64 0 -137 24q-36 -4 -67 -4q-30 0 -55 4q116 -86 259 -86q37 0 89 11l178 -133v212q163 120 163 320q0 211 -184 337z" />
    <glyph glyph-name="g" unicode="g" 
d="M813 456q-1 124 -89 212t-211 88q-124 0 -212 -88t-88 -212q0 -84 43 -154q42 -71 115 -108v-162h284v162q72 38 115 108q42 72 43 154zM607 78h-94h-94v96q45 -16 94 -16q47 0 94 16v-96zM513 204q-104 0 -178 74q-75 74 -75 178t75 178q74 74 178 74q101 0 178 -74
q74 -74 74 -178q-1 -104 -75 -178t-177 -74zM419 32h94h94v-32h-188v32zM513 1024q30 0 32 -32v-142q0 -12 -9 -21q-10 -9 -24 -9t-22 9q-9 9 -9 21v142q-2 32 32 32zM1005 740q15 -26 -12 -42l-124 -72q-29 -16 -42 12q-15 28 12 44l122 70q28 13 44 -12zM199 638
q-15 -28 -42 -12l-124 72q-29 16 -12 42q16 25 44 12l122 -70q25 -16 12 -44z" />
    <glyph glyph-name="h" unicode="h" 
d="M672 611q0 -64 -45 -109q-46 -46 -111 -46t-111 46q-47 45 -47 110q0 63 47 110q47 45 111 45t111 -45q45 -46 45 -111zM249 113q1 0 5 -4l5 -4l33 -21q17 -10 51 -25q29 -12 72 -21q42 -9 89 -9q56 0 105 9t79 21q24 9 53 25l32 19l8 8l-22 179q0 32 -21 54
q-22 22 -50 22h-346q-29 0 -48 -22q-21 -22 -21 -54zM259 410q-31 -31 -76 -31t-76 31q-32 32 -32 76t32 76q31 31 76 31t76 -31q32 -32 32 -76t-32 -76zM231 326h-84h-84q-20 0 -34 -14q-13 -13 -13 -35l-16 -115l8 -6q10 -6 22 -12q24 -13 34 -16q24 -10 50 -14
q27 -7 62 -7q12 0 17 1l15 1q7 158 23 217zM766 414q31 -31 76 -31t76 31t31 76t-31 76t-76 31t-76 -31t-31 -76t16 -60zM795 332h83h83q20 0 34 -14q13 -13 13 -37l16 -113q-61 -55 -174 -55h-34q0 121 -21 219zM391 982q47 -28 60 -35l61 -34l121 69v-144h-242v144z
M401 996l1 -1l4 -2l4 -2l5 -2.5t7.5 -4t7.5 -4.5q22 -14 26 -16l56 -31l111 63h-222z" />
    <glyph glyph-name="i" unicode="i" 
d="M205 126v385v385q0 22 22 22l491 -64v100l-539 70q-32 0 -54 -22t-22 -54v-872q0 -32 22 -54t54 -22l539 70v96l-491 -64q-22 0 -22 24zM921 511q0 2 -1 2t-1 2q0 20 -12 32q-8 8 -20 12l-143 144q-14 14 -33 14t-33 -14t-14 -33t14 -33l76 -76h-294q-18 0 -35 -14
q-15 -13 -15 -36q0 -22 15 -37t35 -15h294l-76 -74q-14 -14 -14 -33t14 -33t33 -14t33 14l143 144q10 4 20 10q13 18 12 34q0 2 1 2t1 1v1z" />
    <glyph glyph-name="j" unicode="j" 
d="M0 759v-247v-246h1024v493h-1024zM417 415q-36 42 -36 99q0 56 36 98q35 41 86 41q52 0 86 -40t34 -99q0 -60 -34 -100q-35 -41 -86 -41t-86 42zM75 684h142h142q-49 -49 -61 -116h-107v-113h109q18 -68 71 -112h-296v341zM951 343h-153h-153q53 47 71 112h117v113h-115
q-12 69 -63 116h296v-341z" />
    <glyph glyph-name="k" unicode="k" 
d="M150 874q-150 -150 -150 -362t150 -362t362 -150t362 150t150 362t-150 362t-362 150t-287 -75zM764 174q-2 6 -6 45l-6 45q0 31 -20 54q-19 22 -48 22h-344q-29 0 -48 -22q-20 -23 -20 -54l-12 -90q-80 59 -125 147q-45 89 -45 191q0 176 123 299t299 123t299 -123
t123 -299q0 -102 -45 -191q-45 -88 -125 -147zM621 473q-45 -45 -109 -45t-109 45t-45 109t45 109t109 45t109 -45t45 -109t-22 -86z" />
    <glyph glyph-name="l" unicode="l" 
d="M672 726q0 -65 -45 -110q-46 -46 -111 -46t-111 46q-47 45 -47 110q0 64 47 111q47 45 111 45t111 -45q45 -47 45 -111zM249 228q3 -3 5 -4l5 -4q11 -8 33 -21q28 -17 51 -26q29 -12 72 -21q42 -9 89 -9q56 0 105 9t79 21q27 11 53 26q5 4 16 11t16 10l8 8l-22 176
q0 33 -21 55q-22 22 -50 22h-346q-29 0 -48 -22q-21 -22 -21 -55zM291 600q0 -43 -32 -75t-76 -32t-76 32t-32 76t32 76q31 31 76 31t76 -31q32 -32 32 -77zM231 440h-84h-84q-20 0 -34 -14q-13 -13 -13 -34l-16 -115l8 -4q6 -8 22 -15q24 -13 34 -16q24 -10 50 -14
q30 -6 62 -6q12 0 17 1l15 1q7 158 23 216zM735 604q0 -44 31 -75q32 -32 76 -32t76 32q31 31 31 76t-31 76t-76 31t-76 -31t-31 -77zM795 447h83h83q20 0 34 -14q13 -13 13 -37l16 -113q-61 -55 -174 -55h-34q0 122 -21 219z" />
    <glyph glyph-name="m" unicode="m" 
d="M908 188q116 140 116 324t-116 324v2l-72 72v-2q-140 116 -324 116t-324 -116l-2 2l-74 -72l4 -2q-116 -140 -116 -324t116 -324l-2 -2l72 -72l2 2q140 -116 322 -116q181 0 324 116l2 -2l72 72v2zM834 260l-6 7l-19 19l-26 26l-51 52q44 68 44 147q0 81 -44 149l102 104
q86 -113 86 -252t-86 -252zM654 366q-58 -58 -144 -58q-84 0 -143 60q-59 62 -59 144t59 144q59 60 143 60q86 0 144 -58l4 -4q58 -58 58 -143q0 -83 -58 -141zM762 836q-31 -31 -51 -52l-51 -52q-67 46 -149 46t-149 -46l-102 104q110 86 251 86t251 -86zM188 764
q31 -31 51 -52l51 -52q-46 -67 -46 -149q0 -83 46 -147l-102 -104q-86 110 -86 251q0 140 86 253zM260 188l7 6l19 19l26 26l52 51q64 -46 147 -46q82 0 149 46l102 -102q-110 -86 -251 -86t-251 86z" />
    <glyph glyph-name="n" unicode="n" 
d="M836 1024h-324h-324q-30 0 -56 -23q-24 -23 -24 -55v-868q0 -32 24 -55q26 -23 56 -23h648q30 0 56 23q24 22 24 55v868q0 32 -24 55q-26 23 -56 23zM856 98q0 -16 -11 -27t-27 -11h-612q-16 0 -27 11t-11 27v828q0 16 11 27t27 11h612q16 0 27 -11t11 -27v-828zM316 414
q-28 0 -49 -21t-21 -49t21 -48q23 -20 49 -20q28 0 48 20t20 48q0 26 -20 49q-20 21 -48 21zM316 322q-24 0 -24 23t23 23t23 -23t-22 -23zM728 808h-128h-128q-28 0 -28 -30t28 -30h256q12 0 21 9t9 21t-9 21t-21 9zM316 630q-26 0 -49 -20q-21 -20 -21 -48t21 -49t49 -21
t48 21q20 23 20 49q0 28 -20 48t-48 20zM316 538q-24 0 -24 23t23 23t23 -23t-22 -23zM728 590h-128h-128q-28 0 -28 -29t28 -29h256q30 0 30 29t-30 29zM316 846q-26 0 -49 -20q-21 -20 -21 -48t21 -49t49 -21t48 21q20 23 20 49q0 28 -20 48t-48 20zM316 756q-24 0 -24 22
t23 22t23 -22t-22 -22zM610 374h-69h-69q-28 0 -28 -29t28 -29h138q30 0 30 28q0 12 -9 21t-21 9z" />
    <glyph glyph-name="o" unicode="o" 
d="M293 380q-27 0 -45 -18t-18 -45t19 -45q19 -19 45 -19q25 0 43 19q18 18 18 44t-18 45t-44 19zM293 296q-21 0 -21 21t21 21q20 0 20 -21t-20 -21zM293 579q-27 0 -45 -18t-18 -46t18 -46t45 -18q26 0 44 19q18 20 18 45t-18 45q-18 19 -44 19zM293 495q-21 0 -21 21
t21 21q20 0 20 -21t-20 -21zM437 543h117h117q28 0 28 -28q0 -8 -8 -19q-7 -9 -20 -9h-234q-11 0 -18 9q-8 11 -8 19q0 28 26 28zM293 777q-25 0 -44 -18q-19 -19 -19 -46t18 -45t45 -18q26 0 44 19t18 45t-18 45q-18 18 -44 18zM293 692q-21 0 -21 21t21 21q20 0 20 -21
t-20 -21zM437 344h63h64q26 0 26 -27t-26 -27h-127q-26 0 -26 27t26 27zM635 975q-49 -49 -49 -120q0 -70 49 -119q48 -50 118 -50q69 0 119 50t50 119q0 70 -50 120q-49 49 -119 49t-118 -49zM832 831h-25h-24v-48q0 -31 -24 -31t-24 31v48h-50q-32 0 -32 24t32 24h50v54
q0 31 24 31q9 0 16 -10q8 -11 8 -21v-54h49q32 0 32 -24t-32 -24zM788 660v-284v-285q0 -16 -10 -26q-11 -11 -25 -11h-559q-16 0 -27 12q-11 14 -11 25v758q0 14 11 25t27 11h360q4 33 14 54h-392q-32 0 -53 -21t-20 -51v-793q-1 -32 20 -53t53 -21h595q29 0 51 21t22 53
v604q-29 -12 -56 -18zM590 742h-77h-76q-11 0 -18 -9q-8 -11 -8 -19q0 -28 26 -28h212q-35 22 -59 56z" />
    <glyph glyph-name="p" unicode="p" 
d="M163 1024q-36 0 -61 -25t-25 -59v-856q0 -34 25 -59t61 -25h700q36 0 60 25t24 59v524q0 30 -20 48l-290 344q-24 24 -56 24h-418zM209 100q-13 0 -20 9q-8 11 -8 19v764q0 28 28 28h364q28 0 48 -20t20 -48v-148q0 -14 11 -28q10 -12 27 -12h112q23 2 39 -16
q17 -20 17 -42v-478q0 -28 -30 -28h-608zM309 768h102h102q26 0 26 -26v-52q0 -26 -26 -26h-204q-26 0 -26 26v52q0 26 26 26zM309 562h205h205q24 0 24 -26v-50q0 -26 -24 -26h-410q-26 0 -26 26v50q0 26 26 26zM309 358h205h205q24 0 24 -26v-52q0 -24 -24 -24h-410
q-26 0 -26 24v52q0 26 26 26z" />
    <glyph glyph-name="q" unicode="q" 
d="M763 1025q92 0 158 -57q65 -59 65 -138q0 -80 -65 -139q-68 -59 -158 -59q-94 0 -158 58q-66 57 -66 139q0 81 66 139q65 57 158 57zM622 689v-57v-56l141 70zM477 606q0 -68 -47 -115q-46 -48 -114 -48t-115 48q-48 47 -48 114t48 116q47 48 115 48t114 -48
q47 -50 47 -115zM39 89l5 -4l5 -4q27 -19 33 -22q20 -13 53 -27q27 -13 75 -22q44 -9 92 -9q58 0 109 9q54 9 81 22q38 18 55 27q6 3 33 22l10 8l-22 183q0 32 -22 57q-22 24 -51 24h-360q-30 0 -51 -23q-21 -24 -21 -58z" />
    <glyph glyph-name="r" unicode="r" 
d="M446 299q82 82 178 64q183 -36 310 100q92 97 90 231q-1 132 -94 228q-98 100 -238 101q-137 1 -240 -97q-126 -126 -90 -304q20 -92 -48 -159l-281 -282q-30 -30 -32 -73q-1 -41 28 -74q29 -30 74 -32q43 -1 75 29l26 28q12 12 12 28l2 20q0 13 10 26l46 46q13 10 26 10
h20q12 0 28 12q16 16 16 34v22q0 12 9 21t23 9h20q18 0 30 12zM634 738q0 44 30 75t74 31t74 -32q32 -30 32 -74t-31 -74t-75 -30t-74 30t-30 74z" />
    <glyph glyph-name="s" unicode="s" 
d="M878 709l33 33l32 32l81 -81l-65 -64zM937 606l-20 -20q-28 -28 -50 -49t-67 -66l-136 -136l-79 79l-22 -22l79 -79l-7 -6l-141 -63l63 142l299 301zM0 645h10h10q12 64 35 84q22 19 91 19h44v-399q0 -52 -12 -64q-11 -13 -63 -17v-16h233v16q-51 2 -65 16t-14 55v409h45
q65 0 91 -20q19 -19 36 -83h18l-4 135h-451z" />
    <glyph glyph-name="t" unicode="t" 
d="M820 300q-59 0 -102 -40l-364 214q4 19 4 36t-4 36l360 212q47 -42 106 -42q64 0 108 45q44 47 44 109t-44 109q-44 45 -108 45t-109 -45t-45 -109q0 -17 4 -36l-360 -212q-46 42 -106 42q-64 0 -108 -45q-44 -47 -44 -109t44 -109q44 -45 108 -45q60 0 106 42l364 -214
q-4 -15 -4 -34q0 -62 44 -106t106 -44q61 0 105 44q43 43 43 106t-43 106q-44 44 -105 44z" />
    <glyph glyph-name="u" unicode="u" 
d="M308 204q-44 0 -73 -30q-29 -32 -29 -72t29 -72q29 -30 72 -30t73 30t30 72t-30 72t-72 30zM0 1024v-51v-51h102l184 -390l-68 -124q-14 -26 -14 -50q0 -42 30 -72t74 -30h614v102h-594q-12 0 -12 14l2 6l46 82h380q64 0 90 54l184 332q6 10 6 24q0 22 -16 37t-36 15
h-756l-48 102h-168zM820 204q-44 0 -73 -30q-29 -32 -29 -72t29 -72q29 -30 72 -30t73 30t30 72t-30 72t-72 30z" />
    <glyph glyph-name="v" unicode="v" 
d="M150 874q-150 -150 -150 -362t150 -362t362 -150t362 150t150 362t-150 362t-362 150t-287 -75zM554 688q-27 0 -43 16q-17 17 -17 42q0 29 23 55q22 25 59 25q14 0 25 -4q13 -4 25 -19t12 -37q0 -34 -27 -56q-25 -22 -57 -22zM628 298q-84 -70 -152 -90q-66 -18 -72 38
q0 14 11 77q9 45 25 117l16 60q0 5 -5 7t-16 -3q-3 -2 -10 -3l-4 -2t-3.5 -2t-2.5 -1q-9 -5 -23 -12q-18 -12 -26 8q-4 12 6 22q92 68 176 92q50 12 52 -42q0 -15 -58 -244v-5q-2 -32 64 11q14 6 24 -4q8 -14 -2 -24z" />
    <glyph glyph-name="w" unicode="w" 
d="M170 1024h342h342q34 0 59 -25t25 -60t-25 -60t-59 -25h-684q-34 0 -59 25t-25 60t25 60t59 25zM576 828q1 -1 126 -134l126 -134q26 -26 26 -66q0 -39 -26 -68h-632q-26 29 -26 67t26 67l252 268q28 28 64 28t64 -28zM573 487q25 -25 25 -61v-340q0 -36 -25 -61t-61 -25
t-61 25t-25 61v340q0 36 25 61t61 25t49 -12z" />
    <glyph glyph-name="x" unicode="x" 
d="M439 478q-47 -48 -111 -48q-65 0 -111 49t-46 117t46 117t111 49q64 0 111 -48q46 -46 46 -118t-46 -118zM59 66l5 -3l5 -3l11 -6l22 -10q2 -1 52 -20q25 -8 73 -17q38 -7 90 -7q62 0 105 7q51 7 79 17q39 13 53 20l22 10l11 6l8 6l-22 188q0 34 -21 58t-49 24h-350
q-28 0 -49 -24t-21 -58zM759 1024q-84 0 -144 -57t-60 -137t60 -138q58 -58 145 -58q85 0 145 57t60 138t-60 138t-146 57zM851 804h-91h-91q-22 0 -22 25t22 25h182q22 0 22 -25t-22 -25z" />
    <glyph glyph-name="y" unicode="y" 
d="M706 822q0 84 -57 143t-137 59t-137 -59t-57 -142t57 -142t137 -59t137 59t57 141zM814 410q0 38 -45 63q-43 25 -85 25h-294q-46 0 -113 -26q-65 -26 -65 -62l-30 -300l14 -10q13 -13 39 -28q15 -11 63 -32q30 -14 89 -28q53 -12 111 -12q68 0 129 12q64 13 98 28
q39 17 65 32q22 13 40 26l12 10zM654 216h-50h-50v-100q0 -18 -12 -30t-29 -12t-30 12t-13 30v100h-100q-16 0 -28 12t-12 29t12 29t28 12h100v100q0 16 13 29t30 13t29 -13t12 -29v-100h100q16 0 29 -12t13 -29t-13 -29t-29 -12z" />
    <glyph glyph-name="z" unicode="z" 
d="M78 586h344h344l-158 156q-22 22 -22 57q0 33 22 55q24 24 57 24t55 -24l280 -280q18 -18 22 -44q2 -10 2 -18t-2 -18q-4 -26 -22 -44l-280 -280q-22 -24 -55 -24t-57 24q-22 22 -22 55q0 35 22 57l156 156h-686q-33 0 -55 22q-23 23 -23 52t23 52q22 22 55 22z" />
  </font>
</defs>
</svg>
